G04 DipTrace 2.4.0.1*
%INBottomSilk.gbr*%
%MOMM*%
%ADD89C,0.157*%
%ADD91C,0.118*%
%ADD92C,0.314*%
%FSLAX53Y53*%
G04*
G71*
G90*
G75*
G01*
%LNBotSilk*%
%LPD*%
X74436Y26011D2*
D91*
X75202D1*
Y25574D1*
X74436Y25120D2*
X74473Y25193D1*
X74546Y25265D1*
X74618Y25303D1*
X74728Y25339D1*
X74911D1*
X75019Y25303D1*
X75092Y25265D1*
X75165Y25193D1*
X75202Y25120D1*
Y24974D1*
X75165Y24902D1*
X75092Y24828D1*
X75019Y24792D1*
X74911Y24756D1*
X74728D1*
X74618Y24792D1*
X74546Y24828D1*
X74473Y24902D1*
X74436Y24974D1*
Y25120D1*
Y24010D2*
X75202D1*
X74436Y24521D1*
X75202D1*
X74618Y23228D2*
X74546Y23264D1*
X74473Y23338D1*
X74436Y23410D1*
Y23556D1*
X74473Y23629D1*
X74546Y23702D1*
X74618Y23739D1*
X74728Y23775D1*
X74911D1*
X75019Y23739D1*
X75092Y23702D1*
X75165Y23629D1*
X75202Y23556D1*
Y23410D1*
X75165Y23338D1*
X75092Y23264D1*
X75019Y23228D1*
X74911D1*
Y23410D1*
X74436Y22252D2*
X75202D1*
Y21815D1*
X74436Y21106D2*
Y21580D1*
X75202D1*
Y21106D1*
X74801Y21580D2*
Y21288D1*
X75202Y20287D2*
X74436Y20580D1*
X75202Y20871D1*
X74947Y20762D2*
Y20397D1*
X74436Y20052D2*
X75202D1*
Y19797D1*
X75165Y19687D1*
X75092Y19614D1*
X75019Y19578D1*
X74911Y19542D1*
X74728D1*
X74618Y19578D1*
X74546Y19614D1*
X74473Y19687D1*
X74436Y19797D1*
Y20052D1*
X74546Y18796D2*
X74473Y18868D1*
X74436Y18978D1*
Y19124D1*
X74473Y19233D1*
X74546Y19306D1*
X74618D1*
X74692Y19269D1*
X74728Y19233D1*
X74764Y19161D1*
X74837Y18942D1*
X74873Y18868D1*
X74911Y18832D1*
X74983Y18796D1*
X75092D1*
X75165Y18868D1*
X75202Y18978D1*
Y19124D1*
X75165Y19233D1*
X75092Y19306D1*
X74436Y17565D2*
X75202D1*
X74436Y17820D2*
Y17309D1*
Y17074D2*
X75202D1*
X74436Y16564D2*
X75202D1*
X74801Y17074D2*
Y16564D1*
X74436Y16328D2*
X75202D1*
X74546Y15583D2*
X74473Y15655D1*
X74436Y15765D1*
Y15910D1*
X74473Y16020D1*
X74546Y16093D1*
X74618D1*
X74692Y16056D1*
X74728Y16020D1*
X74764Y15947D1*
X74837Y15728D1*
X74873Y15655D1*
X74911Y15619D1*
X74983Y15583D1*
X75092D1*
X75165Y15655D1*
X75202Y15765D1*
Y15910D1*
X75165Y16020D1*
X75092Y16093D1*
X74546Y14096D2*
X74473Y14169D1*
X74436Y14278D1*
Y14424D1*
X74473Y14533D1*
X74546Y14607D1*
X74618D1*
X74692Y14570D1*
X74728Y14533D1*
X74764Y14461D1*
X74837Y14242D1*
X74873Y14169D1*
X74911Y14133D1*
X74983Y14096D1*
X75092D1*
X75165Y14169D1*
X75202Y14278D1*
Y14424D1*
X75165Y14533D1*
X75092Y14607D1*
X74436Y13861D2*
X75202D1*
X74436Y13626D2*
X75202D1*
Y13371D1*
X75165Y13261D1*
X75092Y13188D1*
X75019Y13152D1*
X74911Y13115D1*
X74728D1*
X74618Y13152D1*
X74546Y13188D1*
X74473Y13261D1*
X74436Y13371D1*
Y13626D1*
Y12407D2*
Y12880D1*
X75202D1*
Y12407D1*
X74801Y12880D2*
Y12589D1*
X38467Y46615D2*
D92*
X38660Y46810D1*
X38952Y46907D1*
X39341D1*
X39633Y46810D1*
X39828Y46615D1*
Y46422D1*
X39730Y46226D1*
X39633Y46130D1*
X39440Y46033D1*
X38856Y45838D1*
X38660Y45741D1*
X38564Y45642D1*
X38467Y45449D1*
Y45157D1*
X38660Y44964D1*
X38952Y44865D1*
X39341D1*
X39633Y44964D1*
X39828Y45157D1*
X37840Y45838D2*
X36964D1*
X36674Y45934D1*
X36575Y46033D1*
X36479Y46226D1*
Y46518D1*
X36575Y46711D1*
X36674Y46810D1*
X36964Y46907D1*
X37840D1*
Y44865D1*
X35851Y46907D2*
Y44865D1*
X32957Y46907D2*
Y45254D1*
X32860Y44964D1*
X32665Y44865D1*
X32471D1*
X33249Y46226D2*
X32568D1*
X31359D2*
X31552Y46130D1*
X31747Y45934D1*
X31844Y45642D1*
Y45449D1*
X31747Y45157D1*
X31552Y44964D1*
X31359Y44865D1*
X31067D1*
X30871Y44964D1*
X30678Y45157D1*
X30579Y45449D1*
Y45642D1*
X30678Y45934D1*
X30871Y46130D1*
X31067Y46226D1*
X31359D1*
X27977Y46516D2*
X27781Y46615D1*
X27489Y46905D1*
Y44865D1*
X26763Y46419D2*
Y46516D1*
X26667Y46711D1*
X26570Y46808D1*
X26375Y46905D1*
X25986D1*
X25793Y46808D1*
X25696Y46711D1*
X25597Y46516D1*
Y46323D1*
X25696Y46127D1*
X25889Y45838D1*
X26862Y44865D1*
X25501D1*
X24873Y46226D2*
X24289Y44865D1*
X23708Y46226D1*
X21105Y46907D2*
Y44865D1*
X19939D1*
X18049Y46907D2*
X19312D1*
Y44865D1*
X18049D1*
X19312Y45934D2*
X18535D1*
X17422Y46907D2*
Y44865D1*
X16741D1*
X16449Y44964D1*
X16254Y45157D1*
X16157Y45353D1*
X16061Y45642D1*
Y46130D1*
X16157Y46422D1*
X16254Y46615D1*
X16449Y46810D1*
X16741Y46907D1*
X17422D1*
X40522Y41822D2*
X40618Y42015D1*
X40814Y42210D1*
X41007Y42307D1*
X41396D1*
X41591Y42210D1*
X41784Y42015D1*
X41883Y41822D1*
X41980Y41530D1*
Y41042D1*
X41883Y40753D1*
X41784Y40557D1*
X41591Y40364D1*
X41396Y40265D1*
X41007D1*
X40814Y40364D1*
X40618Y40557D1*
X40522Y40753D1*
X39409Y41626D2*
X39602Y41530D1*
X39798Y41334D1*
X39894Y41042D1*
Y40849D1*
X39798Y40557D1*
X39602Y40364D1*
X39409Y40265D1*
X39117D1*
X38922Y40364D1*
X38729Y40557D1*
X38630Y40849D1*
Y41042D1*
X38729Y41334D1*
X38922Y41530D1*
X39117Y41626D1*
X39409D1*
X38002D2*
Y40265D1*
Y41238D2*
X37710Y41530D1*
X37515Y41626D1*
X37225D1*
X37030Y41530D1*
X36933Y41238D1*
Y40265D1*
X36014Y42307D2*
Y40654D1*
X35917Y40364D1*
X35722Y40265D1*
X35529D1*
X36306Y41626D2*
X35625D1*
X34901D2*
Y40265D1*
Y41042D2*
X34802Y41334D1*
X34609Y41530D1*
X34414Y41626D1*
X34122D1*
X33009D2*
X33202Y41530D1*
X33398Y41334D1*
X33494Y41042D1*
Y40849D1*
X33398Y40557D1*
X33202Y40364D1*
X33009Y40265D1*
X32717D1*
X32522Y40364D1*
X32329Y40557D1*
X32230Y40849D1*
Y41042D1*
X32329Y41334D1*
X32522Y41530D1*
X32717Y41626D1*
X33009D1*
X31602Y42307D2*
Y40265D1*
X30975Y42307D2*
Y40265D1*
X30347Y41042D2*
X29182D1*
Y41238D1*
X29278Y41433D1*
X29375Y41530D1*
X29570Y41626D1*
X29862D1*
X30055Y41530D1*
X30251Y41334D1*
X30347Y41042D1*
Y40849D1*
X30251Y40557D1*
X30055Y40364D1*
X29862Y40265D1*
X29570D1*
X29375Y40364D1*
X29182Y40557D1*
X28554Y41626D2*
Y40265D1*
Y41042D2*
X28455Y41334D1*
X28262Y41530D1*
X28067Y41626D1*
X27775D1*
X25172Y41334D2*
X24298D1*
X24006Y41433D1*
X23908Y41530D1*
X23811Y41723D1*
Y41918D1*
X23908Y42111D1*
X24006Y42210D1*
X24298Y42307D1*
X25172D1*
Y40265D1*
X24492Y41334D2*
X23811Y40265D1*
X23184Y41042D2*
X22018D1*
Y41238D1*
X22114Y41433D1*
X22211Y41530D1*
X22406Y41626D1*
X22698D1*
X22892Y41530D1*
X23087Y41334D1*
X23184Y41042D1*
Y40849D1*
X23087Y40557D1*
X22892Y40364D1*
X22698Y40265D1*
X22406D1*
X22211Y40364D1*
X22018Y40557D1*
X21390Y41626D2*
X20806Y40265D1*
X20225Y41626D1*
X17622Y42307D2*
Y40265D1*
X16746D1*
X16454Y40364D1*
X16357Y40461D1*
X16261Y40654D1*
Y40946D1*
X16357Y41141D1*
X16454Y41238D1*
X16746Y41334D1*
X16454Y41433D1*
X16357Y41530D1*
X16261Y41723D1*
Y41918D1*
X16357Y42111D1*
X16454Y42210D1*
X16746Y42307D1*
X17622D1*
Y41334D2*
X16746D1*
X62847Y12151D2*
D89*
Y11131D1*
Y11617D2*
X62701Y11763D1*
X62604Y11811D1*
X62458D1*
X62361Y11763D1*
X62313Y11617D1*
Y11131D1*
X61853Y12151D2*
Y11325D1*
X61805Y11180D1*
X61707Y11131D1*
X61611D1*
X61999Y11811D2*
X61659D1*
X61151Y12151D2*
Y11325D1*
X61103Y11180D1*
X61005Y11131D1*
X60908D1*
X61297Y11811D2*
X60957D1*
X60595D2*
Y10790D1*
Y11665D2*
X60497Y11762D1*
X60400Y11811D1*
X60254D1*
X60157Y11762D1*
X60060Y11665D1*
X60011Y11519D1*
Y11421D1*
X60060Y11277D1*
X60157Y11179D1*
X60254Y11131D1*
X60400D1*
X60497Y11179D1*
X60595Y11277D1*
X59647Y11811D2*
X59697Y11762D1*
X59647Y11713D1*
X59599Y11762D1*
X59647Y11811D1*
Y11228D2*
X59697Y11179D1*
X59647Y11131D1*
X59599Y11179D1*
X59647Y11228D1*
X59285Y11131D2*
X58605Y12150D1*
X58291Y11131D2*
X57610Y12150D1*
X56714Y11763D2*
Y10985D1*
X56762Y10840D1*
X56810Y10790D1*
X56908Y10742D1*
X57054D1*
X57151Y10790D1*
X56714Y11617D2*
X56810Y11713D1*
X56908Y11763D1*
X57054D1*
X57151Y11713D1*
X57248Y11617D1*
X57297Y11471D1*
Y11373D1*
X57248Y11228D1*
X57151Y11131D1*
X57054Y11082D1*
X56908D1*
X56810Y11131D1*
X56714Y11228D1*
X56400Y12151D2*
X56352Y12103D1*
X56302Y12151D1*
X56352Y12201D1*
X56400Y12151D1*
X56352Y11811D2*
Y11131D1*
X55843Y12151D2*
Y11325D1*
X55794Y11180D1*
X55697Y11131D1*
X55600D1*
X55989Y11811D2*
X55648D1*
X55286Y12151D2*
Y11131D1*
Y11617D2*
X55140Y11763D1*
X55043Y11811D1*
X54897D1*
X54800Y11763D1*
X54752Y11617D1*
Y11131D1*
X54438Y11811D2*
Y11325D1*
X54390Y11180D1*
X54292Y11131D1*
X54146D1*
X54049Y11180D1*
X53903Y11325D1*
Y11811D2*
Y11131D1*
X53590Y12151D2*
Y11131D1*
Y11665D2*
X53492Y11763D1*
X53395Y11811D1*
X53249D1*
X53153Y11763D1*
X53055Y11665D1*
X53007Y11519D1*
Y11423D1*
X53055Y11277D1*
X53153Y11180D1*
X53249Y11131D1*
X53395D1*
X53492Y11180D1*
X53590Y11277D1*
X52645Y11228D2*
X52693Y11179D1*
X52645Y11131D1*
X52595Y11179D1*
X52645Y11228D1*
X51698Y11665D2*
X51795Y11763D1*
X51893Y11811D1*
X52038D1*
X52136Y11763D1*
X52232Y11665D1*
X52282Y11519D1*
Y11423D1*
X52232Y11277D1*
X52136Y11180D1*
X52038Y11131D1*
X51893D1*
X51795Y11180D1*
X51698Y11277D1*
X51141Y11811D2*
X51238Y11763D1*
X51336Y11665D1*
X51384Y11519D1*
Y11423D1*
X51336Y11277D1*
X51238Y11180D1*
X51141Y11131D1*
X50995D1*
X50898Y11180D1*
X50801Y11277D1*
X50752Y11423D1*
Y11519D1*
X50801Y11665D1*
X50898Y11763D1*
X50995Y11811D1*
X51141D1*
X50438D2*
Y11131D1*
Y11617D2*
X50292Y11763D1*
X50194Y11811D1*
X50049D1*
X49952Y11763D1*
X49903Y11617D1*
Y11131D1*
Y11617D2*
X49757Y11763D1*
X49660Y11811D1*
X49515D1*
X49417Y11763D1*
X49368Y11617D1*
Y11131D1*
X49054D2*
X48373Y12150D1*
X47477Y11763D2*
Y10985D1*
X47525Y10840D1*
X47573Y10790D1*
X47671Y10742D1*
X47817D1*
X47914Y10790D1*
X47477Y11617D2*
X47573Y11713D1*
X47671Y11763D1*
X47817D1*
X47914Y11713D1*
X48011Y11617D1*
X48060Y11471D1*
Y11373D1*
X48011Y11228D1*
X47914Y11131D1*
X47817Y11082D1*
X47671D1*
X47573Y11131D1*
X47477Y11228D1*
X47163Y11811D2*
Y11131D1*
Y11519D2*
X47114Y11665D1*
X47017Y11763D1*
X46919Y11811D1*
X46773D1*
X45877D2*
Y11131D1*
Y11665D2*
X45973Y11763D1*
X46071Y11811D1*
X46216D1*
X46314Y11763D1*
X46410Y11665D1*
X46460Y11519D1*
Y11423D1*
X46410Y11277D1*
X46314Y11180D1*
X46216Y11131D1*
X46071D1*
X45973Y11180D1*
X45877Y11277D1*
X45563Y12151D2*
Y11131D1*
Y11617D2*
X45417Y11763D1*
X45319Y11811D1*
X45173D1*
X45077Y11763D1*
X45028Y11617D1*
Y11131D1*
X44132Y11811D2*
Y11131D1*
Y11665D2*
X44228Y11763D1*
X44326Y11811D1*
X44471D1*
X44569Y11763D1*
X44665Y11665D1*
X44715Y11519D1*
Y11423D1*
X44665Y11277D1*
X44569Y11180D1*
X44471Y11131D1*
X44326D1*
X44228Y11180D1*
X44132Y11277D1*
X43818Y11811D2*
Y11131D1*
Y11617D2*
X43672Y11763D1*
X43574Y11811D1*
X43430D1*
X43332Y11763D1*
X43284Y11617D1*
Y11131D1*
Y11617D2*
X43138Y11763D1*
X43040Y11811D1*
X42895D1*
X42797Y11763D1*
X42748Y11617D1*
Y11131D1*
X42434Y11640D2*
X41873D1*
X41559Y12151D2*
Y11131D1*
Y11665D2*
X41461Y11763D1*
X41365Y11811D1*
X41219D1*
X41122Y11763D1*
X41024Y11665D1*
X40976Y11519D1*
Y11423D1*
X41024Y11277D1*
X41122Y11180D1*
X41219Y11131D1*
X41365D1*
X41461Y11180D1*
X41559Y11277D1*
X40662Y11519D2*
X40079D1*
Y11617D1*
X40128Y11715D1*
X40176Y11763D1*
X40274Y11811D1*
X40420D1*
X40516Y11763D1*
X40614Y11665D1*
X40662Y11519D1*
Y11423D1*
X40614Y11277D1*
X40516Y11180D1*
X40420Y11131D1*
X40274D1*
X40176Y11180D1*
X40079Y11277D1*
X39231Y11665D2*
X39279Y11763D1*
X39425Y11811D1*
X39571D1*
X39717Y11763D1*
X39766Y11665D1*
X39717Y11569D1*
X39620Y11519D1*
X39377Y11471D1*
X39279Y11423D1*
X39231Y11325D1*
Y11277D1*
X39279Y11180D1*
X39425Y11131D1*
X39571D1*
X39717Y11180D1*
X39766Y11277D1*
X38771Y12151D2*
Y11325D1*
X38723Y11180D1*
X38625Y11131D1*
X38529D1*
X38917Y11811D2*
X38577D1*
X38215Y11131D2*
X37534Y12150D1*
X36540Y12005D2*
X36637Y12103D1*
X36783Y12151D1*
X36977D1*
X37123Y12103D1*
X37221Y12005D1*
Y11909D1*
X37171Y11811D1*
X37123Y11763D1*
X37026Y11715D1*
X36734Y11617D1*
X36637Y11569D1*
X36588Y11519D1*
X36540Y11423D1*
Y11277D1*
X36637Y11180D1*
X36783Y11131D1*
X36977D1*
X37123Y11180D1*
X37221Y11277D1*
X36226Y11617D2*
X35788D1*
X35644Y11665D1*
X35594Y11715D1*
X35546Y11811D1*
Y11957D1*
X35594Y12054D1*
X35644Y12103D1*
X35788Y12151D1*
X36226D1*
Y11131D1*
X35232Y12151D2*
Y11131D1*
X34918Y11640D2*
X34357D1*
X33897Y12151D2*
Y11325D1*
X33849Y11180D1*
X33751Y11131D1*
X33655D1*
X34043Y11811D2*
X33703D1*
X33098D2*
X33195Y11763D1*
X33292Y11665D1*
X33341Y11519D1*
Y11423D1*
X33292Y11277D1*
X33195Y11180D1*
X33098Y11131D1*
X32952D1*
X32854Y11180D1*
X32758Y11277D1*
X32708Y11423D1*
Y11519D1*
X32758Y11665D1*
X32854Y11763D1*
X32952Y11811D1*
X33098D1*
X32395Y11640D2*
X31833D1*
X31519Y11956D2*
X31422Y12005D1*
X31276Y12150D1*
Y11131D1*
X30913Y11908D2*
Y11956D1*
X30864Y12054D1*
X30816Y12102D1*
X30718Y12150D1*
X30524D1*
X30427Y12102D1*
X30379Y12054D1*
X30330Y11956D1*
Y11859D1*
X30379Y11762D1*
X30476Y11617D1*
X30962Y11131D1*
X30281D1*
X29968Y11811D2*
X29676Y11131D1*
X29385Y11811D1*
X29071Y11640D2*
X28510D1*
X28196Y12151D2*
Y11131D1*
X27613D1*
X26668Y12151D2*
X27299D1*
Y11131D1*
X26668D1*
X27299Y11665D2*
X26911D1*
X26354Y12151D2*
Y11131D1*
X26014D1*
X25868Y11180D1*
X25770Y11277D1*
X25722Y11374D1*
X25674Y11519D1*
Y11763D1*
X25722Y11909D1*
X25770Y12005D1*
X25868Y12103D1*
X26014Y12151D1*
X26354D1*
X25360Y11640D2*
X24799D1*
X23756Y11909D2*
X23804Y12005D1*
X23902Y12103D1*
X23999Y12151D1*
X24193D1*
X24291Y12103D1*
X24387Y12005D1*
X24437Y11909D1*
X24485Y11763D1*
Y11519D1*
X24437Y11374D1*
X24387Y11277D1*
X24291Y11180D1*
X24193Y11131D1*
X23999D1*
X23902Y11180D1*
X23804Y11277D1*
X23756Y11374D1*
X23200Y11811D2*
X23296Y11763D1*
X23394Y11665D1*
X23442Y11519D1*
Y11423D1*
X23394Y11277D1*
X23296Y11180D1*
X23200Y11131D1*
X23054D1*
X22956Y11180D1*
X22859Y11277D1*
X22810Y11423D1*
Y11519D1*
X22859Y11665D1*
X22956Y11763D1*
X23054Y11811D1*
X23200D1*
X22496D2*
Y11131D1*
Y11617D2*
X22350Y11763D1*
X22252Y11811D1*
X22108D1*
X22010Y11763D1*
X21962Y11617D1*
Y11131D1*
X21502Y12151D2*
Y11325D1*
X21454Y11180D1*
X21356Y11131D1*
X21259D1*
X21648Y11811D2*
X21308D1*
X20946D2*
Y11131D1*
Y11519D2*
X20896Y11665D1*
X20800Y11763D1*
X20702Y11811D1*
X20556D1*
X20000D2*
X20096Y11763D1*
X20194Y11665D1*
X20242Y11519D1*
Y11423D1*
X20194Y11277D1*
X20096Y11180D1*
X20000Y11131D1*
X19854D1*
X19756Y11180D1*
X19659Y11277D1*
X19610Y11423D1*
Y11519D1*
X19659Y11665D1*
X19756Y11763D1*
X19854Y11811D1*
X20000D1*
X19296Y12151D2*
Y11131D1*
X18982Y12151D2*
Y11131D1*
X18669Y11519D2*
X18086D1*
Y11617D1*
X18134Y11715D1*
X18182Y11763D1*
X18280Y11811D1*
X18426D1*
X18523Y11763D1*
X18620Y11665D1*
X18669Y11519D1*
Y11423D1*
X18620Y11277D1*
X18523Y11180D1*
X18426Y11131D1*
X18280D1*
X18182Y11180D1*
X18086Y11277D1*
X17772Y11811D2*
Y11131D1*
Y11519D2*
X17723Y11665D1*
X17626Y11763D1*
X17528Y11811D1*
X17382D1*
X80646Y13046D2*
D91*
X80682Y13119D1*
X80755Y13192D1*
X80827Y13228D1*
X80973D1*
X81046Y13192D1*
X81119Y13119D1*
X81156Y13046D1*
X81192Y12937D1*
Y12754D1*
X81156Y12645D1*
X81119Y12572D1*
X81046Y12500D1*
X80973Y12463D1*
X80827D1*
X80755Y12500D1*
X80682Y12572D1*
X80646Y12645D1*
X75687Y12463D2*
X75979Y13228D1*
X76271Y12463D1*
X76161Y12718D2*
X75796D1*
X80645Y15587D2*
X80681Y15659D1*
X80755Y15732D1*
X80827Y15768D1*
X80973D1*
X81046Y15732D1*
X81119Y15659D1*
X81156Y15587D1*
X81192Y15477D1*
Y15294D1*
X81156Y15186D1*
X81119Y15112D1*
X81046Y15040D1*
X80973Y15003D1*
X80827D1*
X80755Y15040D1*
X80681Y15112D1*
X80645Y15186D1*
X75687Y15003D2*
X75979Y15768D1*
X76270Y15003D1*
X76161Y15258D2*
X75796D1*
X80645Y18127D2*
X80681Y18199D1*
X80755Y18272D1*
X80827Y18309D1*
X80973D1*
X81046Y18272D1*
X81119Y18199D1*
X81156Y18127D1*
X81192Y18017D1*
Y17834D1*
X81156Y17726D1*
X81119Y17653D1*
X81046Y17580D1*
X80973Y17543D1*
X80827D1*
X80755Y17580D1*
X80681Y17653D1*
X80645Y17726D1*
X75687Y17543D2*
X75979Y18309D1*
X76270Y17543D1*
X76161Y17798D2*
X75796D1*
X80645Y20667D2*
X80681Y20739D1*
X80755Y20813D1*
X80827Y20849D1*
X80973D1*
X81046Y20813D1*
X81119Y20739D1*
X81156Y20667D1*
X81192Y20558D1*
Y20375D1*
X81156Y20266D1*
X81119Y20193D1*
X81046Y20120D1*
X80973Y20083D1*
X80827D1*
X80755Y20120D1*
X80681Y20193D1*
X80645Y20266D1*
X75687Y20083D2*
X75979Y20849D1*
X76270Y20083D1*
X76161Y20339D2*
X75796D1*
X80645Y23207D2*
X80681Y23280D1*
X80755Y23353D1*
X80827Y23389D1*
X80973D1*
X81046Y23353D1*
X81119Y23280D1*
X81156Y23207D1*
X81192Y23098D1*
Y22915D1*
X81156Y22806D1*
X81119Y22733D1*
X81046Y22661D1*
X80973Y22624D1*
X80827D1*
X80755Y22661D1*
X80681Y22733D1*
X80645Y22806D1*
X75687Y22624D2*
X75979Y23389D1*
X76270Y22624D1*
X76161Y22879D2*
X75796D1*
X80645Y25748D2*
X80681Y25820D1*
X80755Y25893D1*
X80827Y25930D1*
X80973D1*
X81046Y25893D1*
X81119Y25820D1*
X81156Y25748D1*
X81192Y25638D1*
Y25455D1*
X81156Y25347D1*
X81119Y25273D1*
X81046Y25201D1*
X80973Y25164D1*
X80827D1*
X80755Y25201D1*
X80681Y25273D1*
X80645Y25347D1*
X75687Y25164D2*
X75979Y25930D1*
X76270Y25164D1*
X76161Y25419D2*
X75796D1*
M02*
