G04 DipTrace 2.4.0.1*
%INBottomSilk.gbr*%
%MOMM*%
%ADD10C,0.25*%
%ADD77C,0.157*%
%ADD78C,0.118*%
%ADD79C,0.235*%
%FSLAX53Y53*%
G04*
G71*
G90*
G75*
G01*
%LNBotSilk*%
%LPD*%
X46321Y37810D2*
D10*
G03X48020Y38710I27J2002D01*
G01*
Y38810D2*
G03X46321Y39610I-1562J-1113D01*
G01*
X46221Y37810D2*
G03X46221Y39610I-1183J900D01*
G01*
X45721Y37810D2*
G03X45721Y39610I-1183J900D01*
G01*
X43820Y34310D2*
G03X45519Y35210I24J2008D01*
G01*
Y35310D2*
G03X43820Y36110I-1565J-1119D01*
G01*
X43720Y34310D2*
G03X43720Y36110I-1184J900D01*
G01*
X43220Y34310D2*
G03X43220Y36110I-1184J900D01*
G01*
X51421Y34310D2*
G03X53120Y35210I24J2008D01*
G01*
Y35310D2*
G03X51421Y36110I-1565J-1119D01*
G01*
X51321Y34310D2*
G03X51321Y36110I-1184J900D01*
G01*
X50821Y34310D2*
G03X50821Y36110I-1184J900D01*
G01*
X48020Y34110D2*
Y35610D1*
X50921D1*
X53120Y35210D2*
X53520D1*
Y34107D1*
X40419Y34110D2*
Y35610D1*
X43320D1*
X45519Y35210D2*
X45921D1*
Y34107D1*
X42520Y34010D2*
Y34810D1*
X43426D1*
X44919Y39810D2*
Y39009D1*
X45921D1*
X43020Y39710D2*
Y38210D1*
X45821D1*
X48020Y38710D2*
X48420D1*
Y39710D2*
Y38710D1*
X50119Y34010D2*
Y34810D1*
X51027D1*
X53920Y37710D2*
G03X55621Y38610I26J2008D01*
G01*
Y38710D2*
G03X53920Y39510I-1565J-1120D01*
G01*
X53820Y37710D2*
G03X53820Y39510I-1184J900D01*
G01*
X53320Y37710D2*
G03X53320Y39510I-1184J900D01*
G01*
X52520Y39710D2*
Y38910D1*
X53520D1*
X50621Y39610D2*
Y38110D1*
X53420D1*
X55621Y38610D2*
X56021D1*
Y39610D2*
Y38610D1*
X25021Y37910D2*
G03X26720Y38810I27J2002D01*
G01*
Y38910D2*
G03X25021Y39710I-1562J-1113D01*
G01*
X24921Y37910D2*
G03X24921Y39710I-1183J900D01*
G01*
X24421Y37910D2*
G03X24421Y39710I-1183J900D01*
G01*
X22520Y34410D2*
G03X24219Y35310I24J2008D01*
G01*
Y35410D2*
G03X22520Y36210I-1565J-1119D01*
G01*
X22420Y34410D2*
G03X22420Y36210I-1184J900D01*
G01*
X21920Y34410D2*
G03X21920Y36210I-1184J900D01*
G01*
X30121Y34410D2*
G03X31820Y35310I24J2008D01*
G01*
Y35410D2*
G03X30121Y36210I-1565J-1119D01*
G01*
X30021Y34410D2*
G03X30021Y36210I-1184J900D01*
G01*
X29521Y34410D2*
G03X29521Y36210I-1184J900D01*
G01*
X26720Y34210D2*
Y35710D1*
X29621D1*
X31820Y35310D2*
X32220D1*
Y34207D1*
X19119Y34210D2*
Y35710D1*
X22020D1*
X24219Y35310D2*
X24621D1*
Y34207D1*
X21220Y34110D2*
Y34910D1*
X22126D1*
X23619Y39910D2*
Y39109D1*
X24621D1*
X21720Y39810D2*
Y38310D1*
X24521D1*
X26720Y38810D2*
X27120D1*
Y39810D2*
Y38810D1*
X28819Y34110D2*
Y34910D1*
X29727D1*
X32620Y37810D2*
G03X34321Y38710I26J2008D01*
G01*
Y38810D2*
G03X32620Y39610I-1565J-1120D01*
G01*
X32520Y37810D2*
G03X32520Y39610I-1184J900D01*
G01*
X32020Y37810D2*
G03X32020Y39610I-1184J900D01*
G01*
X31220Y39810D2*
Y39010D1*
X32220D1*
X29321Y39710D2*
Y38210D1*
X32120D1*
X34321Y38710D2*
X34721D1*
Y39710D2*
Y38710D1*
X56068Y51560D2*
D79*
X56212Y51707D1*
X56431Y51779D1*
X56723D1*
X56942Y51707D1*
X57088Y51560D1*
Y51415D1*
X57014Y51269D1*
X56942Y51196D1*
X56797Y51124D1*
X56359Y50977D1*
X56212Y50905D1*
X56140Y50831D1*
X56068Y50686D1*
Y50467D1*
X56212Y50322D1*
X56431Y50248D1*
X56723D1*
X56942Y50322D1*
X57088Y50467D1*
X55597Y50977D2*
X54940D1*
X54723Y51050D1*
X54648Y51124D1*
X54576Y51269D1*
Y51488D1*
X54648Y51633D1*
X54723Y51707D1*
X54940Y51779D1*
X55597D1*
Y50248D1*
X54105Y51779D2*
Y50248D1*
X51935Y51779D2*
Y50539D1*
X51862Y50322D1*
X51716Y50248D1*
X51571D1*
X52154Y51269D2*
X51643D1*
X50736D2*
X50881Y51196D1*
X51028Y51050D1*
X51100Y50831D1*
Y50686D1*
X51028Y50467D1*
X50881Y50322D1*
X50736Y50248D1*
X50517D1*
X50371Y50322D1*
X50226Y50467D1*
X50152Y50686D1*
Y50831D1*
X50226Y51050D1*
X50371Y51196D1*
X50517Y51269D1*
X50736D1*
X48200Y51486D2*
X48053Y51560D1*
X47834Y51777D1*
Y50248D1*
X47289Y51414D2*
Y51486D1*
X47217Y51633D1*
X47145Y51705D1*
X46998Y51777D1*
X46707D1*
X46562Y51705D1*
X46489Y51633D1*
X46415Y51486D1*
Y51341D1*
X46489Y51195D1*
X46634Y50977D1*
X47364Y50248D1*
X46343D1*
X45872Y51269D2*
X45434Y50248D1*
X44998Y51269D1*
X43046Y51779D2*
Y50248D1*
X42171D1*
X40754Y51779D2*
X41701D1*
Y50248D1*
X40754D1*
X41701Y51050D2*
X41118D1*
X40284Y51779D2*
Y50248D1*
X39773D1*
X39554Y50322D1*
X39408Y50467D1*
X39335Y50613D1*
X39263Y50831D1*
Y51196D1*
X39335Y51415D1*
X39408Y51560D1*
X39554Y51707D1*
X39773Y51779D1*
X40284D1*
X36217Y51415D2*
X36290Y51560D1*
X36436Y51707D1*
X36581Y51779D1*
X36873D1*
X37019Y51707D1*
X37164Y51560D1*
X37238Y51415D1*
X37311Y51196D1*
Y50831D1*
X37238Y50613D1*
X37164Y50467D1*
X37019Y50322D1*
X36873Y50248D1*
X36581D1*
X36436Y50322D1*
X36290Y50467D1*
X36217Y50613D1*
X35383Y51269D2*
X35528Y51196D1*
X35674Y51050D1*
X35747Y50831D1*
Y50686D1*
X35674Y50467D1*
X35528Y50322D1*
X35383Y50248D1*
X35164D1*
X35017Y50322D1*
X34872Y50467D1*
X34798Y50686D1*
Y50831D1*
X34872Y51050D1*
X35017Y51196D1*
X35164Y51269D1*
X35383D1*
X34328D2*
Y50248D1*
Y50977D2*
X34109Y51196D1*
X33962Y51269D1*
X33745D1*
X33598Y51196D1*
X33526Y50977D1*
Y50248D1*
X32836Y51779D2*
Y50539D1*
X32764Y50322D1*
X32617Y50248D1*
X32472D1*
X33055Y51269D2*
X32545D1*
X32002D2*
Y50248D1*
Y50831D2*
X31928Y51050D1*
X31783Y51196D1*
X31636Y51269D1*
X31417D1*
X30583D2*
X30728Y51196D1*
X30874Y51050D1*
X30947Y50831D1*
Y50686D1*
X30874Y50467D1*
X30728Y50322D1*
X30583Y50248D1*
X30364D1*
X30217Y50322D1*
X30072Y50467D1*
X29998Y50686D1*
Y50831D1*
X30072Y51050D1*
X30217Y51196D1*
X30364Y51269D1*
X30583D1*
X29528Y51779D2*
Y50248D1*
X29057Y51779D2*
Y50248D1*
X28586Y50831D2*
X27712D1*
Y50977D1*
X27785Y51124D1*
X27857Y51196D1*
X28004Y51269D1*
X28223D1*
X28367Y51196D1*
X28514Y51050D1*
X28586Y50831D1*
Y50686D1*
X28514Y50467D1*
X28367Y50322D1*
X28223Y50248D1*
X28004D1*
X27857Y50322D1*
X27712Y50467D1*
X27242Y51269D2*
Y50248D1*
Y50831D2*
X27167Y51050D1*
X27023Y51196D1*
X26876Y51269D1*
X26657D1*
X24705Y51050D2*
X24050D1*
X23831Y51124D1*
X23757Y51196D1*
X23684Y51341D1*
Y51488D1*
X23757Y51633D1*
X23831Y51707D1*
X24050Y51779D1*
X24705D1*
Y50248D1*
X24195Y51050D2*
X23684Y50248D1*
X23214Y50831D2*
X22339D1*
Y50977D1*
X22412Y51124D1*
X22484Y51196D1*
X22631Y51269D1*
X22850D1*
X22995Y51196D1*
X23141Y51050D1*
X23214Y50831D1*
Y50686D1*
X23141Y50467D1*
X22995Y50322D1*
X22850Y50248D1*
X22631D1*
X22484Y50322D1*
X22339Y50467D1*
X21869Y51269D2*
X21431Y50248D1*
X20994Y51269D1*
X19042Y51779D2*
Y50248D1*
X18385D1*
X18166Y50322D1*
X18094Y50394D1*
X18022Y50539D1*
Y50758D1*
X18094Y50905D1*
X18166Y50977D1*
X18385Y51050D1*
X18166Y51124D1*
X18094Y51196D1*
X18022Y51341D1*
Y51488D1*
X18094Y51633D1*
X18166Y51707D1*
X18385Y51779D1*
X19042D1*
Y51050D2*
X18385D1*
X62847Y11851D2*
D77*
Y10831D1*
Y11317D2*
X62701Y11463D1*
X62604Y11511D1*
X62458D1*
X62361Y11463D1*
X62313Y11317D1*
Y10831D1*
X61853Y11851D2*
Y11025D1*
X61805Y10880D1*
X61707Y10831D1*
X61611D1*
X61999Y11511D2*
X61659D1*
X61151Y11851D2*
Y11025D1*
X61103Y10880D1*
X61005Y10831D1*
X60908D1*
X61297Y11511D2*
X60957D1*
X60595D2*
Y10490D1*
Y11365D2*
X60497Y11462D1*
X60400Y11511D1*
X60254D1*
X60157Y11462D1*
X60060Y11365D1*
X60011Y11219D1*
Y11121D1*
X60060Y10977D1*
X60157Y10879D1*
X60254Y10831D1*
X60400D1*
X60497Y10879D1*
X60595Y10977D1*
X59647Y11511D2*
X59697Y11462D1*
X59647Y11413D1*
X59599Y11462D1*
X59647Y11511D1*
Y10928D2*
X59697Y10879D1*
X59647Y10831D1*
X59599Y10879D1*
X59647Y10928D1*
X59285Y10831D2*
X58605Y11850D1*
X58291Y10831D2*
X57610Y11850D1*
X56714Y11463D2*
Y10685D1*
X56762Y10540D1*
X56810Y10490D1*
X56908Y10442D1*
X57054D1*
X57151Y10490D1*
X56714Y11317D2*
X56810Y11413D1*
X56908Y11463D1*
X57054D1*
X57151Y11413D1*
X57248Y11317D1*
X57297Y11171D1*
Y11073D1*
X57248Y10928D1*
X57151Y10831D1*
X57054Y10782D1*
X56908D1*
X56810Y10831D1*
X56714Y10928D1*
X56400Y11851D2*
X56352Y11803D1*
X56302Y11851D1*
X56352Y11901D1*
X56400Y11851D1*
X56352Y11511D2*
Y10831D1*
X55843Y11851D2*
Y11025D1*
X55794Y10880D1*
X55697Y10831D1*
X55600D1*
X55989Y11511D2*
X55648D1*
X55286Y11851D2*
Y10831D1*
Y11317D2*
X55140Y11463D1*
X55043Y11511D1*
X54897D1*
X54800Y11463D1*
X54752Y11317D1*
Y10831D1*
X54438Y11511D2*
Y11025D1*
X54390Y10880D1*
X54292Y10831D1*
X54146D1*
X54049Y10880D1*
X53903Y11025D1*
Y11511D2*
Y10831D1*
X53590Y11851D2*
Y10831D1*
Y11365D2*
X53492Y11463D1*
X53395Y11511D1*
X53249D1*
X53153Y11463D1*
X53055Y11365D1*
X53007Y11219D1*
Y11123D1*
X53055Y10977D1*
X53153Y10880D1*
X53249Y10831D1*
X53395D1*
X53492Y10880D1*
X53590Y10977D1*
X52645Y10928D2*
X52693Y10879D1*
X52645Y10831D1*
X52595Y10879D1*
X52645Y10928D1*
X51698Y11365D2*
X51795Y11463D1*
X51893Y11511D1*
X52038D1*
X52136Y11463D1*
X52232Y11365D1*
X52282Y11219D1*
Y11123D1*
X52232Y10977D1*
X52136Y10880D1*
X52038Y10831D1*
X51893D1*
X51795Y10880D1*
X51698Y10977D1*
X51141Y11511D2*
X51238Y11463D1*
X51336Y11365D1*
X51384Y11219D1*
Y11123D1*
X51336Y10977D1*
X51238Y10880D1*
X51141Y10831D1*
X50995D1*
X50898Y10880D1*
X50801Y10977D1*
X50752Y11123D1*
Y11219D1*
X50801Y11365D1*
X50898Y11463D1*
X50995Y11511D1*
X51141D1*
X50438D2*
Y10831D1*
Y11317D2*
X50292Y11463D1*
X50194Y11511D1*
X50049D1*
X49952Y11463D1*
X49903Y11317D1*
Y10831D1*
Y11317D2*
X49757Y11463D1*
X49660Y11511D1*
X49515D1*
X49417Y11463D1*
X49368Y11317D1*
Y10831D1*
X49054D2*
X48373Y11850D1*
X47477Y11463D2*
Y10685D1*
X47525Y10540D1*
X47573Y10490D1*
X47671Y10442D1*
X47817D1*
X47914Y10490D1*
X47477Y11317D2*
X47573Y11413D1*
X47671Y11463D1*
X47817D1*
X47914Y11413D1*
X48011Y11317D1*
X48060Y11171D1*
Y11073D1*
X48011Y10928D1*
X47914Y10831D1*
X47817Y10782D1*
X47671D1*
X47573Y10831D1*
X47477Y10928D1*
X47163Y11511D2*
Y10831D1*
Y11219D2*
X47114Y11365D1*
X47017Y11463D1*
X46919Y11511D1*
X46773D1*
X45877D2*
Y10831D1*
Y11365D2*
X45973Y11463D1*
X46071Y11511D1*
X46216D1*
X46314Y11463D1*
X46410Y11365D1*
X46460Y11219D1*
Y11123D1*
X46410Y10977D1*
X46314Y10880D1*
X46216Y10831D1*
X46071D1*
X45973Y10880D1*
X45877Y10977D1*
X45563Y11851D2*
Y10831D1*
Y11317D2*
X45417Y11463D1*
X45319Y11511D1*
X45173D1*
X45077Y11463D1*
X45028Y11317D1*
Y10831D1*
X44132Y11511D2*
Y10831D1*
Y11365D2*
X44228Y11463D1*
X44326Y11511D1*
X44471D1*
X44569Y11463D1*
X44665Y11365D1*
X44715Y11219D1*
Y11123D1*
X44665Y10977D1*
X44569Y10880D1*
X44471Y10831D1*
X44326D1*
X44228Y10880D1*
X44132Y10977D1*
X43818Y11511D2*
Y10831D1*
Y11317D2*
X43672Y11463D1*
X43574Y11511D1*
X43430D1*
X43332Y11463D1*
X43284Y11317D1*
Y10831D1*
Y11317D2*
X43138Y11463D1*
X43040Y11511D1*
X42895D1*
X42797Y11463D1*
X42748Y11317D1*
Y10831D1*
X42434Y11340D2*
X41873D1*
X41559Y11851D2*
Y10831D1*
Y11365D2*
X41461Y11463D1*
X41365Y11511D1*
X41219D1*
X41122Y11463D1*
X41024Y11365D1*
X40976Y11219D1*
Y11123D1*
X41024Y10977D1*
X41122Y10880D1*
X41219Y10831D1*
X41365D1*
X41461Y10880D1*
X41559Y10977D1*
X40662Y11219D2*
X40079D1*
Y11317D1*
X40128Y11415D1*
X40176Y11463D1*
X40274Y11511D1*
X40420D1*
X40516Y11463D1*
X40614Y11365D1*
X40662Y11219D1*
Y11123D1*
X40614Y10977D1*
X40516Y10880D1*
X40420Y10831D1*
X40274D1*
X40176Y10880D1*
X40079Y10977D1*
X39231Y11365D2*
X39279Y11463D1*
X39425Y11511D1*
X39571D1*
X39717Y11463D1*
X39766Y11365D1*
X39717Y11269D1*
X39620Y11219D1*
X39377Y11171D1*
X39279Y11123D1*
X39231Y11025D1*
Y10977D1*
X39279Y10880D1*
X39425Y10831D1*
X39571D1*
X39717Y10880D1*
X39766Y10977D1*
X38771Y11851D2*
Y11025D1*
X38723Y10880D1*
X38625Y10831D1*
X38529D1*
X38917Y11511D2*
X38577D1*
X38215Y10831D2*
X37534Y11850D1*
X36540Y11705D2*
X36637Y11803D1*
X36783Y11851D1*
X36977D1*
X37123Y11803D1*
X37221Y11705D1*
Y11609D1*
X37171Y11511D1*
X37123Y11463D1*
X37026Y11415D1*
X36734Y11317D1*
X36637Y11269D1*
X36588Y11219D1*
X36540Y11123D1*
Y10977D1*
X36637Y10880D1*
X36783Y10831D1*
X36977D1*
X37123Y10880D1*
X37221Y10977D1*
X36226Y11317D2*
X35788D1*
X35644Y11365D1*
X35594Y11415D1*
X35546Y11511D1*
Y11657D1*
X35594Y11754D1*
X35644Y11803D1*
X35788Y11851D1*
X36226D1*
Y10831D1*
X35232Y11851D2*
Y10831D1*
X34918Y11340D2*
X34357D1*
X33897Y11851D2*
Y11025D1*
X33849Y10880D1*
X33751Y10831D1*
X33655D1*
X34043Y11511D2*
X33703D1*
X33098D2*
X33195Y11463D1*
X33292Y11365D1*
X33341Y11219D1*
Y11123D1*
X33292Y10977D1*
X33195Y10880D1*
X33098Y10831D1*
X32952D1*
X32854Y10880D1*
X32758Y10977D1*
X32708Y11123D1*
Y11219D1*
X32758Y11365D1*
X32854Y11463D1*
X32952Y11511D1*
X33098D1*
X32395Y11340D2*
X31833D1*
X31519Y11656D2*
X31422Y11705D1*
X31276Y11850D1*
Y10831D1*
X30913Y11608D2*
Y11656D1*
X30864Y11754D1*
X30816Y11802D1*
X30718Y11850D1*
X30524D1*
X30427Y11802D1*
X30379Y11754D1*
X30330Y11656D1*
Y11559D1*
X30379Y11462D1*
X30476Y11317D1*
X30962Y10831D1*
X30281D1*
X29968Y11511D2*
X29676Y10831D1*
X29385Y11511D1*
X29071Y11340D2*
X28510D1*
X28196Y11851D2*
Y10831D1*
X27613D1*
X26668Y11851D2*
X27299D1*
Y10831D1*
X26668D1*
X27299Y11365D2*
X26911D1*
X26354Y11851D2*
Y10831D1*
X26014D1*
X25868Y10880D1*
X25770Y10977D1*
X25722Y11074D1*
X25674Y11219D1*
Y11463D1*
X25722Y11609D1*
X25770Y11705D1*
X25868Y11803D1*
X26014Y11851D1*
X26354D1*
X25360Y11340D2*
X24799D1*
X23756Y11609D2*
X23804Y11705D1*
X23902Y11803D1*
X23999Y11851D1*
X24193D1*
X24291Y11803D1*
X24387Y11705D1*
X24437Y11609D1*
X24485Y11463D1*
Y11219D1*
X24437Y11074D1*
X24387Y10977D1*
X24291Y10880D1*
X24193Y10831D1*
X23999D1*
X23902Y10880D1*
X23804Y10977D1*
X23756Y11074D1*
X23200Y11511D2*
X23296Y11463D1*
X23394Y11365D1*
X23442Y11219D1*
Y11123D1*
X23394Y10977D1*
X23296Y10880D1*
X23200Y10831D1*
X23054D1*
X22956Y10880D1*
X22859Y10977D1*
X22810Y11123D1*
Y11219D1*
X22859Y11365D1*
X22956Y11463D1*
X23054Y11511D1*
X23200D1*
X22496D2*
Y10831D1*
Y11317D2*
X22350Y11463D1*
X22252Y11511D1*
X22108D1*
X22010Y11463D1*
X21962Y11317D1*
Y10831D1*
X21502Y11851D2*
Y11025D1*
X21454Y10880D1*
X21356Y10831D1*
X21259D1*
X21648Y11511D2*
X21308D1*
X20946D2*
Y10831D1*
Y11219D2*
X20896Y11365D1*
X20800Y11463D1*
X20702Y11511D1*
X20556D1*
X20000D2*
X20096Y11463D1*
X20194Y11365D1*
X20242Y11219D1*
Y11123D1*
X20194Y10977D1*
X20096Y10880D1*
X20000Y10831D1*
X19854D1*
X19756Y10880D1*
X19659Y10977D1*
X19610Y11123D1*
Y11219D1*
X19659Y11365D1*
X19756Y11463D1*
X19854Y11511D1*
X20000D1*
X19296Y11851D2*
Y10831D1*
X18982Y11851D2*
Y10831D1*
X18669Y11219D2*
X18086D1*
Y11317D1*
X18134Y11415D1*
X18182Y11463D1*
X18280Y11511D1*
X18426D1*
X18523Y11463D1*
X18620Y11365D1*
X18669Y11219D1*
Y11123D1*
X18620Y10977D1*
X18523Y10880D1*
X18426Y10831D1*
X18280D1*
X18182Y10880D1*
X18086Y10977D1*
X17772Y11511D2*
Y10831D1*
Y11219D2*
X17723Y11365D1*
X17626Y11463D1*
X17528Y11511D1*
X17382D1*
X72161Y39217D2*
X71723D1*
X71578Y39265D1*
X71528Y39315D1*
X71480Y39411D1*
Y39557D1*
X71528Y39654D1*
X71578Y39703D1*
X71723Y39751D1*
X72161D1*
Y38731D1*
X71166Y39751D2*
X71118Y39703D1*
X71069Y39751D1*
X71118Y39801D1*
X71166Y39751D1*
X71118Y39411D2*
Y38731D1*
X70755Y39411D2*
Y38731D1*
Y39217D2*
X70609Y39363D1*
X70511Y39411D1*
X70366D1*
X70269Y39363D1*
X70220Y39217D1*
Y38731D1*
X68919Y39556D2*
X68821Y39605D1*
X68675Y39750D1*
Y38731D1*
X65399Y39751D2*
X65351Y39703D1*
X65301Y39751D1*
X65351Y39801D1*
X65399Y39751D1*
X65351Y39411D2*
Y38731D1*
X64453Y39265D2*
X64501Y39363D1*
X64647Y39411D1*
X64793D1*
X64939Y39363D1*
X64988Y39265D1*
X64939Y39169D1*
X64842Y39119D1*
X64599Y39071D1*
X64501Y39023D1*
X64453Y38925D1*
Y38877D1*
X64501Y38780D1*
X64647Y38731D1*
X64793D1*
X64939Y38780D1*
X64988Y38877D1*
X62569Y39751D2*
Y38731D1*
Y39265D2*
X62665Y39363D1*
X62763Y39411D1*
X62909D1*
X63006Y39363D1*
X63103Y39265D1*
X63152Y39119D1*
Y39023D1*
X63103Y38877D1*
X63006Y38780D1*
X62909Y38731D1*
X62763D1*
X62665Y38780D1*
X62569Y38877D1*
X62255Y39119D2*
X61672D1*
Y39217D1*
X61721Y39315D1*
X61769Y39363D1*
X61867Y39411D1*
X62013D1*
X62109Y39363D1*
X62207Y39265D1*
X62255Y39119D1*
Y39023D1*
X62207Y38877D1*
X62109Y38780D1*
X62013Y38731D1*
X61867D1*
X61769Y38780D1*
X61672Y38877D1*
X61358Y39411D2*
Y38731D1*
Y39217D2*
X61212Y39363D1*
X61115Y39411D1*
X60970D1*
X60872Y39363D1*
X60824Y39217D1*
Y38731D1*
X60268Y39411D2*
X60364Y39363D1*
X60462Y39265D1*
X60510Y39119D1*
Y39023D1*
X60462Y38877D1*
X60364Y38780D1*
X60268Y38731D1*
X60122D1*
X60024Y38780D1*
X59927Y38877D1*
X59878Y39023D1*
Y39119D1*
X59927Y39265D1*
X60024Y39363D1*
X60122Y39411D1*
X60268D1*
X59418Y39751D2*
Y38925D1*
X59370Y38780D1*
X59272Y38731D1*
X59176D1*
X59564Y39411D2*
X59224D1*
X58862Y39119D2*
X58279D1*
Y39217D1*
X58327Y39315D1*
X58376Y39363D1*
X58473Y39411D1*
X58619D1*
X58716Y39363D1*
X58814Y39265D1*
X58862Y39119D1*
Y39023D1*
X58814Y38877D1*
X58716Y38780D1*
X58619Y38731D1*
X58473D1*
X58376Y38780D1*
X58279Y38877D1*
X57382Y39751D2*
Y38731D1*
Y39265D2*
X57479Y39363D1*
X57577Y39411D1*
X57723D1*
X57819Y39363D1*
X57917Y39265D1*
X57965Y39119D1*
Y39023D1*
X57917Y38877D1*
X57819Y38780D1*
X57723Y38731D1*
X57577D1*
X57479Y38780D1*
X57382Y38877D1*
X72197Y37711D2*
X72003Y37031D1*
X71808Y37711D1*
X71614Y37031D1*
X71420Y37711D1*
X71106Y38051D2*
X71058Y38003D1*
X71008Y38051D1*
X71058Y38101D1*
X71106Y38051D1*
X71058Y37711D2*
Y37031D1*
X70549Y38051D2*
Y37225D1*
X70500Y37080D1*
X70403Y37031D1*
X70306D1*
X70695Y37711D2*
X70354D1*
X69992Y38051D2*
Y37031D1*
Y37517D2*
X69846Y37663D1*
X69749Y37711D1*
X69603D1*
X69506Y37663D1*
X69458Y37517D1*
Y37031D1*
X67574Y37711D2*
Y37031D1*
Y37565D2*
X67670Y37663D1*
X67768Y37711D1*
X67913D1*
X68010Y37663D1*
X68107Y37565D1*
X68156Y37419D1*
Y37323D1*
X68107Y37177D1*
X68010Y37080D1*
X67913Y37031D1*
X67768D1*
X67670Y37080D1*
X67574Y37177D1*
X66272Y37711D2*
Y37031D1*
Y37419D2*
X66223Y37565D1*
X66126Y37663D1*
X66029Y37711D1*
X65883D1*
X65569Y37419D2*
X64986D1*
Y37517D1*
X65034Y37615D1*
X65083Y37663D1*
X65180Y37711D1*
X65326D1*
X65423Y37663D1*
X65521Y37565D1*
X65569Y37419D1*
Y37323D1*
X65521Y37177D1*
X65423Y37080D1*
X65326Y37031D1*
X65180D1*
X65083Y37080D1*
X64986Y37177D1*
X64088Y37565D2*
X64186Y37663D1*
X64284Y37711D1*
X64429D1*
X64526Y37663D1*
X64623Y37565D1*
X64672Y37419D1*
Y37323D1*
X64623Y37177D1*
X64526Y37080D1*
X64429Y37031D1*
X64284D1*
X64186Y37080D1*
X64088Y37177D1*
X63629Y38051D2*
Y37225D1*
X63580Y37080D1*
X63483Y37031D1*
X63386D1*
X63775Y37711D2*
X63434D1*
X62489D2*
Y37031D1*
Y37565D2*
X62586Y37663D1*
X62684Y37711D1*
X62829D1*
X62926Y37663D1*
X63023Y37565D1*
X63072Y37419D1*
Y37323D1*
X63023Y37177D1*
X62926Y37080D1*
X62829Y37031D1*
X62684D1*
X62586Y37080D1*
X62489Y37177D1*
X62176Y37711D2*
Y37031D1*
Y37517D2*
X62030Y37663D1*
X61932Y37711D1*
X61787D1*
X61689Y37663D1*
X61641Y37517D1*
Y37031D1*
X60744Y37663D2*
Y36885D1*
X60793Y36740D1*
X60841Y36690D1*
X60939Y36642D1*
X61085D1*
X61181Y36690D1*
X60744Y37517D2*
X60841Y37613D1*
X60939Y37663D1*
X61085D1*
X61181Y37613D1*
X61279Y37517D1*
X61327Y37371D1*
Y37273D1*
X61279Y37128D1*
X61181Y37031D1*
X61085Y36982D1*
X60939D1*
X60841Y37031D1*
X60744Y37128D1*
X60431Y37711D2*
Y37225D1*
X60382Y37080D1*
X60285Y37031D1*
X60139D1*
X60042Y37080D1*
X59896Y37225D1*
Y37711D2*
Y37031D1*
X59582Y38051D2*
Y37031D1*
X58686Y37711D2*
Y37031D1*
Y37565D2*
X58782Y37663D1*
X58880Y37711D1*
X59025D1*
X59123Y37663D1*
X59219Y37565D1*
X59269Y37419D1*
Y37323D1*
X59219Y37177D1*
X59123Y37080D1*
X59025Y37031D1*
X58880D1*
X58782Y37080D1*
X58686Y37177D1*
X58372Y37711D2*
Y37031D1*
Y37419D2*
X58323Y37565D1*
X58226Y37663D1*
X58128Y37711D1*
X57982D1*
X72311Y36111D2*
Y35090D1*
Y35965D2*
X72213Y36062D1*
X72117Y36111D1*
X71971D1*
X71873Y36062D1*
X71777Y35965D1*
X71727Y35819D1*
Y35721D1*
X71777Y35577D1*
X71873Y35479D1*
X71971Y35431D1*
X72117D1*
X72213Y35479D1*
X72311Y35577D1*
X70830Y36111D2*
Y35431D1*
Y35965D2*
X70927Y36063D1*
X71025Y36111D1*
X71170D1*
X71267Y36063D1*
X71364Y35965D1*
X71413Y35819D1*
Y35723D1*
X71364Y35577D1*
X71267Y35480D1*
X71170Y35431D1*
X71025D1*
X70927Y35480D1*
X70830Y35577D1*
X69934Y36451D2*
Y35431D1*
Y35965D2*
X70030Y36063D1*
X70128Y36111D1*
X70274D1*
X70371Y36063D1*
X70468Y35965D1*
X70517Y35819D1*
Y35723D1*
X70468Y35577D1*
X70371Y35480D1*
X70274Y35431D1*
X70128D1*
X70030Y35480D1*
X69934Y35577D1*
X68050Y36111D2*
Y35431D1*
Y35965D2*
X68146Y36063D1*
X68244Y36111D1*
X68389D1*
X68487Y36063D1*
X68583Y35965D1*
X68633Y35819D1*
Y35723D1*
X68583Y35577D1*
X68487Y35480D1*
X68389Y35431D1*
X68244D1*
X68146Y35480D1*
X68050Y35577D1*
X67736Y36111D2*
Y35431D1*
Y35917D2*
X67590Y36063D1*
X67492Y36111D1*
X67347D1*
X67250Y36063D1*
X67201Y35917D1*
Y35431D1*
X66305Y36451D2*
Y35431D1*
Y35965D2*
X66401Y36063D1*
X66499Y36111D1*
X66645D1*
X66742Y36063D1*
X66839Y35965D1*
X66888Y35819D1*
Y35723D1*
X66839Y35577D1*
X66742Y35480D1*
X66645Y35431D1*
X66499D1*
X66401Y35480D1*
X66305Y35577D1*
X64858Y36451D2*
Y35625D1*
X64809Y35480D1*
X64712Y35431D1*
X64615D1*
X65004Y36111D2*
X64663D1*
X64301Y36451D2*
Y35431D1*
Y35917D2*
X64155Y36063D1*
X64057Y36111D1*
X63911D1*
X63815Y36063D1*
X63767Y35917D1*
Y35431D1*
X63453Y35819D2*
X62870D1*
Y35917D1*
X62918Y36015D1*
X62967Y36063D1*
X63064Y36111D1*
X63210D1*
X63307Y36063D1*
X63405Y35965D1*
X63453Y35819D1*
Y35723D1*
X63405Y35577D1*
X63307Y35480D1*
X63210Y35431D1*
X63064D1*
X62967Y35480D1*
X62870Y35577D1*
X61569Y36111D2*
Y35090D1*
Y35965D2*
X61471Y36062D1*
X61374Y36111D1*
X61228D1*
X61131Y36062D1*
X61034Y35965D1*
X60985Y35819D1*
Y35721D1*
X61034Y35577D1*
X61131Y35479D1*
X61228Y35431D1*
X61374D1*
X61471Y35479D1*
X61569Y35577D1*
X60088Y36111D2*
Y35431D1*
Y35965D2*
X60185Y36063D1*
X60282Y36111D1*
X60427D1*
X60525Y36063D1*
X60622Y35965D1*
X60671Y35819D1*
Y35723D1*
X60622Y35577D1*
X60525Y35480D1*
X60427Y35431D1*
X60282D1*
X60185Y35480D1*
X60088Y35577D1*
X59774Y36111D2*
Y35431D1*
Y35819D2*
X59725Y35965D1*
X59628Y36063D1*
X59531Y36111D1*
X59385D1*
X58925Y36451D2*
Y35625D1*
X58877Y35480D1*
X58779Y35431D1*
X58682D1*
X59071Y36111D2*
X58731D1*
X72883Y34011D2*
Y33331D1*
Y33817D2*
X72737Y33963D1*
X72639Y34011D1*
X72494D1*
X72397Y33963D1*
X72348Y33817D1*
Y33331D1*
X72035Y34011D2*
Y33525D1*
X71986Y33380D1*
X71889Y33331D1*
X71743D1*
X71646Y33380D1*
X71500Y33525D1*
Y34011D2*
Y33331D1*
X71186Y34011D2*
Y33331D1*
Y33817D2*
X71040Y33963D1*
X70943Y34011D1*
X70798D1*
X70700Y33963D1*
X70652Y33817D1*
Y33331D1*
Y33817D2*
X70506Y33963D1*
X70408Y34011D1*
X70263D1*
X70166Y33963D1*
X70116Y33817D1*
Y33331D1*
X69802Y34351D2*
Y33331D1*
Y33865D2*
X69705Y33963D1*
X69608Y34011D1*
X69462D1*
X69366Y33963D1*
X69268Y33865D1*
X69220Y33719D1*
Y33623D1*
X69268Y33477D1*
X69366Y33380D1*
X69462Y33331D1*
X69608D1*
X69705Y33380D1*
X69802Y33477D1*
X68906Y33719D2*
X68323D1*
Y33817D1*
X68371Y33915D1*
X68420Y33963D1*
X68517Y34011D1*
X68663D1*
X68760Y33963D1*
X68858Y33865D1*
X68906Y33719D1*
Y33623D1*
X68858Y33477D1*
X68760Y33380D1*
X68663Y33331D1*
X68517D1*
X68420Y33380D1*
X68323Y33477D1*
X68009Y34011D2*
Y33331D1*
Y33719D2*
X67960Y33865D1*
X67863Y33963D1*
X67766Y34011D1*
X67620D1*
X66318Y34351D2*
Y33331D1*
X65762Y34011D2*
X65859Y33963D1*
X65956Y33865D1*
X66005Y33719D1*
Y33623D1*
X65956Y33477D1*
X65859Y33380D1*
X65762Y33331D1*
X65616D1*
X65518Y33380D1*
X65422Y33477D1*
X65372Y33623D1*
Y33719D1*
X65422Y33865D1*
X65518Y33963D1*
X65616Y34011D1*
X65762D1*
X64474Y33865D2*
X64572Y33963D1*
X64670Y34011D1*
X64815D1*
X64912Y33963D1*
X65009Y33865D1*
X65058Y33719D1*
Y33623D1*
X65009Y33477D1*
X64912Y33380D1*
X64815Y33331D1*
X64670D1*
X64572Y33380D1*
X64474Y33477D1*
X63578Y34011D2*
Y33331D1*
Y33865D2*
X63674Y33963D1*
X63772Y34011D1*
X63917D1*
X64015Y33963D1*
X64111Y33865D1*
X64161Y33719D1*
Y33623D1*
X64111Y33477D1*
X64015Y33380D1*
X63917Y33331D1*
X63772D1*
X63674Y33380D1*
X63578Y33477D1*
X63118Y34351D2*
Y33525D1*
X63070Y33380D1*
X62972Y33331D1*
X62876D1*
X63264Y34011D2*
X62924D1*
X62562Y33719D2*
X61979D1*
Y33817D1*
X62027Y33915D1*
X62076Y33963D1*
X62173Y34011D1*
X62319D1*
X62416Y33963D1*
X62514Y33865D1*
X62562Y33719D1*
Y33623D1*
X62514Y33477D1*
X62416Y33380D1*
X62319Y33331D1*
X62173D1*
X62076Y33380D1*
X61979Y33477D1*
X61082Y34351D2*
Y33331D1*
Y33865D2*
X61179Y33963D1*
X61277Y34011D1*
X61423D1*
X61519Y33963D1*
X61617Y33865D1*
X61665Y33719D1*
Y33623D1*
X61617Y33477D1*
X61519Y33380D1*
X61423Y33331D1*
X61277D1*
X61179Y33380D1*
X61082Y33477D1*
X72488Y32065D2*
X72586Y32163D1*
X72684Y32211D1*
X72828D1*
X72926Y32163D1*
X73023Y32065D1*
X73072Y31919D1*
Y31823D1*
X73023Y31677D1*
X72926Y31580D1*
X72828Y31531D1*
X72684D1*
X72586Y31580D1*
X72488Y31677D1*
X72174Y32551D2*
Y31531D1*
X71618Y32211D2*
X71715Y32163D1*
X71812Y32065D1*
X71861Y31919D1*
Y31823D1*
X71812Y31677D1*
X71715Y31580D1*
X71618Y31531D1*
X71472D1*
X71374Y31580D1*
X71278Y31677D1*
X71228Y31823D1*
Y31919D1*
X71278Y32065D1*
X71374Y32163D1*
X71472Y32211D1*
X71618D1*
X70380Y32065D2*
X70428Y32163D1*
X70574Y32211D1*
X70720D1*
X70866Y32163D1*
X70915Y32065D1*
X70866Y31969D1*
X70769Y31919D1*
X70526Y31871D1*
X70428Y31823D1*
X70380Y31725D1*
Y31677D1*
X70428Y31580D1*
X70574Y31531D1*
X70720D1*
X70866Y31580D1*
X70915Y31677D1*
X70066Y31919D2*
X69483D1*
Y32017D1*
X69532Y32115D1*
X69580Y32163D1*
X69678Y32211D1*
X69824D1*
X69920Y32163D1*
X70018Y32065D1*
X70066Y31919D1*
Y31823D1*
X70018Y31677D1*
X69920Y31580D1*
X69824Y31531D1*
X69678D1*
X69580Y31580D1*
X69483Y31677D1*
X68635Y32065D2*
X68683Y32163D1*
X68829Y32211D1*
X68975D1*
X69121Y32163D1*
X69170Y32065D1*
X69121Y31969D1*
X69024Y31919D1*
X68781Y31871D1*
X68683Y31823D1*
X68635Y31725D1*
Y31677D1*
X68683Y31580D1*
X68829Y31531D1*
X68975D1*
X69121Y31580D1*
X69170Y31677D1*
X68175Y32551D2*
Y31725D1*
X68127Y31580D1*
X68029Y31531D1*
X67933D1*
X68321Y32211D2*
X67981D1*
X65498Y32551D2*
Y31725D1*
X65450Y31580D1*
X65352Y31531D1*
X65255D1*
X65644Y32211D2*
X65304D1*
X64699D2*
X64796Y32163D1*
X64893Y32065D1*
X64942Y31919D1*
Y31823D1*
X64893Y31677D1*
X64796Y31580D1*
X64699Y31531D1*
X64553D1*
X64455Y31580D1*
X64359Y31677D1*
X64309Y31823D1*
Y31919D1*
X64359Y32065D1*
X64455Y32163D1*
X64553Y32211D1*
X64699D1*
X62862Y32551D2*
Y31725D1*
X62814Y31580D1*
X62716Y31531D1*
X62620D1*
X63008Y32211D2*
X62668D1*
X62306Y32551D2*
Y31531D1*
Y32017D2*
X62160Y32163D1*
X62062Y32211D1*
X61916D1*
X61820Y32163D1*
X61771Y32017D1*
Y31531D1*
X60875Y32211D2*
Y31531D1*
Y32065D2*
X60971Y32163D1*
X61069Y32211D1*
X61214D1*
X61311Y32163D1*
X61408Y32065D1*
X61457Y31919D1*
Y31823D1*
X61408Y31677D1*
X61311Y31580D1*
X61214Y31531D1*
X61069D1*
X60971Y31580D1*
X60875Y31677D1*
X60415Y32551D2*
Y31725D1*
X60367Y31580D1*
X60269Y31531D1*
X60172D1*
X60561Y32211D2*
X60221D1*
X58871D2*
Y31190D1*
Y32065D2*
X58773Y32162D1*
X58677Y32211D1*
X58531D1*
X58433Y32162D1*
X58336Y32065D1*
X58287Y31919D1*
Y31821D1*
X58336Y31677D1*
X58433Y31579D1*
X58531Y31531D1*
X58677D1*
X58773Y31579D1*
X58871Y31677D1*
X57390Y32211D2*
Y31531D1*
Y32065D2*
X57487Y32163D1*
X57585Y32211D1*
X57730D1*
X57827Y32163D1*
X57924Y32065D1*
X57973Y31919D1*
Y31823D1*
X57924Y31677D1*
X57827Y31580D1*
X57730Y31531D1*
X57585D1*
X57487Y31580D1*
X57390Y31677D1*
X56494Y32551D2*
Y31531D1*
Y32065D2*
X56590Y32163D1*
X56688Y32211D1*
X56834D1*
X56931Y32163D1*
X57028Y32065D1*
X57077Y31919D1*
Y31823D1*
X57028Y31677D1*
X56931Y31580D1*
X56834Y31531D1*
X56688D1*
X56590Y31580D1*
X56494Y31677D1*
X56132Y31628D2*
X56180Y31579D1*
X56132Y31531D1*
X56082Y31579D1*
X56132Y31628D1*
X72022Y41638D2*
D78*
Y40872D1*
X71584D1*
X71130Y41638D2*
X71203Y41601D1*
X71276Y41528D1*
X71313Y41456D1*
X71349Y41346D1*
Y41163D1*
X71313Y41055D1*
X71276Y40981D1*
X71203Y40909D1*
X71130Y40872D1*
X70984D1*
X70912Y40909D1*
X70839Y40981D1*
X70802Y41055D1*
X70766Y41163D1*
Y41346D1*
X70802Y41456D1*
X70839Y41528D1*
X70912Y41601D1*
X70984Y41638D1*
X71130D1*
X70021D2*
Y40872D1*
X70531Y41638D1*
Y40872D1*
X69239Y41456D2*
X69275Y41528D1*
X69348Y41601D1*
X69420Y41638D1*
X69566D1*
X69639Y41601D1*
X69712Y41528D1*
X69749Y41456D1*
X69785Y41346D1*
Y41163D1*
X69749Y41055D1*
X69712Y40981D1*
X69639Y40909D1*
X69566Y40872D1*
X69420D1*
X69348Y40909D1*
X69275Y40981D1*
X69239Y41055D1*
Y41163D1*
X69420D1*
X68263Y41638D2*
Y40872D1*
X67825D1*
X67117Y41638D2*
X67590D1*
Y40872D1*
X67117D1*
X67590Y41273D2*
X67299D1*
X66298Y40872D2*
X66590Y41638D1*
X66881Y40872D1*
X66772Y41127D2*
X66407D1*
X66062Y41638D2*
Y40872D1*
X65807D1*
X65698Y40909D1*
X65624Y40981D1*
X65588Y41055D1*
X65552Y41163D1*
Y41346D1*
X65588Y41456D1*
X65624Y41528D1*
X65698Y41601D1*
X65807Y41638D1*
X66062D1*
X64321D2*
Y40872D1*
X64576Y41638D2*
X64066D1*
X63830D2*
Y40872D1*
X63320Y41638D2*
Y40872D1*
X63830Y41273D2*
X63320D1*
X63085Y41638D2*
Y40872D1*
X62339Y41528D2*
X62411Y41601D1*
X62521Y41638D1*
X62666D1*
X62776Y41601D1*
X62849Y41528D1*
Y41456D1*
X62812Y41382D1*
X62776Y41346D1*
X62704Y41310D1*
X62485Y41237D1*
X62411Y41200D1*
X62375Y41163D1*
X62339Y41091D1*
Y40981D1*
X62411Y40909D1*
X62521Y40872D1*
X62666D1*
X62776Y40909D1*
X62849Y40981D1*
X60852Y41528D2*
X60925Y41601D1*
X61034Y41638D1*
X61180D1*
X61290Y41601D1*
X61363Y41528D1*
Y41456D1*
X61326Y41382D1*
X61290Y41346D1*
X61217Y41310D1*
X60998Y41237D1*
X60925Y41200D1*
X60889Y41163D1*
X60852Y41091D1*
Y40981D1*
X60925Y40909D1*
X61034Y40872D1*
X61180D1*
X61290Y40909D1*
X61363Y40981D1*
X60617Y41638D2*
Y40872D1*
X60382Y41638D2*
Y40872D1*
X60127D1*
X60017Y40909D1*
X59944Y40981D1*
X59908Y41055D1*
X59871Y41163D1*
Y41346D1*
X59908Y41456D1*
X59944Y41528D1*
X60017Y41601D1*
X60127Y41638D1*
X60382D1*
X59163D2*
X59636D1*
Y40872D1*
X59163D1*
X59636Y41273D2*
X59345D1*
X58905Y47152D2*
X58833Y47189D1*
X58760Y47262D1*
X58723Y47334D1*
Y47480D1*
X58760Y47553D1*
X58833Y47626D1*
X58905Y47663D1*
X59015Y47699D1*
X59198D1*
X59306Y47663D1*
X59380Y47626D1*
X59452Y47553D1*
X59489Y47480D1*
Y47334D1*
X59452Y47262D1*
X59380Y47189D1*
X59306Y47152D1*
X59489Y42194D2*
X58723Y42486D1*
X59489Y42777D1*
X59234Y42668D2*
Y42303D1*
X61445Y47152D2*
X61373Y47189D1*
X61300Y47262D1*
X61263Y47334D1*
Y47480D1*
X61300Y47553D1*
X61373Y47626D1*
X61445Y47663D1*
X61555Y47699D1*
X61738D1*
X61846Y47663D1*
X61920Y47626D1*
X61992Y47553D1*
X62029Y47480D1*
Y47334D1*
X61992Y47262D1*
X61920Y47189D1*
X61846Y47152D1*
X62029Y42194D2*
X61263Y42486D1*
X62029Y42777D1*
X61774Y42668D2*
Y42303D1*
X63985Y47152D2*
X63913Y47189D1*
X63840Y47262D1*
X63803Y47334D1*
Y47480D1*
X63840Y47553D1*
X63913Y47626D1*
X63985Y47663D1*
X64095Y47699D1*
X64278D1*
X64386Y47663D1*
X64460Y47626D1*
X64532Y47553D1*
X64569Y47480D1*
Y47334D1*
X64532Y47262D1*
X64460Y47189D1*
X64386Y47152D1*
X64569Y42194D2*
X63803Y42486D1*
X64569Y42777D1*
X64314Y42668D2*
Y42303D1*
X66525Y47152D2*
X66453Y47189D1*
X66380Y47262D1*
X66343Y47334D1*
Y47480D1*
X66380Y47553D1*
X66453Y47626D1*
X66525Y47663D1*
X66635Y47699D1*
X66818D1*
X66926Y47663D1*
X67000Y47626D1*
X67072Y47553D1*
X67109Y47480D1*
Y47334D1*
X67072Y47262D1*
X67000Y47189D1*
X66926Y47152D1*
X67109Y42194D2*
X66343Y42486D1*
X67109Y42777D1*
X66854Y42668D2*
Y42303D1*
X69065Y47152D2*
X68993Y47189D1*
X68920Y47262D1*
X68883Y47334D1*
Y47480D1*
X68920Y47553D1*
X68993Y47626D1*
X69065Y47663D1*
X69175Y47699D1*
X69358D1*
X69466Y47663D1*
X69540Y47626D1*
X69612Y47553D1*
X69649Y47480D1*
Y47334D1*
X69612Y47262D1*
X69540Y47189D1*
X69466Y47152D1*
X69649Y42194D2*
X68883Y42486D1*
X69649Y42777D1*
X69394Y42668D2*
Y42303D1*
X71605Y47152D2*
X71533Y47189D1*
X71460Y47262D1*
X71423Y47334D1*
Y47480D1*
X71460Y47553D1*
X71533Y47626D1*
X71605Y47663D1*
X71715Y47699D1*
X71898D1*
X72006Y47663D1*
X72080Y47626D1*
X72152Y47553D1*
X72189Y47480D1*
Y47334D1*
X72152Y47262D1*
X72080Y47189D1*
X72006Y47152D1*
X72189Y42194D2*
X71423Y42486D1*
X72189Y42777D1*
X71934Y42668D2*
Y42303D1*
X24651Y22660D2*
X24687Y22733D1*
X24760Y22806D1*
X24833Y22842D1*
X24979D1*
X25052Y22806D1*
X25124Y22733D1*
X25161Y22660D1*
X25198Y22551D1*
Y22368D1*
X25161Y22259D1*
X25124Y22186D1*
X25052Y22114D1*
X24979Y22077D1*
X24833D1*
X24760Y22114D1*
X24687Y22186D1*
X24651Y22259D1*
Y22368D1*
X24833D1*
X23905Y22842D2*
Y22077D1*
X24416Y22842D1*
Y22077D1*
X23670Y22842D2*
Y22077D1*
X23415D1*
X23305Y22114D1*
X23232Y22186D1*
X23196Y22259D1*
X23160Y22368D1*
Y22551D1*
X23196Y22660D1*
X23232Y22733D1*
X23305Y22806D1*
X23415Y22842D1*
X23670D1*
X25951Y28057D2*
X25988Y28130D1*
X26061Y28203D1*
X26133Y28239D1*
X26279D1*
X26352Y28203D1*
X26425Y28130D1*
X26462Y28057D1*
X26498Y27948D1*
Y27765D1*
X26462Y27656D1*
X26425Y27583D1*
X26352Y27511D1*
X26279Y27474D1*
X26133D1*
X26061Y27511D1*
X25988Y27583D1*
X25951Y27656D1*
Y27765D1*
X26133D1*
X25206Y28239D2*
Y27474D1*
X25716Y28239D1*
Y27474D1*
X24970Y28239D2*
Y27474D1*
X24715D1*
X24606Y27511D1*
X24532Y27583D1*
X24496Y27656D1*
X24460Y27765D1*
Y27948D1*
X24496Y28057D1*
X24532Y28130D1*
X24606Y28203D1*
X24715Y28239D1*
X24970D1*
X27151Y22660D2*
X27187Y22733D1*
X27260Y22806D1*
X27333Y22842D1*
X27479D1*
X27552Y22806D1*
X27624Y22733D1*
X27661Y22660D1*
X27698Y22551D1*
Y22368D1*
X27661Y22259D1*
X27624Y22186D1*
X27552Y22114D1*
X27479Y22077D1*
X27333D1*
X27260Y22114D1*
X27187Y22186D1*
X27151Y22259D1*
Y22368D1*
X27333D1*
X26405Y22842D2*
Y22077D1*
X26916Y22842D1*
Y22077D1*
X26170Y22842D2*
Y22077D1*
X25915D1*
X25805Y22114D1*
X25732Y22186D1*
X25696Y22259D1*
X25660Y22368D1*
Y22551D1*
X25696Y22660D1*
X25732Y22733D1*
X25805Y22806D1*
X25915Y22842D1*
X26170D1*
X31051Y28057D2*
X31087Y28130D1*
X31160Y28203D1*
X31233Y28239D1*
X31379D1*
X31452Y28203D1*
X31524Y28130D1*
X31561Y28057D1*
X31598Y27948D1*
Y27765D1*
X31561Y27656D1*
X31524Y27583D1*
X31452Y27511D1*
X31379Y27474D1*
X31233D1*
X31160Y27511D1*
X31087Y27583D1*
X31051Y27656D1*
Y27765D1*
X31233D1*
X30305Y28239D2*
Y27474D1*
X30816Y28239D1*
Y27474D1*
X30070Y28239D2*
Y27474D1*
X29815D1*
X29705Y27511D1*
X29632Y27583D1*
X29596Y27656D1*
X29560Y27765D1*
Y27948D1*
X29596Y28057D1*
X29632Y28130D1*
X29705Y28203D1*
X29815Y28239D1*
X30070D1*
X28413Y28022D2*
X28450Y28095D1*
X28523Y28168D1*
X28595Y28204D1*
X28741D1*
X28814Y28168D1*
X28887Y28095D1*
X28924Y28022D1*
X28960Y27913D1*
Y27730D1*
X28924Y27621D1*
X28887Y27548D1*
X28814Y27475D1*
X28741Y27438D1*
X28595D1*
X28523Y27475D1*
X28450Y27548D1*
X28413Y27621D1*
X28178Y28204D2*
Y27438D1*
X27741D1*
X27506Y28204D2*
Y27438D1*
X26995Y28204D2*
X27506Y27694D1*
X27324Y27876D2*
X26995Y27438D1*
X29613Y22759D2*
X29686Y22832D1*
X29795Y22868D1*
X29941D1*
X30051Y22832D1*
X30124Y22759D1*
Y22686D1*
X30087Y22613D1*
X30051Y22577D1*
X29978Y22541D1*
X29759Y22467D1*
X29686Y22431D1*
X29650Y22394D1*
X29613Y22322D1*
Y22212D1*
X29686Y22140D1*
X29795Y22103D1*
X29941D1*
X30051Y22140D1*
X30124Y22212D1*
X29378Y22868D2*
Y22103D1*
X29123D1*
X29013Y22140D1*
X28940Y22212D1*
X28904Y22285D1*
X28868Y22394D1*
Y22577D1*
X28904Y22686D1*
X28940Y22759D1*
X29013Y22832D1*
X29123Y22868D1*
X29378D1*
X28632D2*
Y22103D1*
X32680Y22776D2*
X32606Y22813D1*
X32497Y22921D1*
Y22156D1*
X32225Y22739D2*
Y22776D1*
X32188Y22849D1*
X32152Y22885D1*
X32079Y22921D1*
X31933D1*
X31861Y22885D1*
X31825Y22849D1*
X31787Y22776D1*
Y22703D1*
X31825Y22630D1*
X31897Y22521D1*
X32262Y22156D1*
X31751D1*
X31516Y22667D2*
X31297Y22156D1*
X31079Y22667D1*
X33232Y28313D2*
X33596D1*
X33632Y27985D1*
X33596Y28021D1*
X33487Y28058D1*
X33378D1*
X33268Y28021D1*
X33195Y27949D1*
X33159Y27839D1*
Y27767D1*
X33195Y27657D1*
X33268Y27584D1*
X33378Y27548D1*
X33487D1*
X33596Y27584D1*
X33632Y27621D1*
X33669Y27694D1*
X32924Y28058D2*
X32705Y27548D1*
X32486Y28058D1*
X41751Y22660D2*
X41787Y22733D1*
X41860Y22806D1*
X41933Y22842D1*
X42079D1*
X42152Y22806D1*
X42224Y22733D1*
X42261Y22660D1*
X42298Y22551D1*
Y22368D1*
X42261Y22259D1*
X42224Y22186D1*
X42152Y22114D1*
X42079Y22077D1*
X41933D1*
X41860Y22114D1*
X41787Y22186D1*
X41751Y22259D1*
Y22368D1*
X41933D1*
X41005Y22842D2*
Y22077D1*
X41516Y22842D1*
Y22077D1*
X40770Y22842D2*
Y22077D1*
X40515D1*
X40405Y22114D1*
X40332Y22186D1*
X40296Y22259D1*
X40260Y22368D1*
Y22551D1*
X40296Y22660D1*
X40332Y22733D1*
X40405Y22806D1*
X40515Y22842D1*
X40770D1*
X43051Y28057D2*
X43088Y28130D1*
X43161Y28203D1*
X43233Y28239D1*
X43379D1*
X43452Y28203D1*
X43525Y28130D1*
X43562Y28057D1*
X43598Y27948D1*
Y27765D1*
X43562Y27656D1*
X43525Y27583D1*
X43452Y27511D1*
X43379Y27474D1*
X43233D1*
X43161Y27511D1*
X43088Y27583D1*
X43051Y27656D1*
Y27765D1*
X43233D1*
X42306Y28239D2*
Y27474D1*
X42816Y28239D1*
Y27474D1*
X42070Y28239D2*
Y27474D1*
X41815D1*
X41706Y27511D1*
X41632Y27583D1*
X41596Y27656D1*
X41560Y27765D1*
Y27948D1*
X41596Y28057D1*
X41632Y28130D1*
X41706Y28203D1*
X41815Y28239D1*
X42070D1*
X44251Y22660D2*
X44287Y22733D1*
X44360Y22806D1*
X44433Y22842D1*
X44579D1*
X44652Y22806D1*
X44724Y22733D1*
X44761Y22660D1*
X44798Y22551D1*
Y22368D1*
X44761Y22259D1*
X44724Y22186D1*
X44652Y22114D1*
X44579Y22077D1*
X44433D1*
X44360Y22114D1*
X44287Y22186D1*
X44251Y22259D1*
Y22368D1*
X44433D1*
X43505Y22842D2*
Y22077D1*
X44016Y22842D1*
Y22077D1*
X43270Y22842D2*
Y22077D1*
X43015D1*
X42905Y22114D1*
X42832Y22186D1*
X42796Y22259D1*
X42760Y22368D1*
Y22551D1*
X42796Y22660D1*
X42832Y22733D1*
X42905Y22806D1*
X43015Y22842D1*
X43270D1*
X48151Y28057D2*
X48187Y28130D1*
X48260Y28203D1*
X48333Y28239D1*
X48479D1*
X48552Y28203D1*
X48624Y28130D1*
X48661Y28057D1*
X48698Y27948D1*
Y27765D1*
X48661Y27656D1*
X48624Y27583D1*
X48552Y27511D1*
X48479Y27474D1*
X48333D1*
X48260Y27511D1*
X48187Y27583D1*
X48151Y27656D1*
Y27765D1*
X48333D1*
X47405Y28239D2*
Y27474D1*
X47916Y28239D1*
Y27474D1*
X47170Y28239D2*
Y27474D1*
X46915D1*
X46805Y27511D1*
X46732Y27583D1*
X46696Y27656D1*
X46660Y27765D1*
Y27948D1*
X46696Y28057D1*
X46732Y28130D1*
X46805Y28203D1*
X46915Y28239D1*
X47170D1*
X45513Y28022D2*
X45550Y28095D1*
X45623Y28168D1*
X45695Y28204D1*
X45841D1*
X45914Y28168D1*
X45987Y28095D1*
X46024Y28022D1*
X46060Y27913D1*
Y27730D1*
X46024Y27621D1*
X45987Y27548D1*
X45914Y27475D1*
X45841Y27438D1*
X45695D1*
X45623Y27475D1*
X45550Y27548D1*
X45513Y27621D1*
X45278Y28204D2*
Y27438D1*
X44841D1*
X44606Y28204D2*
Y27438D1*
X44095Y28204D2*
X44606Y27694D1*
X44424Y27876D2*
X44095Y27438D1*
X46713Y22759D2*
X46786Y22832D1*
X46895Y22868D1*
X47041D1*
X47151Y22832D1*
X47224Y22759D1*
Y22686D1*
X47187Y22613D1*
X47151Y22577D1*
X47078Y22541D1*
X46859Y22467D1*
X46786Y22431D1*
X46750Y22394D1*
X46713Y22322D1*
Y22212D1*
X46786Y22140D1*
X46895Y22103D1*
X47041D1*
X47151Y22140D1*
X47224Y22212D1*
X46478Y22868D2*
Y22103D1*
X46223D1*
X46113Y22140D1*
X46040Y22212D1*
X46004Y22285D1*
X45968Y22394D1*
Y22577D1*
X46004Y22686D1*
X46040Y22759D1*
X46113Y22832D1*
X46223Y22868D1*
X46478D1*
X45732D2*
Y22103D1*
X49780Y22776D2*
X49706Y22813D1*
X49597Y22921D1*
Y22156D1*
X49325Y22739D2*
Y22776D1*
X49288Y22849D1*
X49252Y22885D1*
X49179Y22921D1*
X49033D1*
X48961Y22885D1*
X48925Y22849D1*
X48887Y22776D1*
Y22703D1*
X48925Y22630D1*
X48997Y22521D1*
X49362Y22156D1*
X48851D1*
X48616Y22667D2*
X48397Y22156D1*
X48179Y22667D1*
X50332Y28313D2*
X50696D1*
X50732Y27985D1*
X50696Y28021D1*
X50587Y28058D1*
X50478D1*
X50368Y28021D1*
X50295Y27949D1*
X50259Y27839D1*
Y27767D1*
X50295Y27657D1*
X50368Y27584D1*
X50478Y27548D1*
X50587D1*
X50696Y27584D1*
X50732Y27621D1*
X50769Y27694D1*
X50024Y28058D2*
X49805Y27548D1*
X49586Y28058D1*
X39525Y35070D2*
X39488Y34997D1*
X39379Y34888D1*
X40144D1*
Y34069D2*
X39378Y34361D1*
X40144Y34652D1*
X39889Y34543D2*
Y34178D1*
X41626Y34898D2*
X41589Y34824D1*
X41480Y34715D1*
X42245D1*
X41479Y34480D2*
X42245D1*
Y34151D1*
X42208Y34042D1*
X42172Y34005D1*
X42099Y33969D1*
X41990D1*
X41916Y34005D1*
X41880Y34042D1*
X41844Y34151D1*
X41807Y34042D1*
X41771Y34005D1*
X41698Y33969D1*
X41625D1*
X41553Y34005D1*
X41515Y34042D1*
X41479Y34151D1*
Y34480D1*
X41844D2*
Y34151D1*
X45824Y36570D2*
X45787Y36497D1*
X45678Y36387D1*
X46443D1*
X45678Y36152D2*
X46042Y35860D1*
X46443D1*
X45678Y35569D2*
X46042Y35860D1*
X47162Y35362D2*
X47126D1*
X47052Y35326D1*
X47016Y35290D1*
X46980Y35216D1*
Y35071D1*
X47016Y34998D1*
X47052Y34962D1*
X47126Y34925D1*
X47198D1*
X47271Y34962D1*
X47380Y35034D1*
X47745Y35399D1*
Y34889D1*
Y34070D2*
X46979Y34362D1*
X47745Y34653D1*
X47489Y34544D2*
Y34179D1*
X49261Y35187D2*
X49225D1*
X49151Y35151D1*
X49115Y35115D1*
X49079Y35042D1*
Y34896D1*
X49115Y34824D1*
X49151Y34787D1*
X49225Y34750D1*
X49297D1*
X49370Y34787D1*
X49479Y34860D1*
X49844Y35225D1*
Y34714D1*
X49078Y34479D2*
X49844D1*
Y34150D1*
X49807Y34041D1*
X49771Y34005D1*
X49698Y33968D1*
X49589D1*
X49515Y34005D1*
X49479Y34041D1*
X49443Y34150D1*
X49406Y34041D1*
X49370Y34005D1*
X49297Y33968D1*
X49224D1*
X49151Y34005D1*
X49114Y34041D1*
X49078Y34150D1*
Y34479D1*
X49443D2*
Y34150D1*
X53461Y36760D2*
X53425D1*
X53352Y36724D1*
X53316Y36688D1*
X53279Y36614D1*
Y36469D1*
X53316Y36396D1*
X53352Y36360D1*
X53425Y36323D1*
X53497D1*
X53571Y36360D1*
X53679Y36432D1*
X54044Y36797D1*
Y36287D1*
X53278Y36051D2*
X53643Y35760D1*
X54044D1*
X53278Y35469D2*
X53643Y35760D1*
X55560Y35560D2*
X55487Y35596D1*
X55414Y35670D1*
X55378Y35742D1*
Y35888D1*
X55414Y35961D1*
X55487Y36034D1*
X55560Y36071D1*
X55669Y36107D1*
X55852D1*
X55960Y36071D1*
X56034Y36034D1*
X56106Y35961D1*
X56143Y35888D1*
Y35742D1*
X56106Y35670D1*
X56034Y35596D1*
X55960Y35560D1*
X55852D1*
Y35742D1*
X55378Y34814D2*
X56143D1*
X55378Y35325D1*
X56143D1*
X55378Y34579D2*
X56143D1*
Y34324D1*
X56106Y34214D1*
X56034Y34141D1*
X55960Y34105D1*
X55852Y34069D1*
X55669D1*
X55560Y34105D1*
X55487Y34141D1*
X55414Y34214D1*
X55378Y34324D1*
Y34579D1*
X40079Y39314D2*
Y39678D1*
X40406Y39714D1*
X40370Y39678D1*
X40333Y39569D1*
Y39460D1*
X40370Y39350D1*
X40443Y39277D1*
X40552Y39241D1*
X40625D1*
X40734Y39277D1*
X40807Y39350D1*
X40844Y39460D1*
Y39569D1*
X40807Y39678D1*
X40770Y39714D1*
X40698Y39751D1*
X40333Y39006D2*
X40844Y38787D1*
X40333Y38568D1*
X42745Y39496D2*
X41980D1*
X42489Y39861D1*
Y39314D1*
X41979Y39079D2*
X42745D1*
Y38750D1*
X42708Y38641D1*
X42671Y38605D1*
X42599Y38568D1*
X42489D1*
X42416Y38605D1*
X42380Y38641D1*
X42344Y38750D1*
X42307Y38641D1*
X42270Y38605D1*
X42198Y38568D1*
X42125D1*
X42052Y38605D1*
X42015Y38641D1*
X41979Y38750D1*
Y39079D1*
X42344D2*
Y38750D1*
X44644Y39569D2*
X43879D1*
X44389Y39934D1*
Y39387D1*
X44644Y38568D2*
X43878Y38861D1*
X44644Y39152D1*
X44389Y39043D2*
Y38678D1*
X48644Y38068D2*
X47879D1*
X48389Y38433D1*
Y37886D1*
X47879Y37651D2*
X48243Y37360D1*
X48644D1*
X47879Y37068D2*
X48243Y37360D1*
X49579Y39651D2*
Y39251D1*
X49870Y39469D1*
Y39360D1*
X49906Y39287D1*
X49943Y39251D1*
X50052Y39214D1*
X50125D1*
X50234Y39251D1*
X50307Y39323D1*
X50344Y39433D1*
Y39542D1*
X50307Y39651D1*
X50270Y39687D1*
X50198Y39724D1*
X49578Y38979D2*
X50344D1*
Y38650D1*
X50307Y38541D1*
X50270Y38504D1*
X50198Y38468D1*
X50088D1*
X50015Y38504D1*
X49979Y38541D1*
X49943Y38650D1*
X49906Y38541D1*
X49869Y38504D1*
X49797Y38468D1*
X49724D1*
X49651Y38504D1*
X49614Y38541D1*
X49578Y38650D1*
Y38979D1*
X49943D2*
Y38650D1*
X51480Y39725D2*
Y39325D1*
X51771Y39543D1*
Y39434D1*
X51808Y39361D1*
X51844Y39325D1*
X51953Y39288D1*
X52026D1*
X52135Y39325D1*
X52209Y39398D1*
X52245Y39507D1*
Y39617D1*
X52209Y39725D1*
X52172Y39761D1*
X52099Y39799D1*
X52245Y38469D2*
X51479Y38761D1*
X52245Y39053D1*
X51990Y38943D2*
Y38579D1*
X55678Y38224D2*
Y37824D1*
X55970Y38042D1*
Y37933D1*
X56006Y37860D1*
X56042Y37824D1*
X56152Y37787D1*
X56224D1*
X56334Y37824D1*
X56407Y37896D1*
X56443Y38006D1*
Y38115D1*
X56407Y38224D1*
X56370Y38260D1*
X56297Y38297D1*
X55677Y37552D2*
X56042Y37260D1*
X56443D1*
X55677Y36969D2*
X56042Y37260D1*
X18225Y35170D2*
X18188Y35097D1*
X18079Y34988D1*
X18844D1*
Y34169D2*
X18078Y34461D1*
X18844Y34752D1*
X18589Y34643D2*
Y34278D1*
X20326Y34998D2*
X20289Y34924D1*
X20180Y34815D1*
X20945D1*
X20179Y34580D2*
X20945D1*
Y34251D1*
X20908Y34142D1*
X20872Y34105D1*
X20799Y34069D1*
X20690D1*
X20616Y34105D1*
X20580Y34142D1*
X20544Y34251D1*
X20507Y34142D1*
X20471Y34105D1*
X20398Y34069D1*
X20325D1*
X20253Y34105D1*
X20215Y34142D1*
X20179Y34251D1*
Y34580D1*
X20544D2*
Y34251D1*
X24524Y36670D2*
X24487Y36597D1*
X24378Y36487D1*
X25143D1*
X24378Y36252D2*
X24742Y35960D1*
X25143D1*
X24378Y35669D2*
X24742Y35960D1*
X25862Y35462D2*
X25826D1*
X25752Y35426D1*
X25716Y35390D1*
X25680Y35316D1*
Y35171D1*
X25716Y35098D1*
X25752Y35062D1*
X25826Y35025D1*
X25898D1*
X25971Y35062D1*
X26080Y35134D1*
X26445Y35499D1*
Y34989D1*
Y34170D2*
X25679Y34462D1*
X26445Y34753D1*
X26189Y34644D2*
Y34279D1*
X27961Y35287D2*
X27925D1*
X27851Y35251D1*
X27815Y35215D1*
X27779Y35142D1*
Y34996D1*
X27815Y34924D1*
X27851Y34887D1*
X27925Y34850D1*
X27997D1*
X28070Y34887D1*
X28179Y34960D1*
X28544Y35325D1*
Y34814D1*
X27778Y34579D2*
X28544D1*
Y34250D1*
X28507Y34141D1*
X28471Y34105D1*
X28398Y34068D1*
X28289D1*
X28215Y34105D1*
X28179Y34141D1*
X28143Y34250D1*
X28106Y34141D1*
X28070Y34105D1*
X27997Y34068D1*
X27924D1*
X27851Y34105D1*
X27814Y34141D1*
X27778Y34250D1*
Y34579D1*
X28143D2*
Y34250D1*
X32161Y36860D2*
X32125D1*
X32052Y36824D1*
X32016Y36788D1*
X31979Y36714D1*
Y36569D1*
X32016Y36496D1*
X32052Y36460D1*
X32125Y36423D1*
X32197D1*
X32271Y36460D1*
X32379Y36532D1*
X32744Y36897D1*
Y36387D1*
X31978Y36151D2*
X32343Y35860D1*
X32744D1*
X31978Y35569D2*
X32343Y35860D1*
X34260Y35660D2*
X34187Y35696D1*
X34114Y35770D1*
X34078Y35842D1*
Y35988D1*
X34114Y36061D1*
X34187Y36134D1*
X34260Y36171D1*
X34369Y36207D1*
X34552D1*
X34660Y36171D1*
X34734Y36134D1*
X34806Y36061D1*
X34843Y35988D1*
Y35842D1*
X34806Y35770D1*
X34734Y35696D1*
X34660Y35660D1*
X34552D1*
Y35842D1*
X34078Y34914D2*
X34843D1*
X34078Y35425D1*
X34843D1*
X34078Y34679D2*
X34843D1*
Y34424D1*
X34806Y34314D1*
X34734Y34241D1*
X34660Y34205D1*
X34552Y34169D1*
X34369D1*
X34260Y34205D1*
X34187Y34241D1*
X34114Y34314D1*
X34078Y34424D1*
Y34679D1*
X18779Y39414D2*
Y39778D1*
X19106Y39814D1*
X19070Y39778D1*
X19033Y39669D1*
Y39560D1*
X19070Y39450D1*
X19143Y39377D1*
X19252Y39341D1*
X19325D1*
X19434Y39377D1*
X19507Y39450D1*
X19544Y39560D1*
Y39669D1*
X19507Y39778D1*
X19470Y39814D1*
X19398Y39851D1*
X19033Y39106D2*
X19544Y38887D1*
X19033Y38668D1*
X21445Y39596D2*
X20680D1*
X21189Y39961D1*
Y39414D1*
X20679Y39179D2*
X21445D1*
Y38850D1*
X21408Y38741D1*
X21371Y38705D1*
X21299Y38668D1*
X21189D1*
X21116Y38705D1*
X21080Y38741D1*
X21044Y38850D1*
X21007Y38741D1*
X20970Y38705D1*
X20898Y38668D1*
X20825D1*
X20752Y38705D1*
X20715Y38741D1*
X20679Y38850D1*
Y39179D1*
X21044D2*
Y38850D1*
X23344Y39669D2*
X22579D1*
X23089Y40034D1*
Y39487D1*
X23344Y38668D2*
X22578Y38961D1*
X23344Y39252D1*
X23089Y39143D2*
Y38778D1*
X27344Y38168D2*
X26579D1*
X27089Y38533D1*
Y37986D1*
X26579Y37751D2*
X26943Y37460D1*
X27344D1*
X26579Y37168D2*
X26943Y37460D1*
X28279Y39751D2*
Y39351D1*
X28570Y39569D1*
Y39460D1*
X28606Y39387D1*
X28643Y39351D1*
X28752Y39314D1*
X28825D1*
X28934Y39351D1*
X29007Y39423D1*
X29044Y39533D1*
Y39642D1*
X29007Y39751D1*
X28970Y39787D1*
X28898Y39824D1*
X28278Y39079D2*
X29044D1*
Y38750D1*
X29007Y38641D1*
X28970Y38604D1*
X28898Y38568D1*
X28788D1*
X28715Y38604D1*
X28679Y38641D1*
X28643Y38750D1*
X28606Y38641D1*
X28569Y38604D1*
X28497Y38568D1*
X28424D1*
X28351Y38604D1*
X28314Y38641D1*
X28278Y38750D1*
Y39079D1*
X28643D2*
Y38750D1*
X30180Y39825D2*
Y39425D1*
X30471Y39643D1*
Y39534D1*
X30508Y39461D1*
X30544Y39425D1*
X30653Y39388D1*
X30726D1*
X30835Y39425D1*
X30909Y39498D1*
X30945Y39607D1*
Y39717D1*
X30909Y39825D1*
X30872Y39861D1*
X30799Y39899D1*
X30945Y38569D2*
X30179Y38861D1*
X30945Y39153D1*
X30690Y39043D2*
Y38679D1*
X34378Y38324D2*
Y37924D1*
X34670Y38142D1*
Y38033D1*
X34706Y37960D1*
X34742Y37924D1*
X34852Y37887D1*
X34924D1*
X35034Y37924D1*
X35107Y37996D1*
X35143Y38106D1*
Y38215D1*
X35107Y38324D1*
X35070Y38360D1*
X34997Y38397D1*
X34377Y37652D2*
X34742Y37360D1*
X35143D1*
X34377Y37069D2*
X34742Y37360D1*
M02*
