G04 DipTrace 2.4.0.1*
%INBottom.gbr*%
%MOMM*%
%ADD13C,1.0*%
%ADD14C,0.33*%
%ADD15C,0.635*%
%ADD18R,1.35X1.35*%
%ADD19C,1.35*%
%ADD20C,1.65*%
%ADD21C,1.27*%
%ADD22R,1.27X1.27*%
%ADD23R,2.5X2.5*%
%ADD24C,2.5*%
%ADD25R,1.5X1.5*%
%ADD26C,1.5*%
%ADD27R,1.524X1.524*%
%ADD28C,1.524*%
%ADD29O,2.0X1.0*%
%ADD30C,1.27*%
%ADD31C,1.5*%
%ADD32C,2.2*%
%ADD35C,1.9*%
%ADD36R,1.9X1.9*%
%ADD37C,1.016*%
%FSLAX53Y53*%
G04*
G71*
G90*
G75*
G01*
%LNBottom*%
%LPD*%
X89031Y13334D2*
D13*
X92600D1*
Y20500D1*
X89197D1*
X89031Y20334D1*
X92434D1*
X92600Y20500D1*
Y27400D1*
X89097D1*
X89031Y27334D1*
X92600Y27400D2*
Y34400D1*
X89097D1*
X89031Y34334D1*
X92600Y34400D2*
Y41334D1*
X89031D1*
X92600D2*
Y48334D1*
X89031D1*
X92600D2*
Y55400D1*
X89097D1*
X89031Y55334D1*
X23654Y24289D2*
X25718Y22225D1*
X39690D1*
X41595Y24130D1*
X24100Y47300D2*
X22600Y48800D1*
Y56700D1*
X72600D1*
X76300Y60400D1*
Y64500D1*
X91000D1*
X92600Y62900D1*
Y55400D1*
X23654Y24289D2*
Y24342D1*
X22636Y25360D1*
X15700D1*
X41595Y24130D2*
X37400Y28325D1*
Y33820D1*
X35580D1*
X24100Y45300D1*
Y47300D1*
X71335Y37200D2*
D14*
X71284Y37149D1*
X55000Y52700D2*
X49500D1*
Y25400D1*
X49000D1*
X37180Y52700D2*
X49500D1*
X15857Y48513D2*
Y50613D1*
X14787D1*
X14300Y51100D1*
Y55900D1*
X15113Y56713D1*
X15857D1*
Y48513D2*
X17000D1*
Y28100D1*
Y26700D1*
X14500D1*
Y22900D1*
X15620D1*
X15700Y22820D1*
X78870Y63180D2*
X77300D1*
Y59825D1*
Y56800D1*
X78840D1*
X78870Y56830D1*
X77300Y56800D2*
Y50600D1*
X78991D1*
X79028Y50638D1*
X77300Y50600D2*
Y44700D1*
X79092D1*
X79187Y44605D1*
X77300Y44700D2*
Y38300D1*
X79074D1*
X79187Y38413D1*
X77300Y38300D2*
Y35800D1*
Y32380D1*
X79187D1*
X65985Y48263D2*
Y50803D1*
X58365Y38103D2*
Y38165D1*
X62700Y42500D1*
Y44978D1*
X65985Y48263D1*
X66085Y24131D2*
Y26671D1*
Y24131D2*
X66031D1*
X62200Y20300D1*
Y17706D1*
X58465Y13971D1*
X27464Y26829D2*
Y28100D1*
X17000D1*
X66085Y26671D2*
X69379Y29965D1*
Y35194D1*
X69985Y35800D1*
X77300D1*
X44900Y45300D2*
Y31600D1*
X45000D1*
X14500Y22900D2*
Y19000D1*
X16300D1*
X23700Y11600D1*
X46480D1*
X56094D1*
X58465Y13971D1*
X45000Y31600D2*
Y27700D1*
X45900Y26800D1*
X45770Y26670D1*
X45405D1*
Y12675D1*
X46480Y11600D1*
X78870Y63180D2*
X85420D1*
X89100Y59500D1*
Y58903D1*
X89031Y58834D1*
X65985Y50803D2*
X66203D1*
X71000Y55600D1*
X73075D1*
X77300Y59825D1*
X41000Y46500D2*
X46694D1*
X48200Y44994D1*
Y40800D1*
X39800Y43200D2*
Y43900D1*
X34140Y49560D1*
X34680D1*
X79187Y31110D2*
X77692D1*
Y28465D1*
X78253Y27904D1*
Y14262D1*
X79663Y12852D1*
X37220Y49560D2*
X39802D1*
X45940D1*
X48100Y47400D1*
X47800D1*
X39802Y49560D2*
Y46398D1*
X41300Y44900D1*
Y30237D1*
X44135Y27402D1*
Y24130D1*
X84462Y36079D2*
Y22731D1*
X79663Y17932D1*
X78870Y61910D2*
X80793D1*
Y26683D1*
X79663Y25553D1*
X37400Y38900D2*
X34760Y41540D1*
Y44500D1*
X31900D1*
X24100Y52300D1*
X83000Y50000D2*
Y23809D1*
X79663Y20472D1*
X81700Y55900D2*
Y25050D1*
X79663Y23013D1*
X71284Y34609D2*
X74509Y31384D1*
Y28167D1*
X77123Y25553D1*
X71284Y32069D2*
X73849Y29504D1*
Y26287D1*
X77123Y23013D1*
X71284Y29529D2*
X73189Y27624D1*
Y24406D1*
X77123Y20472D1*
Y17932D2*
X73189D1*
X72529Y18592D1*
Y22494D1*
X71869Y23154D1*
X68065D1*
X67405Y22494D1*
Y15291D1*
X66085Y13971D1*
X71869Y23154D2*
X72529Y23814D1*
Y25744D1*
X71284Y26989D1*
Y21909D2*
X69928Y20553D1*
Y17772D1*
X70588Y17112D1*
X74452D1*
X75112Y16452D1*
Y14863D1*
X77123Y12852D1*
X48200Y54800D2*
Y55300D1*
X34700D1*
X32100Y52700D1*
X40900Y51800D2*
X39917Y50817D1*
X33397D1*
X32140Y49560D1*
X58465Y19051D2*
X59710Y20296D1*
Y25426D1*
X58465Y26671D1*
X58365Y50803D2*
X55568Y53600D1*
X39900D1*
Y53900D1*
X58365Y43183D2*
X59610Y44428D1*
Y49558D1*
X58365Y50803D1*
X58465Y26671D2*
X57200Y27936D1*
Y42018D1*
X58365Y43183D1*
D37*
X45000Y31600D3*
X44900Y45300D3*
X49000Y25400D3*
X55000Y52700D3*
X48200Y40800D3*
X41000Y46500D3*
X39800Y43200D3*
X47800Y47400D3*
X84462Y36079D3*
X83000Y50000D3*
X81700Y55900D3*
X48200Y54800D3*
X39900Y53900D3*
X40900Y51800D3*
X12227Y59088D2*
D15*
X11026Y57887D1*
X13848Y58912D2*
X11026Y56091D1*
X15861Y59130D2*
X11026Y54295D1*
X16731Y58204D2*
X11026Y52499D1*
X18303Y57979D2*
X16407Y56084D1*
X14388Y54064D2*
X11026Y50702D1*
X20099Y57979D2*
X17326Y55207D1*
X14416Y52296D2*
X11026Y48906D1*
X21895Y57979D2*
X17326Y53411D1*
X15202Y51286D2*
X11440Y47524D1*
X21383Y55671D2*
X13236Y47524D1*
X21383Y53875D2*
X14850Y47342D1*
X24785Y55482D2*
X23816Y54512D1*
X21383Y52079D2*
X15790Y46486D1*
X26581Y55482D2*
X24679Y53579D1*
X21383Y50283D2*
X16021Y44921D1*
X28377Y55482D2*
X25471Y52576D1*
X21411Y48515D2*
X16021Y43125D1*
X30173Y55482D2*
X26180Y51488D1*
X24912Y50220D2*
X23921Y49229D1*
X22168Y47477D2*
X16021Y41329D1*
X31970Y55482D2*
X27078Y50590D1*
X25810Y49322D2*
X25184Y48696D1*
X22709Y46221D2*
X16021Y39533D1*
X30623Y52339D2*
X27976Y49692D1*
X26708Y48424D2*
X25493Y47209D1*
X23010Y44726D2*
X16021Y37737D1*
X31303Y51223D2*
X31119Y51039D1*
X30658Y50578D2*
X28874Y48794D1*
X27606Y47526D2*
X25612Y45532D1*
X23866Y43786D2*
X18947Y38867D1*
X17292Y37212D2*
X16021Y35941D1*
X36291Y54415D2*
X35665Y53789D1*
X30658Y48782D2*
X29772Y47896D1*
X28504Y46628D2*
X26510Y44634D1*
X24764Y42888D2*
X20743Y38867D1*
X17292Y35416D2*
X16021Y34145D1*
X38087Y54415D2*
X37746Y54073D1*
X31752Y48080D2*
X30670Y46998D1*
X29402Y45730D2*
X27408Y43736D1*
X25662Y41990D2*
X21809Y38137D1*
X18022Y34350D2*
X16021Y32349D1*
X12150Y28478D2*
X11026Y27354D1*
X33808Y48340D2*
X31568Y46100D1*
X30300Y44832D2*
X28306Y42838D1*
X26560Y41092D2*
X22413Y36944D1*
X19222Y33754D2*
X16021Y30553D1*
X13946Y28478D2*
X11026Y25558D1*
X34846Y47582D2*
X32649Y45385D1*
X31198Y43934D2*
X29204Y41940D1*
X27458Y40194D2*
X16449Y29185D1*
X14416Y27152D2*
X11026Y23762D1*
X35744Y46684D2*
X35076Y46016D1*
X32678Y43618D2*
X30102Y41042D1*
X28356Y39296D2*
X17158Y28098D1*
X14241Y25180D2*
X11026Y21966D1*
X42676Y51819D2*
X41299Y50443D1*
X38922Y48066D2*
X37918Y47061D1*
X33878Y43022D2*
X31000Y40144D1*
X29254Y38398D2*
X17431Y26575D1*
X14942Y24086D2*
X11026Y20170D1*
X44472Y51819D2*
X43095Y50443D1*
X41329Y48676D2*
X40682Y48029D1*
X36123Y43471D2*
X35644Y42992D1*
X33913Y41261D2*
X31898Y39246D1*
X30152Y37500D2*
X19227Y26575D1*
X16794Y24142D2*
X11026Y18374D1*
X49930Y55482D2*
X49417Y54968D1*
X46268Y51819D2*
X44891Y50443D1*
X43125Y48676D2*
X41853Y47405D1*
X37414Y42965D2*
X36009Y41561D1*
X34734Y40285D2*
X32796Y38348D1*
X31050Y36602D2*
X21023Y26575D1*
X18590Y24142D2*
X16140Y21692D1*
X14290Y19841D2*
X11026Y16578D1*
X51726Y55482D2*
X50728Y54484D1*
X48064Y51819D2*
X46505Y50261D1*
X44921Y48676D2*
X43628Y47384D1*
X38761Y42516D2*
X36907Y40663D1*
X35632Y39387D2*
X33694Y37450D1*
X31949Y35704D2*
X24440Y28196D1*
X23558Y27313D2*
X22812Y26568D1*
X20386Y24142D2*
X17074Y20829D1*
X14269Y18024D2*
X13467Y17223D1*
X53522Y55482D2*
X52525Y54484D1*
X48618Y50578D2*
X47410Y49369D1*
X46135Y48094D2*
X45424Y47384D1*
X43658Y45617D2*
X42183Y44143D1*
X40052Y42011D2*
X38339Y40298D1*
X36004Y37963D2*
X34592Y36552D1*
X32847Y34806D2*
X25949Y27908D1*
X22147Y24107D2*
X16793Y18752D1*
X55318Y55482D2*
X54321Y54484D1*
X51656Y51819D2*
X50385Y50548D1*
X48618Y48782D2*
X48349Y48513D1*
X45454Y45617D2*
X42183Y42347D1*
X40417Y40580D2*
X39047Y39211D1*
X35779Y35943D2*
X35490Y35654D1*
X33745Y33908D2*
X26341Y26505D1*
X22660Y22823D2*
X20041Y20205D1*
X18205Y18368D2*
X17045Y17209D1*
X16233Y16397D2*
X16069Y16232D1*
X57114Y55482D2*
X56011Y54379D1*
X53452Y51819D2*
X50385Y48752D1*
X46773Y45140D2*
X42183Y40551D1*
X40417Y38784D2*
X38851Y37218D1*
X34643Y33010D2*
X27099Y25467D1*
X23915Y22283D2*
X21613Y19980D1*
X18436Y16803D2*
X16828Y15195D1*
X58910Y55482D2*
X58242Y54814D1*
X54904Y51476D2*
X50385Y46956D1*
X47320Y43892D2*
X42183Y38755D1*
X40417Y36988D2*
X38914Y35485D1*
X35730Y32301D2*
X27660Y24232D1*
X24813Y21385D2*
X22511Y19082D1*
X19334Y15905D2*
X17214Y13785D1*
X60706Y55482D2*
X59835Y54610D1*
X56560Y51335D2*
X50385Y45160D1*
X47320Y42095D2*
X42183Y36958D1*
X40417Y35192D2*
X39068Y33843D1*
X36179Y30954D2*
X28664Y23439D1*
X26231Y21006D2*
X22742Y17518D1*
X20892Y15667D2*
X16246Y11021D1*
X62502Y55482D2*
X59835Y52814D1*
X57079Y50058D2*
X50385Y43364D1*
X47152Y40131D2*
X42183Y35162D1*
X40417Y33396D2*
X38619Y31598D1*
X36179Y29158D2*
X30460Y23439D1*
X28027Y21006D2*
X18042Y11021D1*
X64298Y55482D2*
X59821Y51004D1*
X56904Y48087D2*
X50385Y41568D1*
X48422Y39605D2*
X42183Y33366D1*
X40417Y31600D2*
X38619Y29802D1*
X36404Y27587D2*
X32256Y23439D1*
X29823Y21006D2*
X19838Y11021D1*
X75082Y64469D2*
X74737Y64124D1*
X69876Y59263D2*
X68528Y57915D1*
X66095Y55482D2*
X60459Y49847D1*
X57605Y46993D2*
X50385Y39772D1*
X48618Y38005D2*
X42183Y31570D1*
X40480Y29867D2*
X39040Y28427D1*
X37295Y26682D2*
X34052Y23439D1*
X31619Y21006D2*
X30860Y20247D1*
X28321Y17708D2*
X21634Y11021D1*
X71286Y58877D2*
X70324Y57915D1*
X67891Y55482D2*
X66914Y54505D1*
X64825Y52416D2*
X60494Y48086D1*
X57205Y44797D2*
X50385Y37976D1*
X48618Y36209D2*
X42611Y30202D1*
X41336Y28927D2*
X39938Y27529D1*
X38193Y25784D2*
X35848Y23439D1*
X33415Y21006D2*
X32137Y19728D1*
X28848Y16439D2*
X23430Y11021D1*
X75082Y60877D2*
X72120Y57915D1*
X69687Y55482D2*
X67447Y53242D1*
X66088Y51883D2*
X60494Y46290D1*
X56328Y42124D2*
X50385Y36180D1*
X48618Y34413D2*
X43509Y29304D1*
X42234Y28029D2*
X42059Y27854D1*
X41672Y27467D2*
X40836Y26631D1*
X39091Y24886D2*
X37644Y23439D1*
X35211Y21006D2*
X32852Y18647D1*
X29928Y15723D2*
X25226Y11021D1*
X79284Y63283D2*
X79124Y63123D1*
X71483Y55482D2*
X70604Y54603D1*
X69904Y53903D2*
X60494Y44493D1*
X56314Y40313D2*
X50385Y34384D1*
X48618Y32617D2*
X44407Y28406D1*
X37007Y21006D2*
X27022Y11021D1*
X81080Y63283D2*
X80588Y62791D1*
X77509Y59712D2*
X72120Y54323D1*
X70178Y52381D2*
X59456Y41659D1*
X56314Y38517D2*
X50385Y32588D1*
X48618Y30821D2*
X45018Y27221D1*
X38803Y21006D2*
X37798Y20001D1*
X36193Y18396D2*
X28818Y11021D1*
X82876Y63283D2*
X81668Y62075D1*
X79018Y59425D2*
X72148Y52555D1*
X71947Y52354D2*
X66647Y47054D1*
X64656Y45063D2*
X59716Y40123D1*
X58889Y39296D2*
X58081Y38488D1*
X56314Y36721D2*
X50385Y30792D1*
X48618Y29025D2*
X45018Y25424D1*
X42255Y22662D2*
X39461Y19868D1*
X36326Y16733D2*
X30614Y11021D1*
X84672Y63283D2*
X81675Y60286D1*
X79909Y58520D2*
X78132Y56743D1*
X77187Y55797D2*
X67426Y46037D1*
X64516Y43127D2*
X58081Y36692D1*
X56314Y34925D2*
X50385Y28996D1*
X48618Y27229D2*
X45600Y24211D1*
X44051Y22662D2*
X40401Y19012D1*
X37182Y15793D2*
X32410Y11021D1*
X86468Y63283D2*
X81675Y58490D1*
X77151Y53966D2*
X67209Y44023D1*
X65147Y41962D2*
X58081Y34896D1*
X56314Y33129D2*
X54033Y30848D1*
X53150Y29965D2*
X50385Y27199D1*
X47938Y24752D2*
X40710Y17525D1*
X38670Y15484D2*
X34206Y11021D1*
X87072Y62091D2*
X82061Y57080D1*
X78057Y53075D2*
X71881Y46900D1*
X69981Y45000D2*
X66837Y41856D1*
X64769Y39787D2*
X58081Y33100D1*
X56314Y31333D2*
X55906Y30925D1*
X52877Y27895D2*
X50385Y25403D1*
X49179Y24198D2*
X36002Y11021D1*
X87668Y60891D2*
X82910Y56133D1*
X79909Y53131D2*
X72471Y45693D1*
X71188Y44411D2*
X67454Y40677D1*
X64544Y37767D2*
X58081Y31304D1*
X52877Y26099D2*
X37798Y11021D1*
X93141Y64567D2*
X92908Y64334D1*
X91162Y62589D2*
X90999Y62426D1*
X88938Y60365D2*
X82580Y54007D1*
X79909Y51335D2*
X79157Y50583D1*
X77411Y48838D2*
X67321Y38748D1*
X65344Y36770D2*
X59253Y30679D1*
X52877Y24303D2*
X48673Y20099D1*
X46261Y17687D2*
X39594Y11021D1*
X93883Y63514D2*
X93735Y63365D1*
X91385Y61016D2*
X82579Y52210D1*
X77599Y47230D2*
X59932Y29563D1*
X52875Y22506D2*
X49998Y19628D1*
X46723Y16353D2*
X41389Y11020D1*
X93974Y61809D2*
X93820Y61655D1*
X91385Y59220D2*
X89433Y57268D1*
X87099Y54933D2*
X83351Y51185D1*
X79044Y46879D2*
X70785Y38620D1*
X69819Y37653D2*
X59686Y27521D1*
X57618Y25453D2*
X57126Y24960D1*
X52875Y20710D2*
X50755Y18590D1*
X47761Y15595D2*
X43185Y11020D1*
X93974Y60013D2*
X93820Y59859D1*
X91385Y57424D2*
X90577Y56616D1*
X87765Y53804D2*
X84207Y50245D1*
X79907Y45946D2*
X78489Y44527D1*
X77494Y43532D2*
X72581Y38620D1*
X69819Y35857D2*
X60185Y26223D1*
X52875Y18914D2*
X50475Y16513D1*
X49838Y15876D2*
X44981Y11020D1*
X93974Y58217D2*
X93820Y58063D1*
X87113Y51355D2*
X83884Y48126D1*
X77473Y41715D2*
X72750Y36992D1*
X69882Y34124D2*
X66408Y30650D1*
X64648Y28890D2*
X60591Y24834D1*
X52875Y17118D2*
X46777Y11020D1*
X93974Y56421D2*
X93820Y56267D1*
X91385Y53832D2*
X90605Y53052D1*
X87814Y50261D2*
X83884Y46330D1*
X78399Y40845D2*
X72673Y35119D1*
X69840Y32286D2*
X67418Y29864D1*
X65434Y27880D2*
X60591Y23038D1*
X52875Y15322D2*
X48573Y11020D1*
X93974Y54624D2*
X93820Y54471D1*
X91385Y52036D2*
X90984Y51634D1*
X87134Y47784D2*
X83884Y44534D1*
X79907Y40558D2*
X73262Y33912D1*
X70303Y30953D2*
X60591Y21242D1*
X57380Y18030D2*
X57128Y17779D1*
X52925Y13575D2*
X50369Y11020D1*
X93974Y52828D2*
X93820Y52675D1*
X91385Y50240D2*
X90696Y49551D1*
X87870Y46725D2*
X83884Y42738D1*
X79907Y38762D2*
X79506Y38360D1*
X77557Y36411D2*
X74160Y33014D1*
X69973Y28827D2*
X59890Y18744D1*
X53563Y12417D2*
X52165Y11020D1*
X93974Y51032D2*
X93820Y50879D1*
X87155Y44213D2*
X83884Y40942D1*
X77859Y34917D2*
X75058Y32116D1*
X69819Y26877D2*
X65994Y23052D1*
X64627Y21685D2*
X59883Y16941D1*
X58039Y15097D2*
X57126Y14184D1*
X54826Y11884D2*
X53961Y11020D1*
X93974Y49236D2*
X93820Y49082D1*
X91385Y46647D2*
X90675Y45937D1*
X87926Y43189D2*
X83884Y39146D1*
X79395Y34657D2*
X75395Y30657D1*
X70478Y25740D2*
X68772Y24034D1*
X65160Y20422D2*
X55758Y11020D1*
X93974Y47440D2*
X93820Y47286D1*
X91385Y44851D2*
X90942Y44408D1*
X87176Y40642D2*
X83884Y37350D1*
X79907Y33374D2*
X78861Y32327D1*
X76806Y30273D2*
X75395Y28861D1*
X68808Y22274D2*
X68288Y21754D1*
X64816Y18282D2*
X57554Y11020D1*
X93974Y45644D2*
X93820Y45490D1*
X91385Y43055D2*
X90879Y42549D1*
X87983Y39653D2*
X85315Y36985D1*
X76806Y28476D2*
X76138Y27809D1*
X69082Y20752D2*
X68288Y19958D1*
X64627Y16297D2*
X59350Y11020D1*
X93974Y43848D2*
X93820Y43694D1*
X87204Y37078D2*
X85343Y35217D1*
X77368Y27242D2*
X77037Y26911D1*
X69047Y18921D2*
X68288Y18162D1*
X64887Y14761D2*
X61146Y11020D1*
X93974Y42052D2*
X93820Y41898D1*
X91385Y39463D2*
X90745Y38823D1*
X88039Y36117D2*
X85343Y33421D1*
X79907Y27985D2*
X79134Y27212D1*
X74119Y22197D2*
X73409Y21487D1*
X69187Y17265D2*
X68288Y16366D1*
X64943Y13021D2*
X62942Y11020D1*
X93974Y40256D2*
X93820Y40102D1*
X91385Y37667D2*
X90844Y37126D1*
X87225Y33507D2*
X85343Y31625D1*
X75017Y21299D2*
X73409Y19691D1*
X67980Y14262D2*
X67537Y13819D1*
X66234Y12515D2*
X64738Y11020D1*
X93974Y38460D2*
X93820Y38306D1*
X91385Y35871D2*
X91131Y35617D1*
X88095Y32581D2*
X87951Y32437D1*
X87421Y31907D2*
X85343Y29829D1*
X75782Y20268D2*
X74328Y18814D1*
X68002Y12487D2*
X66534Y11020D1*
X93974Y36664D2*
X93820Y36510D1*
X87260Y29950D2*
X85343Y28033D1*
X76547Y19237D2*
X76124Y18814D1*
X68591Y11281D2*
X68337Y11027D1*
X93974Y34868D2*
X93820Y34714D1*
X91385Y32279D2*
X90809Y31702D1*
X87281Y28175D2*
X85343Y26237D1*
X76112Y17006D2*
X75927Y16821D1*
X93974Y33072D2*
X93820Y32918D1*
X91385Y30483D2*
X90563Y29661D1*
X90205Y29303D2*
X89981Y29078D1*
X87288Y26386D2*
X85343Y24441D1*
X93974Y31276D2*
X93820Y31122D1*
X87197Y24499D2*
X85329Y22631D1*
X75698Y13000D2*
X74813Y12114D1*
X93974Y29480D2*
X93820Y29326D1*
X90677Y26182D2*
X90037Y25542D1*
X87323Y22829D2*
X81014Y16520D1*
X76273Y11779D2*
X75514Y11020D1*
X93974Y27684D2*
X93820Y27530D1*
X91385Y25095D2*
X90865Y24574D1*
X87148Y20857D2*
X81014Y14724D1*
X78308Y12017D2*
X77310Y11020D1*
X93974Y25888D2*
X93820Y25734D1*
X91385Y23299D2*
X90093Y22006D1*
X87358Y19272D2*
X81014Y12928D1*
X79585Y11498D2*
X79106Y11020D1*
X93974Y24092D2*
X93820Y23938D1*
X87113Y17230D2*
X80902Y11020D1*
X93974Y22296D2*
X93820Y22142D1*
X90796Y19117D2*
X90149Y18471D1*
X87393Y15715D2*
X82698Y11020D1*
X93974Y20499D2*
X93820Y20346D1*
X91385Y17911D2*
X90914Y17439D1*
X87064Y13589D2*
X84494Y11020D1*
X93974Y18703D2*
X93820Y18550D1*
X91385Y16115D2*
X90570Y15299D1*
X87064Y11793D2*
X86290Y11020D1*
X93974Y16907D2*
X93820Y16754D1*
X88432Y11365D2*
X88086Y11020D1*
X93974Y15111D2*
X93820Y14958D1*
X90228Y11365D2*
X89882Y11020D1*
X93974Y13315D2*
X93792Y13134D1*
X92802Y12144D2*
X91679Y11020D1*
X92317Y64932D2*
X93932Y63317D1*
X93818Y61635D2*
X93974Y61479D1*
X90956Y62701D2*
X91385Y62272D1*
X93818Y59839D2*
X93974Y59683D1*
X90661Y61200D2*
X91385Y60476D1*
X93818Y58042D2*
X93974Y57887D1*
X86782Y63283D2*
X87141Y62924D1*
X89623Y60442D2*
X91385Y58679D1*
X93818Y56246D2*
X93974Y56091D1*
X84985Y63283D2*
X91385Y56883D1*
X93818Y54450D2*
X93974Y54295D1*
X83189Y63283D2*
X89182Y57290D1*
X93818Y52654D2*
X93974Y52499D1*
X81393Y63283D2*
X87793Y56883D1*
X90584Y54093D2*
X91385Y53291D1*
X93818Y50858D2*
X93974Y50703D1*
X79597Y63283D2*
X79907Y62973D1*
X81674Y61207D2*
X87106Y55775D1*
X90998Y51883D2*
X91385Y51495D1*
X93818Y49062D2*
X93974Y48907D1*
X77801Y63283D2*
X78002Y63083D1*
X81674Y59411D2*
X87744Y53340D1*
X90542Y50543D2*
X91385Y49699D1*
X93818Y47266D2*
X93974Y47111D1*
X74314Y64974D2*
X75081Y64208D1*
X81674Y57614D2*
X87092Y52197D1*
X93818Y45470D2*
X93974Y45315D1*
X78061Y59432D2*
X79907Y57585D1*
X82579Y54913D2*
X87695Y49797D1*
X90500Y46993D2*
X91385Y46107D1*
X93818Y43674D2*
X93974Y43519D1*
X74763Y60933D2*
X74917Y60779D1*
X76672Y59025D2*
X78918Y56778D1*
X82579Y53117D2*
X87078Y48619D1*
X90998Y44698D2*
X91385Y44311D1*
X93818Y41878D2*
X93974Y41723D1*
X75774Y58127D2*
X77480Y56420D1*
X84200Y49701D2*
X87646Y46254D1*
X90451Y43450D2*
X91350Y42550D1*
X93818Y40082D2*
X93974Y39927D1*
X72939Y59165D2*
X73130Y58974D1*
X74876Y57229D2*
X77220Y54884D1*
X79029Y53075D2*
X79907Y52197D1*
X83884Y48220D2*
X87071Y45034D1*
X93818Y38286D2*
X93974Y38131D1*
X71445Y58863D2*
X72232Y58076D1*
X73978Y56331D2*
X79753Y50555D1*
X83884Y46424D2*
X87597Y42711D1*
X90409Y39900D2*
X91385Y38923D1*
X93818Y36490D2*
X93974Y36334D1*
X69207Y59305D2*
X70597Y57915D1*
X72981Y55531D2*
X78020Y50492D1*
X83884Y44628D2*
X87064Y41449D1*
X90984Y37528D2*
X91385Y37127D1*
X93818Y34694D2*
X93974Y34538D1*
X68421Y58295D2*
X68801Y57915D1*
X71234Y55482D2*
X77312Y49405D1*
X83884Y42832D2*
X87555Y39161D1*
X90360Y36357D2*
X91098Y35618D1*
X93818Y32898D2*
X93974Y32742D1*
X69438Y55482D2*
X70387Y54533D1*
X72280Y52640D2*
X79907Y45013D1*
X83884Y41036D2*
X87064Y37857D1*
X93818Y31102D2*
X93974Y30946D1*
X67642Y55482D2*
X69777Y53347D1*
X71094Y52030D2*
X78574Y44550D1*
X83884Y39240D2*
X87513Y35611D1*
X90310Y32814D2*
X91385Y31739D1*
X93818Y29306D2*
X93974Y29150D1*
X65846Y55482D2*
X66830Y54498D1*
X67142Y54186D2*
X77543Y43785D1*
X83884Y37444D2*
X84076Y37252D1*
X85638Y35690D2*
X87064Y34264D1*
X90956Y30372D2*
X91385Y29943D1*
X93818Y27510D2*
X93974Y27354D1*
X64050Y55482D2*
X65041Y54491D1*
X67130Y52402D2*
X77473Y42059D1*
X78685Y40847D2*
X79907Y39625D1*
X85343Y34189D2*
X87470Y32061D1*
X90261Y29271D2*
X90915Y28617D1*
X93818Y25714D2*
X93974Y25558D1*
X62254Y55482D2*
X64529Y53207D1*
X65846Y51890D2*
X70689Y47047D1*
X72420Y45316D2*
X79374Y38362D1*
X85343Y32393D2*
X87078Y30658D1*
X93818Y23917D2*
X93974Y23762D1*
X60458Y55482D2*
X69812Y46128D1*
X71494Y44446D2*
X77873Y38067D1*
X85343Y30597D2*
X87428Y28511D1*
X90205Y25735D2*
X91385Y24555D1*
X93818Y22121D2*
X93974Y21966D1*
X58662Y55482D2*
X59330Y54814D1*
X59834Y54310D2*
X77592Y36552D1*
X79485Y34659D2*
X79907Y34236D1*
X85343Y28800D2*
X87092Y27052D1*
X90914Y23230D2*
X91385Y22758D1*
X93818Y20325D2*
X93974Y20170D1*
X56866Y55482D2*
X57534Y54814D1*
X59834Y52514D2*
X65307Y47040D1*
X67306Y45042D2*
X79907Y32440D1*
X85343Y27004D2*
X87393Y24954D1*
X90149Y22199D2*
X90628Y21720D1*
X93818Y18529D2*
X93974Y18374D1*
X55070Y55482D2*
X56895Y53656D1*
X59834Y50718D2*
X64536Y46016D1*
X67453Y43099D2*
X71937Y38614D1*
X72750Y37802D2*
X78280Y32272D1*
X85343Y25208D2*
X87113Y23439D1*
X93818Y16733D2*
X93974Y16578D1*
X53274Y55482D2*
X54272Y54484D1*
X60493Y48262D2*
X64746Y44009D1*
X66807Y41948D2*
X70141Y38614D1*
X72750Y36006D2*
X77031Y31725D1*
X85343Y23412D2*
X87358Y21397D1*
X90093Y18663D2*
X91385Y17370D1*
X93818Y14937D2*
X93974Y14782D1*
X51478Y55482D2*
X52476Y54484D1*
X55421Y51539D2*
X57492Y49468D1*
X60493Y46466D2*
X65111Y41849D1*
X67186Y39773D2*
X69819Y37141D1*
X75346Y31614D2*
X76806Y30153D1*
X79134Y27825D2*
X79900Y27059D1*
X84985Y21974D2*
X87148Y19812D1*
X90865Y16095D2*
X91385Y15574D1*
X93811Y13148D2*
X93966Y12994D1*
X49682Y55482D2*
X50679Y54484D1*
X53344Y51819D2*
X56895Y48268D1*
X60493Y44670D2*
X64522Y40642D1*
X67418Y37746D2*
X69938Y35226D1*
X75395Y29769D2*
X76827Y28336D1*
X84087Y21076D2*
X87323Y17840D1*
X92991Y12173D2*
X93448Y11716D1*
X51548Y51819D2*
X57022Y46346D1*
X59911Y43457D2*
X64641Y38726D1*
X66611Y36756D2*
X70240Y33128D1*
X83189Y20178D2*
X87197Y16171D1*
X91251Y12117D2*
X92290Y11077D1*
X50383Y51188D2*
X57323Y44248D1*
X59427Y42145D2*
X69882Y31690D1*
X82291Y19280D2*
X87064Y14508D1*
X90205Y11366D2*
X90550Y11021D1*
X47956Y51819D2*
X48617Y51159D1*
X50383Y49392D2*
X56839Y42936D1*
X59721Y40054D2*
X69861Y29915D1*
X81393Y18382D2*
X87064Y12712D1*
X88409Y11366D2*
X88754Y11021D1*
X46160Y51819D2*
X48617Y49362D1*
X50383Y47596D2*
X56320Y41659D1*
X58760Y39219D2*
X70099Y27880D1*
X81014Y16965D2*
X86958Y11021D1*
X44364Y51819D2*
X45740Y50443D1*
X50383Y45800D2*
X56320Y39863D1*
X58080Y38103D2*
X65581Y30602D1*
X67474Y28709D2*
X70485Y25698D1*
X73276Y22907D2*
X75775Y20408D1*
X81014Y15169D2*
X85162Y11021D1*
X42568Y51819D2*
X43944Y50443D1*
X50383Y44004D2*
X56320Y38067D1*
X58080Y36307D2*
X64690Y29697D1*
X66576Y27811D2*
X69819Y24569D1*
X73409Y20978D2*
X75572Y18816D1*
X81014Y13373D2*
X83366Y11021D1*
X38176Y54415D2*
X38675Y53916D1*
X41726Y50865D2*
X42148Y50443D1*
X43915Y48676D2*
X45207Y47384D1*
X50383Y42208D2*
X56320Y36271D1*
X58080Y34511D2*
X68556Y24035D1*
X73409Y19182D2*
X73776Y18816D1*
X75963Y16628D2*
X76190Y16401D1*
X81014Y11577D2*
X81570Y11021D1*
X36380Y54415D2*
X36681Y54115D1*
X42119Y48676D2*
X43411Y47384D1*
X45178Y45617D2*
X47319Y43476D1*
X50383Y40412D2*
X56320Y34475D1*
X58080Y32715D2*
X67216Y23579D1*
X68526Y22269D2*
X69447Y21348D1*
X79296Y11499D2*
X79774Y11021D1*
X40688Y48312D2*
X41334Y47665D1*
X43382Y45617D2*
X47319Y41680D1*
X50383Y38616D2*
X56320Y32679D1*
X58080Y30919D2*
X58320Y30679D1*
X59932Y29067D2*
X65946Y23053D1*
X68288Y20711D2*
X69047Y19952D1*
X77464Y11535D2*
X77978Y11021D1*
X31721Y55482D2*
X32663Y54540D1*
X38527Y48676D2*
X38921Y48282D1*
X42161Y45042D2*
X48617Y38586D1*
X50383Y36820D2*
X56320Y30883D1*
X59462Y27741D2*
X64823Y22380D1*
X68288Y18915D2*
X69047Y18156D1*
X74939Y12264D2*
X76182Y11021D1*
X29925Y55482D2*
X31225Y54182D1*
X37327Y48080D2*
X38921Y46486D1*
X42182Y43225D2*
X48617Y36790D1*
X50383Y35024D2*
X54370Y31037D1*
X60591Y24816D2*
X65181Y20226D1*
X68288Y17119D2*
X69138Y16269D1*
X28129Y55482D2*
X30621Y52990D1*
X42182Y41429D2*
X48617Y34994D1*
X50383Y33227D2*
X53303Y30307D1*
X60591Y23019D2*
X64620Y18991D1*
X26333Y55482D2*
X30776Y51039D1*
X33623Y48192D2*
X36206Y45609D1*
X38414Y43400D2*
X38570Y43245D1*
X39839Y41976D2*
X40415Y41400D1*
X42182Y39633D2*
X48617Y33198D1*
X50383Y31431D2*
X52875Y28939D1*
X60591Y21223D2*
X64725Y17090D1*
X67600Y14215D2*
X67902Y13913D1*
X24537Y55482D2*
X30663Y49355D1*
X31939Y48080D2*
X34108Y45911D1*
X37025Y42994D2*
X40415Y39603D1*
X42182Y37837D2*
X48617Y31402D1*
X50383Y29635D2*
X52875Y27143D1*
X57126Y22893D2*
X57394Y22625D1*
X60353Y19666D2*
X65013Y15006D1*
X67116Y12903D2*
X68479Y11540D1*
X20243Y57979D2*
X21388Y56834D1*
X23814Y54408D2*
X24686Y53537D1*
X25337Y52886D2*
X32838Y45385D1*
X35643Y42580D2*
X37693Y40530D1*
X39032Y39191D2*
X40415Y37807D1*
X42182Y36041D2*
X48617Y29606D1*
X50383Y27839D2*
X52875Y25347D1*
X59806Y18417D2*
X64711Y13512D1*
X65629Y12594D2*
X67202Y11021D1*
X18447Y57979D2*
X21381Y55045D1*
X32809Y43618D2*
X33877Y42550D1*
X38653Y37774D2*
X40415Y36011D1*
X42182Y34245D2*
X48617Y27810D1*
X50383Y26043D2*
X52875Y23551D1*
X59932Y16495D2*
X65406Y11021D1*
X15285Y59346D2*
X21383Y53248D1*
X23816Y50815D2*
X35730Y38901D1*
X38942Y35689D2*
X40417Y34214D1*
X42183Y32447D2*
X48246Y26384D1*
X49985Y24646D2*
X52877Y21754D1*
X59330Y15301D2*
X63611Y11020D1*
X13923Y58911D2*
X16752Y56082D1*
X17326Y55508D2*
X21383Y51452D1*
X25493Y47342D2*
X35842Y36992D1*
X39068Y33766D2*
X40417Y32418D1*
X42183Y30651D2*
X47881Y24953D1*
X48554Y24281D2*
X52877Y19958D1*
X57127Y15708D2*
X61815Y11020D1*
X11580Y59458D2*
X14956Y56082D1*
X17326Y53712D2*
X21383Y49656D1*
X38886Y32153D2*
X40417Y30622D1*
X45018Y26021D2*
X52877Y18162D1*
X57120Y13919D2*
X60019Y11020D1*
X11026Y58217D2*
X14388Y54855D1*
X17214Y52029D2*
X22709Y46534D1*
X38619Y30623D2*
X41679Y27563D1*
X45551Y23692D2*
X49271Y19972D1*
X50771Y18472D2*
X52877Y16366D1*
X56629Y12614D2*
X58223Y11020D1*
X11026Y56421D2*
X14437Y53009D1*
X16253Y51194D2*
X36179Y31267D1*
X38619Y28827D2*
X41848Y25599D1*
X44688Y22759D2*
X47566Y19881D1*
X50679Y16767D2*
X52877Y14570D1*
X55513Y11933D2*
X56427Y11020D1*
X11026Y54624D2*
X36179Y29471D1*
X42990Y22660D2*
X46612Y19039D1*
X49837Y15813D2*
X54631Y11020D1*
X11026Y52828D2*
X39785Y24069D1*
X41531Y22324D2*
X46268Y17587D1*
X48378Y15476D2*
X52835Y11020D1*
X11026Y51032D2*
X14683Y47376D1*
X15874Y46184D2*
X38614Y23445D1*
X40633Y21426D2*
X51039Y11020D1*
X11026Y49236D2*
X12739Y47523D1*
X16021Y44241D2*
X36817Y23445D1*
X39258Y21005D2*
X49243Y11020D1*
X16021Y42445D2*
X19460Y39006D1*
X22448Y36018D2*
X35021Y23445D1*
X37462Y21005D2*
X38368Y20098D1*
X40731Y17735D2*
X47446Y11020D1*
X16021Y40649D2*
X18176Y38494D1*
X21936Y34735D2*
X33225Y23445D1*
X35665Y21005D2*
X37021Y19649D1*
X40289Y16381D2*
X45650Y11020D1*
X16021Y38853D2*
X17377Y37497D1*
X20939Y33935D2*
X31429Y23445D1*
X33869Y21005D2*
X36242Y18632D1*
X39265Y15609D2*
X43854Y11020D1*
X16021Y37057D2*
X17187Y35891D1*
X19333Y33745D2*
X24785Y28293D1*
X26391Y26687D2*
X29633Y23445D1*
X32073Y21005D2*
X36418Y16660D1*
X37293Y15785D2*
X42058Y11020D1*
X16021Y35261D2*
X23663Y27619D1*
X27562Y23720D2*
X27837Y23445D1*
X30277Y21005D2*
X31079Y20203D1*
X32901Y18381D2*
X40262Y11020D1*
X16021Y33465D2*
X22975Y26511D1*
X28481Y21005D2*
X29507Y19979D1*
X32677Y16809D2*
X38466Y11020D1*
X16021Y31669D2*
X21109Y26581D1*
X26685Y21005D2*
X28602Y19088D1*
X31786Y15904D2*
X36670Y11020D1*
X15958Y29936D2*
X19313Y26581D1*
X21753Y24141D2*
X22189Y23704D1*
X23072Y22822D2*
X28363Y17530D1*
X30228Y15666D2*
X34874Y11020D1*
X16968Y27129D2*
X17517Y26581D1*
X19957Y24141D2*
X33078Y11020D1*
X13825Y28476D2*
X14241Y28061D1*
X18161Y24141D2*
X31282Y11020D1*
X12029Y28476D2*
X14409Y26097D1*
X16435Y24071D2*
X20253Y20253D1*
X22784Y17721D2*
X29486Y11020D1*
X11026Y27684D2*
X18976Y19733D1*
X22265Y16444D2*
X27690Y11020D1*
X11026Y25888D2*
X15230Y21684D1*
X17102Y19812D2*
X18261Y18653D1*
X21192Y15722D2*
X25894Y11020D1*
X11026Y24092D2*
X14318Y20800D1*
X17137Y17981D2*
X24098Y11020D1*
X11026Y22296D2*
X14591Y18730D1*
X16688Y16634D2*
X22302Y11020D1*
X11026Y20499D2*
X14388Y17138D1*
X17102Y14424D2*
X20506Y11020D1*
X11026Y18703D2*
X12627Y17102D1*
X17123Y12607D2*
X18710Y11020D1*
X11026Y16907D2*
X11413Y16520D1*
X16596Y11337D2*
X16914Y11020D1*
X24409Y48648D2*
X25448D1*
Y45952D1*
X25279D1*
X25378Y45680D1*
X35783Y35276D1*
X35777Y35443D1*
X36059Y35446D1*
X35907Y35724D1*
X35812Y36026D1*
X35777Y36342D1*
X35805Y36657D1*
X35893Y36962D1*
X36039Y37243D1*
X36236Y37491D1*
X36395Y37625D1*
X36262Y37743D1*
X36059Y37986D1*
X35907Y38264D1*
X35812Y38566D1*
X35777Y38882D1*
X35829Y39283D1*
X34168Y40948D1*
X33990Y41209D1*
X33922Y41540D1*
Y43256D1*
X33727Y43415D1*
X33517Y43665D1*
X31900Y43662D1*
X31590Y43722D1*
X31308Y43908D1*
X24257Y50958D1*
X23995Y50956D1*
X23773Y50985D1*
Y49288D1*
X24405Y48654D1*
X22918Y45952D2*
X22752D1*
Y46994D1*
X21771Y47971D1*
X21579Y48223D1*
X21443Y48609D1*
X21427Y49435D1*
Y56700D1*
X21470Y57014D1*
X21595Y57304D1*
X21793Y57551D1*
X22050Y57736D1*
X22409Y57857D1*
X23235Y57873D1*
X72120D1*
X75131Y60890D1*
X75127Y64500D1*
X75193Y64882D1*
X75129Y65022D1*
X74008D1*
X74365Y64666D1*
X74453Y64549D1*
X74895Y63675D1*
X74941Y63536D1*
X75091Y62568D1*
X75093Y62422D1*
X74937Y61455D1*
X74893Y61315D1*
X74446Y60444D1*
X74361Y60325D1*
X73666Y59635D1*
X73549Y59547D1*
X72675Y59105D1*
X72536Y59059D1*
X71568Y58909D1*
X71422Y58907D1*
X70455Y59063D1*
X70315Y59107D1*
X69444Y59554D1*
X69248Y59716D1*
X69202Y59447D1*
X68995Y58974D1*
X68671Y58570D1*
X68254Y58264D1*
X67772Y58076D1*
X67343Y58023D1*
X17616Y58025D1*
X17148Y58098D1*
X16674Y58305D1*
X16270Y58629D1*
X15964Y59046D1*
X15776Y59528D1*
X15752Y59713D1*
X15549Y59547D1*
X14675Y59105D1*
X14536Y59059D1*
X13568Y58909D1*
X13422Y58907D1*
X12455Y59063D1*
X12315Y59107D1*
X11444Y59554D1*
X11325Y59639D1*
X10981Y59983D1*
X10978Y47559D1*
X10987Y47494D1*
X11361Y47477D1*
X14085Y47475D1*
X14552Y47402D1*
X15026Y47195D1*
X15430Y46871D1*
X15736Y46454D1*
X15924Y45972D1*
X15978Y45543D1*
X15975Y30415D1*
X15902Y29947D1*
X15695Y29474D1*
X15579Y29323D1*
X15978Y29295D1*
X16280Y29199D1*
X16553Y29039D1*
X16784Y28822D1*
X16961Y28559D1*
X17076Y28264D1*
X17123Y27900D1*
X17088Y27585D1*
X16984Y27286D1*
X16816Y27017D1*
X16593Y26792D1*
X16334Y26627D1*
X16653Y26533D1*
X22636D1*
X22949Y26490D1*
X23319Y26314D1*
X23914Y25740D1*
X23949Y25705D1*
X23651Y26192D1*
X23542Y26490D1*
X23501Y26804D1*
X23531Y27119D1*
X23630Y27420D1*
X23793Y27692D1*
X24012Y27921D1*
X24276Y28096D1*
X24572Y28208D1*
X24886Y28251D1*
X25202Y28224D1*
X25504Y28128D1*
X25777Y27968D1*
X26008Y27751D1*
X26185Y27488D1*
X26300Y27193D1*
X26347Y26829D1*
X26312Y26514D1*
X26207Y26215D1*
X26040Y25946D1*
X25817Y25721D1*
X25591Y25578D1*
X25842Y25668D1*
X26156Y25711D1*
X26472Y25684D1*
X26774Y25588D1*
X27047Y25428D1*
X27278Y25211D1*
X27455Y24948D1*
X27570Y24653D1*
X27617Y24289D1*
X27582Y23974D1*
X27477Y23675D1*
X27305Y23398D1*
X39202D1*
X39934Y24128D1*
X36571Y27495D1*
X36379Y27747D1*
X36243Y28133D1*
X36227Y28960D1*
Y32204D1*
X35777Y32197D1*
Y32644D1*
X35266Y32690D1*
X34897Y32866D1*
X34302Y33440D1*
X23271Y44471D1*
X23079Y44723D1*
X22943Y45109D1*
X22927Y45935D1*
Y45945D1*
X23774Y53607D2*
X24098Y53648D1*
X24413Y53611D1*
X24710Y53502D1*
X24974Y53326D1*
X25189Y53094D1*
X25344Y52818D1*
X25431Y52513D1*
X25448Y52300D1*
X25430Y52153D1*
X32249Y45336D1*
X33517Y45338D1*
X33812Y45660D1*
X34077Y45833D1*
X34373Y45947D1*
X34686Y45996D1*
X35003Y45978D1*
X35308Y45894D1*
X35589Y45747D1*
X35833Y45545D1*
X36033Y45287D1*
X36129Y45435D1*
X36352Y45660D1*
X36664Y45851D1*
X34346Y48169D1*
X34094Y48250D1*
X33821Y48411D1*
X33573Y48652D1*
X33575Y48125D1*
X30705D1*
Y50995D1*
X32382D1*
X32663Y51268D1*
X30665Y51265D1*
Y54135D1*
X32342D1*
X33746Y55531D1*
X23774Y55527D1*
X23773Y53614D1*
X38650Y43858D2*
X38505Y43610D1*
X38291Y43377D1*
X38033Y43193D1*
X37741Y43069D1*
X37430Y43008D1*
X37113Y43014D1*
X36805Y43086D1*
X36519Y43222D1*
X36267Y43415D1*
X36029Y43718D1*
X35965Y43610D1*
X35751Y43377D1*
X35598Y43268D1*
Y41891D1*
X37015Y40470D1*
X37372Y40523D1*
X37688Y40497D1*
X37993Y40411D1*
X38276Y40266D1*
X38524Y40070D1*
X38730Y39829D1*
X38886Y39553D1*
X38984Y39252D1*
X39023Y38900D1*
X38992Y38585D1*
X38900Y38281D1*
X38751Y38001D1*
X38551Y37756D1*
X38406Y37636D1*
X38730Y37289D1*
X38886Y37013D1*
X38984Y36712D1*
X39023Y36360D1*
X38992Y36045D1*
X38900Y35741D1*
X38733Y35438D1*
X39023Y35443D1*
Y32197D1*
X38576D1*
X38573Y28809D1*
X41828Y25555D1*
X41765Y25767D1*
X41592Y26033D1*
X41483Y26331D1*
X41442Y26645D1*
X41472Y26960D1*
X41570Y27261D1*
X41733Y27533D1*
X41952Y27762D1*
X42217Y27937D1*
X42356Y27989D1*
X40708Y29644D1*
X40530Y29905D1*
X40462Y30237D1*
Y42232D1*
X40361Y42161D1*
X40065Y42049D1*
X39750Y42020D1*
X39438Y42076D1*
X39153Y42212D1*
X38914Y42420D1*
X38738Y42683D1*
X38639Y42984D1*
X38623Y43300D1*
X38692Y43609D1*
X38759Y43757D1*
X38653Y43862D1*
X78354Y12436D2*
X78280Y12241D1*
X78099Y11981D1*
X77861Y11772D1*
X77580Y11626D1*
X77272Y11552D1*
X76956Y11555D1*
X76649Y11633D1*
X76370Y11783D1*
X76135Y11995D1*
X75958Y12258D1*
X75849Y12555D1*
X75815Y12870D1*
X75828Y12959D1*
X75064Y13725D1*
X75091Y13568D1*
X75093Y13422D1*
X74937Y12455D1*
X74893Y12315D1*
X74446Y11444D1*
X74361Y11325D1*
X74017Y10981D1*
X91941Y10977D1*
X92515Y11054D1*
X93003Y11254D1*
X93421Y11574D1*
X93742Y11990D1*
X93944Y12475D1*
X94022Y13057D1*
X93730Y13020D1*
X93605Y12730D1*
X93407Y12483D1*
X93150Y12298D1*
X92791Y12177D1*
X91965Y12161D1*
X90963D1*
X90954Y11411D1*
X87108D1*
Y15257D1*
X87931D1*
X87733Y15415D1*
X87517Y15648D1*
X87343Y15913D1*
X87214Y16203D1*
X87135Y16510D1*
X87108Y16826D1*
X87133Y17142D1*
X87209Y17450D1*
X87335Y17741D1*
X87507Y18007D1*
X87721Y18242D1*
X87970Y18438D1*
X88239Y18586D1*
X87984Y18721D1*
X87733Y18915D1*
X87517Y19148D1*
X87343Y19413D1*
X87214Y19703D1*
X87135Y20010D1*
X87108Y20326D1*
X87133Y20642D1*
X87209Y20950D1*
X87335Y21241D1*
X87507Y21507D1*
X87721Y21742D1*
X87970Y21938D1*
X88239Y22086D1*
X87984Y22221D1*
X87733Y22415D1*
X87517Y22648D1*
X87343Y22913D1*
X87214Y23203D1*
X87135Y23510D1*
X87108Y23826D1*
X87133Y24142D1*
X87209Y24450D1*
X87335Y24741D1*
X87507Y25007D1*
X87721Y25242D1*
X87970Y25438D1*
X88239Y25586D1*
X87984Y25721D1*
X87733Y25915D1*
X87517Y26148D1*
X87343Y26413D1*
X87214Y26703D1*
X87135Y27010D1*
X87108Y27326D1*
X87133Y27642D1*
X87209Y27950D1*
X87335Y28241D1*
X87507Y28507D1*
X87721Y28742D1*
X87970Y28938D1*
X88239Y29086D1*
X87984Y29221D1*
X87733Y29415D1*
X87517Y29648D1*
X87343Y29913D1*
X87214Y30203D1*
X87135Y30510D1*
X87108Y30826D1*
X87133Y31142D1*
X87209Y31450D1*
X87335Y31741D1*
X87507Y32007D1*
X87721Y32242D1*
X87970Y32438D1*
X88239Y32586D1*
X87984Y32721D1*
X87733Y32915D1*
X87517Y33148D1*
X87343Y33413D1*
X87214Y33703D1*
X87135Y34010D1*
X87108Y34326D1*
X87133Y34642D1*
X87209Y34950D1*
X87335Y35241D1*
X87507Y35507D1*
X87721Y35742D1*
X87970Y35938D1*
X88239Y36086D1*
X87984Y36221D1*
X87733Y36415D1*
X87517Y36648D1*
X87343Y36913D1*
X87214Y37203D1*
X87135Y37510D1*
X87108Y37826D1*
X87133Y38142D1*
X87209Y38450D1*
X87335Y38741D1*
X87507Y39007D1*
X87721Y39242D1*
X87970Y39438D1*
X88239Y39586D1*
X87984Y39721D1*
X87733Y39915D1*
X87517Y40148D1*
X87343Y40413D1*
X87214Y40703D1*
X87135Y41010D1*
X87108Y41326D1*
X87133Y41642D1*
X87209Y41950D1*
X87335Y42241D1*
X87507Y42507D1*
X87721Y42742D1*
X87970Y42938D1*
X88239Y43086D1*
X87984Y43221D1*
X87733Y43415D1*
X87517Y43648D1*
X87343Y43913D1*
X87214Y44203D1*
X87135Y44510D1*
X87108Y44826D1*
X87133Y45142D1*
X87209Y45450D1*
X87335Y45741D1*
X87507Y46007D1*
X87721Y46242D1*
X87970Y46438D1*
X88239Y46586D1*
X87984Y46721D1*
X87733Y46915D1*
X87517Y47148D1*
X87343Y47413D1*
X87214Y47703D1*
X87135Y48010D1*
X87108Y48326D1*
X87133Y48642D1*
X87209Y48950D1*
X87335Y49241D1*
X87507Y49507D1*
X87721Y49742D1*
X87970Y49938D1*
X88239Y50086D1*
X87984Y50221D1*
X87733Y50415D1*
X87517Y50648D1*
X87343Y50913D1*
X87214Y51203D1*
X87135Y51510D1*
X87108Y51826D1*
X87133Y52142D1*
X87209Y52450D1*
X87335Y52741D1*
X87507Y53007D1*
X87721Y53242D1*
X87970Y53438D1*
X88239Y53586D1*
X87984Y53721D1*
X87733Y53915D1*
X87517Y54148D1*
X87343Y54413D1*
X87214Y54703D1*
X87135Y55010D1*
X87108Y55326D1*
X87133Y55642D1*
X87209Y55950D1*
X87335Y56241D1*
X87507Y56507D1*
X87721Y56742D1*
X87970Y56938D1*
X88248Y57090D1*
X88547Y57195D1*
X88860Y57249D1*
X89177Y57251D1*
X89490Y57201D1*
X89790Y57101D1*
X90070Y56952D1*
X90322Y56759D1*
X90491Y56578D1*
X91428Y56573D1*
X91427Y62415D1*
X90823Y63018D1*
X90925Y62667D1*
X90954Y62334D1*
X90927Y62018D1*
X90850Y61711D1*
X90723Y61420D1*
X90549Y61154D1*
X90335Y60921D1*
X90085Y60726D1*
X89806Y60574D1*
X89506Y60471D1*
X89194Y60418D1*
X88876Y60417D1*
X88563Y60469D1*
X88263Y60571D1*
X87984Y60721D1*
X87733Y60915D1*
X87517Y61148D1*
X87343Y61413D1*
X87214Y61703D1*
X87135Y62010D1*
X87108Y62326D1*
X87133Y62642D1*
X87209Y62950D1*
X87394Y63332D1*
X79570Y63327D1*
X77476D1*
X77473Y62664D1*
X77658Y62843D1*
X77933Y62999D1*
X78240Y63076D1*
X78687Y63083D1*
X79557Y63068D1*
X79860Y62976D1*
X80173Y62755D1*
X80793Y62748D1*
X81103Y62689D1*
X81369Y62519D1*
X81553Y62263D1*
X81631Y61910D1*
Y57078D1*
X81850Y57071D1*
X82156Y56990D1*
X82429Y56829D1*
X82649Y56602D1*
X82802Y56325D1*
X82881Y55900D1*
X82838Y55586D1*
X82714Y55295D1*
X82536Y55071D1*
X82538Y51088D1*
X82833Y51169D1*
X83150Y51171D1*
X83456Y51090D1*
X83729Y50929D1*
X83949Y50702D1*
X84102Y50425D1*
X84181Y50000D1*
X84138Y49686D1*
X84014Y49395D1*
X83836Y49171D1*
X83838Y37072D1*
X83991Y37162D1*
X84295Y37248D1*
X84612Y37250D1*
X84918Y37169D1*
X85191Y37008D1*
X85411Y36782D1*
X85564Y36504D1*
X85643Y36079D1*
X85600Y35765D1*
X85476Y35474D1*
X85298Y35250D1*
X85300Y22731D1*
X85240Y22421D1*
X85054Y22139D1*
X80964Y18048D1*
X80971Y16624D1*
Y14084D1*
Y11544D1*
X78355D1*
Y12407D1*
X75949Y15954D2*
X76159Y16276D1*
X76400Y16482D1*
X76683Y16624D1*
X76828Y16656D1*
X76648Y16713D1*
X76369Y16863D1*
X76118Y17100D1*
X75645Y17094D1*
X75704Y17044D1*
X75881Y16783D1*
X75950Y16452D1*
Y15966D1*
X76131Y18776D2*
X76400Y19022D1*
X76683Y19164D1*
X76828Y19197D1*
X76648Y19254D1*
X76369Y19403D1*
X76135Y19616D1*
X75958Y19879D1*
X75849Y20176D1*
X75815Y20491D1*
X75827Y20579D1*
X73156Y23255D1*
X73058Y23159D1*
X73299Y22825D1*
X73367Y22494D1*
Y18932D1*
X73536Y18770D1*
X76116D1*
X80971Y20600D2*
Y20421D1*
X83624Y23078D1*
X83592Y23217D1*
X80976Y20600D1*
X90134Y15257D2*
X90954D1*
Y14513D1*
X91422Y14507D1*
X91427Y19158D1*
X90549Y19154D1*
X90335Y18921D1*
X90085Y18726D1*
X89832Y18589D1*
X90070Y18452D1*
X90322Y18259D1*
X90539Y18027D1*
X90714Y17763D1*
X90844Y17474D1*
X90925Y17167D1*
X90954Y16834D1*
X90927Y16518D1*
X90850Y16211D1*
X90723Y15920D1*
X90549Y15654D1*
X90335Y15421D1*
X90124Y15256D1*
X89817Y22087D2*
X90070Y21952D1*
X90397Y21679D1*
X91429Y21673D1*
X91427Y26225D1*
X90606Y26227D1*
X90335Y25921D1*
X90085Y25726D1*
X89832Y25589D1*
X90070Y25452D1*
X90322Y25259D1*
X90539Y25027D1*
X90714Y24763D1*
X90844Y24474D1*
X90925Y24167D1*
X90954Y23834D1*
X90927Y23518D1*
X90850Y23211D1*
X90723Y22920D1*
X90549Y22654D1*
X90335Y22421D1*
X90085Y22226D1*
X89832Y22089D1*
X89817Y29087D2*
X90070Y28952D1*
X90322Y28759D1*
X90491Y28578D1*
X91428Y28573D1*
X91427Y33224D1*
X90606Y33227D1*
X90335Y32921D1*
X90085Y32726D1*
X89832Y32589D1*
X90070Y32452D1*
X90322Y32259D1*
X90539Y32027D1*
X90714Y31763D1*
X90844Y31474D1*
X90925Y31167D1*
X90954Y30834D1*
X90927Y30518D1*
X90850Y30211D1*
X90723Y29920D1*
X90549Y29654D1*
X90335Y29421D1*
X90085Y29226D1*
X89832Y29089D1*
X89817Y36087D2*
X90070Y35952D1*
X90322Y35759D1*
X90491Y35578D1*
X91428Y35573D1*
X91427Y40165D1*
X90549Y40154D1*
X90335Y39921D1*
X90085Y39726D1*
X89832Y39589D1*
X90070Y39452D1*
X90322Y39259D1*
X90539Y39027D1*
X90714Y38763D1*
X90844Y38474D1*
X90925Y38167D1*
X90954Y37834D1*
X90927Y37518D1*
X90850Y37211D1*
X90723Y36920D1*
X90549Y36654D1*
X90335Y36421D1*
X90085Y36226D1*
X89832Y36089D1*
X89817Y43087D2*
X90070Y42952D1*
X90322Y42759D1*
X90555Y42502D1*
X91422Y42507D1*
X91427Y47158D1*
X90549Y47154D1*
X90335Y46921D1*
X90085Y46726D1*
X89832Y46589D1*
X90070Y46452D1*
X90322Y46259D1*
X90539Y46027D1*
X90714Y45763D1*
X90844Y45474D1*
X90925Y45167D1*
X90954Y44834D1*
X90927Y44518D1*
X90850Y44211D1*
X90723Y43920D1*
X90549Y43654D1*
X90335Y43421D1*
X90085Y43226D1*
X89832Y43089D1*
X89817Y50087D2*
X90070Y49952D1*
X90322Y49759D1*
X90555Y49502D1*
X91422Y49507D1*
X91427Y54218D1*
X90606Y54227D1*
X90335Y53921D1*
X90085Y53726D1*
X89832Y53589D1*
X90070Y53452D1*
X90322Y53259D1*
X90539Y53027D1*
X90714Y52763D1*
X90844Y52474D1*
X90925Y52167D1*
X90954Y51834D1*
X90927Y51518D1*
X90850Y51211D1*
X90723Y50920D1*
X90549Y50654D1*
X90335Y50421D1*
X90085Y50226D1*
X89832Y50089D1*
X22725Y17623D2*
X22659Y17312D1*
X22550Y17014D1*
X22401Y16734D1*
X22215Y16477D1*
X21994Y16249D1*
X21744Y16054D1*
X21469Y15896D1*
X21175Y15777D1*
X20867Y15700D1*
X20552Y15667D1*
X20235Y15679D1*
X19922Y15734D1*
X19621Y15832D1*
X19336Y15972D1*
X19073Y16149D1*
X18837Y16362D1*
X18634Y16605D1*
X18466Y16874D1*
X18337Y17164D1*
X18250Y17469D1*
X18206Y17784D1*
X18207Y18101D1*
X18251Y18415D1*
X18339Y18720D1*
X18469Y19009D1*
X18637Y19278D1*
X18842Y19521D1*
X19078Y19733D1*
X19341Y19910D1*
X19627Y20048D1*
X19929Y20145D1*
X20241Y20200D1*
X20558Y20210D1*
X20874Y20176D1*
X21181Y20099D1*
X21475Y19980D1*
X21749Y19820D1*
X21999Y19624D1*
X22219Y19396D1*
X22405Y19138D1*
X22553Y18858D1*
X22660Y18560D1*
X22726Y18249D1*
X22747Y17939D1*
X22725Y17623D1*
X32885D2*
X32819Y17312D1*
X32710Y17014D1*
X32561Y16734D1*
X32375Y16477D1*
X32154Y16249D1*
X31904Y16054D1*
X31629Y15896D1*
X31335Y15777D1*
X31027Y15700D1*
X30712Y15667D1*
X30395Y15679D1*
X30082Y15734D1*
X29781Y15832D1*
X29496Y15972D1*
X29233Y16149D1*
X28997Y16362D1*
X28794Y16605D1*
X28626Y16874D1*
X28497Y17164D1*
X28410Y17469D1*
X28366Y17784D1*
X28367Y18101D1*
X28411Y18415D1*
X28499Y18720D1*
X28629Y19009D1*
X28797Y19278D1*
X29002Y19521D1*
X29238Y19733D1*
X29501Y19910D1*
X29787Y20048D1*
X30089Y20145D1*
X30401Y20200D1*
X30718Y20210D1*
X31034Y20176D1*
X31341Y20099D1*
X31635Y19980D1*
X31909Y19820D1*
X32159Y19624D1*
X32379Y19396D1*
X32565Y19138D1*
X32713Y18858D1*
X32820Y18560D1*
X32886Y18249D1*
X32907Y17939D1*
X32885Y17623D1*
X40665Y17464D2*
X40599Y17153D1*
X40491Y16855D1*
X40342Y16575D1*
X40155Y16318D1*
X39935Y16090D1*
X39685Y15895D1*
X39410Y15737D1*
X39116Y15618D1*
X38808Y15541D1*
X38492Y15508D1*
X38175Y15520D1*
X37863Y15575D1*
X37561Y15673D1*
X37276Y15813D1*
X37013Y15990D1*
X36778Y16203D1*
X36574Y16446D1*
X36406Y16715D1*
X36278Y17005D1*
X36191Y17310D1*
X36147Y17625D1*
Y17942D1*
X36192Y18256D1*
X36280Y18561D1*
X36409Y18850D1*
X36578Y19119D1*
X36782Y19362D1*
X37019Y19574D1*
X37282Y19751D1*
X37567Y19889D1*
X37869Y19986D1*
X38182Y20041D1*
X38499Y20051D1*
X38814Y20017D1*
X39122Y19940D1*
X39416Y19821D1*
X39690Y19661D1*
X39940Y19465D1*
X40159Y19237D1*
X40345Y18979D1*
X40493Y18699D1*
X40601Y18401D1*
X40666Y18090D1*
X40687Y17780D1*
X40665Y17464D1*
X50825D2*
X50759Y17153D1*
X50651Y16855D1*
X50502Y16575D1*
X50315Y16318D1*
X50095Y16090D1*
X49845Y15895D1*
X49570Y15737D1*
X49276Y15618D1*
X48968Y15541D1*
X48652Y15508D1*
X48335Y15520D1*
X48023Y15575D1*
X47721Y15673D1*
X47436Y15813D1*
X47173Y15990D1*
X46938Y16203D1*
X46734Y16446D1*
X46566Y16715D1*
X46438Y17005D1*
X46351Y17310D1*
X46307Y17625D1*
Y17942D1*
X46352Y18256D1*
X46440Y18561D1*
X46569Y18850D1*
X46738Y19119D1*
X46942Y19362D1*
X47179Y19574D1*
X47442Y19751D1*
X47727Y19889D1*
X48029Y19986D1*
X48342Y20041D1*
X48659Y20051D1*
X48974Y20017D1*
X49282Y19940D1*
X49576Y19821D1*
X49850Y19661D1*
X50100Y19465D1*
X50319Y19237D1*
X50505Y18979D1*
X50653Y18699D1*
X50761Y18401D1*
X50826Y18090D1*
X50847Y17780D1*
X50825Y17464D1*
X34714Y54124D2*
X34862Y54118D1*
X35168Y54034D1*
X35448Y53886D1*
X35688Y53680D1*
X35906Y53362D1*
X36012Y53534D1*
X36224Y53770D1*
X36482Y53954D1*
X36774Y54076D1*
X37086Y54132D1*
X37402Y54118D1*
X37708Y54034D1*
X37988Y53886D1*
X38228Y53680D1*
X38329Y53545D1*
X38777Y53538D1*
X38739Y53684D1*
X38723Y54000D1*
X38792Y54309D1*
X38871Y54457D1*
X35054Y54462D1*
X34724Y54139D1*
X38376Y48718D2*
X38129Y48449D1*
X37863Y48277D1*
X37566Y48167D1*
X37251Y48125D1*
X36936Y48154D1*
X36644Y48247D1*
X40398Y44484D1*
X40462Y44524D1*
Y44554D1*
X39209Y45806D1*
X39032Y46067D1*
X38964Y46398D1*
Y48730D1*
X38383Y48722D1*
X79620Y28667D2*
X78677D1*
X78846Y28497D1*
X79023Y28235D1*
X79091Y27904D1*
X79099Y26861D1*
X79794D1*
X79955Y27030D1*
Y28657D1*
X79620Y28667D1*
X72395Y53064D2*
X72282Y52768D1*
X72101Y52507D1*
X71863Y52298D1*
X71582Y52153D1*
X71274Y52079D1*
X70957Y52081D1*
X70651Y52159D1*
X70371Y52309D1*
X70137Y52521D1*
X69960Y52784D1*
X69851Y53082D1*
X69817Y53397D1*
X69860Y53710D1*
X69977Y54005D1*
X70161Y54262D1*
X70402Y54468D1*
X70685Y54610D1*
X70994Y54679D1*
X71311Y54673D1*
X71617Y54590D1*
X71894Y54436D1*
X72125Y54220D1*
X72299Y53955D1*
X72403Y53656D1*
X72433Y53378D1*
X72395Y53064D1*
Y45444D2*
X72282Y45148D1*
X72101Y44887D1*
X71863Y44678D1*
X71582Y44533D1*
X71274Y44459D1*
X70957Y44461D1*
X70651Y44539D1*
X70371Y44689D1*
X70137Y44901D1*
X69960Y45164D1*
X69851Y45462D1*
X69817Y45777D1*
X69860Y46090D1*
X69977Y46385D1*
X70161Y46642D1*
X70402Y46848D1*
X70685Y46990D1*
X70994Y47059D1*
X71311Y47053D1*
X71617Y46970D1*
X71894Y46816D1*
X72125Y46600D1*
X72299Y46335D1*
X72403Y46036D1*
X72433Y45758D1*
X72395Y45444D1*
X14751Y56036D2*
X17280D1*
Y53191D1*
X17151D1*
X17232Y52977D1*
X17280Y52613D1*
X17244Y52299D1*
X17140Y51999D1*
X16973Y51730D1*
X16750Y51505D1*
X16482Y51335D1*
X16184Y51229D1*
X15869Y51191D1*
X15554Y51223D1*
X15254Y51325D1*
X14984Y51490D1*
X14757Y51711D1*
X14584Y51977D1*
X14475Y52274D1*
X14434Y52588D1*
X14464Y52904D1*
X14560Y53195D1*
X14434Y53191D1*
Y56036D1*
X14751D1*
X57820Y25408D2*
X57592Y25547D1*
X57365Y25768D1*
X57193Y26034D1*
X57079Y26361D1*
X57080Y24446D1*
X57171Y24722D1*
X57334Y24994D1*
X57553Y25223D1*
X57826Y25401D1*
X57820Y22868D2*
X57592Y23007D1*
X57365Y23228D1*
X57193Y23494D1*
X57079Y23821D1*
X57080Y21906D1*
X57171Y22182D1*
X57334Y22454D1*
X57553Y22683D1*
X57826Y22861D1*
X57820Y20328D2*
X57592Y20467D1*
X57365Y20688D1*
X57193Y20954D1*
X57079Y21281D1*
X57080Y19366D1*
X57171Y19642D1*
X57334Y19914D1*
X57553Y20143D1*
X57826Y20321D1*
X57820Y17788D2*
X57592Y17927D1*
X57365Y18148D1*
X57193Y18414D1*
X57079Y18741D1*
X57080Y16826D1*
X57171Y17102D1*
X57334Y17374D1*
X57553Y17603D1*
X57826Y17781D1*
X67482Y14188D2*
X67508Y13971D1*
X67473Y13656D1*
X67369Y13357D1*
X67201Y13088D1*
X66978Y12863D1*
X66711Y12693D1*
X66412Y12586D1*
X66098Y12548D1*
X65782Y12580D1*
X65482Y12682D1*
X65212Y12847D1*
X64985Y13068D1*
X64813Y13334D1*
X64703Y13631D1*
X64662Y13946D1*
X64692Y14261D1*
X64791Y14562D1*
X64954Y14834D1*
X65173Y15063D1*
X65446Y15241D1*
X65212Y15387D1*
X64985Y15608D1*
X64813Y15874D1*
X64703Y16171D1*
X64662Y16486D1*
X64692Y16801D1*
X64791Y17102D1*
X64954Y17374D1*
X65173Y17603D1*
X65446Y17781D1*
X65212Y17927D1*
X64985Y18148D1*
X64813Y18414D1*
X64703Y18711D1*
X64662Y19026D1*
X64692Y19341D1*
X64791Y19642D1*
X64954Y19914D1*
X65173Y20143D1*
X65446Y20321D1*
X65212Y20467D1*
X64985Y20688D1*
X64813Y20954D1*
X64703Y21251D1*
X64662Y21566D1*
X64692Y21881D1*
X64791Y22182D1*
X64954Y22454D1*
X65173Y22683D1*
X65437Y22858D1*
X65733Y22970D1*
X66047Y23013D1*
X66363Y22986D1*
X66673Y22885D1*
X66813Y23087D1*
X67473Y23747D1*
X67734Y23924D1*
X68065Y23992D1*
X69947Y23989D1*
X69902Y24110D1*
X69861Y24424D1*
X69891Y24739D1*
X69990Y25040D1*
X70153Y25312D1*
X70372Y25541D1*
X70639Y25726D1*
X70411Y25866D1*
X70184Y26087D1*
X70011Y26352D1*
X69902Y26650D1*
X69861Y26964D1*
X69891Y27279D1*
X69990Y27580D1*
X70153Y27852D1*
X70372Y28081D1*
X70639Y28266D1*
X70411Y28406D1*
X70184Y28627D1*
X70011Y28892D1*
X69902Y29190D1*
X69861Y29504D1*
X69891Y29819D1*
X69990Y30120D1*
X70153Y30392D1*
X70372Y30621D1*
X70639Y30806D1*
X70411Y30946D1*
X70184Y31167D1*
X70011Y31432D1*
X69902Y31730D1*
X69861Y32044D1*
X69891Y32359D1*
X69990Y32660D1*
X70153Y32932D1*
X70372Y33161D1*
X70639Y33346D1*
X70411Y33486D1*
X70184Y33707D1*
X70011Y33972D1*
X69902Y34270D1*
X69861Y34584D1*
X69891Y34899D1*
X69990Y35200D1*
X70153Y35472D1*
X70413Y35728D1*
X69861Y35726D1*
Y38572D1*
X72707D1*
Y35726D1*
X72161D1*
X72368Y35531D1*
X72545Y35268D1*
X72660Y34973D1*
X72707Y34609D1*
X72684Y34402D1*
X75101Y31977D1*
X75279Y31715D1*
X75347Y31384D1*
Y28517D1*
X77002Y26854D1*
X77309Y26848D1*
X77414Y26819D1*
X77415Y27567D1*
X77100Y27873D1*
X76923Y28134D1*
X76854Y28465D1*
Y31110D1*
X76914Y31420D1*
X77084Y31686D1*
X77340Y31870D1*
X77692Y31948D1*
X77861D1*
X77976Y32042D1*
X78251Y32198D1*
X78558Y32275D1*
X79005Y32283D1*
X79874Y32268D1*
X79959Y32242D1*
X79955Y34710D1*
X79302Y34700D1*
X78437D1*
X78147Y34766D1*
X77961Y34897D1*
X77711Y35147D1*
X77577Y35339D1*
X77514Y35623D1*
Y36123D1*
X77584Y36419D1*
X77623Y36649D1*
X77530Y36951D1*
X77521Y37268D1*
X77597Y37575D1*
X77752Y37851D1*
X77976Y38075D1*
X78251Y38231D1*
X78558Y38309D1*
X79005Y38316D1*
X79874Y38301D1*
X79959Y38275D1*
X79955Y40901D1*
X79302Y40892D1*
X78437D1*
X78147Y40958D1*
X77961Y41089D1*
X77711Y41339D1*
X77577Y41531D1*
X77514Y41815D1*
Y42315D1*
X77584Y42611D1*
X77623Y42841D1*
X77530Y43143D1*
X77521Y43460D1*
X77597Y43767D1*
X77752Y44043D1*
X77976Y44267D1*
X78251Y44423D1*
X78558Y44500D1*
X79005Y44508D1*
X79874Y44493D1*
X79959Y44467D1*
X79955Y46953D1*
X79778Y46925D1*
X78278D1*
X77988Y46991D1*
X77803Y47122D1*
X77553Y47372D1*
X77418Y47564D1*
X77356Y47848D1*
Y48348D1*
X77425Y48644D1*
X77465Y48874D1*
X77371Y49176D1*
X77362Y49493D1*
X77438Y49800D1*
X77593Y50076D1*
X77817Y50300D1*
X78092Y50457D1*
X78399Y50534D1*
X78846Y50541D1*
X79715Y50526D1*
X79952Y50454D1*
X79955Y53204D1*
X79669Y53120D1*
X78120Y53117D1*
X77829Y53183D1*
X77644Y53314D1*
X77394Y53564D1*
X77259Y53756D1*
X77197Y54040D1*
Y54540D1*
X77267Y54836D1*
X77306Y55066D1*
X77212Y55368D1*
X77203Y55685D1*
X77279Y55992D1*
X77435Y56268D1*
X77658Y56492D1*
X77933Y56648D1*
X78240Y56725D1*
X78687Y56733D1*
X79557Y56718D1*
X79860Y56625D1*
X79951Y56567D1*
X79955Y59554D1*
X79669Y59471D1*
X78120Y59468D1*
X77829Y59533D1*
X77644Y59665D1*
X77387Y59924D1*
X77129Y59571D1*
X73429Y55871D1*
X73177Y55679D1*
X72791Y55543D1*
X71965Y55527D1*
X49135D1*
X49302Y55225D1*
X49381Y54800D1*
X49319Y54441D1*
X55568Y54438D1*
X55878Y54378D1*
X56161Y54192D1*
X56940Y53414D1*
X56942Y54766D1*
X59788D1*
Y51920D1*
X59242D1*
X59449Y51725D1*
X59626Y51462D1*
X59741Y51167D1*
X59788Y50803D1*
X59765Y50597D1*
X60203Y50151D1*
X60380Y49890D1*
X60448Y49558D1*
Y44428D1*
X60389Y44118D1*
X60203Y43836D1*
X59775Y43408D1*
X59788Y43183D1*
X59753Y42868D1*
X59649Y42569D1*
X59481Y42300D1*
X59258Y42075D1*
X58999Y41911D1*
X59218Y41782D1*
X59449Y41565D1*
X59626Y41302D1*
X59741Y41007D1*
X59788Y40643D1*
X59753Y40328D1*
X59649Y40029D1*
X59481Y39760D1*
X59258Y39535D1*
X58991Y39365D1*
X58692Y39259D1*
X58378Y39220D1*
X58034Y39262D1*
X58038Y30638D1*
X59888Y30634D1*
Y27788D1*
X59342D1*
X59549Y27593D1*
X59726Y27330D1*
X59841Y27035D1*
X59888Y26671D1*
X59865Y26464D1*
X60303Y26018D1*
X60480Y25757D1*
X60548Y25426D1*
Y20296D1*
X60489Y19986D1*
X60303Y19703D1*
X59875Y19275D1*
X59888Y19051D1*
X59853Y18736D1*
X59749Y18437D1*
X59581Y18168D1*
X59358Y17943D1*
X59099Y17778D1*
X59318Y17650D1*
X59549Y17433D1*
X59726Y17170D1*
X59841Y16875D1*
X59888Y16511D1*
X59853Y16196D1*
X59749Y15897D1*
X59581Y15628D1*
X59358Y15403D1*
X59091Y15233D1*
X58792Y15126D1*
X58478Y15088D1*
X58162Y15120D1*
X57862Y15222D1*
X57592Y15387D1*
X57365Y15608D1*
X57193Y15874D1*
X57079Y16201D1*
X57066Y13831D1*
X56962Y13315D1*
X56771Y12922D1*
X56572Y12649D1*
X56185Y12292D1*
X55799Y12087D1*
X55478Y11983D1*
X54955Y11922D1*
X54522Y11983D1*
X54201Y12087D1*
X53742Y12346D1*
X53428Y12649D1*
X53229Y12922D1*
X53010Y13401D1*
X52925Y13914D1*
X52921Y26383D1*
X52934Y29169D1*
X53038Y29685D1*
X53229Y30078D1*
X53428Y30351D1*
X53815Y30708D1*
X54201Y30913D1*
X54522Y31017D1*
X55045Y31078D1*
X55478Y31017D1*
X55799Y30913D1*
X56258Y30654D1*
X56365Y30559D1*
X56362Y42018D1*
X56422Y42328D1*
X56608Y42611D1*
X56965Y42969D1*
X56942Y43158D1*
X56972Y43474D1*
X57071Y43775D1*
X57234Y44046D1*
X57453Y44275D1*
X57726Y44454D1*
X57492Y44600D1*
X57265Y44821D1*
X57093Y45087D1*
X56983Y45384D1*
X56942Y45698D1*
X56972Y46014D1*
X57071Y46315D1*
X57234Y46586D1*
X57453Y46815D1*
X57726Y46994D1*
X57492Y47140D1*
X57265Y47361D1*
X57093Y47627D1*
X56983Y47924D1*
X56942Y48238D1*
X56972Y48554D1*
X57071Y48855D1*
X57234Y49126D1*
X57453Y49355D1*
X57726Y49534D1*
X57492Y49680D1*
X57265Y49901D1*
X57093Y50167D1*
X56983Y50464D1*
X56942Y50778D1*
X56966Y51025D1*
X55970Y52014D1*
X55817Y51847D1*
X55561Y51661D1*
X55265Y51549D1*
X54950Y51520D1*
X54638Y51576D1*
X54353Y51712D1*
X54181Y51861D1*
X50347Y51862D1*
X50338Y50478D1*
Y25400D1*
X50278Y25090D1*
X50101Y24818D1*
X49817Y24547D1*
X49561Y24361D1*
X49265Y24249D1*
X48950Y24220D1*
X48638Y24276D1*
X48353Y24412D1*
X48114Y24620D1*
X47938Y24883D1*
X47839Y25184D1*
X47823Y25500D1*
X47892Y25809D1*
X48041Y26089D1*
X48258Y26319D1*
X48529Y26483D1*
X48671Y26523D1*
X48662Y27940D1*
Y39717D1*
X48465Y39649D1*
X48150Y39620D1*
X47838Y39676D1*
X47553Y39812D1*
X47314Y40020D1*
X47138Y40283D1*
X47039Y40584D1*
X47023Y40900D1*
X47092Y41209D1*
X47241Y41489D1*
X47356Y41611D1*
X47362Y44640D1*
X46352Y45657D1*
X41822Y45662D1*
X41777Y45618D1*
X41892Y45492D1*
X42070Y45231D1*
X42138Y44900D1*
Y30583D1*
X44727Y27995D1*
X44904Y27733D1*
X44972Y27402D1*
X44988Y25269D1*
X45218Y25052D1*
X45396Y24789D1*
X45510Y24494D1*
X45557Y24130D1*
X45522Y23815D1*
X45418Y23516D1*
X45250Y23247D1*
X45027Y23022D1*
X44760Y22852D1*
X44462Y22745D1*
X44147Y22707D1*
X43832Y22740D1*
X43532Y22841D1*
X43262Y23006D1*
X43018Y23252D1*
X43017Y22707D1*
X41837D1*
X40519Y21396D1*
X40267Y21204D1*
X39881Y21068D1*
X39055Y21052D1*
X25718D1*
X25404Y21095D1*
X25035Y21271D1*
X24440Y21845D1*
X23422Y22862D1*
X22231Y22866D1*
Y24106D1*
X22144Y24193D1*
X17556Y24187D1*
X16514D1*
X16325Y24082D1*
X16027Y23975D1*
X15713Y23937D1*
X15397Y23970D1*
X15097Y24071D1*
X14827Y24236D1*
X14600Y24457D1*
X14428Y24723D1*
X14318Y25021D1*
X14277Y25335D1*
X14307Y25650D1*
X14406Y25951D1*
X14569Y26223D1*
X14788Y26452D1*
X15061Y26630D1*
X14827Y26776D1*
X14600Y26997D1*
X14428Y27263D1*
X14318Y27561D1*
X14277Y27875D1*
X14307Y28190D1*
X14452Y28568D1*
X14043Y28523D1*
X10994Y28513D1*
X10978Y28139D1*
Y15985D1*
X11428Y16441D1*
X11546Y16531D1*
X12419Y16987D1*
X12562Y17036D1*
X13529Y17191D1*
X13681Y17193D1*
X14454Y17066D1*
X14318Y17401D1*
X14277Y17715D1*
X14307Y18030D1*
X14406Y18331D1*
X14569Y18603D1*
X14788Y18832D1*
X15061Y19010D1*
X14827Y19156D1*
X14600Y19377D1*
X14428Y19643D1*
X14318Y19941D1*
X14277Y20255D1*
X14307Y20570D1*
X14406Y20871D1*
X14569Y21143D1*
X14788Y21372D1*
X15052Y21547D1*
X15348Y21659D1*
X15662Y21702D1*
X15978Y21675D1*
X16280Y21579D1*
X16553Y21419D1*
X16784Y21202D1*
X16961Y20939D1*
X17076Y20644D1*
X17123Y20280D1*
X17088Y19965D1*
X16984Y19666D1*
X16816Y19397D1*
X16593Y19172D1*
X16334Y19007D1*
X16553Y18879D1*
X16784Y18662D1*
X16961Y18399D1*
X17076Y18104D1*
X17123Y17740D1*
X17088Y17425D1*
X16984Y17126D1*
X16816Y16857D1*
X16593Y16632D1*
X16325Y16462D1*
X16027Y16355D1*
X15880Y16337D1*
X16471Y15719D1*
X16556Y15602D1*
X16997Y14700D1*
X17042Y14565D1*
X17192Y13566D1*
X17193Y13424D1*
X17037Y12427D1*
X16996Y12290D1*
X16549Y11391D1*
X16466Y11272D1*
X16183Y10980D1*
X68993Y10977D1*
X68635Y11334D1*
X68547Y11451D1*
X68105Y12325D1*
X68059Y12464D1*
X67909Y13432D1*
X67907Y13578D1*
X68063Y14545D1*
X68107Y14685D1*
X68554Y15556D1*
X68639Y15675D1*
X69334Y16365D1*
X69451Y16453D1*
X69849Y16655D1*
X69336Y17179D1*
X69158Y17440D1*
X69090Y17772D1*
Y20553D1*
X69150Y20863D1*
X69336Y21146D1*
X69876Y21686D1*
X69861Y21884D1*
X69891Y22199D1*
X69931Y22322D1*
X68406Y22316D1*
X68243Y22147D1*
Y15291D1*
X68184Y14981D1*
X67998Y14698D1*
X67485Y14186D1*
X67473Y28896D2*
X67369Y28597D1*
X67201Y28328D1*
X66978Y28103D1*
X66711Y27933D1*
X66412Y27826D1*
X66098Y27788D1*
X65782Y27820D1*
X65482Y27922D1*
X65212Y28087D1*
X64985Y28308D1*
X64813Y28574D1*
X64703Y28871D1*
X64662Y29186D1*
X64692Y29501D1*
X64791Y29802D1*
X64954Y30074D1*
X65173Y30303D1*
X65437Y30478D1*
X65733Y30590D1*
X66047Y30633D1*
X66363Y30606D1*
X66665Y30510D1*
X66938Y30350D1*
X67169Y30133D1*
X67346Y29870D1*
X67461Y29575D1*
X67508Y29211D1*
X67473Y28896D1*
X67373Y37788D2*
X67269Y37489D1*
X67101Y37220D1*
X66878Y36995D1*
X66611Y36825D1*
X66312Y36719D1*
X65998Y36680D1*
X65682Y36713D1*
X65382Y36814D1*
X65112Y36980D1*
X64885Y37201D1*
X64713Y37467D1*
X64603Y37764D1*
X64562Y38078D1*
X64592Y38394D1*
X64691Y38695D1*
X64854Y38966D1*
X65073Y39195D1*
X65346Y39374D1*
X65112Y39520D1*
X64885Y39741D1*
X64713Y40007D1*
X64603Y40304D1*
X64562Y40618D1*
X64592Y40934D1*
X64691Y41235D1*
X64854Y41506D1*
X65073Y41735D1*
X65346Y41914D1*
X65112Y42060D1*
X64885Y42281D1*
X64713Y42547D1*
X64603Y42844D1*
X64562Y43158D1*
X64592Y43474D1*
X64691Y43775D1*
X64854Y44046D1*
X65073Y44275D1*
X65346Y44454D1*
X65112Y44600D1*
X64885Y44821D1*
X64713Y45087D1*
X64603Y45384D1*
X64562Y45698D1*
X64592Y46014D1*
X64691Y46315D1*
X64854Y46586D1*
X65073Y46815D1*
X65337Y46990D1*
X65633Y47102D1*
X65947Y47146D1*
X66263Y47119D1*
X66565Y47023D1*
X66838Y46862D1*
X67069Y46645D1*
X67246Y46382D1*
X67361Y46087D1*
X67408Y45723D1*
X67373Y45408D1*
X67269Y45109D1*
X67101Y44840D1*
X66878Y44615D1*
X66619Y44451D1*
X66838Y44322D1*
X67069Y44105D1*
X67246Y43842D1*
X67361Y43547D1*
X67408Y43183D1*
X67373Y42868D1*
X67269Y42569D1*
X67101Y42300D1*
X66878Y42075D1*
X66619Y41911D1*
X66838Y41782D1*
X67069Y41565D1*
X67246Y41302D1*
X67361Y41007D1*
X67408Y40643D1*
X67373Y40328D1*
X67269Y40029D1*
X67101Y39760D1*
X66878Y39535D1*
X66619Y39371D1*
X66838Y39242D1*
X67069Y39025D1*
X67246Y38762D1*
X67361Y38467D1*
X67408Y38103D1*
X67373Y37788D1*
Y53028D2*
X67269Y52729D1*
X67101Y52460D1*
X66878Y52235D1*
X66611Y52065D1*
X66312Y51959D1*
X65998Y51920D1*
X65682Y51953D1*
X65382Y52054D1*
X65112Y52220D1*
X64885Y52441D1*
X64713Y52707D1*
X64603Y53004D1*
X64562Y53318D1*
X64592Y53634D1*
X64691Y53935D1*
X64854Y54206D1*
X65073Y54435D1*
X65337Y54610D1*
X65633Y54722D1*
X65947Y54766D1*
X66263Y54739D1*
X66565Y54643D1*
X66838Y54482D1*
X67069Y54265D1*
X67246Y54002D1*
X67361Y53707D1*
X67408Y53343D1*
X67373Y53028D1*
X22402Y36043D2*
X22344Y35731D1*
X22250Y35428D1*
X22119Y35139D1*
X21955Y34868D1*
X21758Y34618D1*
X21534Y34394D1*
X21283Y34199D1*
X21011Y34036D1*
X20722Y33907D1*
X20418Y33813D1*
X20106Y33757D1*
X19789Y33739D1*
X19473Y33760D1*
X19161Y33818D1*
X18858Y33914D1*
X18570Y34046D1*
X18299Y34212D1*
X18050Y34409D1*
X17827Y34634D1*
X17633Y34885D1*
X17471Y35158D1*
X17343Y35448D1*
X17251Y35752D1*
X17196Y36065D1*
X17179Y36381D1*
X17201Y36698D1*
X17261Y37010D1*
X17358Y37312D1*
X17491Y37600D1*
X17658Y37870D1*
X17856Y38118D1*
X18082Y38340D1*
X18334Y38533D1*
X18608Y38694D1*
X18898Y38821D1*
X19202Y38912D1*
X19515Y38965D1*
X19832Y38981D1*
X20149Y38958D1*
X20460Y38896D1*
X20762Y38798D1*
X21049Y38664D1*
X21318Y38496D1*
X21565Y38297D1*
X21787Y38069D1*
X21979Y37817D1*
X22139Y37543D1*
X22265Y37252D1*
X22354Y36947D1*
X22406Y36634D1*
X22421Y36360D1*
X22402Y36043D1*
X40633Y47612D2*
X40833Y47669D1*
X41150Y47671D1*
X41456Y47590D1*
X41729Y47429D1*
X41818Y47337D1*
X46629Y47338D1*
X46623Y47500D1*
X46660Y47664D1*
X45592Y48723D1*
X40632Y48722D1*
X40640Y47625D1*
X48170Y48513D2*
X48256Y48490D1*
X48529Y48329D1*
X48660Y48195D1*
X48662Y51862D1*
X42088D1*
X42038Y51486D1*
X41914Y51195D1*
X41717Y50947D1*
X41461Y50761D1*
X41165Y50649D1*
X40919Y50627D1*
X40686Y50401D1*
X45940Y50398D1*
X46250Y50338D1*
X46532Y50152D1*
X48167Y48518D1*
X93740Y64014D2*
X93418Y64429D1*
X93000Y64747D1*
X92514Y64947D1*
X92159Y65000D1*
X93429Y63729D1*
X93621Y63477D1*
X93757Y63091D1*
X93773Y62265D1*
X93772Y20490D1*
X93773Y13334D1*
X93730Y13020D1*
X94023Y13053D1*
Y62938D1*
D18*
X24100Y47300D3*
D19*
Y52300D3*
D20*
X37300Y44500D3*
X34760D3*
D21*
X77123Y12852D3*
D22*
X79663D3*
D21*
X77123Y15392D3*
D22*
X79663D3*
D21*
X77123Y17932D3*
D22*
X79663D3*
D21*
X77123Y20472D3*
D22*
X79663D3*
D21*
X77123Y23013D3*
D22*
X79663D3*
D21*
X77123Y25553D3*
D22*
X79663D3*
D23*
X89031Y13334D3*
D24*
Y16834D3*
Y20334D3*
Y23834D3*
Y27334D3*
Y30834D3*
Y34334D3*
Y37834D3*
Y41334D3*
Y44834D3*
Y48334D3*
Y51834D3*
Y55334D3*
Y58834D3*
Y62334D3*
D25*
X23654Y24289D3*
D26*
X24924Y26829D3*
X26194Y24289D3*
X27464Y26829D3*
D25*
X41595Y24130D3*
D26*
X42865Y26670D3*
X44135Y24130D3*
X45405Y26670D3*
D27*
X32100Y52700D3*
D28*
X34640D3*
X37180D3*
D27*
X32140Y49560D3*
D28*
X34680D3*
X37220D3*
G36*
X79937Y29340D2*
X80187Y29590D1*
Y30090D1*
X79937Y30340D1*
X78437D1*
X78187Y30090D1*
Y29590D1*
X78437Y29340D1*
X79937D1*
G37*
D29*
X79187Y31110D3*
Y32380D3*
G36*
X79937Y35373D2*
X80187Y35623D1*
Y36123D1*
X79937Y36373D1*
X78437D1*
X78187Y36123D1*
Y35623D1*
X78437Y35373D1*
X79937D1*
G37*
D29*
X79187Y37143D3*
Y38413D3*
G36*
X79937Y41565D2*
X80187Y41815D1*
Y42315D1*
X79937Y42565D1*
X78437D1*
X78187Y42315D1*
Y41815D1*
X78437Y41565D1*
X79937D1*
G37*
D29*
X79187Y43335D3*
Y44605D3*
G36*
X79778Y47598D2*
X80028Y47848D1*
Y48348D1*
X79778Y48598D1*
X78278D1*
X78028Y48348D1*
Y47848D1*
X78278Y47598D1*
X79778D1*
G37*
D29*
X79028Y49368D3*
Y50638D3*
G36*
X79620Y53790D2*
X79870Y54040D1*
Y54540D1*
X79620Y54790D1*
X78120D1*
X77870Y54540D1*
Y54040D1*
X78120Y53790D1*
X79620D1*
G37*
D29*
X78870Y55560D3*
Y56830D3*
G36*
X79620Y60140D2*
X79870Y60390D1*
Y60890D1*
X79620Y61140D1*
X78120D1*
X77870Y60890D1*
Y60390D1*
X78120Y60140D1*
X79620D1*
G37*
D29*
X78870Y61910D3*
Y63180D3*
D21*
X71125Y53378D3*
D30*
Y45758D3*
D25*
X71284Y37149D3*
D31*
Y34609D3*
Y32069D3*
Y29529D3*
Y26989D3*
Y24449D3*
Y21909D3*
Y19369D3*
D25*
X15857Y54613D3*
D31*
Y52613D3*
Y50613D3*
D32*
Y56713D3*
Y48513D3*
D25*
X58465Y29211D3*
D31*
Y26671D3*
Y24131D3*
Y21591D3*
Y19051D3*
Y16511D3*
Y13971D3*
X66085D3*
Y16511D3*
Y19051D3*
Y21591D3*
Y24131D3*
Y26671D3*
Y29211D3*
D25*
X58365Y53343D3*
D31*
Y50803D3*
Y48263D3*
Y45723D3*
Y43183D3*
Y40643D3*
Y38103D3*
X65985D3*
Y40643D3*
Y43183D3*
Y45723D3*
Y48263D3*
Y50803D3*
Y53343D3*
D35*
X37400Y38900D3*
Y36360D3*
D36*
Y33820D3*
D26*
X15700Y27900D3*
Y25360D3*
Y22820D3*
Y20280D3*
Y17740D3*
M02*
