G04 DipTrace 2.4.0.1*
%INTop.gbr*%
%MOMM*%
%ADD14C,0.33*%
%ADD15C,0.635*%
%ADD18R,1.35X1.35*%
%ADD19C,1.35*%
%ADD20C,1.65*%
%ADD21C,1.27*%
%ADD22R,1.27X1.27*%
%ADD23R,2.5X2.5*%
%ADD24C,2.5*%
%ADD25R,1.5X1.5*%
%ADD26C,1.5*%
%ADD27R,1.524X1.524*%
%ADD28C,1.524*%
%ADD29O,2.0X1.0*%
%ADD30C,1.27*%
%ADD31C,1.5*%
%ADD32C,2.2*%
%ADD33R,2.5X0.6*%
%ADD34O,2.5X0.6*%
%ADD35C,1.9*%
%ADD36R,1.9X1.9*%
%ADD37C,1.016*%
%FSLAX53Y53*%
G04*
G71*
G90*
G75*
G01*
%LNTop*%
%LPD*%
X50690Y41000D2*
D14*
X49900D1*
X49000Y41900D1*
X35800D1*
Y36360D1*
X37400D1*
X71125Y53378D2*
X73400D1*
Y37149D1*
Y29300D1*
X72300Y28200D1*
X69200D1*
X68189Y29211D1*
X66085D1*
X35800Y36360D2*
Y30800D1*
X18200D1*
X15700Y28300D1*
Y27900D1*
X71125Y53378D2*
X67378D1*
X65985Y53343D2*
X69011D1*
X69046Y53378D1*
X71125D1*
X35800Y41900D2*
Y43000D1*
X37300Y44500D1*
X50690Y54800D2*
X64528D1*
X65985Y53343D1*
X71284Y37149D2*
X73400D1*
Y53378D2*
Y59400D1*
X75200Y61200D1*
Y63004D1*
X76372Y64175D1*
X87189D1*
X89031Y62334D1*
X37300Y44500D2*
X43000D1*
Y48100D1*
X39700Y51400D1*
Y52400D1*
X43300Y56000D1*
X49490D1*
X50690Y54800D1*
X49000Y25400D2*
X44135D1*
X42865Y26670D1*
Y22226D1*
X42205Y21566D1*
X14300D1*
Y19140D1*
X15700Y17740D1*
X55000Y52700D2*
X53100D1*
X52270Y53530D1*
X50690D1*
X44963Y47180D2*
Y48450D1*
Y49720D1*
Y50990D1*
Y52260D1*
Y33380D2*
Y34650D1*
Y35920D1*
Y37190D1*
Y38460D1*
Y35920D2*
Y31600D1*
X45000D1*
X44963Y47180D2*
X44900D1*
Y45300D1*
X24924Y26829D2*
X28037Y29942D1*
X38185D1*
X38845Y30602D1*
Y40340D1*
X39505Y41000D1*
X45000D1*
X26194Y24289D2*
X38845D1*
X39505Y24949D1*
Y39070D1*
X40165Y39730D1*
X44963D1*
X48200Y40800D2*
X48400D1*
X49400Y39800D1*
X50690D1*
Y39730D1*
X41000Y46500D2*
Y48900D1*
X39000Y50900D1*
X36440D1*
X34640Y52700D1*
X39800Y43200D2*
X51478D1*
X52435Y42243D1*
Y38460D1*
X50690D1*
X44135Y24130D2*
Y20981D1*
X43434Y20280D1*
X15700D1*
X47800Y47400D2*
Y49306D1*
X48714Y50220D1*
Y52260D1*
X50690D1*
X79663Y15392D2*
X78253Y16802D1*
Y27904D1*
X77692Y28465D1*
Y37143D1*
X79187D1*
X84462Y36079D2*
X82773Y37768D1*
Y42675D1*
X82113Y43335D1*
X79187D1*
X89031Y16834D2*
X81453D1*
X80793Y17494D1*
Y29840D1*
X79187D1*
X89031Y23834D2*
X82113D1*
X81453Y24494D1*
Y35213D1*
X80793Y35873D1*
X79187D1*
X89031Y30834D2*
X82773D1*
X82113Y31494D1*
Y41405D1*
X81453Y42065D1*
X79187D1*
X89031Y37834D2*
X83433Y43432D1*
Y47438D1*
X82773Y48098D1*
X79028D1*
X89031Y44834D2*
X84093Y49772D1*
Y53630D1*
X83433Y54290D1*
X78870D1*
X89031Y51834D2*
X86626Y54239D1*
Y59980D1*
X85966Y60640D1*
X78870D1*
X79028Y49368D2*
X83000D1*
Y50000D1*
X81700Y55900D2*
X81360Y55560D1*
X78870D1*
X71284Y34609D2*
X69479D1*
X65985Y38103D1*
X71284Y32069D2*
X66939D1*
X58365Y40643D1*
X71284Y29529D2*
X72529Y30774D1*
Y35194D1*
X71869Y35854D1*
X70039D1*
X69379Y36514D1*
Y39790D1*
X72255Y42666D1*
Y46308D1*
X71595Y46968D1*
X59660D1*
X58365Y48263D1*
X77123Y15392D2*
X75553D1*
X72529Y18416D1*
X71869Y17756D1*
X59710D1*
X58465Y16511D1*
X72529Y18416D2*
Y23204D1*
X71284Y24449D1*
Y21909D2*
X68726D1*
X67799Y22836D1*
X59760D1*
X58465Y24131D1*
X48200Y54800D2*
X45000D1*
X40900Y51800D2*
Y52700D1*
X41730Y53530D1*
X44963D1*
X66085Y16511D2*
X61502Y11928D1*
X53095D1*
X51400Y13623D1*
Y33380D1*
X50690D1*
X58465Y21591D2*
X57100Y22956D1*
Y33455D1*
X55905Y34650D1*
X50690D1*
X58465Y29211D2*
Y35260D1*
X57805Y35920D1*
X50690D1*
X65985Y40643D2*
X64740Y41888D1*
X57812D1*
X53095Y46605D1*
Y46520D1*
X52435Y47180D1*
X50690D1*
X58365Y45723D2*
X56598D1*
X53871Y48450D1*
X50690D1*
X58365Y53343D2*
X54742Y49720D1*
X50690D1*
X58365Y43183D2*
X65985D1*
X58465Y19051D2*
X66085D1*
X65985Y43183D2*
X68550D1*
X71125Y45758D1*
X39900Y53900D2*
X39843Y53957D1*
X19760D1*
X18416Y52613D1*
X15857D1*
D37*
X45000Y31600D3*
X44900Y45300D3*
X49000Y25400D3*
X55000Y52700D3*
X48200Y40800D3*
X41000Y46500D3*
X39800Y43200D3*
X47800Y47400D3*
X84462Y36079D3*
X83000Y50000D3*
X81700Y55900D3*
X48200Y54800D3*
X39900Y53900D3*
X40900Y51800D3*
X12227Y59088D2*
D15*
X11026Y57887D1*
X13848Y58912D2*
X11026Y56091D1*
X15861Y59130D2*
X15039Y58308D1*
X14262Y57530D2*
X11026Y54295D1*
X14290Y55762D2*
X11026Y52499D1*
X18303Y57979D2*
X17600Y57276D1*
X14388Y54064D2*
X11026Y50702D1*
X20099Y57979D2*
X17326Y55207D1*
X14416Y52296D2*
X11026Y48906D1*
X21895Y57979D2*
X17410Y53495D1*
X14395Y50479D2*
X11440Y47524D1*
X23691Y57979D2*
X20553Y54842D1*
X17440Y51728D2*
X17119Y51407D1*
X14044Y48333D2*
X13236Y47524D1*
X25487Y57979D2*
X22349Y54842D1*
X20583Y53075D2*
X17235Y49727D1*
X27283Y57979D2*
X24146Y54842D1*
X22379Y53075D2*
X17663Y48359D1*
X16009Y46705D2*
X15788Y46484D1*
X29079Y57979D2*
X25942Y54842D1*
X22821Y51721D2*
X16021Y44921D1*
X30875Y57979D2*
X27738Y54842D1*
X25971Y53075D2*
X25471Y52576D1*
X23824Y50928D2*
X16021Y43125D1*
X32671Y57979D2*
X29534Y54842D1*
X27767Y53075D2*
X23388Y48696D1*
X22709Y48017D2*
X16021Y41329D1*
X34467Y57979D2*
X31330Y54842D1*
X29563Y53075D2*
X25184Y48696D1*
X22709Y46221D2*
X18308Y41820D1*
X16338Y39850D2*
X16021Y39533D1*
X36263Y57979D2*
X33126Y54842D1*
X30623Y52339D2*
X25493Y47209D1*
X24189Y45905D2*
X20104Y41820D1*
X16338Y38054D2*
X16021Y37737D1*
X38059Y57979D2*
X34922Y54842D1*
X31303Y51223D2*
X31119Y51039D1*
X30658Y50578D2*
X21900Y41820D1*
X16338Y36258D2*
X16021Y35941D1*
X39855Y57979D2*
X36718Y54842D1*
X33099Y51223D2*
X32915Y51039D1*
X30658Y48782D2*
X23696Y41820D1*
X16338Y34462D2*
X16021Y34145D1*
X41651Y57979D2*
X38514Y54842D1*
X34867Y51195D2*
X34714Y51042D1*
X31752Y48080D2*
X25493Y41820D1*
X16338Y32666D2*
X16021Y32349D1*
X12150Y28478D2*
X11026Y27354D1*
X43447Y57979D2*
X40471Y55003D1*
X33808Y48340D2*
X27289Y41820D1*
X16366Y30898D2*
X16021Y30553D1*
X13946Y28478D2*
X11026Y25558D1*
X45243Y57979D2*
X41671Y54407D1*
X39940Y52675D2*
X39047Y51783D1*
X35983Y48718D2*
X29085Y41820D1*
X17833Y30568D2*
X11026Y23762D1*
X47040Y57979D2*
X44877Y55817D1*
X38845Y49785D2*
X38697Y49637D1*
X37140Y48080D2*
X35076Y46016D1*
X33239Y44179D2*
X30881Y41820D1*
X19629Y30568D2*
X15881Y26821D1*
X14241Y25180D2*
X11026Y21966D1*
X48836Y57979D2*
X46673Y55817D1*
X42998Y52142D2*
X41019Y50162D1*
X39743Y48887D2*
X36122Y45265D1*
X33997Y43141D2*
X32438Y41582D1*
X21425Y30568D2*
X16975Y26119D1*
X14942Y24086D2*
X11026Y20170D1*
X50632Y57979D2*
X48617Y55964D1*
X43118Y50465D2*
X41846Y49194D1*
X40115Y47463D2*
X32508Y39856D1*
X23221Y30568D2*
X16632Y23979D1*
X13420Y20767D2*
X11026Y18374D1*
X52428Y57979D2*
X49417Y54968D1*
X48029Y53580D2*
X46919Y52470D1*
X43005Y48557D2*
X41882Y47433D1*
X40094Y45645D2*
X32508Y38060D1*
X25017Y30568D2*
X17158Y22709D1*
X13427Y18978D2*
X11026Y16578D1*
X54224Y57979D2*
X50792Y54547D1*
X47832Y51588D2*
X46807Y50562D1*
X43055Y46810D2*
X40485Y44241D1*
X38761Y42516D2*
X36528Y40284D1*
X36018Y39773D2*
X32508Y36264D1*
X26813Y30568D2*
X24440Y28196D1*
X23558Y27313D2*
X18694Y22450D1*
X14205Y17961D2*
X13432Y17188D1*
X56020Y57979D2*
X52440Y54400D1*
X43777Y45737D2*
X42120Y44080D1*
X36004Y37963D2*
X32508Y34468D1*
X22189Y24149D2*
X20490Y22450D1*
X17440Y19399D2*
X16793Y18752D1*
X57816Y57979D2*
X53458Y53621D1*
X44149Y44312D2*
X43917Y44080D1*
X42157Y42320D2*
X41720Y41884D1*
X37091Y37255D2*
X32508Y32672D1*
X28897Y29060D2*
X28032Y28196D1*
X22660Y22823D2*
X22286Y22450D1*
X18205Y18368D2*
X17045Y17209D1*
X16233Y16397D2*
X16035Y16198D1*
X59612Y57979D2*
X55478Y53846D1*
X53452Y51819D2*
X52658Y51025D1*
X47811Y46179D2*
X45712Y44080D1*
X43953Y42320D2*
X43649Y42017D1*
X37961Y36328D2*
X37118Y35485D1*
X35730Y34097D2*
X32459Y30827D1*
X30693Y29060D2*
X28881Y27249D1*
X24456Y22823D2*
X24082Y22450D1*
X18436Y16803D2*
X16800Y15167D1*
X61408Y57979D2*
X58242Y54814D1*
X56897Y53468D2*
X56222Y52793D1*
X54904Y51476D2*
X54033Y50604D1*
X49593Y46165D2*
X47508Y44080D1*
X45749Y42320D2*
X45446Y42017D1*
X42276Y38847D2*
X40387Y36958D1*
X35730Y32301D2*
X34255Y30827D1*
X32489Y29060D2*
X28601Y25172D1*
X26252Y22823D2*
X25878Y22450D1*
X22828Y19399D2*
X22507Y19078D1*
X19334Y15905D2*
X17186Y13757D1*
X63204Y57979D2*
X59835Y54610D1*
X51389Y46165D2*
X49304Y44080D1*
X47545Y42320D2*
X46968Y41743D1*
X43139Y37914D2*
X40387Y35162D1*
X37379Y32154D2*
X36051Y30827D1*
X34285Y29060D2*
X30397Y25172D1*
X28630Y23405D2*
X27674Y22450D1*
X24624Y19399D2*
X22742Y17518D1*
X20892Y15667D2*
X16246Y11021D1*
X65000Y57979D2*
X59835Y52814D1*
X57079Y50058D2*
X55310Y48289D1*
X52722Y45702D2*
X51100Y44080D1*
X49341Y42320D2*
X48869Y41849D1*
X47152Y40131D2*
X46919Y39898D1*
X42998Y35978D2*
X40387Y33366D1*
X36081Y29060D2*
X32193Y25172D1*
X30426Y23405D2*
X29471Y22450D1*
X26420Y19399D2*
X18042Y11021D1*
X66796Y57979D2*
X59821Y51004D1*
X56904Y48087D2*
X56208Y47391D1*
X53620Y44804D2*
X52384Y43567D1*
X51109Y42292D2*
X49648Y40831D1*
X48373Y39556D2*
X46729Y37913D1*
X43062Y34245D2*
X40387Y31570D1*
X37877Y29060D2*
X33989Y25172D1*
X32222Y23405D2*
X31267Y22450D1*
X28216Y19399D2*
X19838Y11021D1*
X75587Y64974D2*
X74737Y64124D1*
X69876Y59263D2*
X59639Y49026D1*
X57605Y46993D2*
X57218Y46605D1*
X54518Y43906D2*
X53247Y42634D1*
X51551Y40938D2*
X51364Y40751D1*
X48758Y38146D2*
X46884Y36271D1*
X43272Y32659D2*
X40387Y29774D1*
X38621Y28008D2*
X35785Y25172D1*
X34018Y23405D2*
X33063Y22450D1*
X28321Y17708D2*
X21634Y11021D1*
X77383Y64974D2*
X75122Y62714D1*
X71286Y58877D2*
X60263Y47854D1*
X57205Y44797D2*
X56692Y44283D1*
X55416Y43008D2*
X53317Y40908D1*
X48941Y36532D2*
X46912Y34503D1*
X43791Y31382D2*
X40387Y27978D1*
X38621Y26212D2*
X37581Y25172D1*
X35814Y23405D2*
X34859Y22450D1*
X28848Y16439D2*
X23430Y11021D1*
X79179Y64974D2*
X78602Y64397D1*
X77165Y62961D2*
X66423Y52218D1*
X64572Y50367D2*
X62059Y47854D1*
X60292Y46087D2*
X59828Y45623D1*
X56314Y42110D2*
X53317Y39112D1*
X48723Y34518D2*
X46182Y31977D1*
X44626Y30421D2*
X42064Y27859D1*
X41672Y27467D2*
X40387Y26182D1*
X37610Y23405D2*
X36655Y22450D1*
X33604Y19399D2*
X32852Y18647D1*
X29928Y15723D2*
X25226Y11021D1*
X80975Y64974D2*
X80146Y64145D1*
X77299Y61298D2*
X67356Y51355D1*
X64558Y48557D2*
X63855Y47854D1*
X62088Y46087D2*
X60067Y44066D1*
X56939Y40938D2*
X52805Y36804D1*
X48850Y32849D2*
X43811Y27810D1*
X40129Y24128D2*
X38451Y22450D1*
X35400Y19399D2*
X27022Y11021D1*
X82771Y64974D2*
X80419Y62622D1*
X77509Y59712D2*
X67075Y49278D1*
X63885Y46087D2*
X61863Y44066D1*
X57353Y39556D2*
X54601Y36804D1*
X50162Y32365D2*
X45874Y28076D1*
X40459Y22662D2*
X40245Y22448D1*
X36193Y18396D2*
X28818Y11021D1*
X84567Y64974D2*
X81114Y61521D1*
X79018Y59425D2*
X67447Y47854D1*
X64656Y45063D2*
X63659Y44066D1*
X60601Y41008D2*
X59940Y40347D1*
X57037Y37444D2*
X56397Y36804D1*
X53361Y33768D2*
X52517Y32924D1*
X50519Y30926D2*
X46786Y27192D1*
X36326Y16733D2*
X30614Y11021D1*
X86363Y64974D2*
X82910Y61521D1*
X81150Y59761D2*
X79437Y58048D1*
X77187Y55797D2*
X69243Y47854D1*
X62397Y41008D2*
X60838Y39449D1*
X55157Y33768D2*
X52279Y30890D1*
X50519Y29130D2*
X47670Y26280D1*
X45910Y24521D2*
X45603Y24214D1*
X40788Y19399D2*
X40401Y19012D1*
X37182Y15793D2*
X32410Y11021D1*
X88159Y64974D2*
X84706Y61521D1*
X82947Y59761D2*
X80504Y57318D1*
X77151Y53966D2*
X71039Y47854D1*
X69273Y46087D2*
X67251Y44066D1*
X64193Y41008D2*
X61736Y38551D1*
X60461Y37276D2*
X59091Y35906D1*
X56216Y33031D2*
X54033Y30848D1*
X53150Y29965D2*
X52279Y29094D1*
X50519Y27334D2*
X49648Y26463D1*
X47706Y24521D2*
X45018Y21832D1*
X42584Y19399D2*
X40710Y17525D1*
X38670Y15484D2*
X34206Y11021D1*
X89955Y64974D2*
X86404Y61423D1*
X84743Y59761D2*
X82061Y57080D1*
X78057Y53075D2*
X72407Y47426D1*
X67280Y42299D2*
X66837Y41856D1*
X64769Y39787D2*
X62634Y37653D1*
X61359Y36378D2*
X59351Y34370D1*
X56216Y31235D2*
X55906Y30925D1*
X52877Y27895D2*
X52279Y27298D1*
X50519Y25538D2*
X50202Y25221D1*
X49179Y24198D2*
X36002Y11021D1*
X91751Y64974D2*
X87323Y60546D1*
X85746Y58969D2*
X82910Y56133D1*
X80007Y53230D2*
X78630Y51853D1*
X77313Y50536D2*
X73137Y46360D1*
X71188Y44411D2*
X67454Y40677D1*
X64544Y37767D2*
X63532Y36755D1*
X62257Y35480D2*
X59351Y32574D1*
X52877Y26099D2*
X52279Y25502D1*
X50519Y23742D2*
X37798Y11021D1*
X93141Y64567D2*
X89358Y60784D1*
X85746Y57172D2*
X83710Y55137D1*
X81978Y53405D2*
X80230Y51657D1*
X77411Y48838D2*
X73137Y44564D1*
X68522Y39949D2*
X67321Y38748D1*
X65344Y36770D2*
X64430Y35857D1*
X63155Y34582D2*
X59351Y30778D1*
X52877Y24303D2*
X52279Y23706D1*
X50519Y21946D2*
X48673Y20099D1*
X46261Y17687D2*
X39594Y11021D1*
X93883Y63514D2*
X90521Y60152D1*
X87716Y57347D2*
X87511Y57142D1*
X85745Y55375D2*
X84684Y54314D1*
X83212Y52842D2*
X80685Y50315D1*
X77599Y47230D2*
X73136Y42766D1*
X68500Y38130D2*
X67867Y37497D1*
X66591Y36222D2*
X65327Y34958D1*
X64052Y33682D2*
X59932Y29563D1*
X52875Y22506D2*
X52285Y21915D1*
X50518Y20149D2*
X49998Y19628D1*
X46723Y16353D2*
X41389Y11020D1*
X93974Y61809D2*
X90998Y58833D1*
X85892Y53726D2*
X84978Y52813D1*
X79044Y46879D2*
X70259Y38094D1*
X67489Y35324D2*
X66225Y34060D1*
X64950Y32784D2*
X59686Y27521D1*
X52875Y20710D2*
X52285Y20119D1*
X47761Y15595D2*
X43185Y11020D1*
X93974Y60013D2*
X90563Y56602D1*
X86776Y52814D2*
X84978Y51017D1*
X81177Y47216D2*
X79780Y45818D1*
X77494Y43532D2*
X70701Y36740D1*
X68387Y34426D2*
X67123Y33162D1*
X65848Y31886D2*
X59315Y25353D1*
X52875Y18914D2*
X52285Y18323D1*
X49838Y15876D2*
X44981Y11020D1*
X93974Y58217D2*
X90991Y55233D1*
X87113Y51355D2*
X85448Y49691D1*
X84173Y48415D2*
X83954Y48197D1*
X82552Y46795D2*
X80825Y45068D1*
X77473Y41715D2*
X72364Y36606D1*
X69482Y33724D2*
X68709Y32951D1*
X66942Y31185D2*
X59932Y24174D1*
X52875Y17118D2*
X52285Y16527D1*
X50518Y14761D2*
X46777Y11020D1*
X93974Y56421D2*
X90605Y53052D1*
X87814Y50261D2*
X86347Y48793D1*
X85071Y47517D2*
X84319Y46765D1*
X82552Y44999D2*
X81772Y44219D1*
X78399Y40845D2*
X73262Y35708D1*
X68738Y31185D2*
X65580Y28026D1*
X64725Y27172D2*
X61272Y23718D1*
X52875Y15322D2*
X52285Y14731D1*
X50658Y13105D2*
X48573Y11020D1*
X93974Y54624D2*
X90984Y51634D1*
X85969Y46619D2*
X84319Y44969D1*
X80532Y41182D2*
X78980Y39630D1*
X77494Y38144D2*
X73409Y34060D1*
X70303Y30953D2*
X67102Y27752D1*
X65006Y25656D2*
X63068Y23718D1*
X61301Y21952D2*
X59483Y20133D1*
X57380Y18030D2*
X57128Y17779D1*
X51549Y12200D2*
X50369Y11020D1*
X93974Y52828D2*
X90640Y49494D1*
X86867Y45721D2*
X84642Y43496D1*
X81233Y40088D2*
X80495Y39350D1*
X76806Y35661D2*
X73409Y32264D1*
X69973Y28827D2*
X67509Y26363D1*
X63097Y21952D2*
X61076Y19930D1*
X52447Y11302D2*
X52165Y11020D1*
X93974Y51032D2*
X90963Y48021D1*
X87155Y44213D2*
X85540Y42598D1*
X84264Y41322D2*
X83652Y40711D1*
X81233Y38292D2*
X80734Y37792D1*
X76806Y33865D2*
X72736Y29794D1*
X69819Y26877D2*
X67502Y24560D1*
X64627Y21685D2*
X62872Y19930D1*
X93974Y49236D2*
X90675Y45937D1*
X87926Y43189D2*
X86438Y41700D1*
X85162Y40424D2*
X83652Y38915D1*
X79395Y34657D2*
X78573Y33835D1*
X76806Y32069D2*
X72532Y27795D1*
X70478Y25740D2*
X68316Y23578D1*
X65160Y20422D2*
X64668Y19930D1*
X61610Y16872D2*
X59630Y14892D1*
X93974Y47440D2*
X90942Y44408D1*
X86060Y39526D2*
X84172Y37638D1*
X80574Y34040D2*
X80081Y33548D1*
X76806Y30273D2*
X72175Y25641D1*
X70092Y23558D2*
X69326Y22792D1*
X67945Y21412D2*
X66857Y20323D1*
X63406Y16872D2*
X59343Y12809D1*
X93974Y45644D2*
X90717Y42387D1*
X86958Y38628D2*
X85315Y36985D1*
X83556Y35226D2*
X82993Y34663D1*
X76806Y28476D2*
X72750Y24420D1*
X69356Y21026D2*
X67544Y19214D1*
X64627Y16297D2*
X61139Y12809D1*
X93974Y43848D2*
X90900Y40774D1*
X87204Y37078D2*
X82993Y32867D1*
X77368Y27242D2*
X77022Y26897D1*
X75775Y25649D2*
X73409Y23283D1*
X69882Y19756D2*
X68765Y18639D1*
X93974Y42052D2*
X90745Y38823D1*
X88039Y36117D2*
X83638Y31716D1*
X79907Y27985D2*
X79134Y27212D1*
X76343Y24421D2*
X73409Y21487D1*
X68794Y16872D2*
X67032Y15110D1*
X64943Y13021D2*
X62942Y11020D1*
X93974Y40256D2*
X90844Y37126D1*
X87225Y33507D2*
X85434Y31716D1*
X83668Y29950D2*
X82333Y28615D1*
X75979Y22260D2*
X73409Y19691D1*
X67980Y14262D2*
X67537Y13819D1*
X66234Y12515D2*
X64738Y11020D1*
X93974Y38460D2*
X90781Y35266D1*
X88095Y32581D2*
X87951Y32437D1*
X87421Y31907D2*
X87227Y31713D1*
X85464Y29950D2*
X82333Y26819D1*
X75782Y20268D2*
X73865Y18351D1*
X68002Y12487D2*
X66534Y11020D1*
X93974Y36664D2*
X90759Y33449D1*
X87260Y29950D2*
X82333Y25023D1*
X76547Y19237D2*
X74763Y17453D1*
X68591Y11281D2*
X68337Y11027D1*
X93974Y34868D2*
X90809Y31702D1*
X87281Y28175D2*
X83821Y24715D1*
X82061Y22955D2*
X81674Y22568D1*
X76112Y17006D2*
X75661Y16555D1*
X93974Y33072D2*
X90563Y29661D1*
X90205Y29303D2*
X89981Y29078D1*
X87288Y26386D2*
X85617Y24715D1*
X83857Y22955D2*
X81674Y20772D1*
X75417Y14515D2*
X75051Y14149D1*
X93974Y31276D2*
X90844Y28145D1*
X85653Y22955D2*
X81674Y18976D1*
X75803Y13105D2*
X74813Y12114D1*
X93974Y29480D2*
X90037Y25542D1*
X87323Y22829D2*
X82214Y17720D1*
X76273Y11779D2*
X75514Y11020D1*
X93974Y27684D2*
X90865Y24574D1*
X87148Y20857D2*
X84010Y17720D1*
X82244Y15953D2*
X81014Y14724D1*
X78308Y12017D2*
X77310Y11020D1*
X93974Y25888D2*
X90093Y22006D1*
X87358Y19272D2*
X85806Y17720D1*
X84040Y15953D2*
X81014Y12928D1*
X79585Y11498D2*
X79106Y11020D1*
X93974Y24092D2*
X90893Y21010D1*
X85836Y15953D2*
X80902Y11020D1*
X93974Y22296D2*
X90149Y18471D1*
X87393Y15715D2*
X82698Y11020D1*
X93974Y20499D2*
X90914Y17439D1*
X87064Y13589D2*
X84494Y11020D1*
X93974Y18703D2*
X90570Y15299D1*
X87064Y11793D2*
X86290Y11020D1*
X93974Y16907D2*
X90998Y13931D1*
X88432Y11365D2*
X88086Y11020D1*
X93974Y15111D2*
X90998Y12135D1*
X90228Y11365D2*
X89882Y11020D1*
X93974Y13315D2*
X91679Y11020D1*
X92317Y64932D2*
X93932Y63317D1*
X90479Y64974D2*
X93974Y61479D1*
X88683Y64974D2*
X93974Y59683D1*
X86887Y64974D2*
X93974Y57887D1*
X85091Y64974D2*
X89288Y60777D1*
X90977Y59088D2*
X93974Y56091D1*
X83295Y64974D2*
X87842Y60426D1*
X90619Y57650D2*
X93974Y54295D1*
X81499Y64974D2*
X84952Y61521D1*
X90991Y55482D2*
X93974Y52499D1*
X79703Y64974D2*
X83156Y61521D1*
X84915Y59761D2*
X85745Y58932D1*
X87511Y57165D2*
X87793Y56883D1*
X90584Y54093D2*
X93974Y50702D1*
X77906Y64974D2*
X78483Y64397D1*
X80432Y62448D2*
X81360Y61521D1*
X83119Y59761D2*
X85745Y57136D1*
X90998Y51883D2*
X93974Y48906D1*
X76110Y64974D2*
X77298Y63787D1*
X81323Y59761D2*
X85745Y55340D1*
X90542Y50543D2*
X93974Y47110D1*
X74314Y64974D2*
X77164Y62124D1*
X79843Y59446D2*
X87092Y52197D1*
X90998Y48290D2*
X93974Y45314D1*
X75135Y62357D2*
X77157Y60335D1*
X78061Y59432D2*
X79451Y58041D1*
X80580Y56913D2*
X80770Y56722D1*
X84978Y52514D2*
X87695Y49797D1*
X90500Y46993D2*
X93974Y43518D1*
X74763Y60933D2*
X77782Y57915D1*
X82291Y53405D2*
X83212Y52485D1*
X84978Y50718D2*
X87078Y48619D1*
X90998Y44698D2*
X93974Y41722D1*
X74013Y59888D2*
X77157Y56743D1*
X80495Y53405D2*
X82700Y51201D1*
X90451Y43450D2*
X93974Y39926D1*
X72939Y59165D2*
X77220Y54884D1*
X79029Y53075D2*
X81802Y50303D1*
X83491Y48613D2*
X87071Y45034D1*
X90991Y41113D2*
X93974Y38130D1*
X71445Y58863D2*
X78455Y51853D1*
X84319Y45989D2*
X87597Y42711D1*
X90409Y39900D2*
X93974Y36334D1*
X69207Y59305D2*
X77396Y51116D1*
X81295Y47217D2*
X82552Y45960D1*
X84319Y44193D2*
X87064Y41449D1*
X90984Y37528D2*
X93974Y34538D1*
X68421Y58295D2*
X77312Y49405D1*
X79836Y46880D2*
X82552Y44164D1*
X90360Y36357D2*
X93974Y32742D1*
X66941Y57979D2*
X79101Y45819D1*
X83652Y41268D2*
X87064Y37857D1*
X90970Y33950D2*
X93974Y30946D1*
X65145Y57979D2*
X77732Y45392D1*
X83652Y39472D2*
X87513Y35611D1*
X90310Y32814D2*
X93974Y29150D1*
X63349Y57979D2*
X77543Y43785D1*
X80362Y40966D2*
X81233Y40095D1*
X85638Y35690D2*
X87064Y34264D1*
X90956Y30372D2*
X93974Y27354D1*
X61553Y57979D2*
X71692Y47840D1*
X73122Y46410D2*
X77473Y42059D1*
X78685Y40847D2*
X79942Y39589D1*
X80867Y38665D2*
X81233Y38299D1*
X84670Y34862D2*
X87470Y32061D1*
X90261Y29271D2*
X93974Y25558D1*
X59757Y57979D2*
X65525Y52211D1*
X67390Y50346D2*
X69882Y47854D1*
X73136Y44600D2*
X78196Y39540D1*
X80881Y36855D2*
X81029Y36707D1*
X82993Y34743D2*
X86018Y31718D1*
X90935Y26801D2*
X93974Y23762D1*
X57960Y57979D2*
X64606Y51334D1*
X67418Y48522D2*
X68086Y47854D1*
X73136Y42804D2*
X77473Y38467D1*
X82993Y32947D2*
X84222Y31718D1*
X85989Y29951D2*
X87428Y28511D1*
X90205Y25735D2*
X93974Y21966D1*
X56164Y57979D2*
X59330Y54814D1*
X59834Y54310D2*
X64887Y49257D1*
X68056Y46087D2*
X69117Y45027D1*
X70393Y43751D2*
X71229Y42915D1*
X72504Y41639D2*
X76820Y37323D1*
X79485Y34659D2*
X80574Y33570D1*
X84193Y29951D2*
X87092Y27052D1*
X90914Y23230D2*
X93974Y20170D1*
X54368Y57979D2*
X57534Y54814D1*
X59834Y52514D2*
X64494Y47854D1*
X67306Y45042D2*
X68219Y44129D1*
X69495Y42853D2*
X70331Y42017D1*
X71606Y40741D2*
X76806Y35541D1*
X78573Y33775D2*
X78750Y33598D1*
X82333Y30014D2*
X87393Y24954D1*
X90149Y22199D2*
X93974Y18374D1*
X52572Y57979D2*
X56895Y53656D1*
X59834Y50718D2*
X62698Y47854D1*
X68253Y42299D2*
X69433Y41119D1*
X70708Y39843D2*
X76806Y33745D1*
X82333Y28218D2*
X85836Y24716D1*
X90893Y19659D2*
X93974Y16578D1*
X50776Y57979D2*
X54833Y53923D1*
X59188Y49567D2*
X60902Y47854D1*
X62668Y46087D2*
X64690Y44066D1*
X66807Y41948D2*
X68570Y40186D1*
X70259Y38496D2*
X72050Y36706D1*
X73381Y35374D2*
X76806Y31949D1*
X82333Y26422D2*
X84040Y24716D1*
X85806Y22949D2*
X87358Y21397D1*
X90093Y18663D2*
X93974Y14781D1*
X48980Y57979D2*
X52686Y54274D1*
X56627Y50332D2*
X57492Y49468D1*
X60872Y46087D2*
X62894Y44066D1*
X67186Y39773D2*
X68500Y38460D1*
X73409Y33550D2*
X76806Y30153D1*
X79134Y27825D2*
X79907Y27052D1*
X84010Y22949D2*
X87148Y19812D1*
X90865Y16095D2*
X93960Y12999D1*
X47184Y57979D2*
X50616Y54547D1*
X53344Y51819D2*
X54454Y50710D1*
X55729Y49434D2*
X56895Y48268D1*
X59799Y45365D2*
X61098Y44066D1*
X64155Y41008D2*
X64522Y40642D1*
X73409Y31754D2*
X76827Y28336D1*
X82214Y22949D2*
X87323Y17840D1*
X90998Y14165D2*
X93448Y11716D1*
X45388Y57979D2*
X47522Y55845D1*
X62359Y41008D2*
X64641Y38726D1*
X69642Y33726D2*
X70240Y33128D1*
X73199Y30169D2*
X76568Y26800D1*
X81674Y21693D2*
X85653Y17714D1*
X90998Y12369D2*
X92290Y11077D1*
X43592Y57979D2*
X45754Y55817D1*
X47963Y53608D2*
X48455Y53116D1*
X56733Y44839D2*
X57323Y44248D1*
X60563Y41008D2*
X68619Y32952D1*
X72638Y28934D2*
X75782Y25789D1*
X81674Y19897D2*
X83857Y17714D1*
X85617Y15955D2*
X87064Y14508D1*
X90205Y11366D2*
X90550Y11021D1*
X41796Y57979D2*
X43958Y55817D1*
X46791Y52984D2*
X47831Y51944D1*
X68589Y31186D2*
X69861Y29915D1*
X72750Y27025D2*
X75993Y23783D1*
X81674Y18101D2*
X82061Y17714D1*
X83821Y15955D2*
X87064Y12712D1*
X88409Y11366D2*
X88754Y11021D1*
X40000Y57979D2*
X43032Y54947D1*
X46925Y51055D2*
X47600Y50380D1*
X51808Y46172D2*
X56945Y41035D1*
X66765Y31214D2*
X70099Y27880D1*
X72175Y25805D2*
X76364Y21615D1*
X82025Y15955D2*
X86958Y11021D1*
X38204Y57979D2*
X41769Y54414D1*
X50019Y46165D2*
X57183Y39000D1*
X59265Y36918D2*
X70485Y25698D1*
X73409Y22774D2*
X75775Y20408D1*
X81014Y15169D2*
X85162Y11021D1*
X36408Y57979D2*
X39370Y55017D1*
X41929Y52458D2*
X43046Y51341D1*
X48166Y46221D2*
X50308Y44080D1*
X53316Y41071D2*
X57583Y36804D1*
X59350Y35038D2*
X66269Y28119D1*
X67537Y26850D2*
X69819Y24569D1*
X73409Y20978D2*
X75880Y18507D1*
X81014Y13373D2*
X83366Y11021D1*
X34612Y57979D2*
X37749Y54842D1*
X41726Y50865D2*
X43011Y49580D1*
X46349Y46242D2*
X48512Y44080D1*
X50271Y42320D2*
X51549Y41042D1*
X53316Y39275D2*
X55787Y36804D1*
X59350Y33242D2*
X64957Y27634D1*
X67053Y25538D2*
X69798Y22794D1*
X73409Y19182D2*
X76189Y16402D1*
X78131Y14460D2*
X78313Y14278D1*
X81014Y11577D2*
X81570Y11021D1*
X32816Y57979D2*
X35953Y54842D1*
X38590Y52205D2*
X39012Y51783D1*
X41880Y48915D2*
X43109Y47686D1*
X46020Y44776D2*
X46716Y44080D1*
X48475Y42320D2*
X50048Y40747D1*
X53021Y37774D2*
X53991Y36804D1*
X59350Y31445D2*
X64837Y25958D1*
X69768Y21027D2*
X70310Y20485D1*
X79296Y11499D2*
X79774Y11021D1*
X31020Y57979D2*
X34157Y54842D1*
X42161Y46838D2*
X43678Y45321D1*
X46679Y42320D2*
X47319Y41680D1*
X55231Y33768D2*
X56215Y32784D1*
X59932Y29067D2*
X64634Y24365D1*
X67551Y21448D2*
X69840Y19159D1*
X75079Y13920D2*
X75803Y13196D1*
X77464Y11535D2*
X77978Y11021D1*
X29224Y57979D2*
X32361Y54842D1*
X38471Y48732D2*
X39987Y47216D1*
X41719Y45484D2*
X43123Y44080D1*
X44883Y42320D2*
X45186Y42017D1*
X46967Y40236D2*
X48722Y38481D1*
X53435Y33768D2*
X56215Y30988D1*
X59462Y27741D2*
X63483Y23720D1*
X66871Y20332D2*
X68563Y18640D1*
X74939Y12264D2*
X76182Y11021D1*
X27428Y57979D2*
X30565Y54842D1*
X34030Y51377D2*
X34389Y51018D1*
X37327Y48080D2*
X41327Y44080D1*
X43087Y42320D2*
X43390Y42017D1*
X46925Y38482D2*
X48890Y36517D1*
X52537Y32870D2*
X54370Y31037D1*
X59644Y25763D2*
X61687Y23720D1*
X63454Y21953D2*
X65181Y20226D1*
X68533Y16874D2*
X69138Y16269D1*
X25632Y57979D2*
X28769Y54842D1*
X32388Y51223D2*
X32572Y51039D1*
X35377Y48234D2*
X39286Y44325D1*
X41291Y42320D2*
X41727Y41884D1*
X46847Y36763D2*
X48736Y34875D1*
X52285Y31326D2*
X53303Y30307D1*
X61658Y21953D2*
X63680Y19931D1*
X67509Y16102D2*
X68338Y15273D1*
X23836Y57979D2*
X26973Y54842D1*
X28740Y53075D2*
X30776Y51039D1*
X33623Y48192D2*
X38577Y43238D1*
X46868Y34946D2*
X48827Y32988D1*
X49352Y32463D2*
X50518Y31297D1*
X52285Y29530D2*
X52875Y28939D1*
X59876Y21939D2*
X61884Y19931D1*
X67495Y14320D2*
X67910Y13904D1*
X22039Y57979D2*
X25177Y54842D1*
X26944Y53075D2*
X30663Y49355D1*
X31939Y48080D2*
X34108Y45911D1*
X36176Y43842D2*
X38626Y41392D1*
X41172Y38847D2*
X43025Y36994D1*
X46904Y33115D2*
X50518Y29501D1*
X52285Y27734D2*
X52875Y27143D1*
X59497Y20522D2*
X60088Y19931D1*
X63145Y16874D2*
X64157Y15862D1*
X67116Y12903D2*
X68479Y11540D1*
X20243Y57979D2*
X23381Y54842D1*
X25337Y52886D2*
X33273Y44950D1*
X35208Y43015D2*
X37693Y40530D1*
X40386Y37837D2*
X43095Y35127D1*
X46055Y32168D2*
X50518Y27705D1*
X52285Y25938D2*
X52875Y25347D1*
X61349Y16874D2*
X63259Y14964D1*
X64534Y13688D2*
X64710Y13512D1*
X65629Y12594D2*
X67202Y11021D1*
X18447Y57979D2*
X21585Y54842D1*
X25112Y51314D2*
X36276Y40151D1*
X40386Y36041D2*
X42997Y33430D1*
X45788Y30639D2*
X50518Y25909D1*
X52285Y24142D2*
X52875Y23551D1*
X59932Y16495D2*
X62361Y14066D1*
X63636Y12790D2*
X65406Y11021D1*
X15285Y59346D2*
X16128Y58503D1*
X17649Y56982D2*
X19790Y54841D1*
X21557Y53074D2*
X22814Y51817D1*
X23612Y51018D2*
X35730Y38901D1*
X37398Y37232D2*
X37961Y36670D1*
X40387Y34243D2*
X48246Y26384D1*
X49985Y24646D2*
X50519Y24111D1*
X52279Y22352D2*
X52877Y21754D1*
X59330Y15301D2*
X61464Y13167D1*
X62740Y11891D2*
X63611Y11020D1*
X13923Y58911D2*
X14697Y58138D1*
X17326Y55508D2*
X18682Y54153D1*
X19957Y52878D2*
X24140Y48695D1*
X25493Y47342D2*
X31015Y41819D1*
X32508Y40326D2*
X37344Y35491D1*
X40387Y32447D2*
X44809Y28026D1*
X48554Y24281D2*
X50519Y22315D1*
X52279Y20556D2*
X52877Y19958D1*
X57127Y15708D2*
X57633Y15201D1*
X59695Y13140D2*
X60026Y12809D1*
X11580Y59458D2*
X14051Y56987D1*
X17326Y53712D2*
X17540Y53499D1*
X19059Y51979D2*
X22709Y48330D1*
X25128Y45911D2*
X29219Y41819D1*
X32508Y38530D2*
X35730Y35308D1*
X40387Y30651D2*
X42900Y28138D1*
X46519Y24520D2*
X50519Y20519D1*
X52279Y18760D2*
X52877Y18162D1*
X11026Y58217D2*
X14388Y54855D1*
X17509Y51734D2*
X22709Y46534D1*
X23332Y45911D2*
X27423Y41819D1*
X32508Y36734D2*
X35730Y33512D1*
X37090Y32153D2*
X37961Y31281D1*
X40387Y28855D2*
X41679Y27563D1*
X45551Y23692D2*
X49271Y19972D1*
X52279Y16964D2*
X52877Y16366D1*
X11026Y56421D2*
X14437Y53009D1*
X17270Y50176D2*
X25627Y41819D1*
X32508Y34938D2*
X36621Y30825D1*
X38374Y29073D2*
X38621Y28826D1*
X40387Y27059D2*
X41848Y25599D1*
X45018Y22429D2*
X47566Y19881D1*
X52279Y15167D2*
X52877Y14570D1*
X11026Y54624D2*
X14486Y51164D1*
X17621Y48030D2*
X23831Y41819D1*
X32508Y33142D2*
X34825Y30825D1*
X36592Y29059D2*
X38621Y27030D1*
X44975Y20675D2*
X46612Y19039D1*
X49837Y15813D2*
X50519Y15131D1*
X11026Y52828D2*
X14325Y49530D1*
X16870Y46984D2*
X22035Y41819D1*
X32508Y31346D2*
X33029Y30825D1*
X34796Y29059D2*
X38571Y25283D1*
X39840Y24014D2*
X40129Y23725D1*
X41194Y22660D2*
X41403Y22451D1*
X44141Y19714D2*
X46268Y17587D1*
X48378Y15476D2*
X50674Y13181D1*
X52651Y11204D2*
X52832Y11022D1*
X11026Y51032D2*
X14170Y47888D1*
X15874Y46184D2*
X20239Y41819D1*
X32999Y29059D2*
X36888Y25171D1*
X38654Y23404D2*
X39610Y22448D1*
X42660Y19398D2*
X51039Y11020D1*
X11026Y49236D2*
X12739Y47523D1*
X16021Y44241D2*
X18443Y41819D1*
X31203Y29059D2*
X35092Y25171D1*
X36858Y23404D2*
X37814Y22448D1*
X40864Y19398D2*
X49243Y11020D1*
X16021Y42445D2*
X16675Y41791D1*
X29407Y29059D2*
X33296Y25171D1*
X35062Y23404D2*
X36018Y22448D1*
X40731Y17735D2*
X47446Y11020D1*
X16021Y40649D2*
X16338Y40332D1*
X26103Y30567D2*
X26743Y29927D1*
X28018Y28652D2*
X31499Y25171D1*
X33266Y23404D2*
X34222Y22448D1*
X40289Y16381D2*
X45650Y11020D1*
X16021Y38853D2*
X16338Y38536D1*
X24307Y30567D2*
X25845Y29029D1*
X28762Y26112D2*
X29703Y25171D1*
X31470Y23404D2*
X32426Y22448D1*
X35476Y19398D2*
X36242Y18632D1*
X39265Y15609D2*
X43854Y11020D1*
X16021Y37057D2*
X16338Y36740D1*
X22511Y30567D2*
X24785Y28293D1*
X27703Y25375D2*
X27905Y25173D1*
X29674Y23404D2*
X30630Y22448D1*
X33680Y19398D2*
X36418Y16660D1*
X37293Y15785D2*
X42058Y11020D1*
X16021Y35261D2*
X16338Y34944D1*
X20715Y30567D2*
X23663Y27619D1*
X27878Y23404D2*
X28833Y22448D1*
X32901Y18381D2*
X40262Y11020D1*
X16021Y33465D2*
X16338Y33148D1*
X18919Y30567D2*
X23726Y25760D1*
X26615Y22871D2*
X27037Y22448D1*
X32677Y16809D2*
X38466Y11020D1*
X16021Y31669D2*
X16338Y31352D1*
X17123Y30567D2*
X22189Y25500D1*
X24868Y22822D2*
X25241Y22448D1*
X28292Y19398D2*
X28602Y19088D1*
X31786Y15904D2*
X36670Y11020D1*
X15958Y29936D2*
X22189Y23704D1*
X23072Y22822D2*
X23445Y22448D1*
X26496Y19398D2*
X28363Y17530D1*
X30228Y15666D2*
X34874Y11020D1*
X15221Y28876D2*
X21649Y22448D1*
X24700Y19398D2*
X33078Y11020D1*
X13825Y28476D2*
X15482Y26819D1*
X17158Y25144D2*
X19853Y22448D1*
X22904Y19398D2*
X31282Y11020D1*
X12029Y28476D2*
X14409Y26097D1*
X16898Y23607D2*
X18057Y22448D1*
X22784Y17721D2*
X29486Y11020D1*
X11026Y27684D2*
X14746Y23964D1*
X22265Y16444D2*
X27690Y11020D1*
X11026Y25888D2*
X14248Y22666D1*
X17516Y19398D2*
X18261Y18653D1*
X21192Y15722D2*
X25894Y11020D1*
X11026Y24092D2*
X13420Y21698D1*
X17137Y17981D2*
X24098Y11020D1*
X11026Y22296D2*
X13420Y19902D1*
X16688Y16634D2*
X22302Y11020D1*
X11026Y20499D2*
X14388Y17138D1*
X17060Y14466D2*
X20506Y11020D1*
X11026Y18703D2*
X12655Y17074D1*
X17095Y12635D2*
X18710Y11020D1*
X11026Y16907D2*
X11420Y16513D1*
X16568Y11365D2*
X16914Y11020D1*
X23070Y48648D2*
X25448D1*
Y45952D1*
X22752D1*
Y48648D1*
X23070D1*
X36224Y44185D2*
X36125Y43884D1*
X35965Y43610D1*
X35751Y43377D1*
X35493Y43193D1*
X35201Y43069D1*
X34890Y43008D1*
X34573Y43014D1*
X34265Y43086D1*
X33979Y43222D1*
X33727Y43415D1*
X33522Y43657D1*
X33372Y43936D1*
X33285Y44241D1*
X33263Y44557D1*
X33309Y44870D1*
X33419Y45167D1*
X33589Y45435D1*
X33812Y45660D1*
X34077Y45833D1*
X34373Y45947D1*
X34686Y45996D1*
X35003Y45978D1*
X35308Y45894D1*
X35589Y45747D1*
X35833Y45545D1*
X36029Y45296D1*
X36168Y45011D1*
X36244Y44703D1*
X36258Y44500D1*
X36224Y44185D1*
X77414Y14118D2*
X77615Y14064D1*
X77892Y13910D1*
X78124Y13694D1*
X78297Y13429D1*
X78359Y13251D1*
X78365Y14160D1*
X78355Y14402D1*
Y14947D1*
X78280Y14782D1*
X78099Y14521D1*
X77861Y14312D1*
X77580Y14166D1*
X77416Y14127D1*
X79099Y26861D2*
X79952D1*
X79955Y28676D1*
X79302Y28667D1*
X78677D1*
X78846Y28496D1*
X79023Y28235D1*
X79091Y27904D1*
Y26862D1*
X87307Y17677D2*
X87507Y18007D1*
X87721Y18242D1*
X87970Y18438D1*
X88239Y18586D1*
X87984Y18721D1*
X87733Y18915D1*
X87517Y19148D1*
X87343Y19413D1*
X87214Y19703D1*
X87135Y20010D1*
X87108Y20326D1*
X87133Y20642D1*
X87209Y20950D1*
X87335Y21241D1*
X87507Y21507D1*
X87721Y21742D1*
X87970Y21938D1*
X88239Y22086D1*
X87984Y22221D1*
X87733Y22415D1*
X87517Y22648D1*
X87307Y22994D1*
X82113Y22996D1*
X81795Y23061D1*
X81860Y23037D1*
X81631Y22855D1*
Y17844D1*
X81800Y17672D1*
X87297D1*
X87307Y24677D2*
X87507Y25007D1*
X87721Y25242D1*
X87970Y25438D1*
X88239Y25586D1*
X87984Y25721D1*
X87733Y25915D1*
X87517Y26148D1*
X87343Y26413D1*
X87214Y26703D1*
X87135Y27010D1*
X87108Y27326D1*
X87133Y27642D1*
X87209Y27950D1*
X87335Y28241D1*
X87507Y28507D1*
X87721Y28742D1*
X87970Y28938D1*
X88239Y29086D1*
X87984Y29221D1*
X87733Y29415D1*
X87517Y29648D1*
X87307Y29994D1*
X82773Y29996D1*
X82455Y30061D1*
X82291Y30133D1*
Y24844D1*
X82460Y24672D1*
X87302D1*
X87307Y31677D2*
X87507Y32007D1*
X87721Y32242D1*
X87970Y32438D1*
X88239Y32586D1*
X87984Y32721D1*
X87733Y32915D1*
X87517Y33148D1*
X87343Y33413D1*
X87214Y33703D1*
X87135Y34010D1*
X87108Y34326D1*
X87133Y34642D1*
X87209Y34950D1*
X87335Y35241D1*
X87507Y35507D1*
X87721Y35742D1*
X87970Y35938D1*
X88239Y36086D1*
X87984Y36221D1*
X87733Y36415D1*
X87517Y36648D1*
X87343Y36913D1*
X87214Y37203D1*
X87135Y37510D1*
X87108Y37826D1*
X87133Y38142D1*
X87213Y38459D1*
X83604Y42076D1*
X83611Y40135D1*
Y38121D1*
X84467Y37259D1*
X84612Y37250D1*
X84918Y37169D1*
X85191Y37008D1*
X85411Y36782D1*
X85564Y36504D1*
X85643Y36079D1*
X85600Y35765D1*
X85476Y35474D1*
X85279Y35227D1*
X85023Y35040D1*
X84727Y34928D1*
X84412Y34899D1*
X84100Y34955D1*
X83815Y35091D1*
X83576Y35299D1*
X83400Y35562D1*
X83301Y35863D1*
X83291Y36070D1*
X82950Y36406D1*
X82951Y31850D1*
X83120Y31672D1*
X87307D1*
X87168Y40885D2*
X87108Y41326D1*
X87133Y41642D1*
X87209Y41950D1*
X87335Y42241D1*
X87507Y42507D1*
X87721Y42742D1*
X87970Y42938D1*
X88239Y43086D1*
X87984Y43221D1*
X87733Y43415D1*
X87517Y43648D1*
X87343Y43913D1*
X87214Y44203D1*
X87135Y44510D1*
X87108Y44826D1*
X87133Y45142D1*
X87213Y45459D1*
X83731Y48949D1*
X83601Y48786D1*
X83590Y48466D1*
X84025Y48030D1*
X84203Y47769D1*
X84271Y47438D1*
Y43777D1*
X87162Y40888D1*
X87459Y56432D2*
X87721Y56742D1*
X87970Y56938D1*
X88239Y57086D1*
X87984Y57221D1*
X87733Y57415D1*
X87468Y57722D1*
X87464Y56438D1*
X38580Y52385D2*
X38477Y52086D1*
X38310Y51816D1*
X38234Y51738D1*
X39000D1*
X39310Y51678D1*
X39592Y51492D1*
X39880Y51205D1*
X39739Y51584D1*
X39723Y51900D1*
X39792Y52209D1*
X39941Y52489D1*
X40056Y52611D1*
X40064Y52710D1*
X39850Y52720D1*
X39538Y52776D1*
X39253Y52912D1*
X39021Y53113D1*
X38543Y53119D1*
X38615Y52700D1*
X38580Y52385D1*
X78529Y33538D2*
X78686Y33542D1*
X79322Y33553D1*
X79874Y33538D1*
X80177Y33445D1*
X80444Y33276D1*
X80610Y33092D1*
X80615Y34862D1*
X80496Y34980D1*
X80221Y34763D1*
X79937Y34700D1*
X78531D1*
X78530Y33541D1*
X80554Y41230D2*
X80413Y41089D1*
X80221Y40955D1*
X79937Y40892D1*
X78437D1*
X78147Y40958D1*
X77961Y41089D1*
X77711Y41339D1*
X77577Y41531D1*
X77514Y41815D1*
Y42315D1*
X77584Y42611D1*
X77623Y42841D1*
X77530Y43143D1*
X77521Y43460D1*
X77597Y43767D1*
X77708Y43965D1*
X77623Y44111D1*
X77530Y44413D1*
X77521Y44730D1*
X77597Y45037D1*
X77752Y45313D1*
X77976Y45537D1*
X78251Y45693D1*
X78558Y45770D1*
X79005Y45778D1*
X79874Y45763D1*
X80177Y45670D1*
X80444Y45501D1*
X80656Y45266D1*
X80798Y44982D1*
X80860Y44605D1*
X80817Y44291D1*
X80767Y44173D1*
X82113D1*
X82431Y44108D1*
X82595Y44067D1*
Y47093D1*
X82426Y47260D1*
X80382D1*
X80253Y47121D1*
X79984Y46957D1*
X79778Y46925D1*
X80395Y47263D2*
X80254Y47122D1*
X80062Y46988D1*
X79778Y46925D1*
X78278D1*
X77988Y46991D1*
X77803Y47122D1*
X77553Y47372D1*
X77418Y47564D1*
X77356Y47848D1*
Y48348D1*
X77425Y48644D1*
X77465Y48874D1*
X77371Y49176D1*
X77362Y49493D1*
X77438Y49800D1*
X77550Y49998D1*
X77465Y50144D1*
X77371Y50446D1*
X77362Y50763D1*
X77438Y51070D1*
X77593Y51346D1*
X77817Y51570D1*
X78092Y51727D1*
X78399Y51804D1*
X78846Y51811D1*
X79715Y51796D1*
X80018Y51704D1*
X80285Y51534D1*
X80497Y51299D1*
X80639Y51016D1*
X80701Y50638D1*
X80659Y50324D1*
X80608Y50206D1*
X81836D1*
X81892Y50409D1*
X82041Y50689D1*
X82258Y50919D1*
X82529Y51083D1*
X82833Y51169D1*
X83150Y51171D1*
X83255Y51143D1*
Y53274D1*
X83086Y53452D1*
X80228D1*
X80094Y53312D1*
X79825Y53149D1*
X79620Y53117D1*
X80236Y53455D2*
X80095Y53314D1*
X79903Y53180D1*
X79620Y53117D1*
X78120D1*
X77829Y53183D1*
X77644Y53314D1*
X77394Y53564D1*
X77259Y53756D1*
X77197Y54040D1*
Y54540D1*
X77267Y54836D1*
X77306Y55066D1*
X77212Y55368D1*
X77203Y55685D1*
X77279Y55992D1*
X77391Y56190D1*
X77306Y56336D1*
X77212Y56638D1*
X77203Y56955D1*
X77279Y57262D1*
X77435Y57538D1*
X77658Y57762D1*
X77933Y57918D1*
X78240Y57995D1*
X78687Y58003D1*
X79557Y57988D1*
X79860Y57895D1*
X80127Y57726D1*
X80339Y57491D1*
X80480Y57207D1*
X80543Y56830D1*
X80500Y56516D1*
X80449Y56398D1*
X80741Y56589D1*
X80958Y56819D1*
X81229Y56983D1*
X81533Y57069D1*
X81850Y57071D1*
X82156Y56990D1*
X82429Y56829D1*
X82649Y56602D1*
X82802Y56325D1*
X82881Y55900D1*
X82838Y55586D1*
X82714Y55295D1*
X82585Y55133D1*
X83433Y55128D1*
X83743Y55068D1*
X84025Y54882D1*
X84685Y54222D1*
X84863Y53961D1*
X84931Y53630D1*
Y50127D1*
X87168Y47885D1*
X87108Y48326D1*
X87133Y48642D1*
X87209Y48950D1*
X87335Y49241D1*
X87507Y49507D1*
X87721Y49742D1*
X87970Y49938D1*
X88239Y50086D1*
X87984Y50221D1*
X87733Y50415D1*
X87517Y50648D1*
X87343Y50913D1*
X87214Y51203D1*
X87135Y51510D1*
X87108Y51826D1*
X87133Y52142D1*
X87213Y52459D1*
X86033Y53647D1*
X85856Y53908D1*
X85788Y54239D1*
Y59627D1*
X85618Y59803D1*
X80241D1*
X80094Y59663D1*
X79825Y59500D1*
X79620Y59468D1*
X80236Y59805D2*
X80095Y59665D1*
X79903Y59530D1*
X79620Y59468D1*
X78120D1*
X77829Y59533D1*
X77644Y59665D1*
X77394Y59915D1*
X77259Y60107D1*
X77197Y60390D1*
Y60890D1*
X77267Y61186D1*
X77306Y61417D1*
X77212Y61719D1*
X77203Y62035D1*
X77279Y62343D1*
X77391Y62541D1*
X77306Y62687D1*
X77212Y62989D1*
X77203Y63305D1*
X77279Y63613D1*
X77435Y63889D1*
X77658Y64113D1*
X77933Y64269D1*
X78240Y64346D1*
X78687Y64353D1*
X79557Y64338D1*
X79860Y64246D1*
X80127Y64076D1*
X80339Y63841D1*
X80480Y63558D1*
X80543Y63180D1*
X80500Y62867D1*
X80356Y62553D1*
X80480Y62288D1*
X80543Y61910D1*
X80500Y61597D1*
X80449Y61479D1*
X85966Y61478D1*
X86276Y61419D1*
X86558Y61233D1*
X87218Y60573D1*
X87395Y60312D1*
X87464Y59951D1*
X87721Y60242D1*
X87970Y60438D1*
X88248Y60590D1*
X88547Y60695D1*
X88860Y60749D1*
X89177Y60751D1*
X89490Y60701D1*
X89790Y60601D1*
X90070Y60452D1*
X90322Y60259D1*
X90539Y60027D1*
X90714Y59763D1*
X90844Y59474D1*
X90925Y59167D1*
X90954Y58834D1*
X90927Y58518D1*
X90850Y58211D1*
X90723Y57920D1*
X90549Y57654D1*
X90335Y57421D1*
X90085Y57226D1*
X89817Y57087D1*
X90070Y56952D1*
X90322Y56759D1*
X90539Y56527D1*
X90714Y56263D1*
X90844Y55974D1*
X90925Y55667D1*
X90954Y55334D1*
X90927Y55018D1*
X90850Y54711D1*
X90723Y54420D1*
X90549Y54154D1*
X90335Y53921D1*
X90085Y53726D1*
X89817Y53587D1*
X90070Y53452D1*
X90322Y53259D1*
X90539Y53027D1*
X90714Y52763D1*
X90844Y52474D1*
X90925Y52167D1*
X90954Y51834D1*
X90927Y51518D1*
X90850Y51211D1*
X90723Y50920D1*
X90549Y50654D1*
X90335Y50421D1*
X90085Y50226D1*
X89817Y50087D1*
X90070Y49952D1*
X90322Y49759D1*
X90539Y49527D1*
X90714Y49263D1*
X90844Y48974D1*
X90925Y48667D1*
X90954Y48334D1*
X90927Y48018D1*
X90850Y47711D1*
X90723Y47420D1*
X90549Y47154D1*
X90335Y46921D1*
X90085Y46726D1*
X89817Y46587D1*
X90070Y46452D1*
X90322Y46259D1*
X90539Y46027D1*
X90714Y45763D1*
X90844Y45474D1*
X90925Y45167D1*
X90954Y44834D1*
X90927Y44518D1*
X90850Y44211D1*
X90723Y43920D1*
X90549Y43654D1*
X90335Y43421D1*
X90085Y43226D1*
X89817Y43087D1*
X90070Y42952D1*
X90322Y42759D1*
X90539Y42527D1*
X90714Y42263D1*
X90844Y41974D1*
X90925Y41667D1*
X90954Y41334D1*
X90927Y41018D1*
X90850Y40711D1*
X90723Y40420D1*
X90549Y40154D1*
X90335Y39921D1*
X90085Y39726D1*
X89817Y39587D1*
X90070Y39452D1*
X90322Y39259D1*
X90539Y39027D1*
X90714Y38763D1*
X90844Y38474D1*
X90925Y38167D1*
X90954Y37834D1*
X90927Y37518D1*
X90850Y37211D1*
X90723Y36920D1*
X90549Y36654D1*
X90335Y36421D1*
X90085Y36226D1*
X89817Y36087D1*
X90070Y35952D1*
X90322Y35759D1*
X90539Y35527D1*
X90714Y35263D1*
X90844Y34974D1*
X90925Y34667D1*
X90954Y34334D1*
X90927Y34018D1*
X90850Y33711D1*
X90723Y33420D1*
X90549Y33154D1*
X90335Y32921D1*
X90085Y32726D1*
X89817Y32587D1*
X90070Y32452D1*
X90322Y32259D1*
X90539Y32027D1*
X90714Y31763D1*
X90844Y31474D1*
X90925Y31167D1*
X90954Y30834D1*
X90927Y30518D1*
X90850Y30211D1*
X90723Y29920D1*
X90549Y29654D1*
X90335Y29421D1*
X90085Y29226D1*
X89817Y29087D1*
X90070Y28952D1*
X90322Y28759D1*
X90539Y28527D1*
X90714Y28263D1*
X90844Y27974D1*
X90925Y27667D1*
X90954Y27334D1*
X90927Y27018D1*
X90850Y26711D1*
X90723Y26420D1*
X90549Y26154D1*
X90335Y25921D1*
X90085Y25726D1*
X89817Y25587D1*
X90070Y25452D1*
X90322Y25259D1*
X90539Y25027D1*
X90714Y24763D1*
X90844Y24474D1*
X90925Y24167D1*
X90954Y23834D1*
X90927Y23518D1*
X90850Y23211D1*
X90723Y22920D1*
X90549Y22654D1*
X90335Y22421D1*
X90085Y22226D1*
X89817Y22087D1*
X90070Y21952D1*
X90322Y21759D1*
X90539Y21527D1*
X90714Y21263D1*
X90844Y20974D1*
X90925Y20667D1*
X90954Y20334D1*
X90927Y20018D1*
X90850Y19711D1*
X90723Y19420D1*
X90549Y19154D1*
X90335Y18921D1*
X90085Y18726D1*
X89817Y18587D1*
X90070Y18452D1*
X90322Y18259D1*
X90539Y18027D1*
X90714Y17763D1*
X90844Y17474D1*
X90925Y17167D1*
X90954Y16834D1*
X90927Y16518D1*
X90850Y16211D1*
X90723Y15920D1*
X90549Y15654D1*
X90335Y15421D1*
X90134Y15257D1*
X90954D1*
Y11411D1*
X87108D1*
Y15257D1*
X87931D1*
X87733Y15415D1*
X87517Y15648D1*
X87307Y15994D1*
X81453Y15996D1*
X81135Y16061D1*
X80971Y16154D1*
X80961Y14084D1*
X80971Y13842D1*
Y11544D1*
X78355D1*
X78354Y12436D1*
X78280Y12241D1*
X78099Y11981D1*
X77861Y11772D1*
X77580Y11626D1*
X77272Y11552D1*
X76956Y11555D1*
X76649Y11633D1*
X76370Y11783D1*
X76135Y11995D1*
X75958Y12258D1*
X75849Y12555D1*
X75815Y12870D1*
X75858Y13184D1*
X75975Y13478D1*
X76160Y13736D1*
X76400Y13942D1*
X76684Y14083D1*
X76828Y14116D1*
X76648Y14173D1*
X76369Y14323D1*
X76118Y14560D1*
X75553Y14554D1*
X75243Y14613D1*
X74960Y14799D1*
X74701Y15059D1*
X74895Y14675D1*
X74941Y14536D1*
X75091Y13568D1*
X75093Y13422D1*
X74937Y12455D1*
X74893Y12315D1*
X74446Y11444D1*
X74361Y11325D1*
X74017Y10981D1*
X91941Y10977D1*
X92515Y11054D1*
X93003Y11254D1*
X93421Y11574D1*
X93742Y11990D1*
X93944Y12475D1*
X94022Y13057D1*
X94023Y62938D1*
X93946Y63516D1*
X93746Y64004D1*
X93427Y64421D1*
X93010Y64742D1*
X92525Y64944D1*
X91943Y65022D1*
X74008D1*
X74365Y64666D1*
X74453Y64549D1*
X74895Y63675D1*
X74941Y63536D1*
X75091Y62568D1*
X75093Y62422D1*
X74937Y61455D1*
X74893Y61315D1*
X74446Y60444D1*
X74361Y60325D1*
X73666Y59635D1*
X73549Y59547D1*
X72675Y59105D1*
X72536Y59059D1*
X71568Y58909D1*
X71422Y58907D1*
X70455Y59063D1*
X70315Y59107D1*
X69444Y59554D1*
X69248Y59716D1*
X69202Y59447D1*
X68995Y58974D1*
X68671Y58570D1*
X68254Y58264D1*
X67772Y58076D1*
X67343Y58023D1*
X17616Y58025D1*
X17148Y58098D1*
X16677Y58285D1*
X16944Y58114D1*
X17176Y57898D1*
X17366Y57644D1*
X17508Y57360D1*
X17596Y57056D1*
X17630Y56713D1*
X17601Y56398D1*
X17517Y56092D1*
X17380Y55806D1*
X17281Y55670D1*
X17280Y53449D1*
X18069Y53451D1*
X19167Y54549D1*
X19429Y54727D1*
X19760Y54795D1*
X39137D1*
X39429Y54983D1*
X39733Y55069D1*
X40050Y55071D1*
X40356Y54990D1*
X40629Y54829D1*
X40849Y54602D1*
X41002Y54325D1*
X41068Y54046D1*
X41138Y54122D1*
X41399Y54300D1*
X41730Y54368D1*
X43069D1*
X43077Y55773D1*
X46923D1*
Y55644D1*
X47371Y55638D1*
X47458Y55719D1*
X47729Y55883D1*
X48033Y55969D1*
X48350Y55971D1*
X48656Y55890D1*
X48929Y55729D1*
X49149Y55502D1*
X49302Y55225D1*
X49381Y54800D1*
X49338Y54486D1*
X49304Y54404D1*
X49601Y54493D1*
X49740Y54503D1*
X51817Y54487D1*
X52122Y54373D1*
X52580Y54308D1*
X52862Y54122D1*
X53445Y53540D1*
X54162Y53538D1*
X54529Y53783D1*
X54833Y53869D1*
X55150Y53871D1*
X55456Y53790D1*
X55729Y53629D1*
X55949Y53402D1*
X56102Y53125D1*
X56181Y52700D1*
X56138Y52386D1*
X56072Y52232D1*
X56949Y53112D1*
X56942Y54766D1*
X59788D1*
Y51920D1*
X59242D1*
X59449Y51725D1*
X59626Y51462D1*
X59741Y51167D1*
X59788Y50803D1*
X59753Y50488D1*
X59649Y50189D1*
X59481Y49920D1*
X59258Y49695D1*
X58999Y49531D1*
X59218Y49402D1*
X59449Y49185D1*
X59626Y48922D1*
X59741Y48627D1*
X59788Y48263D1*
X59765Y48057D1*
X60003Y47810D1*
X64631Y47806D1*
X64562Y48238D1*
X64592Y48554D1*
X64691Y48855D1*
X64854Y49126D1*
X65073Y49355D1*
X65346Y49534D1*
X65112Y49680D1*
X64885Y49901D1*
X64713Y50167D1*
X64603Y50464D1*
X64562Y50778D1*
X64592Y51094D1*
X64691Y51395D1*
X64854Y51666D1*
X65073Y51895D1*
X65337Y52070D1*
X65633Y52182D1*
X65947Y52226D1*
X66263Y52199D1*
X66565Y52103D1*
X66838Y51942D1*
X67069Y51725D1*
X67246Y51462D1*
X67361Y51167D1*
X67408Y50803D1*
X67373Y50488D1*
X67269Y50189D1*
X67101Y49920D1*
X66878Y49695D1*
X66619Y49531D1*
X66838Y49402D1*
X67069Y49185D1*
X67246Y48922D1*
X67361Y48627D1*
X67408Y48263D1*
X67373Y47948D1*
X67324Y47808D1*
X71595Y47806D1*
X71905Y47747D1*
X72187Y47561D1*
X72847Y46901D1*
X73025Y46640D1*
X73093Y46308D1*
Y42666D1*
X73033Y42356D1*
X72847Y42074D1*
X70217Y39443D1*
Y36863D1*
X70386Y36692D1*
X71869D1*
X72179Y36633D1*
X72461Y36447D1*
X73121Y35787D1*
X73299Y35525D1*
X73367Y35194D1*
Y30774D1*
X73307Y30464D1*
X73121Y30182D1*
X72681Y29746D1*
X72707Y29529D1*
X72672Y29214D1*
X72567Y28915D1*
X72400Y28646D1*
X72177Y28421D1*
X71918Y28256D1*
X72137Y28128D1*
X72368Y27911D1*
X72545Y27648D1*
X72660Y27353D1*
X72707Y26989D1*
X72672Y26674D1*
X72567Y26375D1*
X72400Y26106D1*
X72177Y25881D1*
X71918Y25716D1*
X72137Y25588D1*
X72368Y25371D1*
X72545Y25108D1*
X72660Y24813D1*
X72707Y24449D1*
X72684Y24242D1*
X73121Y23796D1*
X73299Y23535D1*
X73367Y23204D1*
Y18769D1*
X75907Y16223D1*
X76131Y16236D1*
X76400Y16482D1*
X76683Y16624D1*
X76828Y16656D1*
X76648Y16713D1*
X76369Y16863D1*
X76135Y17076D1*
X75958Y17338D1*
X75849Y17636D1*
X75815Y17951D1*
X75858Y18265D1*
X75975Y18559D1*
X76159Y18816D1*
X76400Y19022D1*
X76683Y19164D1*
X76828Y19197D1*
X76648Y19254D1*
X76369Y19403D1*
X76135Y19616D1*
X75958Y19879D1*
X75849Y20176D1*
X75815Y20491D1*
X75858Y20805D1*
X75975Y21099D1*
X76159Y21357D1*
X76400Y21562D1*
X76683Y21704D1*
X76828Y21737D1*
X76648Y21794D1*
X76369Y21944D1*
X76135Y22156D1*
X75958Y22419D1*
X75849Y22716D1*
X75815Y23031D1*
X75858Y23345D1*
X75975Y23639D1*
X76159Y23897D1*
X76400Y24103D1*
X76683Y24245D1*
X76828Y24277D1*
X76648Y24334D1*
X76369Y24484D1*
X76135Y24696D1*
X75958Y24959D1*
X75849Y25257D1*
X75815Y25572D1*
X75858Y25885D1*
X75975Y26180D1*
X76159Y26437D1*
X76400Y26643D1*
X76683Y26785D1*
X76992Y26854D1*
X77309Y26848D1*
X77414Y26819D1*
X77415Y27567D1*
X77100Y27873D1*
X76923Y28134D1*
X76854Y28465D1*
Y37143D1*
X76914Y37453D1*
X77084Y37719D1*
X77349Y37905D1*
X77308Y37885D1*
X77530Y38221D1*
X77521Y38538D1*
X77597Y38845D1*
X77752Y39121D1*
X77976Y39345D1*
X78251Y39501D1*
X78558Y39579D1*
X79005Y39586D1*
X79874Y39571D1*
X80177Y39479D1*
X80444Y39309D1*
X80656Y39074D1*
X80798Y38790D1*
X80860Y38413D1*
X80817Y38099D1*
X80674Y37785D1*
X80798Y37520D1*
X80860Y37143D1*
X80817Y36829D1*
X80767Y36711D1*
X81111Y36646D1*
X81275Y36574D1*
Y41049D1*
X81106Y41227D1*
X80550D1*
X80412Y41087D1*
X80143Y40924D1*
X79937Y40892D1*
X71418Y44493D2*
X71274Y44459D1*
X71007Y44461D1*
X69143Y42591D1*
X68882Y42414D1*
X68550Y42345D1*
X67131D1*
X66878Y42075D1*
X66619Y41911D1*
X66838Y41782D1*
X67069Y41565D1*
X67246Y41302D1*
X67361Y41007D1*
X67408Y40643D1*
X67373Y40328D1*
X67269Y40029D1*
X67101Y39760D1*
X66878Y39535D1*
X66619Y39371D1*
X66838Y39242D1*
X67069Y39025D1*
X67246Y38762D1*
X67361Y38467D1*
X67408Y38103D1*
X67385Y37897D1*
X68535Y36738D1*
X68541Y39790D1*
X68600Y40100D1*
X68786Y40383D1*
X71417Y43014D1*
Y44482D1*
X69831Y45649D2*
X69817Y45777D1*
X69878Y46136D1*
X67339Y46130D1*
X67407Y45774D1*
X67373Y45408D1*
X67269Y45109D1*
X67101Y44840D1*
X66878Y44615D1*
X66619Y44451D1*
X66838Y44322D1*
X67069Y44105D1*
X67130Y44015D1*
X68198Y44021D1*
X69817Y45635D1*
X70639Y33346D2*
X70411Y33486D1*
X70146Y33765D1*
X69479Y33771D1*
X69169Y33831D1*
X68887Y34017D1*
X66200Y36704D1*
X65998Y36680D1*
X65682Y36713D1*
X65382Y36814D1*
X65112Y36980D1*
X64885Y37201D1*
X64713Y37467D1*
X64603Y37764D1*
X64562Y38078D1*
X64592Y38394D1*
X64691Y38695D1*
X64854Y38966D1*
X65073Y39195D1*
X65346Y39374D1*
X65112Y39520D1*
X64885Y39741D1*
X64713Y40007D1*
X64603Y40304D1*
X64562Y40618D1*
X64586Y40865D1*
X64389Y41054D1*
X59730Y41050D1*
X59788Y40643D1*
X59765Y40437D1*
X62999Y37195D1*
X67285Y32908D1*
X70144Y32907D1*
X70372Y33161D1*
X70645Y33339D1*
X70639Y20646D2*
X70411Y20786D1*
X70146Y21065D1*
X68726Y21071D1*
X68416Y21131D1*
X68133Y21317D1*
X67453Y21997D1*
X67508Y21591D1*
X67473Y21276D1*
X67369Y20977D1*
X67201Y20708D1*
X66978Y20483D1*
X66719Y20318D1*
X66938Y20190D1*
X67169Y19973D1*
X67346Y19710D1*
X67461Y19415D1*
X67508Y19051D1*
X67473Y18736D1*
X67424Y18596D1*
X70098Y18594D1*
X70011Y18732D1*
X69902Y19030D1*
X69861Y19344D1*
X69891Y19659D1*
X69990Y19960D1*
X70153Y20232D1*
X70372Y20461D1*
X70645Y20639D1*
X52562Y33068D2*
X52413Y32789D1*
X52233Y32620D1*
X52238Y23220D1*
Y13963D1*
X53164Y13044D1*
X53010Y13401D1*
X52925Y13914D1*
X52921Y26383D1*
X52934Y29169D1*
X53038Y29685D1*
X53229Y30078D1*
X53428Y30351D1*
X53815Y30708D1*
X54201Y30913D1*
X54522Y31017D1*
X55045Y31078D1*
X55478Y31017D1*
X55799Y30913D1*
X56258Y30654D1*
X56150Y30730D1*
X56262Y30893D1*
Y33106D1*
X55560Y33810D1*
X52502Y33812D1*
X52533Y33767D1*
X52613Y33380D1*
X52562Y33068D1*
X46923Y53957D2*
Y53827D1*
X46834D1*
X46920Y53962D1*
X46885Y53530D1*
X46834Y53218D1*
X46649Y52905D1*
X46805Y52647D1*
X46885Y52260D1*
X46834Y51948D1*
X46649Y51635D1*
X46805Y51377D1*
X46885Y50990D1*
X46834Y50678D1*
X46649Y50365D1*
X46805Y50107D1*
X46885Y49720D1*
X46834Y49408D1*
X46649Y49095D1*
X46805Y48837D1*
X46885Y48450D1*
X46834Y48138D1*
X46649Y47825D1*
X46692Y47809D1*
X46841Y48089D1*
X46956Y48211D1*
X46962Y49306D1*
X47022Y49616D1*
X47208Y49899D1*
X47874Y50565D1*
X47876Y52260D1*
X47935Y52570D1*
X48105Y52836D1*
X48361Y53020D1*
X48714Y53098D1*
X48862D1*
X48787Y53332D1*
X48774Y53648D1*
X48816Y53790D1*
X48465Y53649D1*
X48150Y53620D1*
X47838Y53676D1*
X47553Y53812D1*
X47381Y53961D1*
X46930Y53962D1*
X52562Y50678D2*
X52501Y50565D1*
X54391Y50558D1*
X55447Y51610D1*
X55265Y51549D1*
X54950Y51520D1*
X54638Y51576D1*
X54353Y51712D1*
X54181Y51861D1*
X53100Y51862D1*
X52782Y51927D1*
X52847Y51903D1*
X52562Y51948D1*
X52377Y51635D1*
X52533Y51377D1*
X52613Y50990D1*
X52562Y50678D1*
X59853Y21276D2*
X59749Y20977D1*
X59581Y20708D1*
X59358Y20483D1*
X59099Y20318D1*
X59318Y20190D1*
X59549Y19973D1*
X59610Y19882D1*
X62910Y19889D1*
X64944D1*
X65173Y20143D1*
X65446Y20321D1*
X65212Y20467D1*
X64985Y20688D1*
X64813Y20954D1*
X64703Y21251D1*
X64662Y21566D1*
X64692Y21881D1*
X64732Y22003D1*
X59827Y21998D1*
X59888Y21591D1*
X59853Y21276D1*
X57820Y20328D2*
X57592Y20467D1*
X57365Y20688D1*
X57193Y20954D1*
X57079Y21281D1*
X57080Y19366D1*
X57171Y19642D1*
X57334Y19914D1*
X57553Y20143D1*
X57826Y20321D1*
X57820Y17788D2*
X57592Y17927D1*
X57365Y18148D1*
X57193Y18414D1*
X57079Y18741D1*
X57080Y16826D1*
X57171Y17102D1*
X57334Y17374D1*
X57553Y17603D1*
X57826Y17781D1*
X59853Y16196D2*
X59749Y15897D1*
X59581Y15628D1*
X59358Y15403D1*
X59099Y15238D1*
X59318Y15110D1*
X59549Y14893D1*
X59726Y14630D1*
X59841Y14335D1*
X59888Y13971D1*
X59853Y13656D1*
X59749Y13357D1*
X59581Y13088D1*
X59358Y12863D1*
X59199Y12762D1*
X61161Y12766D1*
X64677Y16288D1*
X64662Y16486D1*
X64692Y16801D1*
X64732Y16923D1*
X60052Y16918D1*
X59887Y16561D1*
X59853Y16196D1*
X57820Y15248D2*
X57592Y15387D1*
X57365Y15608D1*
X57193Y15874D1*
X57079Y16201D1*
X57080Y14286D1*
X57171Y14562D1*
X57334Y14834D1*
X57553Y15063D1*
X57826Y15241D1*
X57720Y49540D2*
X57492Y49680D1*
X57265Y49901D1*
X57093Y50167D1*
X56983Y50464D1*
X56937Y50730D1*
X55334Y49128D1*
X55073Y48950D1*
X54742Y48882D1*
X54633D1*
X56940Y46566D1*
X57234Y46586D1*
X57453Y46815D1*
X57726Y46994D1*
X57492Y47140D1*
X57265Y47361D1*
X57093Y47627D1*
X56983Y47924D1*
X56942Y48238D1*
X56972Y48554D1*
X57071Y48855D1*
X57234Y49126D1*
X57453Y49355D1*
X57726Y49534D1*
X59753Y45408D2*
X59649Y45109D1*
X59481Y44840D1*
X59258Y44615D1*
X58999Y44451D1*
X59218Y44322D1*
X59449Y44105D1*
X59510Y44015D1*
X62810Y44021D1*
X64844D1*
X65073Y44275D1*
X65346Y44454D1*
X65112Y44600D1*
X64885Y44821D1*
X64713Y45087D1*
X64603Y45384D1*
X64562Y45698D1*
X64592Y46014D1*
X64632Y46136D1*
X61435Y46130D1*
X59724D1*
X59788Y45723D1*
X59753Y45408D1*
X57720Y44460D2*
X57492Y44600D1*
X57227Y44879D1*
X56598Y44885D1*
X56288Y44945D1*
X56006Y45131D1*
X53529Y47607D1*
X53466Y47357D1*
X53653Y47230D1*
X57090Y43795D1*
X57234Y44046D1*
X57453Y44275D1*
X57726Y44454D1*
X38001Y32197D2*
X35777D1*
Y35443D1*
X38010D1*
X37999Y37395D1*
X37725Y37310D1*
X37409Y37277D1*
X37094Y37306D1*
X36790Y37396D1*
X36509Y37544D1*
X36262Y37743D1*
X36059Y37986D1*
X35907Y38264D1*
X35812Y38566D1*
X35777Y38882D1*
X35805Y39197D1*
X35893Y39502D1*
X36039Y39783D1*
X36236Y40031D1*
X36478Y40236D1*
X36756Y40389D1*
X37057Y40486D1*
X37372Y40523D1*
X37688Y40497D1*
X38002Y40406D1*
X38044Y40585D1*
X38191Y40864D1*
X38913Y41592D1*
X39174Y41770D1*
X39505Y41838D1*
X43077Y41843D1*
Y41973D1*
X46923D1*
Y40027D1*
X46834D1*
X46885Y39730D1*
X46834Y39418D1*
X46649Y39105D1*
X46805Y38847D1*
X46885Y38460D1*
X46834Y38148D1*
X46649Y37835D1*
X46805Y37577D1*
X46885Y37190D1*
X46834Y36878D1*
X46649Y36565D1*
X46805Y36307D1*
X46885Y35920D1*
X46834Y35608D1*
X46649Y35295D1*
X46805Y35037D1*
X46885Y34650D1*
X46834Y34338D1*
X46649Y34025D1*
X46805Y33767D1*
X46885Y33380D1*
X46834Y33068D1*
X46685Y32789D1*
X46455Y32573D1*
X46168Y32441D1*
X45863Y32407D1*
X45949Y32302D1*
X46102Y32025D1*
X46181Y31600D1*
X46138Y31286D1*
X46014Y30995D1*
X45817Y30747D1*
X45561Y30561D1*
X45265Y30449D1*
X44950Y30420D1*
X44638Y30476D1*
X44353Y30612D1*
X44114Y30820D1*
X43938Y31083D1*
X43839Y31384D1*
X43823Y31700D1*
X43892Y32009D1*
X44041Y32289D1*
X44129Y32382D1*
X44013Y32417D1*
X43953Y32409D1*
X43645Y32479D1*
X43376Y32644D1*
X43174Y32887D1*
X43060Y33182D1*
X43047Y33498D1*
X43136Y33802D1*
X43277Y34004D1*
X43174Y34157D1*
X43060Y34452D1*
X43047Y34768D1*
X43136Y35072D1*
X43277Y35274D1*
X43174Y35427D1*
X43060Y35722D1*
X43047Y36038D1*
X43136Y36342D1*
X43277Y36544D1*
X43174Y36697D1*
X43060Y36992D1*
X43047Y37308D1*
X43136Y37612D1*
X43277Y37814D1*
X43174Y37967D1*
X43060Y38262D1*
X43047Y38578D1*
X43141Y38890D1*
X40508Y38892D1*
X40343Y38723D1*
X40340Y25553D1*
X41987D1*
X41765Y25767D1*
X41592Y26033D1*
X41483Y26331D1*
X41442Y26645D1*
X41472Y26960D1*
X41570Y27261D1*
X41733Y27533D1*
X41952Y27762D1*
X42217Y27937D1*
X42513Y28049D1*
X42827Y28092D1*
X43143Y28065D1*
X43444Y27969D1*
X43718Y27809D1*
X43948Y27592D1*
X44136Y27301D1*
X44273Y27533D1*
X44492Y27762D1*
X44757Y27937D1*
X45053Y28049D1*
X45367Y28092D1*
X45683Y28065D1*
X45984Y27969D1*
X46258Y27809D1*
X46488Y27592D1*
X46666Y27329D1*
X46780Y27034D1*
X46827Y26670D1*
X46792Y26355D1*
X46750Y26234D1*
X48173Y26238D1*
X48258Y26319D1*
X48529Y26483D1*
X48833Y26569D1*
X49150Y26571D1*
X49456Y26490D1*
X49729Y26329D1*
X49949Y26102D1*
X50102Y25825D1*
X50181Y25400D1*
X50138Y25086D1*
X50014Y24795D1*
X49817Y24547D1*
X49561Y24361D1*
X49265Y24249D1*
X48950Y24220D1*
X48638Y24276D1*
X48353Y24412D1*
X48181Y24561D1*
X45498Y24562D1*
X45557Y24130D1*
X45522Y23815D1*
X45418Y23516D1*
X45250Y23247D1*
X44969Y22985D1*
X44972Y20981D1*
X44913Y20671D1*
X44727Y20388D1*
X44026Y19688D1*
X43765Y19510D1*
X43434Y19442D1*
X39971D1*
X40159Y19237D1*
X40345Y18979D1*
X40493Y18699D1*
X40601Y18401D1*
X40666Y18090D1*
X40687Y17780D1*
X40665Y17464D1*
X40599Y17153D1*
X40491Y16855D1*
X40342Y16575D1*
X40155Y16318D1*
X39935Y16090D1*
X39685Y15895D1*
X39410Y15737D1*
X39116Y15618D1*
X38808Y15541D1*
X38492Y15508D1*
X38175Y15520D1*
X37863Y15575D1*
X37561Y15673D1*
X37276Y15813D1*
X37013Y15990D1*
X36778Y16203D1*
X36574Y16446D1*
X36406Y16715D1*
X36278Y17005D1*
X36191Y17310D1*
X36147Y17625D1*
Y17942D1*
X36192Y18256D1*
X36280Y18561D1*
X36409Y18850D1*
X36578Y19119D1*
X36878Y19448D1*
X32639Y19442D1*
X32331Y19446D1*
X32565Y19138D1*
X32713Y18858D1*
X32820Y18560D1*
X32886Y18249D1*
X32907Y17939D1*
X32885Y17623D1*
X32819Y17312D1*
X32710Y17014D1*
X32561Y16734D1*
X32375Y16477D1*
X32154Y16249D1*
X31904Y16054D1*
X31629Y15896D1*
X31335Y15777D1*
X31027Y15700D1*
X30712Y15667D1*
X30395Y15679D1*
X30082Y15734D1*
X29781Y15832D1*
X29496Y15972D1*
X29233Y16149D1*
X28997Y16362D1*
X28794Y16605D1*
X28626Y16874D1*
X28497Y17164D1*
X28410Y17469D1*
X28366Y17784D1*
X28367Y18101D1*
X28411Y18415D1*
X28499Y18720D1*
X28629Y19009D1*
X28797Y19278D1*
X28931Y19437D1*
X22171Y19442D1*
X22405Y19138D1*
X22553Y18858D1*
X22660Y18560D1*
X22726Y18249D1*
X22747Y17939D1*
X22725Y17623D1*
X22659Y17312D1*
X22550Y17014D1*
X22401Y16734D1*
X22215Y16477D1*
X21994Y16249D1*
X21744Y16054D1*
X21469Y15896D1*
X21175Y15777D1*
X20867Y15700D1*
X20552Y15667D1*
X20235Y15679D1*
X19922Y15734D1*
X19621Y15832D1*
X19336Y15972D1*
X19073Y16149D1*
X18837Y16362D1*
X18634Y16605D1*
X18466Y16874D1*
X18337Y17164D1*
X18250Y17469D1*
X18206Y17784D1*
X18207Y18101D1*
X18251Y18415D1*
X18339Y18720D1*
X18469Y19009D1*
X18637Y19278D1*
X18771Y19437D1*
X16853Y19442D1*
X16593Y19172D1*
X16334Y19007D1*
X16553Y18879D1*
X16784Y18662D1*
X16961Y18399D1*
X17076Y18104D1*
X17123Y17740D1*
X17088Y17425D1*
X16984Y17126D1*
X16816Y16857D1*
X16593Y16632D1*
X16325Y16462D1*
X16027Y16355D1*
X15821Y16330D1*
X16438Y15698D1*
X16523Y15581D1*
X16964Y14686D1*
X17009Y14550D1*
X17159Y13559D1*
X17161Y13416D1*
X17005Y12426D1*
X16963Y12289D1*
X16516Y11397D1*
X16434Y11278D1*
X16136Y10972D1*
X21298Y10977D1*
X68993D1*
X68635Y11334D1*
X68547Y11451D1*
X68105Y12325D1*
X68059Y12464D1*
X67909Y13432D1*
X67907Y13578D1*
X68063Y14545D1*
X68107Y14685D1*
X68554Y15556D1*
X68639Y15675D1*
X69334Y16365D1*
X69451Y16453D1*
X70325Y16895D1*
X70282Y16918D1*
X67454D1*
X67508Y16511D1*
X67473Y16196D1*
X67369Y15897D1*
X67201Y15628D1*
X66978Y15403D1*
X66719Y15238D1*
X66938Y15110D1*
X67169Y14893D1*
X67346Y14630D1*
X67461Y14335D1*
X67508Y13971D1*
X67473Y13656D1*
X67369Y13357D1*
X67201Y13088D1*
X66978Y12863D1*
X66711Y12693D1*
X66412Y12586D1*
X66098Y12548D1*
X65782Y12580D1*
X65482Y12682D1*
X65212Y12847D1*
X64985Y13068D1*
X64813Y13334D1*
X64703Y13631D1*
X64657Y13898D1*
X62095Y11336D1*
X61834Y11158D1*
X61502Y11090D1*
X53095D1*
X52785Y11150D1*
X52503Y11336D1*
X50808Y13031D1*
X50630Y13292D1*
X50562Y13623D1*
Y16669D1*
X50315Y16318D1*
X50095Y16090D1*
X49845Y15895D1*
X49570Y15737D1*
X49276Y15618D1*
X48968Y15541D1*
X48652Y15508D1*
X48335Y15520D1*
X48023Y15575D1*
X47721Y15673D1*
X47436Y15813D1*
X47173Y15990D1*
X46938Y16203D1*
X46734Y16446D1*
X46566Y16715D1*
X46438Y17005D1*
X46351Y17310D1*
X46307Y17625D1*
Y17942D1*
X46352Y18256D1*
X46440Y18561D1*
X46569Y18850D1*
X46738Y19119D1*
X46942Y19362D1*
X47179Y19574D1*
X47442Y19751D1*
X47727Y19889D1*
X48029Y19986D1*
X48342Y20041D1*
X48659Y20051D1*
X48974Y20017D1*
X49282Y19940D1*
X49576Y19821D1*
X49850Y19661D1*
X50100Y19465D1*
X50319Y19237D1*
X50565Y18866D1*
X50562Y32405D1*
X49740Y32417D1*
X49681Y32409D1*
X49373Y32479D1*
X49103Y32644D1*
X48901Y32887D1*
X48787Y33182D1*
X48774Y33498D1*
X48863Y33802D1*
X49005Y34004D1*
X48901Y34157D1*
X48787Y34452D1*
X48774Y34768D1*
X48863Y35072D1*
X49005Y35274D1*
X48901Y35427D1*
X48787Y35722D1*
X48774Y36038D1*
X48863Y36342D1*
X49005Y36544D1*
X48901Y36697D1*
X48787Y36992D1*
X48774Y37308D1*
X48863Y37612D1*
X49005Y37814D1*
X48901Y37967D1*
X48787Y38262D1*
X48774Y38578D1*
X48863Y38882D1*
X48994Y39068D1*
X48808Y39208D1*
X48380Y39635D1*
X48150Y39620D1*
X47838Y39676D1*
X47553Y39812D1*
X47314Y40020D1*
X47138Y40283D1*
X47039Y40584D1*
X47023Y40900D1*
X47092Y41209D1*
X47241Y41489D1*
X47458Y41719D1*
X47729Y41883D1*
X48033Y41969D1*
X48350Y41971D1*
X48656Y41890D1*
X48929Y41729D1*
X49149Y41502D1*
X49302Y41225D1*
X49345Y41042D1*
X49687Y40698D1*
X51591Y40703D1*
X51597Y41903D1*
X51134Y42359D1*
X40633Y42362D1*
X40361Y42161D1*
X40065Y42049D1*
X39750Y42020D1*
X39438Y42076D1*
X39153Y42212D1*
X38914Y42420D1*
X38738Y42683D1*
X38639Y42984D1*
X38623Y43300D1*
X38692Y43609D1*
X38841Y43889D1*
X39058Y44119D1*
X39329Y44283D1*
X39633Y44369D1*
X39950Y44371D1*
X40256Y44290D1*
X40529Y44129D1*
X40618Y44037D1*
X51478Y44038D1*
X51788Y43978D1*
X52070Y43792D1*
X53027Y42835D1*
X53205Y42574D1*
X53273Y42243D1*
Y38460D1*
X53213Y38150D1*
X53044Y37884D1*
X52778Y37697D1*
X52519Y37627D1*
X52613Y37190D1*
X52562Y36878D1*
X52501Y36765D1*
X54818Y36758D1*
X57805D1*
X58115Y36698D1*
X58398Y36512D1*
X59058Y35852D1*
X59235Y35591D1*
X59303Y35260D1*
Y30626D1*
X59888Y30634D1*
Y27788D1*
X59342D1*
X59549Y27593D1*
X59726Y27330D1*
X59841Y27035D1*
X59888Y26671D1*
X59853Y26356D1*
X59749Y26057D1*
X59581Y25788D1*
X59358Y25563D1*
X59099Y25398D1*
X59318Y25270D1*
X59549Y25053D1*
X59726Y24790D1*
X59841Y24495D1*
X59888Y24131D1*
X59865Y23924D1*
X60103Y23678D1*
X64731Y23674D1*
X64662Y24106D1*
X64692Y24421D1*
X64791Y24722D1*
X64954Y24994D1*
X65173Y25223D1*
X65446Y25401D1*
X65212Y25547D1*
X64985Y25768D1*
X64813Y26034D1*
X64703Y26331D1*
X64662Y26646D1*
X64692Y26961D1*
X64791Y27262D1*
X64954Y27534D1*
X65173Y27763D1*
X65437Y27938D1*
X65733Y28050D1*
X66047Y28093D1*
X66363Y28066D1*
X66665Y27970D1*
X66938Y27810D1*
X67169Y27593D1*
X67346Y27330D1*
X67461Y27035D1*
X67508Y26671D1*
X67473Y26356D1*
X67369Y26057D1*
X67201Y25788D1*
X66978Y25563D1*
X66719Y25398D1*
X66938Y25270D1*
X67169Y25053D1*
X67346Y24790D1*
X67461Y24495D1*
X67508Y24131D1*
X67473Y23816D1*
X67424Y23676D1*
X67799Y23674D1*
X68109Y23614D1*
X68392Y23428D1*
X69072Y22748D1*
X70125Y22747D1*
X70372Y23001D1*
X70645Y23179D1*
X70411Y23326D1*
X70184Y23547D1*
X70011Y23812D1*
X69902Y24110D1*
X69861Y24424D1*
X69891Y24739D1*
X69990Y25040D1*
X70153Y25312D1*
X70372Y25541D1*
X70645Y25719D1*
X70411Y25866D1*
X70184Y26087D1*
X70011Y26352D1*
X69902Y26650D1*
X69861Y26964D1*
X69891Y27279D1*
X69990Y27580D1*
X70153Y27852D1*
X70372Y28081D1*
X70645Y28259D1*
X70411Y28406D1*
X70184Y28627D1*
X70011Y28892D1*
X69902Y29190D1*
X69861Y29504D1*
X69891Y29819D1*
X69990Y30120D1*
X70153Y30392D1*
X70372Y30621D1*
X70645Y30799D1*
X70411Y30946D1*
X70146Y31225D1*
X66939Y31231D1*
X66629Y31291D1*
X66347Y31477D1*
X59787Y38036D1*
X59753Y37788D1*
X59649Y37489D1*
X59481Y37220D1*
X59258Y36995D1*
X58991Y36825D1*
X58692Y36719D1*
X58378Y36680D1*
X58072Y36712D1*
X58329Y36574D1*
X58398Y36512D1*
X57997Y36735D1*
X57762Y36814D1*
X57492Y36980D1*
X57265Y37201D1*
X57093Y37467D1*
X56983Y37764D1*
X56942Y38078D1*
X56972Y38394D1*
X57071Y38695D1*
X57234Y38966D1*
X57453Y39195D1*
X57720Y39380D1*
X57492Y39520D1*
X57265Y39741D1*
X57093Y40007D1*
X56983Y40304D1*
X56942Y40618D1*
X56972Y40934D1*
X57071Y41235D1*
X57147Y41362D1*
X52764Y45751D1*
X52581Y45859D1*
X52103Y46327D1*
X51895Y46241D1*
X51640Y46207D1*
X49750Y46216D1*
X49681Y46209D1*
X49373Y46279D1*
X49103Y46444D1*
X48901Y46687D1*
X48841Y46844D1*
X48617Y46547D1*
X48361Y46361D1*
X48065Y46249D1*
X47750Y46220D1*
X47438Y46276D1*
X47153Y46412D1*
X46914Y46620D1*
X46792Y46790D1*
X46685Y46589D1*
X46455Y46373D1*
X46168Y46241D1*
X45913Y46207D1*
X45744D1*
X46002Y45725D1*
X46081Y45300D1*
X46038Y44986D1*
X45914Y44695D1*
X45717Y44447D1*
X45461Y44261D1*
X45165Y44149D1*
X44850Y44120D1*
X44538Y44176D1*
X44253Y44312D1*
X44014Y44520D1*
X43838Y44783D1*
X43739Y45084D1*
X43723Y45400D1*
X43792Y45709D1*
X43941Y45989D1*
X44056Y46111D1*
X44022Y46216D1*
X43953Y46209D1*
X43645Y46279D1*
X43376Y46444D1*
X43174Y46687D1*
X43060Y46982D1*
X43047Y47298D1*
X43136Y47602D1*
X43281Y47828D1*
X43174Y47957D1*
X43060Y48252D1*
X43047Y48568D1*
X43136Y48872D1*
X43281Y49098D1*
X43174Y49227D1*
X43060Y49522D1*
X43047Y49838D1*
X43136Y50142D1*
X43281Y50368D1*
X43174Y50497D1*
X43060Y50792D1*
X43047Y51108D1*
X43136Y51412D1*
X43281Y51638D1*
X43174Y51767D1*
X43060Y52062D1*
X43047Y52378D1*
X43141Y52690D1*
X42075Y52692D1*
X41866Y52481D1*
X42002Y52225D1*
X42081Y51800D1*
X42038Y51486D1*
X41914Y51195D1*
X41717Y50947D1*
X41461Y50761D1*
X41165Y50649D1*
X40850Y50620D1*
X40538Y50676D1*
X40297Y50791D1*
X41592Y49492D1*
X41770Y49231D1*
X41838Y48900D1*
Y47322D1*
X41949Y47202D1*
X42102Y46925D1*
X42181Y46500D1*
X42138Y46186D1*
X42014Y45895D1*
X41817Y45647D1*
X41561Y45461D1*
X41265Y45349D1*
X40950Y45320D1*
X40638Y45376D1*
X40353Y45512D1*
X40114Y45720D1*
X39938Y45983D1*
X39839Y46284D1*
X39823Y46600D1*
X39892Y46909D1*
X40041Y47189D1*
X40156Y47311D1*
X40162Y48554D1*
X38647Y50068D1*
X38559Y50060D1*
X38649Y49686D1*
X38620Y49245D1*
X38517Y48946D1*
X38350Y48676D1*
X38129Y48449D1*
X37863Y48277D1*
X37566Y48167D1*
X37251Y48125D1*
X36936Y48154D1*
X36634Y48250D1*
X36361Y48411D1*
X36130Y48627D1*
X35951Y48903D1*
X35810Y48676D1*
X35589Y48449D1*
X35323Y48277D1*
X35026Y48167D1*
X34711Y48125D1*
X34396Y48154D1*
X34094Y48250D1*
X33821Y48411D1*
X33575Y48643D1*
Y48125D1*
X30705D1*
Y50995D1*
X33575D1*
Y50469D1*
X33724Y50630D1*
X33982Y50814D1*
X34274Y50936D1*
X34586Y50992D1*
X34902Y50978D1*
X35208Y50894D1*
X35322Y50834D1*
X34858Y51290D1*
X34671Y51265D1*
X34356Y51294D1*
X34054Y51390D1*
X33781Y51551D1*
X33535Y51783D1*
Y51265D1*
X30665D1*
Y53120D1*
X25169Y53116D1*
X25344Y52818D1*
X25431Y52513D1*
X25448Y52300D1*
X25411Y51985D1*
X25301Y51688D1*
X25125Y51425D1*
X24893Y51210D1*
X24616Y51055D1*
X24311Y50969D1*
X23995Y50956D1*
X23684Y51018D1*
X23396Y51150D1*
X23148Y51346D1*
X22951Y51595D1*
X22818Y51882D1*
X22756Y52193D1*
X22768Y52510D1*
X22854Y52815D1*
X23029Y53113D1*
X20793Y53119D1*
X20108D1*
X19009Y52021D1*
X18748Y51844D1*
X18416Y51776D1*
X16998D1*
X16868Y51625D1*
X17118Y51273D1*
X17232Y50977D1*
X17280Y50613D1*
X17244Y50299D1*
X17140Y49999D1*
X17041Y49840D1*
X17366Y49444D1*
X17508Y49160D1*
X17596Y48856D1*
X17630Y48513D1*
X17601Y48198D1*
X17517Y47892D1*
X17380Y47606D1*
X17194Y47349D1*
X16965Y47130D1*
X16701Y46954D1*
X16410Y46829D1*
X16101Y46757D1*
X15784Y46742D1*
X15499Y46779D1*
X15736Y46454D1*
X15924Y45972D1*
X15978Y45543D1*
X15975Y30415D1*
X15902Y29947D1*
X15695Y29474D1*
X15371Y29070D1*
X14954Y28764D1*
X14472Y28576D1*
X14043Y28523D1*
X10994Y28513D1*
X10978Y28139D1*
Y15985D1*
X11404Y16414D1*
X11521Y16504D1*
X12394Y16956D1*
X12535Y17005D1*
X13501Y17159D1*
X13652Y17160D1*
X14465Y17028D1*
X14318Y17401D1*
X14277Y17715D1*
X14301Y17961D1*
X13708Y18548D1*
X13530Y18809D1*
X13462Y19140D1*
Y21566D1*
X13522Y21876D1*
X13691Y22142D1*
X13948Y22326D1*
X14300Y22404D1*
X14350D1*
X14318Y22481D1*
X14277Y22795D1*
X14307Y23110D1*
X14406Y23411D1*
X14569Y23683D1*
X14788Y23912D1*
X15061Y24090D1*
X14827Y24236D1*
X14600Y24457D1*
X14428Y24723D1*
X14318Y25021D1*
X14277Y25335D1*
X14307Y25650D1*
X14406Y25951D1*
X14569Y26223D1*
X14788Y26452D1*
X15052Y26627D1*
X15348Y26739D1*
X15662Y26782D1*
X15978Y26755D1*
X16280Y26659D1*
X16553Y26499D1*
X16784Y26282D1*
X16961Y26019D1*
X17076Y25724D1*
X17123Y25360D1*
X17088Y25045D1*
X16984Y24746D1*
X16816Y24477D1*
X16593Y24252D1*
X16334Y24087D1*
X16553Y23959D1*
X16784Y23742D1*
X16961Y23479D1*
X17076Y23184D1*
X17123Y22820D1*
X17088Y22505D1*
X17052Y22402D1*
X41853Y22404D1*
X41747Y22707D1*
X40172D1*
X40159Y24425D1*
X39437Y23697D1*
X39176Y23519D1*
X38845Y23451D1*
X27346D1*
X27087Y23181D1*
X26819Y23011D1*
X26521Y22904D1*
X26207Y22866D1*
X25891Y22899D1*
X25591Y23000D1*
X25321Y23165D1*
X25078Y23411D1*
X25077Y22866D1*
X22231D1*
Y25712D1*
X24047D1*
X23824Y25926D1*
X23651Y26192D1*
X23542Y26490D1*
X23501Y26804D1*
X23531Y27119D1*
X23630Y27420D1*
X23793Y27692D1*
X24012Y27921D1*
X24276Y28096D1*
X24572Y28208D1*
X24886Y28251D1*
X25133Y28230D1*
X27453Y30540D1*
X27520Y30615D1*
X16884D1*
X16587Y30712D1*
X16407Y30977D1*
X16385Y31431D1*
Y41274D1*
X16482Y41570D1*
X16747Y41751D1*
X17201Y41773D1*
X31965D1*
X32262Y41675D1*
X32442Y41411D1*
X32464Y40956D1*
Y31114D1*
X32359Y30812D1*
X32482Y30780D1*
X37830D1*
X38007Y30949D1*
Y32200D1*
X37868Y29104D2*
X28384D1*
X27515Y28244D1*
X27742Y28224D1*
X28044Y28128D1*
X28317Y27968D1*
X28548Y27751D1*
X28725Y27488D1*
X28840Y27193D1*
X28887Y26829D1*
X28852Y26514D1*
X28747Y26215D1*
X28580Y25946D1*
X28357Y25721D1*
X28089Y25551D1*
X27791Y25444D1*
X27477Y25406D1*
X27161Y25439D1*
X26834Y25553D1*
X27047Y25428D1*
X27278Y25211D1*
X27339Y25121D1*
X30639Y25127D1*
X38507D1*
X38667Y25296D1*
Y29265D1*
X38579Y29202D1*
X38277Y29109D1*
X37868Y29104D1*
X56659Y35081D2*
X57627Y34113D1*
Y34916D1*
X57458Y35082D1*
X56664D1*
X16094Y58859D2*
X15964Y59046D1*
X15776Y59528D1*
X15752Y59713D1*
X15549Y59547D1*
X14675Y59105D1*
X14536Y59059D1*
X13568Y58909D1*
X13422Y58907D1*
X12455Y59063D1*
X12315Y59107D1*
X11444Y59554D1*
X11325Y59639D1*
X10981Y59983D1*
X10978Y47559D1*
X10987Y47494D1*
X11361Y47477D1*
X14085Y47475D1*
X14462Y47426D1*
X14265Y47734D1*
X14151Y48030D1*
X14092Y48341D1*
X14090Y48659D1*
X14144Y48971D1*
X14253Y49269D1*
X14413Y49542D1*
X14676Y49835D1*
X14584Y49977D1*
X14475Y50274D1*
X14434Y50588D1*
X14464Y50904D1*
X14563Y51205D1*
X14726Y51476D1*
X14849Y51621D1*
X14757Y51711D1*
X14584Y51977D1*
X14475Y52274D1*
X14434Y52588D1*
X14464Y52904D1*
X14558Y53191D1*
X14434D1*
X14429Y55663D1*
X14265Y55934D1*
X14151Y56230D1*
X14092Y56541D1*
X14090Y56859D1*
X14144Y57171D1*
X14253Y57469D1*
X14413Y57742D1*
X14619Y57983D1*
X14865Y58183D1*
X15143Y58336D1*
X15444Y58437D1*
X15757Y58484D1*
X16074Y58473D1*
X16384Y58406D1*
X16677Y58285D1*
X16270Y58629D1*
X16094Y58859D1*
D18*
X24100Y47300D3*
D19*
Y52300D3*
D20*
X37300Y44500D3*
X34760D3*
D21*
X77123Y12852D3*
D22*
X79663D3*
D21*
X77123Y15392D3*
D22*
X79663D3*
D21*
X77123Y17932D3*
D22*
X79663D3*
D21*
X77123Y20472D3*
D22*
X79663D3*
D21*
X77123Y23013D3*
D22*
X79663D3*
D21*
X77123Y25553D3*
D22*
X79663D3*
D23*
X89031Y13334D3*
D24*
Y16834D3*
Y20334D3*
Y23834D3*
Y27334D3*
Y30834D3*
Y34334D3*
Y37834D3*
Y41334D3*
Y44834D3*
Y48334D3*
Y51834D3*
Y55334D3*
Y58834D3*
Y62334D3*
D25*
X23654Y24289D3*
D26*
X24924Y26829D3*
X26194Y24289D3*
X27464Y26829D3*
D25*
X41595Y24130D3*
D26*
X42865Y26670D3*
X44135Y24130D3*
X45405Y26670D3*
D27*
X32100Y52700D3*
D28*
X34640D3*
X37180D3*
D27*
X32140Y49560D3*
D28*
X34680D3*
X37220D3*
G36*
X79937Y29340D2*
X80187Y29590D1*
Y30090D1*
X79937Y30340D1*
X78437D1*
X78187Y30090D1*
Y29590D1*
X78437Y29340D1*
X79937D1*
G37*
D29*
X79187Y31110D3*
Y32380D3*
G36*
X79937Y35373D2*
X80187Y35623D1*
Y36123D1*
X79937Y36373D1*
X78437D1*
X78187Y36123D1*
Y35623D1*
X78437Y35373D1*
X79937D1*
G37*
D29*
X79187Y37143D3*
Y38413D3*
G36*
X79937Y41565D2*
X80187Y41815D1*
Y42315D1*
X79937Y42565D1*
X78437D1*
X78187Y42315D1*
Y41815D1*
X78437Y41565D1*
X79937D1*
G37*
D29*
X79187Y43335D3*
Y44605D3*
G36*
X79778Y47598D2*
X80028Y47848D1*
Y48348D1*
X79778Y48598D1*
X78278D1*
X78028Y48348D1*
Y47848D1*
X78278Y47598D1*
X79778D1*
G37*
D29*
X79028Y49368D3*
Y50638D3*
G36*
X79620Y53790D2*
X79870Y54040D1*
Y54540D1*
X79620Y54790D1*
X78120D1*
X77870Y54540D1*
Y54040D1*
X78120Y53790D1*
X79620D1*
G37*
D29*
X78870Y55560D3*
Y56830D3*
G36*
X79620Y60140D2*
X79870Y60390D1*
Y60890D1*
X79620Y61140D1*
X78120D1*
X77870Y60890D1*
Y60390D1*
X78120Y60140D1*
X79620D1*
G37*
D29*
X78870Y61910D3*
Y63180D3*
D21*
X71125Y53378D3*
D30*
Y45758D3*
D25*
X71284Y37149D3*
D31*
Y34609D3*
Y32069D3*
Y29529D3*
Y26989D3*
Y24449D3*
Y21909D3*
Y19369D3*
D25*
X15857Y54613D3*
D31*
Y52613D3*
Y50613D3*
D32*
Y56713D3*
Y48513D3*
D33*
X45000Y41000D3*
D34*
X44963Y39730D3*
Y38460D3*
Y37190D3*
Y35920D3*
Y34650D3*
Y33380D3*
X50690D3*
Y34650D3*
Y35920D3*
Y37190D3*
Y38460D3*
Y39730D3*
Y41000D3*
D33*
X45000Y54800D3*
D34*
X44963Y53530D3*
Y52260D3*
Y50990D3*
Y49720D3*
Y48450D3*
Y47180D3*
X50690D3*
Y48450D3*
Y49720D3*
Y50990D3*
Y52260D3*
Y53530D3*
Y54800D3*
D25*
X58465Y29211D3*
D31*
Y26671D3*
Y24131D3*
Y21591D3*
Y19051D3*
Y16511D3*
Y13971D3*
X66085D3*
Y16511D3*
Y19051D3*
Y21591D3*
Y24131D3*
Y26671D3*
Y29211D3*
D25*
X58365Y53343D3*
D31*
Y50803D3*
Y48263D3*
Y45723D3*
Y43183D3*
Y40643D3*
Y38103D3*
X65985D3*
Y40643D3*
Y43183D3*
Y45723D3*
Y48263D3*
Y50803D3*
Y53343D3*
D35*
X37400Y38900D3*
Y36360D3*
D36*
Y33820D3*
D26*
X15700Y27900D3*
Y25360D3*
Y22820D3*
Y20280D3*
Y17740D3*
M02*
