G04 DipTrace 2.4.0.1*
%INTopMask.gbr*%
%MOMM*%
%ADD39C,3.2*%
%ADD40C,3.6*%
%ADD52R,2.1X2.1*%
%ADD53R,1.7X1.7*%
%ADD54C,2.1*%
%ADD55C,1.7*%
%ADD56O,2.7X0.8*%
%ADD58R,2.7X0.8*%
%ADD60C,2.4*%
%ADD62C,1.7*%
%ADD64C,1.47*%
%ADD66O,2.2X1.2*%
%ADD68C,1.724*%
%ADD70R,1.724X1.724*%
%ADD74C,2.7*%
%ADD76R,2.7X2.7*%
%ADD78R,1.47X1.47*%
%ADD80C,1.47*%
%ADD82C,1.85*%
%ADD84C,1.55*%
%ADD86R,1.55X1.55*%
%FSLAX53Y53*%
G04*
G71*
G90*
G75*
G01*
%LNTopMask*%
%LPD*%
D86*
X24100Y47300D3*
D84*
Y52300D3*
D82*
X36900Y44200D3*
X34360D3*
D80*
X77123Y12852D3*
D78*
X79663D3*
D80*
X77123Y15392D3*
D78*
X79663D3*
D80*
X77123Y17932D3*
D78*
X79663D3*
D80*
X77123Y20472D3*
D78*
X79663D3*
D80*
X77123Y23013D3*
D78*
X79663D3*
D80*
X77123Y25553D3*
D78*
X79663D3*
D76*
X89031Y13334D3*
D74*
Y16834D3*
Y20334D3*
Y23834D3*
Y27334D3*
Y30834D3*
Y34334D3*
Y37834D3*
Y41334D3*
Y44834D3*
Y48334D3*
Y51834D3*
Y55334D3*
Y58834D3*
Y62334D3*
D53*
X23654Y24289D3*
D55*
X24924Y26829D3*
X26194Y24289D3*
X27464Y26829D3*
D39*
X20474Y17939D3*
X30634D3*
D53*
X41595Y24130D3*
D55*
X42865Y26670D3*
X44135Y24130D3*
X45405Y26670D3*
D39*
X38415Y17780D3*
X48575D3*
D70*
X32100Y52700D3*
D68*
X34640D3*
X37180D3*
D70*
X32140Y49560D3*
D68*
X34680D3*
X37220D3*
G36*
X79979Y29240D2*
X80287Y29548D1*
Y30131D1*
X79979Y30440D1*
X78396D1*
X78087Y30131D1*
Y29548D1*
X78396Y29240D1*
X79979D1*
G37*
D66*
X79187Y31110D3*
Y32380D3*
G36*
X79979Y35273D2*
X80287Y35581D1*
Y36164D1*
X79979Y36473D1*
X78396D1*
X78087Y36164D1*
Y35581D1*
X78396Y35273D1*
X79979D1*
G37*
D66*
X79187Y37143D3*
Y38413D3*
G36*
X79979Y41465D2*
X80287Y41773D1*
Y42356D1*
X79979Y42665D1*
X78396D1*
X78087Y42356D1*
Y41773D1*
X78396Y41465D1*
X79979D1*
G37*
D66*
X79187Y43335D3*
Y44605D3*
G36*
X79820Y47498D2*
X80128Y47806D1*
Y48389D1*
X79820Y48698D1*
X78237D1*
X77928Y48389D1*
Y47806D1*
X78237Y47498D1*
X79820D1*
G37*
D66*
X79028Y49368D3*
Y50638D3*
G36*
X79661Y53690D2*
X79970Y53998D1*
Y54581D1*
X79661Y54890D1*
X78078D1*
X77770Y54581D1*
Y53998D1*
X78078Y53690D1*
X79661D1*
G37*
D66*
X78870Y55560D3*
Y56830D3*
G36*
X79661Y60040D2*
X79970Y60349D1*
Y60932D1*
X79661Y61240D1*
X78078D1*
X77770Y60932D1*
Y60349D1*
X78078Y60040D1*
X79661D1*
G37*
D66*
X78870Y61910D3*
Y63180D3*
D80*
X71125Y53378D3*
D64*
Y45758D3*
D53*
X71284Y37149D3*
D62*
Y34609D3*
Y32069D3*
Y29529D3*
Y26989D3*
Y24449D3*
Y21909D3*
Y19369D3*
D53*
X15557Y54613D3*
D62*
Y52613D3*
Y50613D3*
D60*
Y56713D3*
Y48513D3*
D58*
X45000Y41000D3*
D56*
X44963Y39730D3*
Y38460D3*
Y37190D3*
Y35920D3*
Y34650D3*
Y33380D3*
X50690D3*
Y34650D3*
Y35920D3*
Y37190D3*
Y38460D3*
Y39730D3*
Y41000D3*
D58*
X45000Y54800D3*
D56*
X44963Y53530D3*
Y52260D3*
Y50990D3*
Y49720D3*
Y48450D3*
Y47180D3*
X50690D3*
Y48450D3*
Y49720D3*
Y50990D3*
Y52260D3*
Y53530D3*
Y54800D3*
D53*
X58465Y29211D3*
D62*
Y26671D3*
Y24131D3*
Y21591D3*
Y19051D3*
Y16511D3*
Y13971D3*
X66085D3*
Y16511D3*
Y19051D3*
Y21591D3*
Y24131D3*
Y26671D3*
Y29211D3*
D53*
X58365Y53343D3*
D62*
Y50803D3*
Y48263D3*
Y45723D3*
Y43183D3*
Y40643D3*
Y38103D3*
X65985D3*
Y40643D3*
Y43183D3*
Y45723D3*
Y48263D3*
Y50803D3*
Y53343D3*
D54*
X37400Y38900D3*
Y36360D3*
D52*
Y33820D3*
D40*
X19800Y36360D3*
D55*
X15700Y27900D3*
Y25360D3*
Y22820D3*
Y20280D3*
Y17740D3*
M02*
