G04 DipTrace 2.4.0.1*
%INTopSilk.gbr*%
%MOMM*%
%ADD10C,0.25*%
%ADD15C,0.635*%
%ADD88C,0.196*%
%ADD89C,0.157*%
%ADD90C,0.235*%
%ADD91C,0.118*%
%FSLAX53Y53*%
G04*
G71*
G90*
G75*
G01*
%LNTopSilk*%
%LPD*%
X24100Y54800D2*
D10*
G02X24100Y54800I0J-5000D01*
G01*
X24400Y45800D2*
X23800D1*
X24100Y45500D2*
Y46100D1*
X38180Y42950D2*
X33080D1*
X38180Y45450D2*
X33080D1*
X38180D2*
Y42950D1*
X33080Y45450D2*
Y42950D1*
X75894Y13852D2*
X80893D1*
Y11852D1*
X75894D1*
Y13852D1*
X75893Y16392D2*
X80893D1*
Y14392D1*
X75893D1*
Y16392D1*
Y18932D2*
X80893D1*
Y16932D1*
X75893D1*
Y18932D1*
Y21472D2*
X80893D1*
Y19472D1*
X75893D1*
Y21472D1*
Y24013D2*
X80893D1*
Y22013D1*
X75893D1*
Y24013D1*
Y26553D2*
X80893D1*
Y24553D1*
X75893D1*
Y26553D1*
X85931Y64084D2*
X92931D1*
Y11584D1*
X85931D1*
Y64084D1*
X18954Y28089D2*
X32154D1*
Y10089D1*
X18954D1*
Y28089D1*
X36895Y27930D2*
X50094D1*
Y9930D1*
X36895D1*
Y27930D1*
X30830Y52192D2*
Y53208D1*
X38450Y52192D2*
Y53208D1*
X31462Y53970D2*
X37818D1*
X31462Y51430D2*
X37818D1*
X30830Y52065D2*
X31462Y51430D1*
X30830Y53335D2*
X31462Y53970D1*
X37818D2*
X38450Y53335D1*
X37818Y51430D2*
X38450Y52065D1*
X30870Y49052D2*
Y50068D1*
X38490Y49052D2*
Y50068D1*
X31502Y50830D2*
X37858D1*
X31502Y48290D2*
X37858D1*
X30870Y48925D2*
X31502Y48290D1*
X30870Y50195D2*
X31502Y50830D1*
X37858D2*
X38490Y50195D1*
X37858Y48290D2*
X38490Y48925D1*
X80537Y29189D2*
G02X80537Y33030I-1691J1921D01*
G01*
Y29189D1*
Y35222D2*
G02X80537Y39064I-1691J1921D01*
G01*
Y35222D1*
Y41414D2*
G02X80537Y45255I-1691J1921D01*
G01*
Y41414D1*
X80378Y47447D2*
G02X80378Y51289I-1691J1921D01*
G01*
Y47447D1*
X80219Y53639D2*
G02X80219Y57480I-1691J1921D01*
G01*
Y53639D1*
Y59990D2*
G02X80219Y63831I-1691J1921D01*
G01*
Y59990D1*
X71887Y51604D2*
X70363D1*
X71887Y47532D2*
Y51604D1*
Y47532D2*
X70363D1*
Y51604D1*
X72484Y38409D2*
X70084D1*
Y18109D1*
X72484D1*
Y38409D1*
X17757Y56914D2*
Y48313D1*
X16957D1*
Y56914D2*
X17757D1*
X14157D2*
X13357D1*
Y48313D1*
X14157D1*
X46660Y41540D2*
X48960D1*
Y32840D1*
X46660D1*
Y41540D1*
D15*
X47174Y41000D3*
X46660Y55340D2*
D10*
X48960D1*
Y46640D1*
X46660D1*
Y55340D1*
D15*
X47174Y54800D3*
X64875Y31391D2*
D10*
Y11791D1*
X59675D2*
X64875D1*
X59675Y31391D2*
Y11791D1*
Y31391D2*
X61675D1*
X64875D2*
X62875D1*
X61675D2*
G03X62875Y31391I600J0D01*
G01*
X64775Y55523D2*
Y35923D1*
X59575D2*
X64775D1*
X59575Y55523D2*
Y35923D1*
Y55523D2*
X61575D1*
X64775D2*
X62775D1*
X61575D2*
G03X62775Y55523I600J0D01*
G01*
X23399Y31360D2*
Y41360D1*
X24699Y31360D2*
Y41260D1*
X16900Y31360D2*
X31900D1*
Y41360D1*
X16900D1*
Y31360D1*
G36*
X34300Y47600D2*
X38000D1*
Y47300D1*
X34300D1*
Y47600D1*
G37*
G36*
X31400Y54700D2*
X35100D1*
Y54400D1*
X31400D1*
Y54700D1*
G37*
G36*
Y55100D2*
X35100D1*
Y54800D1*
X31400D1*
Y55100D1*
G37*
G36*
X34300Y48000D2*
X38000D1*
Y47700D1*
X34300D1*
Y48000D1*
G37*
X24107Y43657D2*
D88*
X24047Y43777D1*
X23925Y43900D1*
X23804Y43960D1*
X23561D1*
X23439Y43900D1*
X23318Y43777D1*
X23256Y43657D1*
X23196Y43474D1*
Y43170D1*
X23256Y42988D1*
X23318Y42866D1*
X23439Y42746D1*
X23561Y42684D1*
X23804D1*
X23925Y42746D1*
X24047Y42866D1*
X24107Y42988D1*
X24499Y43716D2*
X24621Y43777D1*
X24804Y43958D1*
Y42684D1*
X22088Y49293D2*
Y50568D1*
X21480Y49719D1*
X22391D1*
X23026Y49293D2*
X23634Y50568D1*
X22783D1*
X24391D2*
X24209Y50507D1*
X24087Y50325D1*
X24026Y50022D1*
Y49839D1*
X24087Y49536D1*
X24209Y49354D1*
X24391Y49293D1*
X24512D1*
X24694Y49354D1*
X24815Y49536D1*
X24877Y49839D1*
Y50022D1*
X24815Y50325D1*
X24694Y50507D1*
X24512Y50568D1*
X24391D1*
X24815Y50325D2*
X24087Y49536D1*
X25269Y50144D2*
Y49536D1*
X25330Y49355D1*
X25452Y49293D1*
X25634D1*
X25755Y49355D1*
X25937Y49536D1*
Y50144D2*
Y49293D1*
X27120Y50569D2*
X26330D1*
Y49293D1*
Y49961D2*
X26815D1*
X31364Y44507D2*
X31304Y44627D1*
X31182Y44750D1*
X31061Y44810D1*
X30818D1*
X30696Y44750D1*
X30575Y44627D1*
X30513Y44507D1*
X30453Y44324D1*
Y44020D1*
X30513Y43838D1*
X30575Y43716D1*
X30696Y43596D1*
X30818Y43534D1*
X31061D1*
X31182Y43596D1*
X31304Y43716D1*
X31364Y43838D1*
X31818Y44505D2*
Y44566D1*
X31878Y44688D1*
X31939Y44748D1*
X32061Y44808D1*
X32304D1*
X32424Y44748D1*
X32485Y44688D1*
X32547Y44566D1*
Y44445D1*
X32485Y44323D1*
X32364Y44142D1*
X31756Y43534D1*
X32607D1*
X38656Y44575D2*
X38778Y44637D1*
X38961Y44818D1*
Y43543D1*
X39353Y44394D2*
Y43786D1*
X39413Y43605D1*
X39536Y43543D1*
X39718D1*
X39839Y43605D1*
X40021Y43786D1*
Y44394D2*
Y43543D1*
X41204Y44819D2*
X40413D1*
Y43543D1*
Y44211D2*
X40899D1*
X81476Y13489D2*
Y12213D1*
X81901D1*
X82084Y12274D1*
X82206Y12395D1*
X82266Y12517D1*
X82327Y12698D1*
Y13003D1*
X82266Y13186D1*
X82206Y13306D1*
X82084Y13428D1*
X81901Y13489D1*
X81476D1*
X82719Y13244D2*
X82841Y13306D1*
X83024Y13487D1*
Y12213D1*
X81362Y16029D2*
Y14753D1*
X81787D1*
X81969Y14815D1*
X82092Y14935D1*
X82152Y15058D1*
X82212Y15239D1*
Y15543D1*
X82152Y15726D1*
X82092Y15847D1*
X81969Y15969D1*
X81787Y16029D1*
X81362D1*
X82666Y15724D2*
Y15785D1*
X82727Y15907D1*
X82787Y15967D1*
X82909Y16028D1*
X83152D1*
X83273Y15967D1*
X83333Y15907D1*
X83395Y15785D1*
Y15664D1*
X83333Y15542D1*
X83212Y15361D1*
X82604Y14753D1*
X83455D1*
X81362Y18569D2*
Y17293D1*
X81787D1*
X81969Y17355D1*
X82092Y17476D1*
X82152Y17598D1*
X82212Y17779D1*
Y18084D1*
X82152Y18266D1*
X82092Y18387D1*
X81969Y18509D1*
X81787Y18569D1*
X81362D1*
X82727Y18568D2*
X83393D1*
X83030Y18082D1*
X83212D1*
X83333Y18022D1*
X83393Y17961D1*
X83455Y17779D1*
Y17658D1*
X83393Y17476D1*
X83273Y17354D1*
X83090Y17293D1*
X82908D1*
X82727Y17354D1*
X82666Y17415D1*
X82604Y17536D1*
X81331Y21110D2*
Y19833D1*
X81757D1*
X81939Y19895D1*
X82061Y20016D1*
X82122Y20138D1*
X82182Y20319D1*
Y20624D1*
X82122Y20806D1*
X82061Y20927D1*
X81939Y21049D1*
X81757Y21110D1*
X81331D1*
X83182Y19833D2*
Y21108D1*
X82574Y20259D1*
X83485D1*
X81362Y23650D2*
Y22374D1*
X81787D1*
X81969Y22436D1*
X82092Y22556D1*
X82152Y22678D1*
X82212Y22859D1*
Y23164D1*
X82152Y23347D1*
X82092Y23467D1*
X81969Y23589D1*
X81787Y23650D1*
X81362D1*
X83333Y23648D2*
X82727D1*
X82666Y23102D1*
X82727Y23163D1*
X82909Y23224D1*
X83090D1*
X83273Y23163D1*
X83395Y23042D1*
X83455Y22859D1*
Y22739D1*
X83395Y22556D1*
X83273Y22434D1*
X83090Y22374D1*
X82909D1*
X82727Y22434D1*
X82666Y22496D1*
X82604Y22617D1*
X81392Y26190D2*
Y24914D1*
X81818D1*
X82000Y24976D1*
X82122Y25097D1*
X82183Y25219D1*
X82243Y25400D1*
Y25704D1*
X82183Y25887D1*
X82122Y26008D1*
X82000Y26130D1*
X81818Y26190D1*
X81392D1*
X83364Y26008D2*
X83304Y26128D1*
X83121Y26189D1*
X83000D1*
X82818Y26128D1*
X82696Y25946D1*
X82635Y25643D1*
Y25339D1*
X82696Y25097D1*
X82818Y24974D1*
X83000Y24914D1*
X83061D1*
X83242Y24974D1*
X83364Y25097D1*
X83424Y25279D1*
Y25339D1*
X83364Y25522D1*
X83242Y25643D1*
X83061Y25703D1*
X83000D1*
X82818Y25643D1*
X82696Y25522D1*
X82635Y25339D1*
X84090Y12281D2*
Y11309D1*
X84030Y11127D1*
X83968Y11067D1*
X83848Y11005D1*
X83725D1*
X83605Y11067D1*
X83544Y11127D1*
X83483Y11309D1*
Y11430D1*
X84483Y12037D2*
X84605Y12098D1*
X84787Y12279D1*
Y11005D1*
X21936Y29849D2*
Y28877D1*
X21876Y28695D1*
X21814Y28635D1*
X21694Y28573D1*
X21571D1*
X21451Y28635D1*
X21390Y28695D1*
X21329Y28877D1*
Y28998D1*
X22390Y29544D2*
Y29605D1*
X22451Y29727D1*
X22511Y29787D1*
X22633Y29847D1*
X22876D1*
X22997Y29787D1*
X23057Y29727D1*
X23119Y29605D1*
Y29484D1*
X23057Y29362D1*
X22936Y29181D1*
X22329Y28573D1*
X23179D1*
X39077Y29890D2*
Y28918D1*
X39017Y28736D1*
X38955Y28676D1*
X38834Y28614D1*
X38712D1*
X38591Y28676D1*
X38531Y28736D1*
X38469Y28918D1*
Y29039D1*
X39591Y29888D2*
X40258D1*
X39895Y29403D1*
X40077D1*
X40198Y29342D1*
X40258Y29282D1*
X40320Y29100D1*
Y28979D1*
X40258Y28796D1*
X40137Y28674D1*
X39955Y28614D1*
X39772D1*
X39591Y28674D1*
X39531Y28736D1*
X39469Y28857D1*
X81276Y30448D2*
X81156Y30389D1*
X81034Y30267D1*
X80973Y30145D1*
X80911Y29962D1*
Y29659D1*
X80973Y29477D1*
X81034Y29356D1*
X81156Y29234D1*
X81276Y29173D1*
X81519D1*
X81641Y29234D1*
X81762Y29356D1*
X81822Y29477D1*
X81884Y29659D1*
Y29962D1*
X81822Y30145D1*
X81762Y30267D1*
X81641Y30389D1*
X81519Y30448D1*
X81276D1*
X81459Y29416D2*
X81822Y29051D1*
X82276Y30204D2*
X82399Y30265D1*
X82581Y30447D1*
Y29172D1*
X81321Y36481D2*
X81200Y36422D1*
X81078Y36300D1*
X81018Y36178D1*
X80956Y35995D1*
Y35692D1*
X81018Y35510D1*
X81078Y35389D1*
X81200Y35267D1*
X81321Y35206D1*
X81564D1*
X81686Y35267D1*
X81807Y35389D1*
X81867Y35510D1*
X81929Y35692D1*
Y35995D1*
X81867Y36178D1*
X81807Y36300D1*
X81686Y36422D1*
X81564Y36481D1*
X81321D1*
X81503Y35449D2*
X81867Y35084D1*
X82383Y36176D2*
Y36237D1*
X82443Y36359D1*
X82503Y36419D1*
X82626Y36480D1*
X82868D1*
X82989Y36419D1*
X83049Y36359D1*
X83111Y36237D1*
Y36116D1*
X83049Y35994D1*
X82929Y35813D1*
X82321Y35205D1*
X83172D1*
X81321Y42832D2*
X81200Y42773D1*
X81078Y42651D1*
X81018Y42529D1*
X80956Y42346D1*
Y42043D1*
X81018Y41860D1*
X81078Y41740D1*
X81200Y41617D1*
X81321Y41557D1*
X81564D1*
X81686Y41617D1*
X81807Y41740D1*
X81867Y41860D1*
X81929Y42043D1*
Y42346D1*
X81867Y42529D1*
X81807Y42651D1*
X81686Y42773D1*
X81564Y42832D1*
X81321D1*
X81503Y41800D2*
X81867Y41435D1*
X82443Y42830D2*
X83110D1*
X82746Y42345D1*
X82929D1*
X83049Y42284D1*
X83110Y42224D1*
X83172Y42041D1*
Y41921D1*
X83110Y41738D1*
X82989Y41616D1*
X82807Y41556D1*
X82624D1*
X82443Y41616D1*
X82383Y41678D1*
X82321Y41799D1*
X81291Y48865D2*
X81170Y48806D1*
X81048Y48684D1*
X80987Y48562D1*
X80926Y48379D1*
Y48076D1*
X80987Y47893D1*
X81048Y47773D1*
X81170Y47651D1*
X81291Y47590D1*
X81534D1*
X81656Y47651D1*
X81776Y47773D1*
X81837Y47893D1*
X81899Y48076D1*
Y48379D1*
X81837Y48562D1*
X81776Y48684D1*
X81656Y48806D1*
X81534Y48865D1*
X81291D1*
X81473Y47833D2*
X81837Y47468D1*
X82899Y47589D2*
Y48864D1*
X82291Y48014D1*
X83202D1*
X81003Y54898D2*
X80883Y54839D1*
X80760Y54717D1*
X80700Y54595D1*
X80638Y54412D1*
Y54109D1*
X80700Y53927D1*
X80760Y53806D1*
X80883Y53684D1*
X81003Y53623D1*
X81246D1*
X81368Y53684D1*
X81489Y53806D1*
X81549Y53927D1*
X81611Y54109D1*
Y54412D1*
X81549Y54595D1*
X81489Y54717D1*
X81368Y54839D1*
X81246Y54898D1*
X81003D1*
X81186Y53866D2*
X81549Y53501D1*
X82732Y54897D2*
X82125D1*
X82065Y54351D1*
X82125Y54411D1*
X82308Y54473D1*
X82489D1*
X82672Y54411D1*
X82794Y54290D1*
X82854Y54108D1*
Y53987D1*
X82794Y53804D1*
X82672Y53682D1*
X82489Y53622D1*
X82308D1*
X82125Y53682D1*
X82065Y53744D1*
X82003Y53865D1*
X81034Y61249D2*
X80913Y61190D1*
X80791Y61068D1*
X80731Y60945D1*
X80669Y60763D1*
Y60460D1*
X80731Y60277D1*
X80791Y60157D1*
X80913Y60034D1*
X81034Y59974D1*
X81277D1*
X81399Y60034D1*
X81520Y60157D1*
X81580Y60277D1*
X81642Y60460D1*
Y60763D1*
X81580Y60945D1*
X81520Y61068D1*
X81399Y61190D1*
X81277Y61249D1*
X81034D1*
X81217Y60217D2*
X81580Y59852D1*
X82763Y61066D2*
X82702Y61187D1*
X82520Y61247D1*
X82399D1*
X82217Y61187D1*
X82095Y61004D1*
X82034Y60701D1*
Y60398D1*
X82095Y60155D1*
X82217Y60033D1*
X82399Y59973D1*
X82460D1*
X82641Y60033D1*
X82763Y60155D1*
X82823Y60338D1*
Y60398D1*
X82763Y60580D1*
X82641Y60701D1*
X82460Y60762D1*
X82399D1*
X82217Y60701D1*
X82095Y60580D1*
X82034Y60398D1*
X73111Y45694D2*
Y46240D1*
X73049Y46423D1*
X72989Y46485D1*
X72868Y46545D1*
X72746D1*
X72625Y46485D1*
X72564Y46423D1*
X72503Y46240D1*
Y45694D1*
X73779D1*
X73111Y46120D2*
X73779Y46545D1*
X72747Y46937D2*
X72686Y47059D1*
X72505Y47242D1*
X73779D1*
X73853Y49620D2*
X72578D1*
X73427Y49012D1*
Y49924D1*
X73730Y50376D2*
X73792Y50316D1*
X73853Y50376D1*
X73792Y50438D1*
X73730Y50376D1*
X73853Y51073D2*
X72578Y51681D1*
Y50830D1*
X72577Y52073D2*
X73853D1*
X72577Y52924D2*
X73427Y52073D1*
X73123Y52376D2*
X73853Y52924D1*
X70896Y39120D2*
Y39666D1*
X70834Y39848D1*
X70774Y39910D1*
X70653Y39971D1*
X70531D1*
X70410Y39910D1*
X70348Y39848D1*
X70288Y39666D1*
Y39120D1*
X71564D1*
X70896Y39545D2*
X71564Y39971D1*
X70593Y40424D2*
X70532D1*
X70410Y40485D1*
X70350Y40545D1*
X70289Y40667D1*
Y40910D1*
X70350Y41031D1*
X70410Y41091D1*
X70532Y41153D1*
X70653D1*
X70775Y41091D1*
X70956Y40971D1*
X71564Y40363D1*
Y41213D1*
X19127Y55045D2*
X19006Y55167D1*
X18823Y55228D1*
X18581D1*
X18398Y55167D1*
X18276Y55045D1*
Y54925D1*
X18338Y54802D1*
X18398Y54742D1*
X18519Y54682D1*
X18884Y54560D1*
X19006Y54499D1*
X19066Y54437D1*
X19127Y54317D1*
Y54134D1*
X19006Y54014D1*
X18823Y53952D1*
X18581D1*
X18398Y54014D1*
X18276Y54134D1*
X19519Y54984D2*
X19641Y55045D1*
X19823Y55226D1*
Y53952D1*
X44162Y42995D2*
Y42084D1*
X44223Y41901D1*
X44345Y41781D1*
X44527Y41719D1*
X44648D1*
X44831Y41781D1*
X44953Y41901D1*
X45013Y42084D1*
Y42995D1*
X45405Y42751D2*
X45527Y42812D1*
X45710Y42994D1*
Y41719D1*
X43989Y56836D2*
Y55925D1*
X44050Y55743D1*
X44172Y55622D1*
X44354Y55560D1*
X44475D1*
X44657Y55622D1*
X44780Y55743D1*
X44840Y55925D1*
Y56836D1*
X45294Y56532D2*
Y56592D1*
X45354Y56714D1*
X45415Y56774D1*
X45537Y56835D1*
X45780D1*
X45900Y56774D1*
X45961Y56714D1*
X46023Y56592D1*
Y56471D1*
X45961Y56349D1*
X45840Y56168D1*
X45232Y55560D1*
X46083D1*
X56942Y31980D2*
Y31069D1*
X57002Y30887D1*
X57124Y30766D1*
X57307Y30704D1*
X57427D1*
X57610Y30766D1*
X57732Y30887D1*
X57792Y31069D1*
Y31980D1*
X58307Y31979D2*
X58973D1*
X58610Y31493D1*
X58792D1*
X58913Y31433D1*
X58973Y31373D1*
X59035Y31190D1*
Y31069D1*
X58973Y30887D1*
X58853Y30765D1*
X58670Y30704D1*
X58488D1*
X58307Y30765D1*
X58246Y30827D1*
X58184Y30947D1*
X56970Y55954D2*
Y55043D1*
X57031Y54861D1*
X57153Y54740D1*
X57335Y54678D1*
X57456D1*
X57638Y54740D1*
X57761Y54861D1*
X57821Y55043D1*
Y55954D1*
X58821Y54678D2*
Y55953D1*
X58213Y55104D1*
X59124D1*
X36378Y32320D2*
Y31409D1*
X36439Y31226D1*
X36561Y31106D1*
X36743Y31044D1*
X36864D1*
X37046Y31106D1*
X37169Y31226D1*
X37229Y31409D1*
Y32320D1*
X38350Y32318D2*
X37743D1*
X37683Y31772D1*
X37743Y31833D1*
X37926Y31895D1*
X38107D1*
X38289Y31833D1*
X38411Y31712D1*
X38472Y31530D1*
Y31409D1*
X38411Y31226D1*
X38289Y31104D1*
X38107Y31044D1*
X37926D1*
X37743Y31104D1*
X37683Y31166D1*
X37621Y31287D1*
X77958Y12852D2*
D89*
X78395D1*
X78541Y12901D1*
X78590Y12950D1*
X78639Y13046D1*
Y13144D1*
X78590Y13240D1*
X78541Y13290D1*
X78395Y13338D1*
X77958D1*
Y12317D1*
X78298Y12852D2*
X78639Y12317D1*
X78687Y15636D2*
X78639Y15732D1*
X78541Y15830D1*
X78444Y15878D1*
X78250D1*
X78152Y15830D1*
X78056Y15732D1*
X78006Y15636D1*
X77958Y15490D1*
Y15246D1*
X78006Y15101D1*
X78056Y15004D1*
X78152Y14907D1*
X78250Y14858D1*
X78444D1*
X78541Y14907D1*
X78639Y15004D1*
X78687Y15101D1*
Y15246D1*
X78444D1*
X77958Y18419D2*
Y17398D1*
X78396D1*
X78542Y17447D1*
X78590Y17496D1*
X78639Y17592D1*
Y17738D1*
X78590Y17836D1*
X78542Y17884D1*
X78396Y17932D1*
X78542Y17982D1*
X78590Y18030D1*
X78639Y18127D1*
Y18224D1*
X78590Y18321D1*
X78542Y18370D1*
X78396Y18419D1*
X77958D1*
Y17932D2*
X78396D1*
X77958Y20473D2*
X78395D1*
X78541Y20522D1*
X78590Y20570D1*
X78639Y20667D1*
Y20765D1*
X78590Y20861D1*
X78541Y20911D1*
X78395Y20959D1*
X77958D1*
Y19938D1*
X78298Y20473D2*
X78639Y19938D1*
X78687Y23257D2*
X78639Y23353D1*
X78541Y23451D1*
X78444Y23499D1*
X78250D1*
X78152Y23451D1*
X78056Y23353D1*
X78006Y23257D1*
X77958Y23111D1*
Y22867D1*
X78006Y22722D1*
X78056Y22624D1*
X78152Y22528D1*
X78250Y22478D1*
X78444D1*
X78541Y22528D1*
X78639Y22624D1*
X78687Y22722D1*
Y22867D1*
X78444D1*
X77958Y26039D2*
Y25019D1*
X78396D1*
X78542Y25068D1*
X78590Y25116D1*
X78639Y25213D1*
Y25359D1*
X78590Y25457D1*
X78542Y25505D1*
X78396Y25553D1*
X78542Y25603D1*
X78590Y25651D1*
X78639Y25747D1*
Y25845D1*
X78590Y25942D1*
X78542Y25991D1*
X78396Y26039D1*
X77958D1*
Y25553D2*
X78396D1*
X61403Y27353D2*
D90*
X62932Y26623D1*
Y27644D1*
X61403Y25423D2*
X62932D1*
X61913Y26153D1*
Y25060D1*
X62932Y24225D2*
X62860Y24442D1*
X62715Y24517D1*
X62569D1*
X62424Y24442D1*
X62350Y24298D1*
X62277Y24006D1*
X62205Y23787D1*
X62058Y23642D1*
X61913Y23570D1*
X61694D1*
X61549Y23642D1*
X61475Y23715D1*
X61403Y23934D1*
Y24225D1*
X61475Y24442D1*
X61549Y24517D1*
X61694Y24589D1*
X61913D1*
X62058Y24517D1*
X62205Y24370D1*
X62277Y24153D1*
X62350Y23861D1*
X62424Y23715D1*
X62569Y23642D1*
X62715D1*
X62860Y23715D1*
X62932Y23934D1*
Y24225D1*
X62715Y22225D2*
X62860Y22297D1*
X62932Y22516D1*
Y22661D1*
X62860Y22880D1*
X62641Y23027D1*
X62277Y23099D1*
X61913D1*
X61622Y23027D1*
X61475Y22880D1*
X61403Y22661D1*
Y22589D1*
X61475Y22371D1*
X61622Y22225D1*
X61841Y22152D1*
X61913D1*
X62132Y22225D1*
X62277Y22371D1*
X62350Y22589D1*
Y22661D1*
X62277Y22880D1*
X62132Y23027D1*
X61913Y23099D1*
X62934Y20201D2*
X61403Y19180D1*
X62934D2*
X61403Y20201D1*
X62934Y18271D2*
X62862Y18418D1*
X62715Y18562D1*
X62570Y18637D1*
X62351Y18709D1*
X61986D1*
X61768Y18637D1*
X61622Y18562D1*
X61477Y18418D1*
X61403Y18271D1*
Y17980D1*
X61477Y17835D1*
X61622Y17688D1*
X61768Y17616D1*
X61986Y17543D1*
X62351D1*
X62570Y17616D1*
X62715Y17688D1*
X62862Y17835D1*
X62934Y17980D1*
Y18271D1*
X62205Y17073D2*
Y16417D1*
X62279Y16198D1*
X62351Y16124D1*
X62496Y16052D1*
X62643D1*
X62788Y16124D1*
X62862Y16198D1*
X62934Y16417D1*
Y17073D1*
X61403D1*
X62205Y16562D2*
X61403Y16052D1*
X61503Y51053D2*
X63032Y50323D1*
Y51344D1*
X61503Y49123D2*
X63032D1*
X62013Y49853D1*
Y48760D1*
X63032Y47925D2*
X62960Y48142D1*
X62815Y48217D1*
X62669D1*
X62524Y48142D1*
X62450Y47998D1*
X62377Y47706D1*
X62305Y47487D1*
X62158Y47342D1*
X62013Y47270D1*
X61794D1*
X61649Y47342D1*
X61575Y47415D1*
X61503Y47634D1*
Y47925D1*
X61575Y48142D1*
X61649Y48217D1*
X61794Y48289D1*
X62013D1*
X62158Y48217D1*
X62305Y48070D1*
X62377Y47853D1*
X62450Y47561D1*
X62524Y47415D1*
X62669Y47342D1*
X62815D1*
X62960Y47415D1*
X63032Y47634D1*
Y47925D1*
X62815Y45925D2*
X62960Y45997D1*
X63032Y46216D1*
Y46361D1*
X62960Y46580D1*
X62741Y46727D1*
X62377Y46799D1*
X62013D1*
X61722Y46727D1*
X61575Y46580D1*
X61503Y46361D1*
Y46289D1*
X61575Y46071D1*
X61722Y45925D1*
X61941Y45852D1*
X62013D1*
X62232Y45925D1*
X62377Y46071D1*
X62450Y46289D1*
Y46361D1*
X62377Y46580D1*
X62232Y46727D1*
X62013Y46799D1*
X63034Y43901D2*
X61503Y42880D1*
X63034D2*
X61503Y43901D1*
X63034Y41971D2*
X62962Y42118D1*
X62815Y42262D1*
X62670Y42337D1*
X62451Y42409D1*
X62086D1*
X61868Y42337D1*
X61722Y42262D1*
X61577Y42118D1*
X61503Y41971D1*
Y41680D1*
X61577Y41535D1*
X61722Y41388D1*
X61868Y41316D1*
X62086Y41243D1*
X62451D1*
X62670Y41316D1*
X62815Y41388D1*
X62962Y41535D1*
X63034Y41680D1*
Y41971D1*
X62305Y40773D2*
Y40117D1*
X62379Y39898D1*
X62451Y39824D1*
X62596Y39752D1*
X62743D1*
X62888Y39824D1*
X62962Y39898D1*
X63034Y40117D1*
Y40773D1*
X61503D1*
X62305Y40262D2*
X61503Y39752D1*
X57046Y28672D2*
D91*
X56754Y29438D1*
X56463Y28672D1*
X56572Y28927D2*
X56937D1*
X57282Y29291D2*
X57355Y29328D1*
X57465Y29437D1*
Y28672D1*
X56563Y27138D2*
Y26372D1*
X56891D1*
X57001Y26409D1*
X57037Y26445D1*
X57073Y26518D1*
Y26627D1*
X57037Y26700D1*
X57001Y26737D1*
X56891Y26773D1*
X57001Y26810D1*
X57037Y26846D1*
X57073Y26919D1*
Y26992D1*
X57037Y27064D1*
X57001Y27101D1*
X56891Y27138D1*
X56563D1*
Y26773D2*
X56891D1*
X57308Y26991D2*
X57382Y27028D1*
X57491Y27137D1*
Y26372D1*
X56463Y24538D2*
X56754Y24173D1*
Y23772D1*
X57046Y24538D2*
X56754Y24173D1*
X57281Y24391D2*
X57354Y24428D1*
X57464Y24537D1*
Y23772D1*
X56846Y21172D2*
X56554Y21938D1*
X56263Y21172D1*
X56372Y21427D2*
X56737D1*
X57119Y21755D2*
Y21791D1*
X57155Y21864D1*
X57191Y21901D1*
X57265Y21937D1*
X57410D1*
X57483Y21901D1*
X57519Y21864D1*
X57556Y21791D1*
Y21719D1*
X57519Y21645D1*
X57446Y21537D1*
X57082Y21172D1*
X57592D1*
X56363Y19438D2*
Y18672D1*
X56691D1*
X56801Y18709D1*
X56837Y18745D1*
X56873Y18818D1*
Y18927D1*
X56837Y19000D1*
X56801Y19037D1*
X56691Y19073D1*
X56801Y19110D1*
X56837Y19146D1*
X56873Y19219D1*
Y19292D1*
X56837Y19364D1*
X56801Y19401D1*
X56691Y19438D1*
X56363D1*
Y19073D2*
X56691D1*
X57146Y19255D2*
Y19291D1*
X57182Y19364D1*
X57218Y19401D1*
X57291Y19437D1*
X57437D1*
X57509Y19401D1*
X57546Y19364D1*
X57583Y19291D1*
Y19219D1*
X57546Y19145D1*
X57473Y19037D1*
X57108Y18672D1*
X57619D1*
X56263Y16938D2*
X56554Y16573D1*
Y16172D1*
X56846Y16938D2*
X56554Y16573D1*
X57118Y16755D2*
Y16791D1*
X57154Y16864D1*
X57190Y16901D1*
X57264Y16937D1*
X57409D1*
X57482Y16901D1*
X57518Y16864D1*
X57555Y16791D1*
Y16719D1*
X57518Y16645D1*
X57446Y16537D1*
X57081Y16172D1*
X57591D1*
X56909Y12856D2*
X56873Y12928D1*
X56800Y13001D1*
X56727Y13038D1*
X56582D1*
X56508Y13001D1*
X56436Y12928D1*
X56399Y12856D1*
X56363Y12746D1*
Y12563D1*
X56399Y12455D1*
X56436Y12381D1*
X56508Y12309D1*
X56582Y12272D1*
X56727D1*
X56800Y12309D1*
X56873Y12381D1*
X56909Y12455D1*
Y12563D1*
X56727D1*
X57655Y13038D2*
Y12272D1*
X57145Y13038D1*
Y12272D1*
X57890Y13038D2*
Y12272D1*
X58146D1*
X58255Y12309D1*
X58328Y12381D1*
X58365Y12455D1*
X58401Y12563D1*
Y12746D1*
X58365Y12856D1*
X58328Y12928D1*
X58255Y13001D1*
X58146Y13038D1*
X57890D1*
X56746Y52772D2*
X56454Y53538D1*
X56163Y52772D1*
X56272Y53027D2*
X56637D1*
X56982Y53391D2*
X57055Y53428D1*
X57165Y53537D1*
Y52772D1*
X56263Y51238D2*
Y50472D1*
X56591D1*
X56701Y50509D1*
X56737Y50545D1*
X56773Y50618D1*
Y50727D1*
X56737Y50800D1*
X56701Y50837D1*
X56591Y50873D1*
X56701Y50910D1*
X56737Y50946D1*
X56773Y51019D1*
Y51092D1*
X56737Y51164D1*
X56701Y51201D1*
X56591Y51238D1*
X56263D1*
Y50873D2*
X56591D1*
X57008Y51091D2*
X57082Y51128D1*
X57191Y51237D1*
Y50472D1*
X56163Y48638D2*
X56454Y48273D1*
Y47872D1*
X56746Y48638D2*
X56454Y48273D1*
X56981Y48491D2*
X57054Y48528D1*
X57164Y48637D1*
Y47872D1*
X56546Y45272D2*
X56254Y46038D1*
X55963Y45272D1*
X56072Y45527D2*
X56437D1*
X56819Y45855D2*
Y45891D1*
X56855Y45964D1*
X56891Y46001D1*
X56965Y46037D1*
X57110D1*
X57183Y46001D1*
X57219Y45964D1*
X57256Y45891D1*
Y45819D1*
X57219Y45745D1*
X57146Y45637D1*
X56782Y45272D1*
X57292D1*
X56063Y43538D2*
Y42772D1*
X56391D1*
X56501Y42809D1*
X56537Y42845D1*
X56573Y42918D1*
Y43027D1*
X56537Y43100D1*
X56501Y43137D1*
X56391Y43173D1*
X56501Y43210D1*
X56537Y43246D1*
X56573Y43319D1*
Y43392D1*
X56537Y43464D1*
X56501Y43501D1*
X56391Y43538D1*
X56063D1*
Y43173D2*
X56391D1*
X56846Y43355D2*
Y43391D1*
X56882Y43464D1*
X56918Y43501D1*
X56991Y43537D1*
X57137D1*
X57209Y43501D1*
X57246Y43464D1*
X57283Y43391D1*
Y43319D1*
X57246Y43245D1*
X57173Y43137D1*
X56808Y42772D1*
X57319D1*
X55963Y41038D2*
X56254Y40673D1*
Y40272D1*
X56546Y41038D2*
X56254Y40673D1*
X56818Y40855D2*
Y40891D1*
X56854Y40964D1*
X56890Y41001D1*
X56964Y41037D1*
X57109D1*
X57182Y41001D1*
X57218Y40964D1*
X57255Y40891D1*
Y40819D1*
X57218Y40745D1*
X57146Y40637D1*
X56781Y40272D1*
X57291D1*
X55809Y38356D2*
X55773Y38428D1*
X55700Y38501D1*
X55627Y38538D1*
X55482D1*
X55408Y38501D1*
X55336Y38428D1*
X55299Y38356D1*
X55263Y38246D1*
Y38063D1*
X55299Y37955D1*
X55336Y37881D1*
X55408Y37809D1*
X55482Y37772D1*
X55627D1*
X55700Y37809D1*
X55773Y37881D1*
X55809Y37955D1*
Y38063D1*
X55627D1*
X56555Y38538D2*
Y37772D1*
X56045Y38538D1*
Y37772D1*
X56790Y38538D2*
Y37772D1*
X57046D1*
X57155Y37809D1*
X57228Y37881D1*
X57265Y37955D1*
X57301Y38063D1*
Y38246D1*
X57265Y38356D1*
X57228Y38428D1*
X57155Y38501D1*
X57046Y38538D1*
X56790D1*
X67390Y53782D2*
Y53126D1*
X67063Y53454D2*
X67719D1*
X68391Y53837D2*
X68027D1*
X67991Y53509D1*
X68027Y53545D1*
X68137Y53582D1*
X68246D1*
X68355Y53545D1*
X68428Y53473D1*
X68465Y53363D1*
Y53291D1*
X68428Y53181D1*
X68355Y53108D1*
X68246Y53072D1*
X68137D1*
X68027Y53108D1*
X67991Y53145D1*
X67954Y53218D1*
X68700Y53582D2*
X68919Y53072D1*
X69137Y53582D1*
X66963Y51138D2*
Y50372D1*
X67291D1*
X67401Y50409D1*
X67437Y50445D1*
X67473Y50518D1*
Y50627D1*
X67437Y50700D1*
X67401Y50737D1*
X67291Y50773D1*
X67401Y50810D1*
X67437Y50846D1*
X67473Y50919D1*
Y50992D1*
X67437Y51064D1*
X67401Y51101D1*
X67291Y51138D1*
X66963D1*
Y50773D2*
X67291D1*
X68073Y50372D2*
Y51137D1*
X67708Y50627D1*
X68255D1*
X67546Y47972D2*
X67254Y48738D1*
X66963Y47972D1*
X67072Y48227D2*
X67437D1*
X68146Y47972D2*
Y48737D1*
X67782Y48227D1*
X68328D1*
X66963Y46238D2*
X67254Y45873D1*
Y45472D1*
X67546Y46238D2*
X67254Y45873D1*
X68146Y45472D2*
Y46237D1*
X67781Y45727D1*
X68328D1*
X67063Y43538D2*
Y42772D1*
X67391D1*
X67501Y42809D1*
X67537Y42845D1*
X67573Y42918D1*
Y43027D1*
X67537Y43100D1*
X67501Y43137D1*
X67391Y43173D1*
X67501Y43210D1*
X67537Y43246D1*
X67573Y43319D1*
Y43392D1*
X67537Y43464D1*
X67501Y43501D1*
X67391Y43538D1*
X67063D1*
Y43173D2*
X67391D1*
X67882Y43537D2*
X68282D1*
X68064Y43245D1*
X68173D1*
X68246Y43209D1*
X68282Y43173D1*
X68319Y43063D1*
Y42991D1*
X68282Y42881D1*
X68209Y42808D1*
X68100Y42772D1*
X67990D1*
X67882Y42808D1*
X67846Y42845D1*
X67808Y42918D1*
X67646Y40372D2*
X67354Y41138D1*
X67063Y40372D1*
X67172Y40627D2*
X67537D1*
X67955Y41137D2*
X68355D1*
X68137Y40845D1*
X68246D1*
X68319Y40809D1*
X68355Y40773D1*
X68392Y40663D1*
Y40591D1*
X68355Y40481D1*
X68283Y40408D1*
X68173Y40372D1*
X68064D1*
X67955Y40408D1*
X67919Y40445D1*
X67882Y40518D1*
X67063Y38638D2*
X67354Y38273D1*
Y37872D1*
X67646Y38638D2*
X67354Y38273D1*
X67954Y38637D2*
X68354D1*
X68136Y38345D1*
X68246D1*
X68318Y38309D1*
X68354Y38273D1*
X68391Y38163D1*
Y38091D1*
X68354Y37981D1*
X68282Y37908D1*
X68172Y37872D1*
X68063D1*
X67954Y37908D1*
X67918Y37945D1*
X67881Y38018D1*
X67690Y29682D2*
Y29026D1*
X67363Y29354D2*
X68019D1*
X68691Y29737D2*
X68327D1*
X68291Y29409D1*
X68327Y29445D1*
X68437Y29482D1*
X68546D1*
X68655Y29445D1*
X68728Y29373D1*
X68765Y29263D1*
Y29191D1*
X68728Y29081D1*
X68655Y29008D1*
X68546Y28972D1*
X68437D1*
X68327Y29008D1*
X68291Y29045D1*
X68254Y29118D1*
X69000Y29482D2*
X69219Y28972D1*
X69437Y29482D1*
X67263Y27038D2*
Y26272D1*
X67591D1*
X67701Y26309D1*
X67737Y26345D1*
X67773Y26418D1*
Y26527D1*
X67737Y26600D1*
X67701Y26637D1*
X67591Y26673D1*
X67701Y26710D1*
X67737Y26746D1*
X67773Y26819D1*
Y26892D1*
X67737Y26964D1*
X67701Y27001D1*
X67591Y27038D1*
X67263D1*
Y26673D2*
X67591D1*
X68373Y26272D2*
Y27037D1*
X68008Y26527D1*
X68555D1*
X67846Y23872D2*
X67554Y24638D1*
X67263Y23872D1*
X67372Y24127D2*
X67737D1*
X68446Y23872D2*
Y24637D1*
X68082Y24127D1*
X68628D1*
X67263Y22138D2*
X67554Y21773D1*
Y21372D1*
X67846Y22138D2*
X67554Y21773D1*
X68446Y21372D2*
Y22137D1*
X68081Y21627D1*
X68628D1*
X67363Y19438D2*
Y18672D1*
X67691D1*
X67801Y18709D1*
X67837Y18745D1*
X67873Y18818D1*
Y18927D1*
X67837Y19000D1*
X67801Y19037D1*
X67691Y19073D1*
X67801Y19110D1*
X67837Y19146D1*
X67873Y19219D1*
Y19292D1*
X67837Y19364D1*
X67801Y19401D1*
X67691Y19438D1*
X67363D1*
Y19073D2*
X67691D1*
X68182Y19437D2*
X68582D1*
X68364Y19145D1*
X68473D1*
X68546Y19109D1*
X68582Y19073D1*
X68619Y18963D1*
Y18891D1*
X68582Y18781D1*
X68509Y18708D1*
X68400Y18672D1*
X68290D1*
X68182Y18708D1*
X68146Y18745D1*
X68108Y18818D1*
X67946Y16272D2*
X67654Y17038D1*
X67363Y16272D1*
X67472Y16527D2*
X67837D1*
X68255Y17037D2*
X68655D1*
X68437Y16745D1*
X68546D1*
X68619Y16709D1*
X68655Y16673D1*
X68692Y16563D1*
Y16491D1*
X68655Y16381D1*
X68583Y16308D1*
X68473Y16272D1*
X68364D1*
X68255Y16308D1*
X68219Y16345D1*
X68182Y16418D1*
X67363Y14538D2*
X67654Y14173D1*
Y13772D1*
X67946Y14538D2*
X67654Y14173D1*
X68254Y14537D2*
X68654D1*
X68436Y14245D1*
X68546D1*
X68618Y14209D1*
X68654Y14173D1*
X68691Y14063D1*
Y13991D1*
X68654Y13881D1*
X68582Y13808D1*
X68472Y13772D1*
X68363D1*
X68254Y13808D1*
X68218Y13845D1*
X68181Y13918D1*
X25853Y29683D2*
D88*
X25732Y29805D1*
X25549Y29865D1*
X25307D1*
X25124Y29805D1*
X25002Y29683D1*
Y29562D1*
X25064Y29440D1*
X25124Y29380D1*
X25245Y29319D1*
X25610Y29197D1*
X25732Y29137D1*
X25792Y29075D1*
X25853Y28954D1*
Y28772D1*
X25732Y28651D1*
X25549Y28589D1*
X25307D1*
X25124Y28651D1*
X25002Y28772D1*
X26245Y29197D2*
X26792D1*
X26973Y29257D1*
X27035Y29319D1*
X27096Y29440D1*
Y29622D1*
X27035Y29743D1*
X26973Y29805D1*
X26792Y29865D1*
X26245D1*
Y28589D1*
X27488Y29865D2*
Y28589D1*
X29114Y29865D2*
Y28589D1*
X30357Y29865D2*
Y28589D1*
X29507Y29865D1*
Y28589D1*
X42453Y29683D2*
X42332Y29805D1*
X42149Y29865D1*
X41907D1*
X41724Y29805D1*
X41602Y29683D1*
Y29562D1*
X41664Y29440D1*
X41724Y29380D1*
X41845Y29319D1*
X42210Y29197D1*
X42332Y29137D1*
X42392Y29075D1*
X42453Y28954D1*
Y28772D1*
X42332Y28651D1*
X42149Y28589D1*
X41907D1*
X41724Y28651D1*
X41602Y28772D1*
X42845Y29197D2*
X43392D1*
X43573Y29257D1*
X43635Y29319D1*
X43696Y29440D1*
Y29622D1*
X43635Y29743D1*
X43573Y29805D1*
X43392Y29865D1*
X42845D1*
Y28589D1*
X44088Y29865D2*
Y28589D1*
X46079Y29865D2*
X45957Y29805D1*
X45837Y29683D1*
X45775Y29562D1*
X45714Y29380D1*
Y29075D1*
X45775Y28894D1*
X45837Y28772D1*
X45957Y28651D1*
X46079Y28589D1*
X46322D1*
X46443Y28651D1*
X46565Y28772D1*
X46625Y28894D1*
X46686Y29075D1*
Y29380D1*
X46625Y29562D1*
X46565Y29683D1*
X46443Y29805D1*
X46322Y29865D1*
X46079D1*
X47078D2*
Y28954D1*
X47138Y28772D1*
X47260Y28651D1*
X47443Y28589D1*
X47564D1*
X47746Y28651D1*
X47868Y28772D1*
X47929Y28954D1*
Y29865D1*
X48746D2*
Y28589D1*
X48321Y29865D2*
X49172D1*
X38957Y32925D2*
D91*
X38920Y32999D1*
X38812Y33108D1*
X39576D1*
X38993Y33380D2*
X38957D1*
X38884Y33417D1*
X38848Y33453D1*
X38812Y33526D1*
Y33672D1*
X38848Y33744D1*
X38884Y33781D1*
X38957Y33818D1*
X39030D1*
X39103Y33781D1*
X39212Y33708D1*
X39576Y33343D1*
Y33854D1*
X39066Y34089D2*
X39576Y34308D1*
X39066Y34526D1*
X38712Y36262D2*
Y35899D1*
X39039Y35862D1*
X39003Y35899D1*
X38966Y36008D1*
Y36117D1*
X39003Y36226D1*
X39075Y36300D1*
X39185Y36336D1*
X39257D1*
X39367Y36300D1*
X39440Y36226D1*
X39476Y36117D1*
Y36008D1*
X39440Y35899D1*
X39403Y35862D1*
X39331Y35825D1*
X38966Y36571D2*
X39476Y36790D1*
X38966Y37008D1*
X38793Y38472D2*
X38720Y38436D1*
X38647Y38362D1*
X38611Y38290D1*
Y38144D1*
X38647Y38071D1*
X38720Y37999D1*
X38793Y37962D1*
X38902Y37925D1*
X39085D1*
X39194Y37962D1*
X39267Y37999D1*
X39339Y38071D1*
X39376Y38144D1*
Y38290D1*
X39339Y38362D1*
X39267Y38436D1*
X39194Y38472D1*
X39085D1*
Y38290D1*
X38611Y39218D2*
X39376D1*
X38611Y38707D1*
X39376D1*
X38611Y39453D2*
X39376D1*
Y39708D1*
X39339Y39818D1*
X39267Y39891D1*
X39194Y39927D1*
X39085Y39963D1*
X38902D1*
X38793Y39927D1*
X38720Y39891D1*
X38647Y39818D1*
X38611Y39708D1*
Y39453D1*
X11163Y56938D2*
Y56172D1*
X11908Y56938D2*
Y56172D1*
X11398Y56938D1*
Y56172D1*
X12144Y56938D2*
X12435Y56172D1*
X12727Y56938D1*
X93683Y16617D2*
Y16945D1*
X93646Y17055D1*
X93610Y17092D1*
X93538Y17128D1*
X93464D1*
X93392Y17092D1*
X93355Y17055D1*
X93319Y16945D1*
Y16617D1*
X94084D1*
X93683Y16873D2*
X94084Y17128D1*
X93500Y24264D2*
X93428Y24228D1*
X93355Y24155D1*
X93319Y24082D1*
Y23936D1*
X93355Y23863D1*
X93428Y23791D1*
X93500Y23754D1*
X93610Y23717D1*
X93793D1*
X93901Y23754D1*
X93975Y23791D1*
X94047Y23863D1*
X94084Y23936D1*
Y24082D1*
X94047Y24155D1*
X93975Y24228D1*
X93901Y24264D1*
X93793D1*
Y24082D1*
X93319Y30717D2*
X94084D1*
Y31046D1*
X94047Y31155D1*
X94011Y31192D1*
X93938Y31228D1*
X93829D1*
X93756Y31192D1*
X93719Y31155D1*
X93683Y31046D1*
X93646Y31155D1*
X93610Y31192D1*
X93538Y31228D1*
X93464D1*
X93392Y31192D1*
X93355Y31155D1*
X93319Y31046D1*
Y30717D1*
X93683D2*
Y31046D1*
X93783Y37517D2*
Y37845D1*
X93746Y37955D1*
X93710Y37992D1*
X93638Y38028D1*
X93564D1*
X93492Y37992D1*
X93455Y37955D1*
X93419Y37845D1*
Y37517D1*
X94184D1*
X93783Y37773D2*
X94184Y38028D1*
X93600Y45164D2*
X93528Y45128D1*
X93455Y45055D1*
X93419Y44982D1*
Y44836D1*
X93455Y44763D1*
X93528Y44691D1*
X93600Y44654D1*
X93710Y44617D1*
X93893D1*
X94001Y44654D1*
X94075Y44691D1*
X94147Y44763D1*
X94184Y44836D1*
Y44982D1*
X94147Y45055D1*
X94075Y45128D1*
X94001Y45164D1*
X93893D1*
Y44982D1*
X93419Y51617D2*
X94184D1*
Y51946D1*
X94147Y52055D1*
X94111Y52092D1*
X94038Y52128D1*
X93929D1*
X93856Y52092D1*
X93819Y52055D1*
X93783Y51946D1*
X93746Y52055D1*
X93710Y52092D1*
X93638Y52128D1*
X93564D1*
X93492Y52092D1*
X93455Y52055D1*
X93419Y51946D1*
Y51617D1*
X93783D2*
Y51946D1*
X32363Y55991D2*
X32436Y56028D1*
X32546Y56137D1*
Y55372D1*
X32781Y55754D2*
X33202D1*
X33874Y56028D2*
X33838Y56101D1*
X33729Y56137D1*
X33656D1*
X33547Y56101D1*
X33473Y55991D1*
X33437Y55809D1*
Y55627D1*
X33473Y55481D1*
X33547Y55408D1*
X33656Y55372D1*
X33692D1*
X33801Y55408D1*
X33874Y55481D1*
X33911Y55591D1*
Y55627D1*
X33874Y55737D1*
X33801Y55809D1*
X33692Y55845D1*
X33656D1*
X33547Y55809D1*
X33473Y55737D1*
X33437Y55627D1*
X28663Y57405D2*
D89*
X28566Y57503D1*
X28420Y57551D1*
X28226D1*
X28080Y57503D1*
X27982Y57405D1*
Y57309D1*
X28032Y57211D1*
X28080Y57163D1*
X28177Y57115D1*
X28469Y57017D1*
X28566Y56969D1*
X28615Y56919D1*
X28663Y56823D1*
Y56677D1*
X28566Y56580D1*
X28420Y56531D1*
X28226D1*
X28080Y56580D1*
X27982Y56677D1*
X29608Y57551D2*
X28977D1*
Y56531D1*
X29608D1*
X28977Y57065D2*
X29365D1*
X30262Y57551D2*
Y56531D1*
X29922Y57551D2*
X30602D1*
X32584D2*
Y56531D1*
X31903Y57551D1*
Y56531D1*
X33190Y57551D2*
X33092Y57503D1*
X32995Y57405D1*
X32946Y57309D1*
X32898Y57163D1*
Y56919D1*
X32946Y56774D1*
X32995Y56677D1*
X33092Y56580D1*
X33190Y56531D1*
X33384D1*
X33481Y56580D1*
X33578Y56677D1*
X33627Y56774D1*
X33675Y56919D1*
Y57163D1*
X33627Y57309D1*
X33578Y57405D1*
X33481Y57503D1*
X33384Y57551D1*
X33190D1*
X34037Y56628D2*
X33989Y56579D1*
X34037Y56531D1*
X34086Y56579D1*
X34037Y56628D1*
X35680Y57551D2*
X35582Y57503D1*
X35485Y57405D1*
X35436Y57309D1*
X35388Y57163D1*
Y56919D1*
X35436Y56774D1*
X35485Y56677D1*
X35582Y56580D1*
X35680Y56531D1*
X35874D1*
X35971Y56580D1*
X36068Y56677D1*
X36117Y56774D1*
X36165Y56919D1*
Y57163D1*
X36117Y57309D1*
X36068Y57405D1*
X35971Y57503D1*
X35874Y57551D1*
X35680D1*
X37111D2*
X36479D1*
Y56531D1*
Y57065D2*
X36867D1*
X38412Y57551D2*
Y56531D1*
X38995D1*
X39940Y57551D2*
X39309D1*
Y56531D1*
X39940D1*
X39309Y57065D2*
X39697D1*
X40254Y57551D2*
Y56531D1*
X40594D1*
X40740Y56580D1*
X40838Y56677D1*
X40886Y56774D1*
X40934Y56919D1*
Y57163D1*
X40886Y57309D1*
X40838Y57405D1*
X40740Y57503D1*
X40594Y57551D1*
X40254D1*
X41783Y57065D2*
X41734Y57163D1*
X41588Y57211D1*
X41442D1*
X41296Y57163D1*
X41248Y57065D1*
X41296Y56969D1*
X41394Y56919D1*
X41637Y56871D1*
X41734Y56823D1*
X41783Y56725D1*
Y56677D1*
X41734Y56580D1*
X41588Y56531D1*
X41442D1*
X41296Y56580D1*
X41248Y56677D1*
X35363Y46691D2*
D91*
X35436Y46728D1*
X35546Y46837D1*
Y46072D1*
X35781Y46454D2*
X36202D1*
X36511Y46837D2*
X36911D1*
X36692Y46545D1*
X36802D1*
X36874Y46509D1*
X36911Y46473D1*
X36948Y46363D1*
Y46291D1*
X36911Y46181D1*
X36838Y46108D1*
X36729Y46072D1*
X36619D1*
X36511Y46108D1*
X36474Y46145D1*
X36437Y46218D1*
X39125Y52140D2*
X39052Y52104D1*
X38979Y52031D1*
X38943Y51958D1*
Y51812D1*
X38979Y51739D1*
X39052Y51667D1*
X39125Y51630D1*
X39234Y51593D1*
X39417D1*
X39525Y51630D1*
X39599Y51667D1*
X39671Y51739D1*
X39708Y51812D1*
Y51958D1*
X39671Y52031D1*
X39599Y52104D1*
X39525Y52140D1*
X38943Y52375D2*
X39708D1*
Y52813D1*
X38943Y53048D2*
X39708D1*
X38943Y53558D2*
X39453Y53048D1*
X39270Y53230D2*
X39708Y53558D1*
X39052Y49204D2*
X38979Y49131D1*
X38943Y49022D1*
Y48876D1*
X38979Y48767D1*
X39052Y48693D1*
X39125D1*
X39198Y48731D1*
X39234Y48767D1*
X39270Y48839D1*
X39344Y49058D1*
X39380Y49131D1*
X39417Y49168D1*
X39489Y49204D1*
X39599D1*
X39671Y49131D1*
X39708Y49022D1*
Y48876D1*
X39671Y48767D1*
X39599Y48693D1*
X38943Y49439D2*
X39708D1*
Y49694D1*
X39671Y49804D1*
X39599Y49877D1*
X39525Y49913D1*
X39417Y49950D1*
X39234D1*
X39125Y49913D1*
X39052Y49877D1*
X38979Y49804D1*
X38943Y49694D1*
Y49439D1*
Y50185D2*
X39708D1*
X84728Y13223D2*
X84691Y13296D1*
X84582Y13406D1*
X85347D1*
X84637Y13969D2*
X85293D1*
X84965Y13641D2*
Y14297D1*
X84763Y16189D2*
X84726Y16263D1*
X84617Y16372D1*
X85382D1*
X84999Y16608D2*
Y17029D1*
X84798Y19560D2*
X84762D1*
X84689Y19596D1*
X84652Y19633D1*
X84616Y19706D1*
Y19852D1*
X84652Y19924D1*
X84689Y19960D1*
X84762Y19997D1*
X84834D1*
X84908Y19960D1*
X85016Y19888D1*
X85381Y19523D1*
Y20034D1*
X84670Y20597D2*
X85327D1*
X84999Y20269D2*
Y20925D1*
X84731Y23172D2*
X84695D1*
X84622Y23208D1*
X84585Y23245D1*
X84549Y23318D1*
Y23464D1*
X84585Y23536D1*
X84622Y23572D1*
X84695Y23609D1*
X84767D1*
X84841Y23572D1*
X84949Y23500D1*
X85314Y23135D1*
Y23646D1*
X84932Y23881D2*
Y24302D1*
X84686Y26584D2*
Y26984D1*
X84977Y26766D1*
Y26876D1*
X85013Y26948D1*
X85050Y26984D1*
X85159Y27021D1*
X85232D1*
X85341Y26984D1*
X85414Y26912D1*
X85451Y26802D1*
Y26693D1*
X85414Y26584D1*
X85377Y26548D1*
X85305Y26511D1*
X84740Y27584D2*
X85396D1*
X85069Y27257D2*
Y27913D1*
X84600Y30296D2*
Y30696D1*
X84892Y30478D1*
Y30587D1*
X84928Y30660D1*
X84964Y30696D1*
X85074Y30733D1*
X85146D1*
X85256Y30696D1*
X85329Y30624D1*
X85365Y30514D1*
Y30405D1*
X85329Y30296D1*
X85292Y30260D1*
X85220Y30223D1*
X84983Y30968D2*
Y31390D1*
X85377Y33942D2*
X84612D1*
X85121Y33577D1*
Y34124D1*
X84666Y34687D2*
X85322D1*
X84995Y34359D2*
Y35016D1*
X85254Y37549D2*
X84489D1*
X84999Y37184D1*
Y37731D1*
X84872Y37966D2*
Y38387D1*
X84579Y41023D2*
Y40659D1*
X84906Y40623D1*
X84870Y40659D1*
X84833Y40769D1*
Y40878D1*
X84870Y40987D1*
X84943Y41060D1*
X85052Y41097D1*
X85125D1*
X85234Y41060D1*
X85307Y40987D1*
X85344Y40878D1*
Y40769D1*
X85307Y40659D1*
X85270Y40623D1*
X85198Y40586D1*
X84633Y41660D2*
X85289D1*
X84962Y41332D2*
Y41988D1*
X84670Y44772D2*
Y44408D1*
X84998Y44372D1*
X84962Y44408D1*
X84924Y44517D1*
Y44626D1*
X84962Y44736D1*
X85034Y44809D1*
X85143Y44845D1*
X85216D1*
X85325Y44809D1*
X85399Y44736D1*
X85435Y44626D1*
Y44517D1*
X85399Y44408D1*
X85362Y44372D1*
X85289Y44335D1*
X85053Y45080D2*
Y45502D1*
X84761Y48022D2*
X84689Y47985D1*
X84653Y47876D1*
Y47803D1*
X84689Y47694D1*
X84798Y47621D1*
X84980Y47584D1*
X85162D1*
X85308Y47621D1*
X85381Y47694D1*
X85418Y47803D1*
Y47840D1*
X85381Y47948D1*
X85308Y48022D1*
X85199Y48058D1*
X85162D1*
X85053Y48022D1*
X84980Y47948D1*
X84944Y47840D1*
Y47803D1*
X84980Y47694D1*
X85053Y47621D1*
X85162Y47584D1*
X84707Y48621D2*
X85363D1*
X85036Y48293D2*
Y48949D1*
X84674Y51634D2*
X84602Y51597D1*
X84566Y51488D1*
Y51415D1*
X84602Y51306D1*
X84711Y51233D1*
X84893Y51196D1*
X85075D1*
X85221Y51233D1*
X85294Y51306D1*
X85331Y51415D1*
Y51452D1*
X85294Y51560D1*
X85221Y51634D1*
X85112Y51670D1*
X85075D1*
X84966Y51634D1*
X84893Y51560D1*
X84857Y51452D1*
Y51415D1*
X84893Y51306D1*
X84966Y51233D1*
X85075Y51196D1*
X84948Y51905D2*
Y52326D1*
X84684Y54572D2*
X84647Y54645D1*
X84539Y54755D1*
X85304D1*
X84721Y55027D2*
X84684D1*
X84611Y55064D1*
X84575Y55100D1*
X84539Y55173D1*
Y55319D1*
X84575Y55391D1*
X84611Y55427D1*
X84684Y55464D1*
X84757D1*
X84830Y55427D1*
X84939Y55355D1*
X85304Y54990D1*
Y55501D1*
X84538Y55736D2*
X85304Y56027D1*
X84538Y56319D1*
X84722Y58437D2*
X84650Y58401D1*
X84577Y58327D1*
X84540Y58255D1*
Y58109D1*
X84577Y58036D1*
X84650Y57963D1*
X84722Y57926D1*
X84832Y57890D1*
X85015D1*
X85123Y57926D1*
X85197Y57963D1*
X85269Y58036D1*
X85306Y58109D1*
Y58255D1*
X85269Y58327D1*
X85197Y58401D1*
X85123Y58437D1*
X85015D1*
Y58255D1*
X84540Y59183D2*
X85306D1*
X84540Y58672D1*
X85306D1*
X84540Y59418D2*
X85306D1*
Y59673D1*
X85269Y59783D1*
X85197Y59856D1*
X85123Y59892D1*
X85015Y59928D1*
X84832D1*
X84722Y59892D1*
X84650Y59856D1*
X84577Y59783D1*
X84540Y59673D1*
Y59418D1*
X84625Y62307D2*
Y61943D1*
X84953Y61907D1*
X84916Y61943D1*
X84879Y62052D1*
Y62161D1*
X84916Y62271D1*
X84989Y62344D1*
X85098Y62380D1*
X85171D1*
X85280Y62344D1*
X85353Y62271D1*
X85390Y62161D1*
Y62052D1*
X85353Y61943D1*
X85316Y61907D1*
X85244Y61870D1*
X84624Y62615D2*
X85390Y62907D1*
X84624Y63198D1*
X48294Y39990D2*
D89*
X47273Y39746D1*
X48294Y39503D1*
X47273Y39261D1*
X48294Y39017D1*
X48148Y38023D2*
X48246Y38119D1*
X48294Y38265D1*
Y38460D1*
X48246Y38606D1*
X48148Y38703D1*
X48051D1*
X47954Y38654D1*
X47905Y38606D1*
X47857Y38509D1*
X47759Y38217D1*
X47711Y38119D1*
X47662Y38071D1*
X47565Y38023D1*
X47419D1*
X47323Y38119D1*
X47273Y38265D1*
Y38460D1*
X47323Y38606D1*
X47419Y38703D1*
X48050Y37660D2*
X48099D1*
X48196Y37611D1*
X48245Y37563D1*
X48293Y37465D1*
Y37271D1*
X48245Y37174D1*
X48196Y37126D1*
X48099Y37077D1*
X48002D1*
X47904Y37126D1*
X47759Y37223D1*
X47273Y37709D1*
Y37028D1*
X48293Y36472D2*
X48245Y36617D1*
X48148Y36666D1*
X48050D1*
X47954Y36617D1*
X47904Y36520D1*
X47856Y36326D1*
X47808Y36180D1*
X47710Y36084D1*
X47613Y36035D1*
X47467D1*
X47371Y36084D1*
X47321Y36132D1*
X47273Y36278D1*
Y36472D1*
X47321Y36617D1*
X47371Y36666D1*
X47467Y36715D1*
X47613D1*
X47710Y36666D1*
X47808Y36569D1*
X47856Y36424D1*
X47904Y36230D1*
X47954Y36132D1*
X48050Y36084D1*
X48148D1*
X48245Y36132D1*
X48293Y36278D1*
Y36472D1*
Y35429D2*
X48245Y35575D1*
X48099Y35673D1*
X47856Y35721D1*
X47710D1*
X47467Y35673D1*
X47321Y35575D1*
X47273Y35429D1*
Y35333D1*
X47321Y35187D1*
X47467Y35090D1*
X47710Y35041D1*
X47856D1*
X48099Y35090D1*
X48245Y35187D1*
X48293Y35333D1*
Y35429D1*
X48099Y35090D2*
X47467Y35673D1*
X48099Y34727D2*
X48148Y34629D1*
X48293Y34483D1*
X47273D1*
X42382Y41194D2*
D91*
X42346Y41267D1*
X42273Y41340D1*
X42201Y41376D1*
X42055D1*
X41982Y41340D1*
X41909Y41267D1*
X41872Y41194D1*
X41836Y41085D1*
Y40902D1*
X41872Y40793D1*
X41909Y40720D1*
X41982Y40648D1*
X42055Y40611D1*
X42201D1*
X42273Y40648D1*
X42346Y40720D1*
X42382Y40793D1*
X42618Y41376D2*
Y40611D1*
X43128Y41376D2*
X42618Y40866D1*
X42800Y41049D2*
X43128Y40611D1*
X43363Y41376D2*
Y40611D1*
X42346Y39998D2*
X42274Y40071D1*
X42164Y40107D1*
X42019D1*
X41909Y40071D1*
X41836Y39998D1*
Y39925D1*
X41873Y39852D1*
X41909Y39816D1*
X41982Y39779D1*
X42201Y39706D1*
X42274Y39670D1*
X42310Y39633D1*
X42346Y39560D1*
Y39451D1*
X42274Y39378D1*
X42164Y39341D1*
X42019D1*
X41909Y39378D1*
X41836Y39451D1*
X42582Y40107D2*
Y39341D1*
X42837D1*
X42946Y39378D1*
X43020Y39451D1*
X43056Y39524D1*
X43092Y39633D1*
Y39816D1*
X43056Y39925D1*
X43020Y39998D1*
X42946Y40071D1*
X42837Y40107D1*
X42582D1*
X43327D2*
Y39341D1*
X41518Y38436D2*
X41847D1*
X41955Y38472D1*
X41992Y38509D1*
X42029Y38582D1*
Y38691D1*
X41992Y38764D1*
X41955Y38801D1*
X41847Y38837D1*
X41518D1*
Y38071D1*
X42483Y38837D2*
X42410Y38801D1*
X42337Y38727D1*
X42300Y38655D1*
X42264Y38545D1*
Y38363D1*
X42300Y38254D1*
X42337Y38181D1*
X42410Y38108D1*
X42483Y38071D1*
X42629D1*
X42701Y38108D1*
X42774Y38181D1*
X42811Y38254D1*
X42847Y38363D1*
Y38545D1*
X42811Y38655D1*
X42774Y38727D1*
X42701Y38801D1*
X42629Y38837D1*
X42483D1*
X43082D2*
Y38071D1*
X43519D1*
X41518Y37202D2*
X41846D1*
X41955Y37239D1*
X41992Y37275D1*
X42029Y37348D1*
Y37421D1*
X41992Y37493D1*
X41955Y37531D1*
X41846Y37567D1*
X41518D1*
Y36801D1*
X41773Y37202D2*
X42029Y36801D1*
X42738Y37567D2*
X42264D1*
Y36801D1*
Y37202D2*
X42555D1*
X42973Y37567D2*
Y36801D1*
X43302D1*
X43411Y36838D1*
X43448Y36874D1*
X43484Y36947D1*
Y37056D1*
X43448Y37130D1*
X43411Y37166D1*
X43302Y37202D1*
X43411Y37239D1*
X43448Y37275D1*
X43484Y37348D1*
Y37421D1*
X43448Y37493D1*
X43411Y37531D1*
X43302Y37567D1*
X42973D1*
Y37202D2*
X43302D1*
X42065Y36115D2*
X42029Y36187D1*
X41955Y36260D1*
X41883Y36297D1*
X41737D1*
X41664Y36260D1*
X41591Y36187D1*
X41554Y36115D1*
X41518Y36005D1*
Y35822D1*
X41554Y35714D1*
X41591Y35640D1*
X41664Y35568D1*
X41737Y35531D1*
X41883D1*
X41955Y35568D1*
X42029Y35640D1*
X42065Y35714D1*
Y35822D1*
X41883D1*
X42774Y36297D2*
X42300D1*
Y35531D1*
Y35932D2*
X42592D1*
X43010Y36297D2*
Y35531D1*
X43338D1*
X43448Y35568D1*
X43484Y35604D1*
X43520Y35677D1*
Y35786D1*
X43484Y35859D1*
X43448Y35896D1*
X43338Y35932D1*
X43448Y35969D1*
X43484Y36005D1*
X43520Y36078D1*
Y36151D1*
X43484Y36223D1*
X43448Y36260D1*
X43338Y36297D1*
X43010D1*
Y35932D2*
X43338D1*
X41577Y35026D2*
Y34261D1*
X41905D1*
X42015Y34298D1*
X42051Y34334D1*
X42087Y34407D1*
Y34516D1*
X42051Y34589D1*
X42015Y34626D1*
X41905Y34662D1*
X42015Y34699D1*
X42051Y34735D1*
X42087Y34807D1*
Y34881D1*
X42051Y34953D1*
X42015Y34990D1*
X41905Y35026D1*
X41577D1*
Y34662D2*
X41905D1*
X42797Y35026D2*
X42323D1*
Y34261D1*
Y34662D2*
X42614D1*
X43032Y35026D2*
Y34261D1*
X43361D1*
X43470Y34298D1*
X43506Y34334D1*
X43542Y34407D1*
Y34516D1*
X43506Y34589D1*
X43470Y34626D1*
X43361Y34662D1*
X43470Y34699D1*
X43506Y34735D1*
X43542Y34807D1*
Y34881D1*
X43506Y34953D1*
X43470Y34990D1*
X43361Y35026D1*
X43032D1*
Y34662D2*
X43361D1*
X42024Y33544D2*
X41988Y33617D1*
X41914Y33690D1*
X41842Y33726D1*
X41696D1*
X41623Y33690D1*
X41551Y33617D1*
X41513Y33544D1*
X41477Y33435D1*
Y33252D1*
X41513Y33143D1*
X41551Y33070D1*
X41623Y32998D1*
X41696Y32961D1*
X41842D1*
X41914Y32998D1*
X41988Y33070D1*
X42024Y33143D1*
Y33252D1*
X41842D1*
X42770Y33726D2*
Y32961D1*
X42259Y33726D1*
Y32961D1*
X43005Y33726D2*
Y32961D1*
X43260D1*
X43370Y32998D1*
X43443Y33070D1*
X43479Y33143D1*
X43515Y33252D1*
Y33435D1*
X43479Y33544D1*
X43443Y33617D1*
X43370Y33690D1*
X43260Y33726D1*
X43005D1*
X52137Y41477D2*
X52429Y40711D1*
X52720Y41477D1*
X53502Y41295D2*
X53466Y41367D1*
X53392Y41440D1*
X53320Y41477D1*
X53174D1*
X53101Y41440D1*
X53029Y41367D1*
X52992Y41295D1*
X52955Y41185D1*
Y41002D1*
X52992Y40894D1*
X53029Y40820D1*
X53101Y40748D1*
X53174Y40711D1*
X53320D1*
X53392Y40748D1*
X53466Y40820D1*
X53502Y40894D1*
X54284Y41295D2*
X54248Y41367D1*
X54174Y41440D1*
X54102Y41477D1*
X53956D1*
X53883Y41440D1*
X53811Y41367D1*
X53774Y41295D1*
X53737Y41185D1*
Y41002D1*
X53774Y40894D1*
X53811Y40820D1*
X53883Y40748D1*
X53956Y40711D1*
X54102D1*
X54174Y40748D1*
X54248Y40820D1*
X54284Y40894D1*
X52684Y39994D2*
X52648Y40067D1*
X52574Y40140D1*
X52502Y40176D1*
X52356D1*
X52283Y40140D1*
X52210Y40067D1*
X52173Y39994D1*
X52137Y39885D1*
Y39702D1*
X52173Y39594D1*
X52210Y39520D1*
X52283Y39448D1*
X52356Y39411D1*
X52502D1*
X52574Y39448D1*
X52648Y39520D1*
X52684Y39594D1*
X52919Y40176D2*
Y39411D1*
X53430Y40176D2*
X52919Y39666D1*
X53101Y39849D2*
X53430Y39411D1*
X53884Y40176D2*
X53811Y40140D1*
X53738Y40067D1*
X53701Y39994D1*
X53665Y39885D1*
Y39702D1*
X53701Y39594D1*
X53738Y39520D1*
X53811Y39448D1*
X53884Y39411D1*
X54030D1*
X54102Y39448D1*
X54175Y39520D1*
X54212Y39594D1*
X54248Y39702D1*
Y39885D1*
X54212Y39994D1*
X54175Y40067D1*
X54102Y40140D1*
X54030Y40176D1*
X53884D1*
X52648Y38767D2*
X52575Y38840D1*
X52466Y38876D1*
X52320D1*
X52210Y38840D1*
X52137Y38767D1*
Y38694D1*
X52174Y38621D1*
X52210Y38585D1*
X52283Y38548D1*
X52502Y38475D1*
X52575Y38439D1*
X52611Y38402D1*
X52648Y38329D1*
Y38220D1*
X52575Y38148D1*
X52466Y38110D1*
X52320D1*
X52210Y38148D1*
X52137Y38220D1*
X52883Y38876D2*
Y38110D1*
X53138D1*
X53248Y38148D1*
X53321Y38220D1*
X53357Y38293D1*
X53393Y38402D1*
Y38585D1*
X53357Y38694D1*
X53321Y38767D1*
X53248Y38840D1*
X53138Y38876D1*
X52883D1*
X53848D2*
X53774Y38840D1*
X53702Y38767D1*
X53665Y38694D1*
X53629Y38585D1*
Y38402D1*
X53665Y38293D1*
X53702Y38220D1*
X53774Y38148D1*
X53848Y38110D1*
X53993D1*
X54066Y38148D1*
X54139Y38220D1*
X54175Y38293D1*
X54212Y38402D1*
Y38585D1*
X54175Y38694D1*
X54139Y38767D1*
X54066Y38840D1*
X53993Y38876D1*
X53848D1*
X52648Y37577D2*
Y36811D1*
X52137Y37577D1*
Y36811D1*
X53430Y37395D2*
X53393Y37467D1*
X53320Y37541D1*
X53248Y37577D1*
X53102D1*
X53029Y37541D1*
X52956Y37467D1*
X52919Y37395D1*
X52883Y37285D1*
Y37103D1*
X52919Y36994D1*
X52956Y36921D1*
X53029Y36848D1*
X53102Y36811D1*
X53248D1*
X53320Y36848D1*
X53393Y36921D1*
X53430Y36994D1*
X52137Y36012D2*
X52465D1*
X52574Y36049D1*
X52611Y36085D1*
X52648Y36158D1*
Y36231D1*
X52611Y36304D1*
X52574Y36341D1*
X52465Y36377D1*
X52137D1*
Y35611D1*
X52392Y36012D2*
X52648Y35611D1*
X53102Y36377D2*
X53029Y36341D1*
X52956Y36267D1*
X52919Y36195D1*
X52883Y36085D1*
Y35903D1*
X52919Y35794D1*
X52956Y35721D1*
X53029Y35648D1*
X53102Y35611D1*
X53248D1*
X53320Y35648D1*
X53393Y35721D1*
X53430Y35794D1*
X53466Y35903D1*
Y36085D1*
X53430Y36195D1*
X53393Y36267D1*
X53320Y36341D1*
X53248Y36377D1*
X53102D1*
X53701D2*
Y35830D1*
X53737Y35721D1*
X53811Y35648D1*
X53920Y35611D1*
X53993D1*
X54102Y35648D1*
X54175Y35721D1*
X54212Y35830D1*
Y36377D1*
X54702D2*
Y35611D1*
X54447Y36377D2*
X54957D1*
X52684Y34895D2*
X52648Y34967D1*
X52574Y35040D1*
X52502Y35077D1*
X52356D1*
X52283Y35040D1*
X52210Y34967D1*
X52173Y34895D1*
X52137Y34785D1*
Y34602D1*
X52173Y34494D1*
X52210Y34420D1*
X52283Y34348D1*
X52356Y34311D1*
X52502D1*
X52574Y34348D1*
X52648Y34420D1*
X52684Y34494D1*
Y34602D1*
X52502D1*
X53138Y35077D2*
X53065Y35040D1*
X52992Y34967D1*
X52955Y34895D1*
X52919Y34785D1*
Y34602D1*
X52955Y34494D1*
X52992Y34420D1*
X53065Y34348D1*
X53138Y34311D1*
X53284D1*
X53356Y34348D1*
X53430Y34420D1*
X53466Y34494D1*
X53502Y34602D1*
Y34785D1*
X53466Y34895D1*
X53430Y34967D1*
X53356Y35040D1*
X53284Y35077D1*
X53138D1*
X53737D2*
Y34530D1*
X53774Y34420D1*
X53847Y34348D1*
X53956Y34311D1*
X54029D1*
X54138Y34348D1*
X54212Y34420D1*
X54248Y34530D1*
Y35077D1*
X54738D2*
Y34311D1*
X54483Y35077D2*
X54993D1*
X52137Y33776D2*
Y33011D1*
X52466D1*
X52575Y33048D1*
X52611Y33084D1*
X52648Y33156D1*
Y33266D1*
X52611Y33339D1*
X52575Y33375D1*
X52466Y33412D1*
X52575Y33449D1*
X52611Y33485D1*
X52648Y33557D1*
Y33631D1*
X52611Y33703D1*
X52575Y33740D1*
X52466Y33776D1*
X52137D1*
Y33412D2*
X52466D1*
X53102Y33776D2*
X53029Y33740D1*
X52956Y33667D1*
X52919Y33594D1*
X52883Y33485D1*
Y33302D1*
X52919Y33194D1*
X52956Y33120D1*
X53029Y33048D1*
X53102Y33011D1*
X53248D1*
X53320Y33048D1*
X53393Y33120D1*
X53430Y33194D1*
X53466Y33302D1*
Y33485D1*
X53430Y33594D1*
X53393Y33667D1*
X53320Y33740D1*
X53248Y33776D1*
X53102D1*
X53701D2*
Y33230D1*
X53737Y33120D1*
X53811Y33048D1*
X53920Y33011D1*
X53993D1*
X54102Y33048D1*
X54175Y33120D1*
X54212Y33230D1*
Y33776D1*
X54702D2*
Y33011D1*
X54447Y33776D2*
X54957D1*
X48294Y53790D2*
D89*
X47273Y53546D1*
X48294Y53303D1*
X47273Y53061D1*
X48294Y52817D1*
X48148Y51823D2*
X48246Y51919D1*
X48294Y52065D1*
Y52260D1*
X48246Y52406D1*
X48148Y52503D1*
X48051D1*
X47954Y52454D1*
X47905Y52406D1*
X47857Y52309D1*
X47759Y52017D1*
X47711Y51919D1*
X47662Y51871D1*
X47565Y51823D1*
X47419D1*
X47323Y51919D1*
X47273Y52065D1*
Y52260D1*
X47323Y52406D1*
X47419Y52503D1*
X48050Y51460D2*
X48099D1*
X48196Y51411D1*
X48245Y51363D1*
X48293Y51265D1*
Y51071D1*
X48245Y50974D1*
X48196Y50926D1*
X48099Y50877D1*
X48002D1*
X47904Y50926D1*
X47759Y51023D1*
X47273Y51509D1*
Y50828D1*
X48293Y50272D2*
X48245Y50417D1*
X48148Y50466D1*
X48050D1*
X47954Y50417D1*
X47904Y50320D1*
X47856Y50126D1*
X47808Y49980D1*
X47710Y49884D1*
X47613Y49835D1*
X47467D1*
X47371Y49884D1*
X47321Y49932D1*
X47273Y50078D1*
Y50272D1*
X47321Y50417D1*
X47371Y50466D1*
X47467Y50515D1*
X47613D1*
X47710Y50466D1*
X47808Y50369D1*
X47856Y50224D1*
X47904Y50030D1*
X47954Y49932D1*
X48050Y49884D1*
X48148D1*
X48245Y49932D1*
X48293Y50078D1*
Y50272D1*
Y49229D2*
X48245Y49375D1*
X48099Y49473D1*
X47856Y49521D1*
X47710D1*
X47467Y49473D1*
X47321Y49375D1*
X47273Y49229D1*
Y49133D1*
X47321Y48987D1*
X47467Y48890D1*
X47710Y48841D1*
X47856D1*
X48099Y48890D1*
X48245Y48987D1*
X48293Y49133D1*
Y49229D1*
X48099Y48890D2*
X47467Y49473D1*
X48099Y48527D2*
X48148Y48429D1*
X48293Y48283D1*
X47273D1*
X42382Y54994D2*
D91*
X42346Y55067D1*
X42273Y55140D1*
X42201Y55176D1*
X42055D1*
X41982Y55140D1*
X41909Y55067D1*
X41872Y54994D1*
X41836Y54885D1*
Y54702D1*
X41872Y54593D1*
X41909Y54520D1*
X41982Y54448D1*
X42055Y54411D1*
X42201D1*
X42273Y54448D1*
X42346Y54520D1*
X42382Y54593D1*
X42618Y55176D2*
Y54411D1*
X43128Y55176D2*
X42618Y54666D1*
X42800Y54849D2*
X43128Y54411D1*
X43363Y55176D2*
Y54411D1*
X42346Y53798D2*
X42274Y53871D1*
X42164Y53907D1*
X42019D1*
X41909Y53871D1*
X41836Y53798D1*
Y53725D1*
X41873Y53652D1*
X41909Y53616D1*
X41982Y53579D1*
X42201Y53506D1*
X42274Y53470D1*
X42310Y53433D1*
X42346Y53360D1*
Y53251D1*
X42274Y53178D1*
X42164Y53141D1*
X42019D1*
X41909Y53178D1*
X41836Y53251D1*
X42582Y53907D2*
Y53141D1*
X42837D1*
X42946Y53178D1*
X43020Y53251D1*
X43056Y53324D1*
X43092Y53433D1*
Y53616D1*
X43056Y53725D1*
X43020Y53798D1*
X42946Y53871D1*
X42837Y53907D1*
X42582D1*
X43327D2*
Y53141D1*
X41518Y52236D2*
X41847D1*
X41955Y52272D1*
X41992Y52309D1*
X42029Y52382D1*
Y52491D1*
X41992Y52564D1*
X41955Y52601D1*
X41847Y52637D1*
X41518D1*
Y51871D1*
X42483Y52637D2*
X42410Y52601D1*
X42337Y52527D1*
X42300Y52455D1*
X42264Y52345D1*
Y52163D1*
X42300Y52054D1*
X42337Y51981D1*
X42410Y51908D1*
X42483Y51871D1*
X42629D1*
X42701Y51908D1*
X42774Y51981D1*
X42811Y52054D1*
X42847Y52163D1*
Y52345D1*
X42811Y52455D1*
X42774Y52527D1*
X42701Y52601D1*
X42629Y52637D1*
X42483D1*
X43082D2*
Y51871D1*
X43519D1*
X41518Y51002D2*
X41846D1*
X41955Y51039D1*
X41992Y51075D1*
X42029Y51148D1*
Y51221D1*
X41992Y51293D1*
X41955Y51331D1*
X41846Y51367D1*
X41518D1*
Y50601D1*
X41773Y51002D2*
X42029Y50601D1*
X42738Y51367D2*
X42264D1*
Y50601D1*
Y51002D2*
X42555D1*
X42973Y51367D2*
Y50601D1*
X43302D1*
X43411Y50638D1*
X43448Y50674D1*
X43484Y50747D1*
Y50856D1*
X43448Y50930D1*
X43411Y50966D1*
X43302Y51002D1*
X43411Y51039D1*
X43448Y51075D1*
X43484Y51148D1*
Y51221D1*
X43448Y51293D1*
X43411Y51331D1*
X43302Y51367D1*
X42973D1*
Y51002D2*
X43302D1*
X42065Y49915D2*
X42029Y49987D1*
X41955Y50060D1*
X41883Y50097D1*
X41737D1*
X41664Y50060D1*
X41591Y49987D1*
X41554Y49915D1*
X41518Y49805D1*
Y49622D1*
X41554Y49514D1*
X41591Y49440D1*
X41664Y49368D1*
X41737Y49331D1*
X41883D1*
X41955Y49368D1*
X42029Y49440D1*
X42065Y49514D1*
Y49622D1*
X41883D1*
X42774Y50097D2*
X42300D1*
Y49331D1*
Y49732D2*
X42592D1*
X43010Y50097D2*
Y49331D1*
X43338D1*
X43448Y49368D1*
X43484Y49404D1*
X43520Y49477D1*
Y49586D1*
X43484Y49659D1*
X43448Y49696D1*
X43338Y49732D1*
X43448Y49769D1*
X43484Y49805D1*
X43520Y49878D1*
Y49951D1*
X43484Y50023D1*
X43448Y50060D1*
X43338Y50097D1*
X43010D1*
Y49732D2*
X43338D1*
X41577Y48826D2*
Y48061D1*
X41905D1*
X42015Y48098D1*
X42051Y48134D1*
X42087Y48207D1*
Y48316D1*
X42051Y48389D1*
X42015Y48426D1*
X41905Y48462D1*
X42015Y48499D1*
X42051Y48535D1*
X42087Y48607D1*
Y48681D1*
X42051Y48753D1*
X42015Y48790D1*
X41905Y48826D1*
X41577D1*
Y48462D2*
X41905D1*
X42797Y48826D2*
X42323D1*
Y48061D1*
Y48462D2*
X42614D1*
X43032Y48826D2*
Y48061D1*
X43361D1*
X43470Y48098D1*
X43506Y48134D1*
X43542Y48207D1*
Y48316D1*
X43506Y48389D1*
X43470Y48426D1*
X43361Y48462D1*
X43470Y48499D1*
X43506Y48535D1*
X43542Y48607D1*
Y48681D1*
X43506Y48753D1*
X43470Y48790D1*
X43361Y48826D1*
X43032D1*
Y48462D2*
X43361D1*
X42024Y47344D2*
X41988Y47417D1*
X41914Y47490D1*
X41842Y47526D1*
X41696D1*
X41623Y47490D1*
X41551Y47417D1*
X41513Y47344D1*
X41477Y47235D1*
Y47052D1*
X41513Y46943D1*
X41551Y46870D1*
X41623Y46798D1*
X41696Y46761D1*
X41842D1*
X41914Y46798D1*
X41988Y46870D1*
X42024Y46943D1*
Y47052D1*
X41842D1*
X42770Y47526D2*
Y46761D1*
X42259Y47526D1*
Y46761D1*
X43005Y47526D2*
Y46761D1*
X43260D1*
X43370Y46798D1*
X43443Y46870D1*
X43479Y46943D1*
X43515Y47052D1*
Y47235D1*
X43479Y47344D1*
X43443Y47417D1*
X43370Y47490D1*
X43260Y47526D1*
X43005D1*
X52137Y55277D2*
X52429Y54511D1*
X52720Y55277D1*
X53502Y55095D2*
X53466Y55167D1*
X53392Y55240D1*
X53320Y55277D1*
X53174D1*
X53101Y55240D1*
X53029Y55167D1*
X52992Y55095D1*
X52955Y54985D1*
Y54802D1*
X52992Y54694D1*
X53029Y54620D1*
X53101Y54548D1*
X53174Y54511D1*
X53320D1*
X53392Y54548D1*
X53466Y54620D1*
X53502Y54694D1*
X54284Y55095D2*
X54248Y55167D1*
X54174Y55240D1*
X54102Y55277D1*
X53956D1*
X53883Y55240D1*
X53811Y55167D1*
X53774Y55095D1*
X53737Y54985D1*
Y54802D1*
X53774Y54694D1*
X53811Y54620D1*
X53883Y54548D1*
X53956Y54511D1*
X54102D1*
X54174Y54548D1*
X54248Y54620D1*
X54284Y54694D1*
X52684Y53794D2*
X52648Y53867D1*
X52574Y53940D1*
X52502Y53976D1*
X52356D1*
X52283Y53940D1*
X52210Y53867D1*
X52173Y53794D1*
X52137Y53685D1*
Y53502D1*
X52173Y53394D1*
X52210Y53320D1*
X52283Y53248D1*
X52356Y53211D1*
X52502D1*
X52574Y53248D1*
X52648Y53320D1*
X52684Y53394D1*
X52919Y53976D2*
Y53211D1*
X53430Y53976D2*
X52919Y53466D1*
X53101Y53649D2*
X53430Y53211D1*
X53884Y53976D2*
X53811Y53940D1*
X53738Y53867D1*
X53701Y53794D1*
X53665Y53685D1*
Y53502D1*
X53701Y53394D1*
X53738Y53320D1*
X53811Y53248D1*
X53884Y53211D1*
X54030D1*
X54102Y53248D1*
X54175Y53320D1*
X54212Y53394D1*
X54248Y53502D1*
Y53685D1*
X54212Y53794D1*
X54175Y53867D1*
X54102Y53940D1*
X54030Y53976D1*
X53884D1*
X52648Y52567D2*
X52575Y52640D1*
X52466Y52676D1*
X52320D1*
X52210Y52640D1*
X52137Y52567D1*
Y52494D1*
X52174Y52421D1*
X52210Y52385D1*
X52283Y52348D1*
X52502Y52275D1*
X52575Y52239D1*
X52611Y52202D1*
X52648Y52129D1*
Y52020D1*
X52575Y51948D1*
X52466Y51910D1*
X52320D1*
X52210Y51948D1*
X52137Y52020D1*
X52883Y52676D2*
Y51910D1*
X53138D1*
X53248Y51948D1*
X53321Y52020D1*
X53357Y52093D1*
X53393Y52202D1*
Y52385D1*
X53357Y52494D1*
X53321Y52567D1*
X53248Y52640D1*
X53138Y52676D1*
X52883D1*
X53848D2*
X53774Y52640D1*
X53702Y52567D1*
X53665Y52494D1*
X53629Y52385D1*
Y52202D1*
X53665Y52093D1*
X53702Y52020D1*
X53774Y51948D1*
X53848Y51910D1*
X53993D1*
X54066Y51948D1*
X54139Y52020D1*
X54175Y52093D1*
X54212Y52202D1*
Y52385D1*
X54175Y52494D1*
X54139Y52567D1*
X54066Y52640D1*
X53993Y52676D1*
X53848D1*
X52648Y51377D2*
Y50611D1*
X52137Y51377D1*
Y50611D1*
X53430Y51195D2*
X53393Y51267D1*
X53320Y51341D1*
X53248Y51377D1*
X53102D1*
X53029Y51341D1*
X52956Y51267D1*
X52919Y51195D1*
X52883Y51085D1*
Y50903D1*
X52919Y50794D1*
X52956Y50721D1*
X53029Y50648D1*
X53102Y50611D1*
X53248D1*
X53320Y50648D1*
X53393Y50721D1*
X53430Y50794D1*
X52137Y49812D2*
X52465D1*
X52574Y49849D1*
X52611Y49885D1*
X52648Y49958D1*
Y50031D1*
X52611Y50104D1*
X52574Y50141D1*
X52465Y50177D1*
X52137D1*
Y49411D1*
X52392Y49812D2*
X52648Y49411D1*
X53102Y50177D2*
X53029Y50141D1*
X52956Y50067D1*
X52919Y49995D1*
X52883Y49885D1*
Y49703D1*
X52919Y49594D1*
X52956Y49521D1*
X53029Y49448D1*
X53102Y49411D1*
X53248D1*
X53320Y49448D1*
X53393Y49521D1*
X53430Y49594D1*
X53466Y49703D1*
Y49885D1*
X53430Y49995D1*
X53393Y50067D1*
X53320Y50141D1*
X53248Y50177D1*
X53102D1*
X53701D2*
Y49630D1*
X53737Y49521D1*
X53811Y49448D1*
X53920Y49411D1*
X53993D1*
X54102Y49448D1*
X54175Y49521D1*
X54212Y49630D1*
Y50177D1*
X54702D2*
Y49411D1*
X54447Y50177D2*
X54957D1*
X52684Y48695D2*
X52648Y48767D1*
X52574Y48840D1*
X52502Y48877D1*
X52356D1*
X52283Y48840D1*
X52210Y48767D1*
X52173Y48695D1*
X52137Y48585D1*
Y48402D1*
X52173Y48294D1*
X52210Y48220D1*
X52283Y48148D1*
X52356Y48111D1*
X52502D1*
X52574Y48148D1*
X52648Y48220D1*
X52684Y48294D1*
Y48402D1*
X52502D1*
X53138Y48877D2*
X53065Y48840D1*
X52992Y48767D1*
X52955Y48695D1*
X52919Y48585D1*
Y48402D1*
X52955Y48294D1*
X52992Y48220D1*
X53065Y48148D1*
X53138Y48111D1*
X53284D1*
X53356Y48148D1*
X53430Y48220D1*
X53466Y48294D1*
X53502Y48402D1*
Y48585D1*
X53466Y48695D1*
X53430Y48767D1*
X53356Y48840D1*
X53284Y48877D1*
X53138D1*
X53737D2*
Y48330D1*
X53774Y48220D1*
X53847Y48148D1*
X53956Y48111D1*
X54029D1*
X54138Y48148D1*
X54212Y48220D1*
X54248Y48330D1*
Y48877D1*
X54738D2*
Y48111D1*
X54483Y48877D2*
X54993D1*
X52137Y47576D2*
Y46811D1*
X52466D1*
X52575Y46848D1*
X52611Y46884D1*
X52648Y46956D1*
Y47066D1*
X52611Y47139D1*
X52575Y47175D1*
X52466Y47212D1*
X52575Y47249D1*
X52611Y47285D1*
X52648Y47357D1*
Y47431D1*
X52611Y47503D1*
X52575Y47540D1*
X52466Y47576D1*
X52137D1*
Y47212D2*
X52466D1*
X53102Y47576D2*
X53029Y47540D1*
X52956Y47467D1*
X52919Y47394D1*
X52883Y47285D1*
Y47102D1*
X52919Y46994D1*
X52956Y46920D1*
X53029Y46848D1*
X53102Y46811D1*
X53248D1*
X53320Y46848D1*
X53393Y46920D1*
X53430Y46994D1*
X53466Y47102D1*
Y47285D1*
X53430Y47394D1*
X53393Y47467D1*
X53320Y47540D1*
X53248Y47576D1*
X53102D1*
X53701D2*
Y47030D1*
X53737Y46920D1*
X53811Y46848D1*
X53920Y46811D1*
X53993D1*
X54102Y46848D1*
X54175Y46920D1*
X54212Y47030D1*
Y47576D1*
X54702D2*
Y46811D1*
X54447Y47576D2*
X54957D1*
X12562Y28282D2*
Y27625D1*
X12235Y27953D2*
X12891D1*
X13563Y28336D2*
X13199D1*
X13163Y28008D1*
X13199Y28044D1*
X13309Y28082D1*
X13417D1*
X13527Y28044D1*
X13600Y27972D1*
X13636Y27863D1*
Y27790D1*
X13600Y27681D1*
X13527Y27607D1*
X13417Y27571D1*
X13309D1*
X13199Y27607D1*
X13163Y27644D1*
X13126Y27717D1*
X13872Y28082D2*
X14091Y27571D1*
X14309Y28082D1*
X12086Y25583D2*
Y24927D1*
X11758Y25255D2*
X12414D1*
X12650Y25492D2*
X12723Y25529D1*
X12832Y25638D1*
Y24873D1*
X13105Y25456D2*
Y25492D1*
X13141Y25565D1*
X13177Y25602D1*
X13250Y25638D1*
X13396D1*
X13469Y25602D1*
X13505Y25565D1*
X13542Y25492D1*
Y25420D1*
X13505Y25346D1*
X13432Y25238D1*
X13068Y24873D1*
X13578D1*
X13813Y25383D2*
X14032Y24873D1*
X14251Y25383D1*
X12929Y23027D2*
X12893Y23099D1*
X12819Y23172D1*
X12747Y23209D1*
X12601D1*
X12528Y23172D1*
X12456Y23099D1*
X12419Y23027D1*
X12382Y22917D1*
Y22734D1*
X12419Y22626D1*
X12456Y22553D1*
X12528Y22480D1*
X12601Y22443D1*
X12747D1*
X12819Y22480D1*
X12893Y22553D1*
X12929Y22626D1*
Y22734D1*
X12747D1*
X13675Y23209D2*
Y22443D1*
X13164Y23209D1*
Y22443D1*
X13910Y23209D2*
Y22443D1*
X14165D1*
X14275Y22480D1*
X14348Y22553D1*
X14384Y22626D1*
X14420Y22734D1*
Y22917D1*
X14384Y23027D1*
X14348Y23099D1*
X14275Y23172D1*
X14165Y23209D1*
X13910D1*
X12907Y20534D2*
X12835Y20607D1*
X12725Y20643D1*
X12579D1*
X12470Y20607D1*
X12397Y20534D1*
Y20462D1*
X12434Y20388D1*
X12470Y20352D1*
X12542Y20316D1*
X12761Y20243D1*
X12835Y20206D1*
X12871Y20169D1*
X12907Y20097D1*
Y19987D1*
X12835Y19915D1*
X12725Y19878D1*
X12579D1*
X12470Y19915D1*
X12397Y19987D1*
X13142Y20643D2*
Y19878D1*
X13398D1*
X13507Y19915D1*
X13580Y19987D1*
X13617Y20061D1*
X13653Y20169D1*
Y20352D1*
X13617Y20462D1*
X13580Y20534D1*
X13507Y20607D1*
X13398Y20643D1*
X13142D1*
X14107D2*
X14034Y20607D1*
X13961Y20534D1*
X13924Y20462D1*
X13888Y20352D1*
Y20169D1*
X13924Y20061D1*
X13961Y19987D1*
X14034Y19915D1*
X14107Y19878D1*
X14253D1*
X14325Y19915D1*
X14398Y19987D1*
X14435Y20061D1*
X14471Y20169D1*
Y20352D1*
X14435Y20462D1*
X14398Y20534D1*
X14325Y20607D1*
X14253Y20643D1*
X14107D1*
X12960Y17974D2*
X12924Y18047D1*
X12851Y18120D1*
X12778Y18156D1*
X12633D1*
X12559Y18120D1*
X12487Y18047D1*
X12450Y17974D1*
X12414Y17865D1*
Y17682D1*
X12450Y17574D1*
X12487Y17500D1*
X12559Y17428D1*
X12633Y17391D1*
X12778D1*
X12851Y17428D1*
X12924Y17500D1*
X12960Y17574D1*
X13196Y18156D2*
Y17391D1*
X13633D1*
X13868Y18156D2*
Y17391D1*
X14379Y18156D2*
X13868Y17646D1*
X14050Y17829D2*
X14379Y17391D1*
M02*
