G04 DipTrace 2.4.0.1*
%INTopSilk.gbr*%
%MOMM*%
%ADD10C,0.25*%
%ADD12C,0.076*%
%ADD15C,0.635*%
%ADD76C,0.196*%
%ADD77C,0.157*%
%ADD78C,0.118*%
%ADD79C,0.235*%
%FSLAX53Y53*%
G04*
G71*
G90*
G75*
G01*
%LNTopSilk*%
%LPD*%
X58100Y42400D2*
D10*
X60100D1*
Y47400D1*
X58100D1*
Y42400D1*
X60640D2*
X62640D1*
Y47400D1*
X60640D1*
Y42400D1*
X63180D2*
X65180D1*
Y47400D1*
X63180D1*
Y42400D1*
X65720D2*
X67720D1*
Y47400D1*
X65720D1*
Y42400D1*
X68260D2*
X70260D1*
Y47400D1*
X68260D1*
Y42400D1*
X70800D2*
X72800D1*
Y47400D1*
X70800D1*
Y42400D1*
X68850Y57200D2*
X16350D1*
Y50200D1*
X68850D1*
Y57200D1*
X21000Y10000D2*
X36300D1*
Y27781D1*
X21000D1*
Y10000D1*
X38100D2*
X53400D1*
Y27781D1*
X38100D1*
Y10000D1*
X60430Y15592D2*
Y16608D1*
X68050Y15592D2*
Y16608D1*
X61062Y17370D2*
X67418D1*
X61062Y14830D2*
X67418D1*
X60430Y15465D2*
X61062Y14830D1*
X60430Y16735D2*
X61062Y17370D1*
X67418D2*
X68050Y16735D1*
X67418Y14830D2*
X68050Y15465D1*
X60430Y12692D2*
Y13708D1*
X68050Y12692D2*
Y13708D1*
X61062Y14470D2*
X67418D1*
X61062Y11930D2*
X67418D1*
X60430Y12565D2*
X61062Y11930D1*
X60430Y13835D2*
X61062Y14470D1*
X67418D2*
X68050Y13835D1*
X67418Y11930D2*
X68050Y12565D1*
X20921Y47850D2*
G02X17079Y47850I-1921J-1691D01*
G01*
X20921D1*
X27321D2*
G02X23479Y47850I-1921J-1691D01*
G01*
X27321D1*
X33721D2*
G02X29879Y47850I-1921J-1691D01*
G01*
X33721D1*
X40121D2*
G02X36279Y47850I-1921J-1691D01*
G01*
X40121D1*
X46521D2*
G02X42679Y47850I-1921J-1691D01*
G01*
X46521D1*
X52921D2*
G02X49079Y47850I-1921J-1691D01*
G01*
X52921D1*
X17730Y19985D2*
Y25055D1*
X20270D2*
X17730D1*
X20270Y19985D2*
Y25055D1*
Y19985D2*
X17730D1*
X56950Y13820D2*
X59450D1*
Y31620D1*
X56950D1*
Y13820D1*
X17100Y27200D2*
Y18600D1*
X16300D1*
Y27200D2*
X17100D1*
X13500D2*
X12700D1*
Y18600D1*
X13500D1*
X65760Y29540D2*
X68060D1*
Y20840D1*
X65760D1*
Y29540D1*
D15*
X66274Y29000D3*
X65660Y40040D2*
D10*
X67960D1*
Y31340D1*
X65660D1*
Y40040D1*
D15*
X66174Y39500D3*
X38320Y39510D2*
D10*
X57920D1*
Y34310D2*
Y39510D1*
X38320Y34310D2*
X57920D1*
X38320D2*
Y36310D1*
Y39510D2*
Y37510D1*
Y36310D2*
G03X38320Y37510I0J600D01*
G01*
X17020Y39610D2*
X36620D1*
Y34410D2*
Y39610D1*
X17020Y34410D2*
X36620D1*
X17020D2*
Y36410D1*
Y39610D2*
Y37610D1*
Y36410D2*
G03X17020Y37610I0J600D01*
G01*
G36*
X64000Y11300D2*
X67700D1*
Y11000D1*
X64000D1*
Y11300D1*
G37*
G36*
X60900Y17900D2*
X64600D1*
Y17600D1*
X60900D1*
Y17900D1*
G37*
G36*
Y18300D2*
X64600D1*
Y18000D1*
X60900D1*
Y18300D1*
G37*
G36*
X64000Y11700D2*
X67700D1*
Y11400D1*
X64000D1*
Y11700D1*
G37*
X17910Y52398D2*
D76*
Y51426D1*
X17850Y51244D1*
X17788Y51183D1*
X17667Y51122D1*
X17545D1*
X17424Y51183D1*
X17364Y51244D1*
X17302Y51426D1*
Y51547D1*
X18302Y52153D2*
X18424Y52215D1*
X18607Y52396D1*
Y51122D1*
X23032Y29632D2*
Y28660D1*
X22972Y28478D1*
X22910Y28418D1*
X22790Y28356D1*
X22667D1*
X22547Y28418D1*
X22486Y28478D1*
X22425Y28660D1*
Y28781D1*
X23486Y29327D2*
Y29388D1*
X23547Y29510D1*
X23607Y29570D1*
X23729Y29630D1*
X23972D1*
X24093Y29570D1*
X24153Y29510D1*
X24215Y29388D1*
Y29267D1*
X24153Y29145D1*
X24033Y28964D1*
X23425Y28356D1*
X24275D1*
X41132Y29632D2*
Y28660D1*
X41072Y28478D1*
X41010Y28418D1*
X40890Y28356D1*
X40767D1*
X40647Y28418D1*
X40586Y28478D1*
X40525Y28660D1*
Y28781D1*
X41647Y29630D2*
X42314D1*
X41950Y29145D1*
X42133D1*
X42253Y29084D1*
X42314Y29024D1*
X42375Y28842D1*
Y28721D1*
X42314Y28538D1*
X42193Y28416D1*
X42010Y28356D1*
X41828D1*
X41647Y28416D1*
X41586Y28478D1*
X41525Y28599D1*
X16770Y29232D2*
X16649Y29354D1*
X16467Y29414D1*
X16224D1*
X16041Y29354D1*
X15919Y29232D1*
Y29111D1*
X15981Y28989D1*
X16041Y28929D1*
X16162Y28868D1*
X16527Y28746D1*
X16649Y28686D1*
X16709Y28624D1*
X16770Y28503D1*
Y28321D1*
X16649Y28200D1*
X16467Y28138D1*
X16224D1*
X16041Y28200D1*
X15919Y28321D1*
X17162Y29170D2*
X17284Y29232D1*
X17467Y29413D1*
Y28138D1*
X63262Y30895D2*
Y29984D1*
X63323Y29801D1*
X63445Y29681D1*
X63627Y29619D1*
X63748D1*
X63931Y29681D1*
X64053Y29801D1*
X64113Y29984D1*
Y30895D1*
X64505Y30651D2*
X64627Y30712D1*
X64810Y30894D1*
Y29619D1*
X62989Y41436D2*
Y40525D1*
X63050Y40343D1*
X63172Y40222D1*
X63354Y40160D1*
X63475D1*
X63657Y40222D1*
X63780Y40343D1*
X63840Y40525D1*
Y41436D1*
X64294Y41132D2*
Y41192D1*
X64354Y41314D1*
X64415Y41374D1*
X64537Y41435D1*
X64780D1*
X64900Y41374D1*
X64961Y41314D1*
X65023Y41192D1*
Y41071D1*
X64961Y40949D1*
X64840Y40768D1*
X64232Y40160D1*
X65083D1*
X37286Y33760D2*
Y32849D1*
X37347Y32666D1*
X37469Y32545D1*
X37651Y32484D1*
X37772D1*
X37955Y32545D1*
X38077Y32666D1*
X38137Y32849D1*
Y33760D1*
X38652Y33758D2*
X39318D1*
X38955Y33273D1*
X39137D1*
X39258Y33212D1*
X39318Y33152D1*
X39380Y32969D1*
Y32849D1*
X39318Y32666D1*
X39198Y32544D1*
X39015Y32484D1*
X38833D1*
X38652Y32544D1*
X38591Y32606D1*
X38529Y32727D1*
X16115Y33801D2*
Y32890D1*
X16175Y32707D1*
X16298Y32587D1*
X16480Y32525D1*
X16601D1*
X16783Y32587D1*
X16905Y32707D1*
X16966Y32890D1*
Y33801D1*
X17966Y32525D2*
Y33800D1*
X17358Y32950D1*
X18269D1*
X66783Y44526D2*
D77*
Y44963D1*
X66733Y45109D1*
X66685Y45159D1*
X66589Y45207D1*
X66491D1*
X66394Y45159D1*
X66345Y45109D1*
X66297Y44963D1*
Y44526D1*
X67317D1*
X66783Y44867D2*
X67317Y45207D1*
X69063Y45171D2*
X68967Y45123D1*
X68869Y45025D1*
X68821Y44929D1*
Y44734D1*
X68869Y44637D1*
X68967Y44540D1*
X69063Y44491D1*
X69209Y44442D1*
X69453D1*
X69598Y44491D1*
X69696Y44540D1*
X69792Y44637D1*
X69842Y44734D1*
Y44929D1*
X69792Y45025D1*
X69696Y45123D1*
X69598Y45171D1*
X69453D1*
Y44929D1*
X71297Y44507D2*
X72317D1*
Y44945D1*
X72268Y45091D1*
X72220Y45139D1*
X72123Y45187D1*
X71977D1*
X71879Y45139D1*
X71831Y45091D1*
X71783Y44945D1*
X71733Y45091D1*
X71685Y45139D1*
X71589Y45187D1*
X71491D1*
X71394Y45139D1*
X71345Y45091D1*
X71297Y44945D1*
Y44507D1*
X71783D2*
Y44945D1*
X26353Y29483D2*
D76*
X26232Y29605D1*
X26049Y29665D1*
X25807D1*
X25624Y29605D1*
X25502Y29483D1*
Y29362D1*
X25564Y29240D1*
X25624Y29180D1*
X25745Y29119D1*
X26110Y28997D1*
X26232Y28937D1*
X26292Y28875D1*
X26353Y28754D1*
Y28572D1*
X26232Y28451D1*
X26049Y28389D1*
X25807D1*
X25624Y28451D1*
X25502Y28572D1*
X26745Y28997D2*
X27292D1*
X27473Y29057D1*
X27535Y29119D1*
X27596Y29240D1*
Y29422D1*
X27535Y29543D1*
X27473Y29605D1*
X27292Y29665D1*
X26745D1*
Y28389D1*
X27988Y29665D2*
Y28389D1*
X29614Y29665D2*
Y28389D1*
X30857Y29665D2*
Y28389D1*
X30007Y29665D1*
Y28389D1*
X44353Y29483D2*
X44232Y29605D1*
X44049Y29665D1*
X43807D1*
X43624Y29605D1*
X43502Y29483D1*
Y29362D1*
X43564Y29240D1*
X43624Y29180D1*
X43745Y29119D1*
X44110Y28997D1*
X44232Y28937D1*
X44292Y28875D1*
X44353Y28754D1*
Y28572D1*
X44232Y28451D1*
X44049Y28389D1*
X43807D1*
X43624Y28451D1*
X43502Y28572D1*
X44745Y28997D2*
X45292D1*
X45473Y29057D1*
X45535Y29119D1*
X45596Y29240D1*
Y29422D1*
X45535Y29543D1*
X45473Y29605D1*
X45292Y29665D1*
X44745D1*
Y28389D1*
X45988Y29665D2*
Y28389D1*
X47979Y29665D2*
X47857Y29605D1*
X47737Y29483D1*
X47675Y29362D1*
X47614Y29180D1*
Y28875D1*
X47675Y28694D1*
X47737Y28572D1*
X47857Y28451D1*
X47979Y28389D1*
X48222D1*
X48343Y28451D1*
X48465Y28572D1*
X48525Y28694D1*
X48586Y28875D1*
Y29180D1*
X48525Y29362D1*
X48465Y29483D1*
X48343Y29605D1*
X48222Y29665D1*
X47979D1*
X48978D2*
Y28754D1*
X49038Y28572D1*
X49160Y28451D1*
X49343Y28389D1*
X49464D1*
X49646Y28451D1*
X49768Y28572D1*
X49829Y28754D1*
Y29665D1*
X50646D2*
Y28389D1*
X50221Y29665D2*
X51072D1*
X10563Y29038D2*
D78*
Y28272D1*
X11308Y29038D2*
Y28272D1*
X10798Y29038D1*
Y28272D1*
X11544Y29038D2*
X11835Y28272D1*
X12127Y29038D1*
X12835D2*
X12362D1*
Y28272D1*
X12835D1*
X12362Y28673D2*
X12653D1*
X13071D2*
X13398D1*
X13508Y28710D1*
X13545Y28746D1*
X13581Y28819D1*
Y28892D1*
X13545Y28964D1*
X13508Y29001D1*
X13398Y29038D1*
X13071D1*
Y28272D1*
X13326Y28673D2*
X13581Y28272D1*
X14327Y28928D2*
X14254Y29001D1*
X14145Y29038D1*
X13999D1*
X13890Y29001D1*
X13816Y28928D1*
Y28856D1*
X13853Y28782D1*
X13890Y28746D1*
X13962Y28710D1*
X14181Y28637D1*
X14254Y28600D1*
X14291Y28563D1*
X14327Y28491D1*
Y28381D1*
X14254Y28309D1*
X14145Y28272D1*
X13999D1*
X13890Y28309D1*
X13816Y28381D1*
X15035Y29038D2*
X14562D1*
Y28272D1*
X15035D1*
X14562Y28673D2*
X14854D1*
X62143Y18826D2*
D12*
X62192Y18851D1*
X62265Y18923D1*
Y18413D1*
X62422Y18668D2*
X62703D1*
X63151Y18851D2*
X63127Y18899D1*
X63054Y18923D1*
X63005D1*
X62932Y18899D1*
X62884Y18826D1*
X62859Y18705D1*
Y18583D1*
X62884Y18486D1*
X62932Y18437D1*
X63005Y18413D1*
X63030D1*
X63102Y18437D1*
X63151Y18486D1*
X63175Y18559D1*
Y18583D1*
X63151Y18656D1*
X63102Y18705D1*
X63030Y18729D1*
X63005D1*
X62932Y18705D1*
X62884Y18656D1*
X62859Y18583D1*
X61073Y19928D2*
D78*
X61001Y20001D1*
X60891Y20038D1*
X60746D1*
X60636Y20001D1*
X60563Y19928D1*
Y19856D1*
X60600Y19782D1*
X60636Y19746D1*
X60708Y19710D1*
X60927Y19637D1*
X61001Y19600D1*
X61037Y19563D1*
X61073Y19491D1*
Y19381D1*
X61001Y19309D1*
X60891Y19272D1*
X60746D1*
X60636Y19309D1*
X60563Y19381D1*
X61782Y20038D2*
X61308D1*
Y19272D1*
X61782D1*
X61308Y19673D2*
X61600D1*
X62272Y20038D2*
Y19272D1*
X62017Y20038D2*
X62528D1*
X64014D2*
Y19272D1*
X63504Y20038D1*
Y19272D1*
X64468Y20038D2*
X64395Y20001D1*
X64323Y19928D1*
X64286Y19856D1*
X64249Y19746D1*
Y19563D1*
X64286Y19455D1*
X64323Y19381D1*
X64395Y19309D1*
X64468Y19272D1*
X64614D1*
X64686Y19309D1*
X64760Y19381D1*
X64796Y19455D1*
X64832Y19563D1*
Y19746D1*
X64796Y19856D1*
X64760Y19928D1*
X64686Y20001D1*
X64614Y20038D1*
X64468D1*
X65104Y19345D2*
X65067Y19308D1*
X65104Y19272D1*
X65141Y19308D1*
X65104Y19345D1*
X66336Y20038D2*
X66262Y20001D1*
X66190Y19928D1*
X66153Y19856D1*
X66117Y19746D1*
Y19563D1*
X66153Y19455D1*
X66190Y19381D1*
X66262Y19309D1*
X66336Y19272D1*
X66481D1*
X66554Y19309D1*
X66627Y19381D1*
X66663Y19455D1*
X66700Y19563D1*
Y19746D1*
X66663Y19856D1*
X66627Y19928D1*
X66554Y20001D1*
X66481Y20038D1*
X66336D1*
X67409D2*
X66935D1*
Y19272D1*
Y19673D2*
X67226D1*
X68385Y20038D2*
Y19272D1*
X68822D1*
X69531Y20038D2*
X69058D1*
Y19272D1*
X69531D1*
X69058Y19673D2*
X69349D1*
X69766Y20038D2*
Y19272D1*
X70021D1*
X70131Y19309D1*
X70204Y19381D1*
X70240Y19455D1*
X70277Y19563D1*
Y19746D1*
X70240Y19856D1*
X70204Y19928D1*
X70131Y20001D1*
X70021Y20038D1*
X69766D1*
X70913Y19673D2*
X70877Y19746D1*
X70767Y19782D1*
X70658D1*
X70548Y19746D1*
X70512Y19673D1*
X70548Y19600D1*
X70621Y19563D1*
X70803Y19527D1*
X70877Y19491D1*
X70913Y19418D1*
Y19381D1*
X70877Y19309D1*
X70767Y19272D1*
X70658D1*
X70548Y19309D1*
X70512Y19381D1*
X65343Y10726D2*
D12*
X65392Y10751D1*
X65465Y10823D1*
Y10313D1*
X65622Y10568D2*
X65903D1*
X66108Y10823D2*
X66375D1*
X66230Y10629D1*
X66303D1*
X66351Y10605D1*
X66375Y10581D1*
X66400Y10508D1*
Y10459D1*
X66375Y10386D1*
X66327Y10337D1*
X66254Y10313D1*
X66181D1*
X66108Y10337D1*
X66084Y10362D1*
X66059Y10410D1*
X68625Y15640D2*
D78*
X68552Y15604D1*
X68479Y15531D1*
X68443Y15458D1*
Y15312D1*
X68479Y15239D1*
X68552Y15167D1*
X68625Y15130D1*
X68734Y15093D1*
X68917D1*
X69025Y15130D1*
X69099Y15167D1*
X69171Y15239D1*
X69208Y15312D1*
Y15458D1*
X69171Y15531D1*
X69099Y15604D1*
X69025Y15640D1*
X68443Y15875D2*
X69208D1*
Y16313D1*
X68443Y16548D2*
X69208D1*
X68443Y17058D2*
X68953Y16548D1*
X68770Y16730D2*
X69208Y17058D1*
X68652Y12604D2*
X68579Y12531D1*
X68543Y12422D1*
Y12276D1*
X68579Y12167D1*
X68652Y12093D1*
X68725D1*
X68798Y12131D1*
X68834Y12167D1*
X68870Y12239D1*
X68944Y12458D1*
X68980Y12531D1*
X69017Y12568D1*
X69089Y12604D1*
X69199D1*
X69271Y12531D1*
X69308Y12422D1*
Y12276D1*
X69271Y12167D1*
X69199Y12093D1*
X68543Y12839D2*
X69308D1*
Y13094D1*
X69271Y13204D1*
X69199Y13277D1*
X69125Y13313D1*
X69017Y13350D1*
X68834D1*
X68725Y13313D1*
X68652Y13277D1*
X68579Y13204D1*
X68543Y13094D1*
Y12839D1*
Y13585D2*
X69308D1*
X10363Y17837D2*
X10691D1*
X10800Y17873D1*
X10837Y17910D1*
X10873Y17982D1*
Y18092D1*
X10837Y18164D1*
X10800Y18201D1*
X10691Y18238D1*
X10363D1*
Y17472D1*
X11692D2*
X11400Y18238D1*
X11108Y17472D1*
X11218Y17727D2*
X11583D1*
X12438Y18128D2*
X12366Y18201D1*
X12256Y18238D1*
X12110D1*
X12001Y18201D1*
X11928Y18128D1*
Y18056D1*
X11965Y17982D1*
X12001Y17946D1*
X12073Y17910D1*
X12292Y17837D1*
X12366Y17800D1*
X12402Y17763D1*
X12438Y17691D1*
Y17581D1*
X12366Y17509D1*
X12256Y17472D1*
X12110D1*
X12001Y17509D1*
X11928Y17581D1*
X13184Y18128D2*
X13111Y18201D1*
X13002Y18238D1*
X12856D1*
X12747Y18201D1*
X12673Y18128D1*
Y18056D1*
X12710Y17982D1*
X12747Y17946D1*
X12819Y17910D1*
X13038Y17837D1*
X13111Y17800D1*
X13147Y17763D1*
X13184Y17691D1*
Y17581D1*
X13111Y17509D1*
X13002Y17472D1*
X12856D1*
X12747Y17509D1*
X12673Y17581D1*
X57092Y12357D2*
D76*
X57638D1*
X57821Y12419D1*
X57882Y12479D1*
X57943Y12600D1*
Y12722D1*
X57882Y12843D1*
X57821Y12905D1*
X57638Y12965D1*
X57092D1*
Y11689D1*
X57517Y12357D2*
X57943Y11689D1*
X58397Y12660D2*
Y12721D1*
X58457Y12843D1*
X58517Y12903D1*
X58640Y12963D1*
X58882D1*
X59003Y12903D1*
X59064Y12843D1*
X59125Y12721D1*
Y12600D1*
X59064Y12478D1*
X58943Y12297D1*
X58335Y11689D1*
X59186D1*
X18978Y14984D2*
D77*
Y15421D1*
X18929Y15567D1*
X18881Y15616D1*
X18784Y15664D1*
X18686D1*
X18590Y15616D1*
X18540Y15567D1*
X18492Y15421D1*
Y14984D1*
X19513D1*
X18978Y15324D2*
X19513Y15664D1*
X18688Y15978D2*
X18638Y16076D1*
X18493Y16222D1*
X19513D1*
X19677Y21570D2*
X18657D1*
X19336Y21084D1*
Y21813D1*
X19579Y22175D2*
X19628Y22127D1*
X19677Y22175D1*
X19628Y22224D1*
X19579Y22175D1*
X19677Y22732D2*
X18657Y23219D1*
Y22538D1*
X18656Y23532D2*
X19677D1*
X18656Y24213D2*
X19336Y23532D1*
X19093Y23775D2*
X19677Y24213D1*
X19774Y49551D2*
X19678Y49504D1*
X19580Y49407D1*
X19532Y49309D1*
X19482Y49163D1*
Y48920D1*
X19532Y48774D1*
X19580Y48678D1*
X19678Y48580D1*
X19774Y48532D1*
X19969D1*
X20066Y48580D1*
X20163Y48678D1*
X20211Y48774D1*
X20261Y48920D1*
Y49163D1*
X20211Y49309D1*
X20163Y49407D1*
X20066Y49504D1*
X19969Y49551D1*
X19774D1*
X19920Y48726D2*
X20211Y48434D1*
X20574Y49356D2*
X20672Y49405D1*
X20818Y49550D1*
Y48531D1*
X25874Y49451D2*
X25778Y49404D1*
X25680Y49307D1*
X25632Y49209D1*
X25582Y49063D1*
Y48820D1*
X25632Y48674D1*
X25680Y48578D1*
X25778Y48480D1*
X25874Y48432D1*
X26069D1*
X26166Y48480D1*
X26263Y48578D1*
X26311Y48674D1*
X26361Y48820D1*
Y49063D1*
X26311Y49209D1*
X26263Y49307D1*
X26166Y49404D1*
X26069Y49451D1*
X25874D1*
X26020Y48626D2*
X26311Y48334D1*
X26724Y49208D2*
Y49256D1*
X26772Y49354D1*
X26820Y49402D1*
X26918Y49450D1*
X27112D1*
X27209Y49402D1*
X27257Y49354D1*
X27307Y49256D1*
Y49159D1*
X27257Y49062D1*
X27161Y48917D1*
X26674Y48431D1*
X27355D1*
X32274Y49351D2*
X32178Y49304D1*
X32080Y49207D1*
X32032Y49109D1*
X31982Y48963D1*
Y48720D1*
X32032Y48574D1*
X32080Y48478D1*
X32178Y48380D1*
X32274Y48332D1*
X32469D1*
X32566Y48380D1*
X32663Y48478D1*
X32711Y48574D1*
X32761Y48720D1*
Y48963D1*
X32711Y49109D1*
X32663Y49207D1*
X32566Y49304D1*
X32469Y49351D1*
X32274D1*
X32420Y48526D2*
X32711Y48234D1*
X33172Y49350D2*
X33706D1*
X33415Y48962D1*
X33561D1*
X33657Y48913D1*
X33706Y48865D1*
X33755Y48719D1*
Y48623D1*
X33706Y48477D1*
X33609Y48379D1*
X33463Y48331D1*
X33317D1*
X33172Y48379D1*
X33124Y48428D1*
X33074Y48525D1*
X38874Y49351D2*
X38778Y49304D1*
X38680Y49207D1*
X38632Y49109D1*
X38582Y48963D1*
Y48720D1*
X38632Y48574D1*
X38680Y48478D1*
X38778Y48380D1*
X38874Y48332D1*
X39069D1*
X39166Y48380D1*
X39263Y48478D1*
X39311Y48574D1*
X39361Y48720D1*
Y48963D1*
X39311Y49109D1*
X39263Y49207D1*
X39166Y49304D1*
X39069Y49351D1*
X38874D1*
X39020Y48526D2*
X39311Y48234D1*
X40161Y48331D2*
Y49350D1*
X39674Y48671D1*
X40403D1*
X45174Y49451D2*
X45078Y49404D1*
X44980Y49307D1*
X44932Y49209D1*
X44882Y49063D1*
Y48820D1*
X44932Y48674D1*
X44980Y48578D1*
X45078Y48480D1*
X45174Y48432D1*
X45369D1*
X45466Y48480D1*
X45563Y48578D1*
X45611Y48674D1*
X45661Y48820D1*
Y49063D1*
X45611Y49209D1*
X45563Y49307D1*
X45466Y49404D1*
X45369Y49451D1*
X45174D1*
X45320Y48626D2*
X45611Y48334D1*
X46557Y49450D2*
X46072D1*
X46024Y49013D1*
X46072Y49062D1*
X46218Y49111D1*
X46363D1*
X46509Y49062D1*
X46607Y48965D1*
X46655Y48819D1*
Y48723D1*
X46607Y48577D1*
X46509Y48479D1*
X46363Y48431D1*
X46218D1*
X46072Y48479D1*
X46024Y48528D1*
X45974Y48625D1*
X51574Y49451D2*
X51478Y49404D1*
X51380Y49307D1*
X51332Y49209D1*
X51282Y49063D1*
Y48820D1*
X51332Y48674D1*
X51380Y48578D1*
X51478Y48480D1*
X51574Y48432D1*
X51769D1*
X51866Y48480D1*
X51963Y48578D1*
X52011Y48674D1*
X52061Y48820D1*
Y49063D1*
X52011Y49209D1*
X51963Y49307D1*
X51866Y49404D1*
X51769Y49451D1*
X51574D1*
X51720Y48626D2*
X52011Y48334D1*
X52957Y49305D2*
X52909Y49402D1*
X52763Y49450D1*
X52666D1*
X52520Y49402D1*
X52423Y49256D1*
X52374Y49013D1*
Y48771D1*
X52423Y48577D1*
X52520Y48479D1*
X52666Y48431D1*
X52715D1*
X52860Y48479D1*
X52957Y48577D1*
X53006Y48723D1*
Y48771D1*
X52957Y48917D1*
X52860Y49013D1*
X52715Y49062D1*
X52666D1*
X52520Y49013D1*
X52423Y48917D1*
X52374Y48771D1*
X58563Y48438D2*
D78*
Y47672D1*
X58818D1*
X58927Y47709D1*
X59001Y47781D1*
X59037Y47855D1*
X59073Y47963D1*
Y48146D1*
X59037Y48256D1*
X59001Y48328D1*
X58927Y48401D1*
X58818Y48438D1*
X58563D1*
X59308Y48291D2*
X59382Y48328D1*
X59491Y48437D1*
Y47672D1*
X60963Y48438D2*
Y47672D1*
X61218D1*
X61327Y47709D1*
X61401Y47781D1*
X61437Y47855D1*
X61473Y47963D1*
Y48146D1*
X61437Y48256D1*
X61401Y48328D1*
X61327Y48401D1*
X61218Y48438D1*
X60963D1*
X61746Y48255D2*
Y48291D1*
X61782Y48364D1*
X61818Y48401D1*
X61891Y48437D1*
X62037D1*
X62109Y48401D1*
X62146Y48364D1*
X62183Y48291D1*
Y48219D1*
X62146Y48145D1*
X62073Y48037D1*
X61708Y47672D1*
X62219D1*
X63563Y48438D2*
Y47672D1*
X63818D1*
X63927Y47709D1*
X64001Y47781D1*
X64037Y47855D1*
X64073Y47963D1*
Y48146D1*
X64037Y48256D1*
X64001Y48328D1*
X63927Y48401D1*
X63818Y48438D1*
X63563D1*
X64382Y48437D2*
X64782D1*
X64564Y48145D1*
X64673D1*
X64746Y48109D1*
X64782Y48073D1*
X64819Y47963D1*
Y47891D1*
X64782Y47781D1*
X64709Y47708D1*
X64600Y47672D1*
X64490D1*
X64382Y47708D1*
X64346Y47745D1*
X64308Y47818D1*
X66163Y48438D2*
Y47672D1*
X66418D1*
X66527Y47709D1*
X66601Y47781D1*
X66637Y47855D1*
X66673Y47963D1*
Y48146D1*
X66637Y48256D1*
X66601Y48328D1*
X66527Y48401D1*
X66418Y48438D1*
X66163D1*
X67273Y47672D2*
Y48437D1*
X66908Y47927D1*
X67455D1*
X68763Y48438D2*
Y47672D1*
X69018D1*
X69127Y47709D1*
X69201Y47781D1*
X69237Y47855D1*
X69273Y47963D1*
Y48146D1*
X69237Y48256D1*
X69201Y48328D1*
X69127Y48401D1*
X69018Y48438D1*
X68763D1*
X69946Y48437D2*
X69582D1*
X69546Y48109D1*
X69582Y48145D1*
X69691Y48182D1*
X69800D1*
X69909Y48145D1*
X69983Y48073D1*
X70019Y47963D1*
Y47891D1*
X69983Y47781D1*
X69909Y47708D1*
X69800Y47672D1*
X69691D1*
X69582Y47708D1*
X69546Y47745D1*
X69508Y47818D1*
X71163Y48438D2*
Y47672D1*
X71418D1*
X71527Y47709D1*
X71601Y47781D1*
X71637Y47855D1*
X71673Y47963D1*
Y48146D1*
X71637Y48256D1*
X71601Y48328D1*
X71527Y48401D1*
X71418Y48438D1*
X71163D1*
X72346Y48328D2*
X72309Y48401D1*
X72200Y48437D1*
X72127D1*
X72018Y48401D1*
X71945Y48291D1*
X71908Y48109D1*
Y47927D1*
X71945Y47781D1*
X72018Y47708D1*
X72127Y47672D1*
X72164D1*
X72272Y47708D1*
X72346Y47781D1*
X72382Y47891D1*
Y47927D1*
X72346Y48037D1*
X72272Y48109D1*
X72164Y48145D1*
X72127D1*
X72018Y48109D1*
X71945Y48037D1*
X71908Y47927D1*
X59083Y44526D2*
D77*
Y44963D1*
X59033Y45109D1*
X58985Y45159D1*
X58889Y45207D1*
X58791D1*
X58694Y45159D1*
X58645Y45109D1*
X58597Y44963D1*
Y44526D1*
X59617D1*
X59083Y44867D2*
X59617Y45207D1*
X61463Y45271D2*
X61367Y45223D1*
X61269Y45125D1*
X61221Y45029D1*
Y44834D1*
X61269Y44737D1*
X61367Y44640D1*
X61463Y44591D1*
X61609Y44542D1*
X61853D1*
X61998Y44591D1*
X62096Y44640D1*
X62192Y44737D1*
X62242Y44834D1*
Y45029D1*
X62192Y45125D1*
X62096Y45223D1*
X61998Y45271D1*
X61853D1*
Y45029D1*
X63797Y44607D2*
X64817D1*
Y45045D1*
X64768Y45191D1*
X64720Y45239D1*
X64623Y45287D1*
X64477D1*
X64379Y45239D1*
X64331Y45191D1*
X64283Y45045D1*
X64233Y45191D1*
X64185Y45239D1*
X64089Y45287D1*
X63991D1*
X63894Y45239D1*
X63845Y45191D1*
X63797Y45045D1*
Y44607D1*
X64283D2*
Y45045D1*
X10518Y17138D2*
D78*
Y16372D1*
X10263Y17138D2*
X10773D1*
X11008D2*
Y16372D1*
X11519Y17138D2*
Y16372D1*
X11008Y16773D2*
X11519D1*
X11754D2*
X12082D1*
X12191Y16810D1*
X12228Y16846D1*
X12265Y16919D1*
Y16992D1*
X12228Y17064D1*
X12191Y17101D1*
X12082Y17138D1*
X11754D1*
Y16372D1*
X12009Y16773D2*
X12265Y16372D1*
X12719Y17138D2*
X12646Y17101D1*
X12573Y17028D1*
X12536Y16956D1*
X12500Y16846D1*
Y16663D1*
X12536Y16555D1*
X12573Y16481D1*
X12646Y16409D1*
X12719Y16372D1*
X12865D1*
X12937Y16409D1*
X13010Y16481D1*
X13047Y16555D1*
X13083Y16663D1*
Y16846D1*
X13047Y16956D1*
X13010Y17028D1*
X12937Y17101D1*
X12865Y17138D1*
X12719D1*
X13318D2*
Y16591D1*
X13354Y16481D1*
X13428Y16409D1*
X13537Y16372D1*
X13610D1*
X13719Y16409D1*
X13792Y16481D1*
X13829Y16591D1*
Y17138D1*
X14611Y16956D2*
X14574Y17028D1*
X14501Y17101D1*
X14429Y17138D1*
X14283D1*
X14210Y17101D1*
X14137Y17028D1*
X14100Y16956D1*
X14064Y16846D1*
Y16663D1*
X14100Y16555D1*
X14137Y16481D1*
X14210Y16409D1*
X14283Y16372D1*
X14429D1*
X14501Y16409D1*
X14574Y16481D1*
X14611Y16555D1*
Y16663D1*
X14429D1*
X14846Y17138D2*
Y16372D1*
X15356Y17138D2*
Y16372D1*
X14846Y16773D2*
X15356D1*
X18009Y58568D2*
D77*
X18106Y58618D1*
X18252Y58762D1*
Y57743D1*
X19003Y58690D2*
Y57815D1*
X18566Y58252D2*
X19441D1*
X20975Y58533D2*
X21073Y58582D1*
X21219Y58727D1*
Y57708D1*
X21532Y58217D2*
X22094D1*
X24358Y58486D2*
Y58534D1*
X24406Y58632D1*
X24455Y58680D1*
X24552Y58728D1*
X24747D1*
X24843Y58680D1*
X24892Y58632D1*
X24941Y58534D1*
Y58437D1*
X24892Y58340D1*
X24795Y58195D1*
X24309Y57709D1*
X24989D1*
X25740Y58656D2*
Y57781D1*
X25303Y58218D2*
X26178D1*
X27970Y58552D2*
Y58601D1*
X28018Y58698D1*
X28067Y58747D1*
X28164Y58795D1*
X28359D1*
X28455Y58747D1*
X28504Y58698D1*
X28553Y58601D1*
Y58504D1*
X28504Y58406D1*
X28407Y58261D1*
X27921Y57775D1*
X28601D1*
X28915Y58285D2*
X29477D1*
X31394Y58659D2*
X31928D1*
X31637Y58270D1*
X31783D1*
X31879Y58222D1*
X31928Y58174D1*
X31977Y58028D1*
Y57931D1*
X31928Y57785D1*
X31831Y57687D1*
X31685Y57639D1*
X31539D1*
X31394Y57687D1*
X31346Y57737D1*
X31296Y57833D1*
X32728Y58587D2*
Y57712D1*
X32291Y58149D2*
X33166D1*
X35106Y58744D2*
X35639D1*
X35348Y58355D1*
X35494D1*
X35591Y58307D1*
X35639Y58258D1*
X35689Y58112D1*
Y58016D1*
X35639Y57870D1*
X35543Y57772D1*
X35397Y57724D1*
X35251D1*
X35106Y57772D1*
X35058Y57822D1*
X35008Y57918D1*
X36002Y58234D2*
X36564D1*
X38849Y57713D2*
Y58733D1*
X38363Y58053D1*
X39092D1*
X39842Y58660D2*
Y57785D1*
X39406Y58222D2*
X40280D1*
X42456Y57835D2*
Y58855D1*
X41970Y58176D1*
X42699D1*
X43012Y58345D2*
X43574D1*
X45955Y58765D2*
X45469D1*
X45421Y58328D1*
X45469Y58377D1*
X45615Y58426D1*
X45760D1*
X45906Y58377D1*
X46004Y58280D1*
X46052Y58134D1*
Y58037D1*
X46004Y57891D1*
X45906Y57794D1*
X45760Y57745D1*
X45615D1*
X45469Y57794D1*
X45421Y57843D1*
X45372Y57940D1*
X46803Y58693D2*
Y57818D1*
X46366Y58255D2*
X47241D1*
X49703Y58674D2*
X49218D1*
X49170Y58237D1*
X49218Y58286D1*
X49364Y58335D1*
X49509D1*
X49655Y58286D1*
X49752Y58189D1*
X49801Y58043D1*
Y57947D1*
X49752Y57801D1*
X49655Y57703D1*
X49509Y57655D1*
X49364D1*
X49218Y57703D1*
X49170Y57752D1*
X49120Y57849D1*
X50114Y58164D2*
X50676D1*
X52953Y58546D2*
X52905Y58643D1*
X52759Y58691D1*
X52662D1*
X52516Y58643D1*
X52418Y58497D1*
X52370Y58254D1*
Y58012D1*
X52418Y57818D1*
X52516Y57720D1*
X52662Y57672D1*
X52710D1*
X52855Y57720D1*
X52953Y57818D1*
X53001Y57964D1*
Y58012D1*
X52953Y58158D1*
X52855Y58254D1*
X52710Y58303D1*
X52662D1*
X52516Y58254D1*
X52418Y58158D1*
X52370Y58012D1*
X53752Y58619D2*
Y57744D1*
X53315Y58181D2*
X54190D1*
X56565Y58634D2*
X56517Y58730D1*
X56371Y58779D1*
X56274D1*
X56128Y58730D1*
X56030Y58584D1*
X55982Y58342D1*
Y58099D1*
X56030Y57905D1*
X56128Y57807D1*
X56274Y57759D1*
X56322D1*
X56467Y57807D1*
X56565Y57905D1*
X56613Y58051D1*
Y58099D1*
X56565Y58245D1*
X56467Y58342D1*
X56322Y58390D1*
X56274D1*
X56128Y58342D1*
X56030Y58245D1*
X55982Y58099D1*
X56927Y58269D2*
X57488D1*
X59358Y58611D2*
X59455Y58661D1*
X59601Y58806D1*
Y57786D1*
X59965Y58563D2*
Y58611D1*
X60013Y58709D1*
X60061Y58757D1*
X60159Y58806D1*
X60353D1*
X60450Y58757D1*
X60498Y58709D1*
X60547Y58611D1*
Y58515D1*
X60498Y58417D1*
X60401Y58272D1*
X59915Y57786D1*
X60596D1*
X60909Y58807D2*
X61298Y57786D1*
X61687Y58807D1*
X63405Y58562D2*
X63356Y58658D1*
X63259Y58756D1*
X63162Y58804D1*
X62968D1*
X62870Y58756D1*
X62773Y58658D1*
X62724Y58562D1*
X62676Y58416D1*
Y58172D1*
X62724Y58027D1*
X62773Y57929D1*
X62870Y57833D1*
X62968Y57783D1*
X63162D1*
X63259Y57833D1*
X63356Y57929D1*
X63405Y58027D1*
Y58172D1*
X63162D1*
X64399Y58804D2*
Y57783D1*
X63718Y58804D1*
Y57783D1*
X64713Y58804D2*
Y57783D1*
X65053D1*
X65199Y57833D1*
X65297Y57929D1*
X65345Y58027D1*
X65393Y58172D1*
Y58416D1*
X65345Y58562D1*
X65297Y58658D1*
X65199Y58756D1*
X65053Y58804D1*
X64713D1*
X67238Y58719D2*
X66753D1*
X66705Y58282D1*
X66753Y58331D1*
X66899Y58380D1*
X67044D1*
X67190Y58331D1*
X67287Y58234D1*
X67336Y58088D1*
Y57992D1*
X67287Y57846D1*
X67190Y57748D1*
X67044Y57700D1*
X66899D1*
X66753Y57748D1*
X66705Y57797D1*
X66655Y57894D1*
X67649Y58720D2*
X68038Y57700D1*
X68427Y58720D1*
X13762Y51281D2*
D78*
Y50625D1*
X13435Y50953D2*
X14091D1*
X14763Y51336D2*
X14399D1*
X14363Y51008D1*
X14399Y51044D1*
X14509Y51081D1*
X14618D1*
X14727Y51044D1*
X14800Y50972D1*
X14837Y50862D1*
Y50790D1*
X14800Y50681D1*
X14727Y50607D1*
X14618Y50571D1*
X14509D1*
X14399Y50607D1*
X14363Y50644D1*
X14326Y50717D1*
X15072Y51081D2*
X15291Y50571D1*
X15509Y51081D1*
X13786Y48684D2*
Y48028D1*
X13458Y48356D2*
X14114D1*
X14349Y48593D2*
X14423Y48630D1*
X14532Y48738D1*
Y47974D1*
X14805Y48556D2*
Y48593D1*
X14841Y48666D1*
X14877Y48702D1*
X14950Y48738D1*
X15096D1*
X15169Y48702D1*
X15205Y48666D1*
X15242Y48593D1*
Y48520D1*
X15205Y48447D1*
X15132Y48338D1*
X14768Y47974D1*
X15278D1*
X15513Y48484D2*
X15732Y47974D1*
X15950Y48484D1*
X14129Y53726D2*
X14093Y53799D1*
X14020Y53872D1*
X13947Y53908D1*
X13801D1*
X13728Y53872D1*
X13656Y53799D1*
X13619Y53726D1*
X13582Y53617D1*
Y53434D1*
X13619Y53325D1*
X13656Y53252D1*
X13728Y53180D1*
X13801Y53143D1*
X13947D1*
X14020Y53180D1*
X14093Y53252D1*
X14129Y53325D1*
Y53434D1*
X13947D1*
X14875Y53908D2*
Y53143D1*
X14364Y53908D1*
Y53143D1*
X15110Y53908D2*
Y53143D1*
X15365D1*
X15475Y53180D1*
X15548Y53252D1*
X15584Y53325D1*
X15621Y53434D1*
Y53617D1*
X15584Y53726D1*
X15548Y53799D1*
X15475Y53872D1*
X15365Y53908D1*
X15110D1*
X14107Y58834D2*
X14034Y58908D1*
X13925Y58944D1*
X13779D1*
X13670Y58908D1*
X13596Y58834D1*
Y58762D1*
X13634Y58689D1*
X13670Y58652D1*
X13742Y58616D1*
X13961Y58543D1*
X14034Y58507D1*
X14071Y58470D1*
X14107Y58397D1*
Y58288D1*
X14034Y58215D1*
X13925Y58178D1*
X13779D1*
X13670Y58215D1*
X13596Y58288D1*
X14342Y58944D2*
Y58178D1*
X14597D1*
X14707Y58215D1*
X14780Y58288D1*
X14816Y58361D1*
X14853Y58470D1*
Y58652D1*
X14816Y58762D1*
X14780Y58834D1*
X14707Y58908D1*
X14597Y58944D1*
X14342D1*
X15088D2*
Y58178D1*
X14161Y56175D2*
X14124Y56247D1*
X14051Y56321D1*
X13979Y56357D1*
X13833D1*
X13760Y56321D1*
X13687Y56247D1*
X13650Y56175D1*
X13614Y56065D1*
Y55883D1*
X13650Y55774D1*
X13687Y55701D1*
X13760Y55628D1*
X13833Y55591D1*
X13979D1*
X14051Y55628D1*
X14124Y55701D1*
X14161Y55774D1*
X14396Y56357D2*
Y55591D1*
X14833D1*
X15068Y56357D2*
Y55591D1*
X15579Y56357D2*
X15068Y55846D1*
X15250Y56029D2*
X15579Y55591D1*
X67394Y27990D2*
D77*
X66373Y27746D1*
X67394Y27503D1*
X66373Y27261D1*
X67394Y27017D1*
X67248Y26023D2*
X67346Y26119D1*
X67394Y26265D1*
Y26460D1*
X67346Y26606D1*
X67248Y26703D1*
X67151D1*
X67054Y26654D1*
X67005Y26606D1*
X66957Y26509D1*
X66859Y26217D1*
X66811Y26119D1*
X66762Y26071D1*
X66665Y26023D1*
X66519D1*
X66423Y26119D1*
X66373Y26265D1*
Y26460D1*
X66423Y26606D1*
X66519Y26703D1*
X67150Y25660D2*
X67199D1*
X67296Y25611D1*
X67345Y25563D1*
X67393Y25465D1*
Y25271D1*
X67345Y25174D1*
X67296Y25126D1*
X67199Y25077D1*
X67102D1*
X67004Y25126D1*
X66859Y25223D1*
X66373Y25709D1*
Y25028D1*
X67393Y24472D2*
X67345Y24617D1*
X67248Y24666D1*
X67150D1*
X67054Y24617D1*
X67004Y24520D1*
X66956Y24326D1*
X66908Y24180D1*
X66810Y24084D1*
X66713Y24035D1*
X66567D1*
X66471Y24084D1*
X66421Y24132D1*
X66373Y24278D1*
Y24472D1*
X66421Y24617D1*
X66471Y24666D1*
X66567Y24715D1*
X66713D1*
X66810Y24666D1*
X66908Y24569D1*
X66956Y24424D1*
X67004Y24230D1*
X67054Y24132D1*
X67150Y24084D1*
X67248D1*
X67345Y24132D1*
X67393Y24278D1*
Y24472D1*
Y23429D2*
X67345Y23575D1*
X67199Y23673D1*
X66956Y23721D1*
X66810D1*
X66567Y23673D1*
X66421Y23575D1*
X66373Y23429D1*
Y23333D1*
X66421Y23187D1*
X66567Y23090D1*
X66810Y23041D1*
X66956D1*
X67199Y23090D1*
X67345Y23187D1*
X67393Y23333D1*
Y23429D1*
X67199Y23090D2*
X66567Y23673D1*
X67199Y22727D2*
X67248Y22629D1*
X67393Y22483D1*
X66373D1*
X61482Y29194D2*
D78*
X61446Y29267D1*
X61373Y29340D1*
X61301Y29376D1*
X61155D1*
X61082Y29340D1*
X61009Y29267D1*
X60972Y29194D1*
X60936Y29085D1*
Y28902D1*
X60972Y28793D1*
X61009Y28720D1*
X61082Y28648D1*
X61155Y28611D1*
X61301D1*
X61373Y28648D1*
X61446Y28720D1*
X61482Y28793D1*
X61718Y29376D2*
Y28611D1*
X62228Y29376D2*
X61718Y28866D1*
X61900Y29049D2*
X62228Y28611D1*
X62463Y29376D2*
Y28611D1*
X61446Y27998D2*
X61374Y28071D1*
X61264Y28107D1*
X61119D1*
X61009Y28071D1*
X60936Y27998D1*
Y27925D1*
X60973Y27852D1*
X61009Y27816D1*
X61082Y27779D1*
X61301Y27706D1*
X61374Y27670D1*
X61410Y27633D1*
X61446Y27560D1*
Y27451D1*
X61374Y27378D1*
X61264Y27341D1*
X61119D1*
X61009Y27378D1*
X60936Y27451D1*
X61682Y28107D2*
Y27341D1*
X61937D1*
X62046Y27378D1*
X62120Y27451D1*
X62156Y27524D1*
X62192Y27633D1*
Y27816D1*
X62156Y27925D1*
X62120Y27998D1*
X62046Y28071D1*
X61937Y28107D1*
X61682D1*
X62427D2*
Y27341D1*
X60618Y26436D2*
X60947D1*
X61055Y26472D1*
X61092Y26509D1*
X61129Y26582D1*
Y26691D1*
X61092Y26764D1*
X61055Y26801D1*
X60947Y26837D1*
X60618D1*
Y26071D1*
X61583Y26837D2*
X61510Y26801D1*
X61437Y26727D1*
X61400Y26655D1*
X61364Y26545D1*
Y26363D1*
X61400Y26254D1*
X61437Y26181D1*
X61510Y26108D1*
X61583Y26071D1*
X61729D1*
X61801Y26108D1*
X61874Y26181D1*
X61911Y26254D1*
X61947Y26363D1*
Y26545D1*
X61911Y26655D1*
X61874Y26727D1*
X61801Y26801D1*
X61729Y26837D1*
X61583D1*
X62182D2*
Y26071D1*
X62619D1*
X60618Y25202D2*
X60946D1*
X61055Y25239D1*
X61092Y25275D1*
X61129Y25348D1*
Y25421D1*
X61092Y25493D1*
X61055Y25531D1*
X60946Y25567D1*
X60618D1*
Y24801D1*
X60873Y25202D2*
X61129Y24801D1*
X61838Y25567D2*
X61364D1*
Y24801D1*
Y25202D2*
X61655D1*
X62073Y25567D2*
Y24801D1*
X62402D1*
X62511Y24838D1*
X62548Y24874D1*
X62584Y24947D1*
Y25056D1*
X62548Y25130D1*
X62511Y25166D1*
X62402Y25202D1*
X62511Y25239D1*
X62548Y25275D1*
X62584Y25348D1*
Y25421D1*
X62548Y25493D1*
X62511Y25531D1*
X62402Y25567D1*
X62073D1*
Y25202D2*
X62402D1*
X61165Y24115D2*
X61129Y24187D1*
X61055Y24260D1*
X60983Y24297D1*
X60837D1*
X60764Y24260D1*
X60691Y24187D1*
X60654Y24115D1*
X60618Y24005D1*
Y23822D1*
X60654Y23714D1*
X60691Y23640D1*
X60764Y23568D1*
X60837Y23531D1*
X60983D1*
X61055Y23568D1*
X61129Y23640D1*
X61165Y23714D1*
Y23822D1*
X60983D1*
X61874Y24297D2*
X61400D1*
Y23531D1*
Y23932D2*
X61692D1*
X62110Y24297D2*
Y23531D1*
X62438D1*
X62548Y23568D1*
X62584Y23604D1*
X62620Y23677D1*
Y23786D1*
X62584Y23859D1*
X62548Y23896D1*
X62438Y23932D1*
X62548Y23969D1*
X62584Y24005D1*
X62620Y24078D1*
Y24151D1*
X62584Y24223D1*
X62548Y24260D1*
X62438Y24297D1*
X62110D1*
Y23932D2*
X62438D1*
X60677Y23026D2*
Y22261D1*
X61005D1*
X61115Y22298D1*
X61151Y22334D1*
X61187Y22407D1*
Y22516D1*
X61151Y22589D1*
X61115Y22626D1*
X61005Y22662D1*
X61115Y22699D1*
X61151Y22735D1*
X61187Y22807D1*
Y22881D1*
X61151Y22953D1*
X61115Y22990D1*
X61005Y23026D1*
X60677D1*
Y22662D2*
X61005D1*
X61897Y23026D2*
X61423D1*
Y22261D1*
Y22662D2*
X61714D1*
X62132Y23026D2*
Y22261D1*
X62461D1*
X62570Y22298D1*
X62606Y22334D1*
X62642Y22407D1*
Y22516D1*
X62606Y22589D1*
X62570Y22626D1*
X62461Y22662D1*
X62570Y22699D1*
X62606Y22735D1*
X62642Y22807D1*
Y22881D1*
X62606Y22953D1*
X62570Y22990D1*
X62461Y23026D1*
X62132D1*
Y22662D2*
X62461D1*
X61124Y21544D2*
X61088Y21617D1*
X61014Y21690D1*
X60942Y21726D1*
X60796D1*
X60723Y21690D1*
X60651Y21617D1*
X60613Y21544D1*
X60577Y21435D1*
Y21252D1*
X60613Y21143D1*
X60651Y21070D1*
X60723Y20998D1*
X60796Y20961D1*
X60942D1*
X61014Y20998D1*
X61088Y21070D1*
X61124Y21143D1*
Y21252D1*
X60942D1*
X61870Y21726D2*
Y20961D1*
X61359Y21726D1*
Y20961D1*
X62105Y21726D2*
Y20961D1*
X62360D1*
X62470Y20998D1*
X62543Y21070D1*
X62579Y21143D1*
X62615Y21252D1*
Y21435D1*
X62579Y21544D1*
X62543Y21617D1*
X62470Y21690D1*
X62360Y21726D1*
X62105D1*
X71237Y29477D2*
X71529Y28711D1*
X71820Y29477D1*
X72602Y29295D2*
X72566Y29367D1*
X72492Y29440D1*
X72420Y29477D1*
X72274D1*
X72201Y29440D1*
X72129Y29367D1*
X72092Y29295D1*
X72055Y29185D1*
Y29002D1*
X72092Y28894D1*
X72129Y28820D1*
X72201Y28748D1*
X72274Y28711D1*
X72420D1*
X72492Y28748D1*
X72566Y28820D1*
X72602Y28894D1*
X73384Y29295D2*
X73348Y29367D1*
X73274Y29440D1*
X73202Y29477D1*
X73056D1*
X72983Y29440D1*
X72911Y29367D1*
X72874Y29295D1*
X72837Y29185D1*
Y29002D1*
X72874Y28894D1*
X72911Y28820D1*
X72983Y28748D1*
X73056Y28711D1*
X73202D1*
X73274Y28748D1*
X73348Y28820D1*
X73384Y28894D1*
X71784Y27994D2*
X71748Y28067D1*
X71674Y28140D1*
X71602Y28176D1*
X71456D1*
X71383Y28140D1*
X71310Y28067D1*
X71273Y27994D1*
X71237Y27885D1*
Y27702D1*
X71273Y27594D1*
X71310Y27520D1*
X71383Y27448D1*
X71456Y27411D1*
X71602D1*
X71674Y27448D1*
X71748Y27520D1*
X71784Y27594D1*
X72019Y28176D2*
Y27411D1*
X72530Y28176D2*
X72019Y27666D1*
X72201Y27849D2*
X72530Y27411D1*
X72984Y28176D2*
X72911Y28140D1*
X72838Y28067D1*
X72801Y27994D1*
X72765Y27885D1*
Y27702D1*
X72801Y27594D1*
X72838Y27520D1*
X72911Y27448D1*
X72984Y27411D1*
X73130D1*
X73202Y27448D1*
X73275Y27520D1*
X73312Y27594D1*
X73348Y27702D1*
Y27885D1*
X73312Y27994D1*
X73275Y28067D1*
X73202Y28140D1*
X73130Y28176D1*
X72984D1*
X71748Y26767D2*
X71675Y26840D1*
X71566Y26876D1*
X71420D1*
X71310Y26840D1*
X71237Y26767D1*
Y26694D1*
X71274Y26621D1*
X71310Y26585D1*
X71383Y26548D1*
X71602Y26475D1*
X71675Y26439D1*
X71711Y26402D1*
X71748Y26329D1*
Y26220D1*
X71675Y26148D1*
X71566Y26110D1*
X71420D1*
X71310Y26148D1*
X71237Y26220D1*
X71983Y26876D2*
Y26110D1*
X72238D1*
X72348Y26148D1*
X72421Y26220D1*
X72457Y26293D1*
X72493Y26402D1*
Y26585D1*
X72457Y26694D1*
X72421Y26767D1*
X72348Y26840D1*
X72238Y26876D1*
X71983D1*
X72948D2*
X72874Y26840D1*
X72802Y26767D1*
X72765Y26694D1*
X72729Y26585D1*
Y26402D1*
X72765Y26293D1*
X72802Y26220D1*
X72874Y26148D1*
X72948Y26110D1*
X73093D1*
X73166Y26148D1*
X73239Y26220D1*
X73275Y26293D1*
X73312Y26402D1*
Y26585D1*
X73275Y26694D1*
X73239Y26767D1*
X73166Y26840D1*
X73093Y26876D1*
X72948D1*
X71748Y25577D2*
Y24811D1*
X71237Y25577D1*
Y24811D1*
X72530Y25395D2*
X72493Y25467D1*
X72420Y25541D1*
X72348Y25577D1*
X72202D1*
X72129Y25541D1*
X72056Y25467D1*
X72019Y25395D1*
X71983Y25285D1*
Y25103D1*
X72019Y24994D1*
X72056Y24921D1*
X72129Y24848D1*
X72202Y24811D1*
X72348D1*
X72420Y24848D1*
X72493Y24921D1*
X72530Y24994D1*
X71237Y24012D2*
X71565D1*
X71674Y24049D1*
X71711Y24085D1*
X71748Y24158D1*
Y24231D1*
X71711Y24304D1*
X71674Y24341D1*
X71565Y24377D1*
X71237D1*
Y23611D1*
X71492Y24012D2*
X71748Y23611D1*
X72202Y24377D2*
X72129Y24341D1*
X72056Y24267D1*
X72019Y24195D1*
X71983Y24085D1*
Y23903D1*
X72019Y23794D1*
X72056Y23721D1*
X72129Y23648D1*
X72202Y23611D1*
X72348D1*
X72420Y23648D1*
X72493Y23721D1*
X72530Y23794D1*
X72566Y23903D1*
Y24085D1*
X72530Y24195D1*
X72493Y24267D1*
X72420Y24341D1*
X72348Y24377D1*
X72202D1*
X72801D2*
Y23830D1*
X72837Y23721D1*
X72911Y23648D1*
X73020Y23611D1*
X73093D1*
X73202Y23648D1*
X73275Y23721D1*
X73312Y23830D1*
Y24377D1*
X73802D2*
Y23611D1*
X73547Y24377D2*
X74057D1*
X71784Y22895D2*
X71748Y22967D1*
X71674Y23040D1*
X71602Y23077D1*
X71456D1*
X71383Y23040D1*
X71310Y22967D1*
X71273Y22895D1*
X71237Y22785D1*
Y22602D1*
X71273Y22494D1*
X71310Y22420D1*
X71383Y22348D1*
X71456Y22311D1*
X71602D1*
X71674Y22348D1*
X71748Y22420D1*
X71784Y22494D1*
Y22602D1*
X71602D1*
X72238Y23077D2*
X72165Y23040D1*
X72092Y22967D1*
X72055Y22895D1*
X72019Y22785D1*
Y22602D1*
X72055Y22494D1*
X72092Y22420D1*
X72165Y22348D1*
X72238Y22311D1*
X72384D1*
X72456Y22348D1*
X72530Y22420D1*
X72566Y22494D1*
X72602Y22602D1*
Y22785D1*
X72566Y22895D1*
X72530Y22967D1*
X72456Y23040D1*
X72384Y23077D1*
X72238D1*
X72837D2*
Y22530D1*
X72874Y22420D1*
X72947Y22348D1*
X73056Y22311D1*
X73129D1*
X73238Y22348D1*
X73312Y22420D1*
X73348Y22530D1*
Y23077D1*
X73838D2*
Y22311D1*
X73583Y23077D2*
X74093D1*
X71237Y21776D2*
Y21011D1*
X71566D1*
X71675Y21048D1*
X71711Y21084D1*
X71748Y21156D1*
Y21266D1*
X71711Y21339D1*
X71675Y21375D1*
X71566Y21412D1*
X71675Y21449D1*
X71711Y21485D1*
X71748Y21557D1*
Y21631D1*
X71711Y21703D1*
X71675Y21740D1*
X71566Y21776D1*
X71237D1*
Y21412D2*
X71566D1*
X72202Y21776D2*
X72129Y21740D1*
X72056Y21667D1*
X72019Y21594D1*
X71983Y21485D1*
Y21302D1*
X72019Y21194D1*
X72056Y21120D1*
X72129Y21048D1*
X72202Y21011D1*
X72348D1*
X72420Y21048D1*
X72493Y21120D1*
X72530Y21194D1*
X72566Y21302D1*
Y21485D1*
X72530Y21594D1*
X72493Y21667D1*
X72420Y21740D1*
X72348Y21776D1*
X72202D1*
X72801D2*
Y21230D1*
X72837Y21120D1*
X72911Y21048D1*
X73020Y21011D1*
X73093D1*
X73202Y21048D1*
X73275Y21120D1*
X73312Y21230D1*
Y21776D1*
X73802D2*
Y21011D1*
X73547Y21776D2*
X74057D1*
X67294Y38490D2*
D77*
X66273Y38246D1*
X67294Y38003D1*
X66273Y37761D1*
X67294Y37517D1*
X67148Y36523D2*
X67246Y36619D1*
X67294Y36765D1*
Y36960D1*
X67246Y37106D1*
X67148Y37203D1*
X67051D1*
X66954Y37154D1*
X66905Y37106D1*
X66857Y37009D1*
X66759Y36717D1*
X66711Y36619D1*
X66662Y36571D1*
X66565Y36523D1*
X66419D1*
X66323Y36619D1*
X66273Y36765D1*
Y36960D1*
X66323Y37106D1*
X66419Y37203D1*
X67050Y36160D2*
X67099D1*
X67196Y36111D1*
X67245Y36063D1*
X67293Y35965D1*
Y35771D1*
X67245Y35674D1*
X67196Y35626D1*
X67099Y35577D1*
X67002D1*
X66904Y35626D1*
X66759Y35723D1*
X66273Y36209D1*
Y35528D1*
X67293Y34972D2*
X67245Y35117D1*
X67148Y35166D1*
X67050D1*
X66954Y35117D1*
X66904Y35020D1*
X66856Y34826D1*
X66808Y34680D1*
X66710Y34584D1*
X66613Y34535D1*
X66467D1*
X66371Y34584D1*
X66321Y34632D1*
X66273Y34778D1*
Y34972D1*
X66321Y35117D1*
X66371Y35166D1*
X66467Y35215D1*
X66613D1*
X66710Y35166D1*
X66808Y35069D1*
X66856Y34924D1*
X66904Y34730D1*
X66954Y34632D1*
X67050Y34584D1*
X67148D1*
X67245Y34632D1*
X67293Y34778D1*
Y34972D1*
Y33929D2*
X67245Y34075D1*
X67099Y34173D1*
X66856Y34221D1*
X66710D1*
X66467Y34173D1*
X66321Y34075D1*
X66273Y33929D1*
Y33833D1*
X66321Y33687D1*
X66467Y33590D1*
X66710Y33541D1*
X66856D1*
X67099Y33590D1*
X67245Y33687D1*
X67293Y33833D1*
Y33929D1*
X67099Y33590D2*
X66467Y34173D1*
X67099Y33227D2*
X67148Y33129D1*
X67293Y32983D1*
X66273D1*
X61382Y39694D2*
D78*
X61346Y39767D1*
X61273Y39840D1*
X61201Y39876D1*
X61055D1*
X60982Y39840D1*
X60909Y39767D1*
X60872Y39694D1*
X60836Y39585D1*
Y39402D1*
X60872Y39293D1*
X60909Y39220D1*
X60982Y39148D1*
X61055Y39111D1*
X61201D1*
X61273Y39148D1*
X61346Y39220D1*
X61382Y39293D1*
X61618Y39876D2*
Y39111D1*
X62128Y39876D2*
X61618Y39366D1*
X61800Y39549D2*
X62128Y39111D1*
X62363Y39876D2*
Y39111D1*
X61346Y38498D2*
X61274Y38571D1*
X61164Y38607D1*
X61019D1*
X60909Y38571D1*
X60836Y38498D1*
Y38425D1*
X60873Y38352D1*
X60909Y38316D1*
X60982Y38279D1*
X61201Y38206D1*
X61274Y38170D1*
X61310Y38133D1*
X61346Y38060D1*
Y37951D1*
X61274Y37878D1*
X61164Y37841D1*
X61019D1*
X60909Y37878D1*
X60836Y37951D1*
X61582Y38607D2*
Y37841D1*
X61837D1*
X61946Y37878D1*
X62020Y37951D1*
X62056Y38024D1*
X62092Y38133D1*
Y38316D1*
X62056Y38425D1*
X62020Y38498D1*
X61946Y38571D1*
X61837Y38607D1*
X61582D1*
X62327D2*
Y37841D1*
X60518Y36936D2*
X60847D1*
X60955Y36972D1*
X60992Y37009D1*
X61029Y37082D1*
Y37191D1*
X60992Y37264D1*
X60955Y37301D1*
X60847Y37337D1*
X60518D1*
Y36571D1*
X61483Y37337D2*
X61410Y37301D1*
X61337Y37227D1*
X61300Y37155D1*
X61264Y37045D1*
Y36863D1*
X61300Y36754D1*
X61337Y36681D1*
X61410Y36608D1*
X61483Y36571D1*
X61629D1*
X61701Y36608D1*
X61774Y36681D1*
X61811Y36754D1*
X61847Y36863D1*
Y37045D1*
X61811Y37155D1*
X61774Y37227D1*
X61701Y37301D1*
X61629Y37337D1*
X61483D1*
X62082D2*
Y36571D1*
X62519D1*
X60518Y35702D2*
X60846D1*
X60955Y35739D1*
X60992Y35775D1*
X61029Y35848D1*
Y35921D1*
X60992Y35993D1*
X60955Y36031D1*
X60846Y36067D1*
X60518D1*
Y35301D1*
X60773Y35702D2*
X61029Y35301D1*
X61738Y36067D2*
X61264D1*
Y35301D1*
Y35702D2*
X61555D1*
X61973Y36067D2*
Y35301D1*
X62302D1*
X62411Y35338D1*
X62448Y35374D1*
X62484Y35447D1*
Y35556D1*
X62448Y35630D1*
X62411Y35666D1*
X62302Y35702D1*
X62411Y35739D1*
X62448Y35775D1*
X62484Y35848D1*
Y35921D1*
X62448Y35993D1*
X62411Y36031D1*
X62302Y36067D1*
X61973D1*
Y35702D2*
X62302D1*
X61065Y34615D2*
X61029Y34687D1*
X60955Y34760D1*
X60883Y34797D1*
X60737D1*
X60664Y34760D1*
X60591Y34687D1*
X60554Y34615D1*
X60518Y34505D1*
Y34322D1*
X60554Y34214D1*
X60591Y34140D1*
X60664Y34068D1*
X60737Y34031D1*
X60883D1*
X60955Y34068D1*
X61029Y34140D1*
X61065Y34214D1*
Y34322D1*
X60883D1*
X61774Y34797D2*
X61300D1*
Y34031D1*
Y34432D2*
X61592D1*
X62010Y34797D2*
Y34031D1*
X62338D1*
X62448Y34068D1*
X62484Y34104D1*
X62520Y34177D1*
Y34286D1*
X62484Y34359D1*
X62448Y34396D1*
X62338Y34432D1*
X62448Y34469D1*
X62484Y34505D1*
X62520Y34578D1*
Y34651D1*
X62484Y34723D1*
X62448Y34760D1*
X62338Y34797D1*
X62010D1*
Y34432D2*
X62338D1*
X60577Y33526D2*
Y32761D1*
X60905D1*
X61015Y32798D1*
X61051Y32834D1*
X61087Y32907D1*
Y33016D1*
X61051Y33089D1*
X61015Y33126D1*
X60905Y33162D1*
X61015Y33199D1*
X61051Y33235D1*
X61087Y33307D1*
Y33381D1*
X61051Y33453D1*
X61015Y33490D1*
X60905Y33526D1*
X60577D1*
Y33162D2*
X60905D1*
X61797Y33526D2*
X61323D1*
Y32761D1*
Y33162D2*
X61614D1*
X62032Y33526D2*
Y32761D1*
X62361D1*
X62470Y32798D1*
X62506Y32834D1*
X62542Y32907D1*
Y33016D1*
X62506Y33089D1*
X62470Y33126D1*
X62361Y33162D1*
X62470Y33199D1*
X62506Y33235D1*
X62542Y33307D1*
Y33381D1*
X62506Y33453D1*
X62470Y33490D1*
X62361Y33526D1*
X62032D1*
Y33162D2*
X62361D1*
X61024Y32044D2*
X60988Y32117D1*
X60914Y32190D1*
X60842Y32226D1*
X60696D1*
X60623Y32190D1*
X60551Y32117D1*
X60513Y32044D1*
X60477Y31935D1*
Y31752D1*
X60513Y31643D1*
X60551Y31570D1*
X60623Y31498D1*
X60696Y31461D1*
X60842D1*
X60914Y31498D1*
X60988Y31570D1*
X61024Y31643D1*
Y31752D1*
X60842D1*
X61770Y32226D2*
Y31461D1*
X61259Y32226D1*
Y31461D1*
X62005Y32226D2*
Y31461D1*
X62260D1*
X62370Y31498D1*
X62443Y31570D1*
X62479Y31643D1*
X62515Y31752D1*
Y31935D1*
X62479Y32044D1*
X62443Y32117D1*
X62370Y32190D1*
X62260Y32226D1*
X62005D1*
X71137Y39977D2*
X71429Y39211D1*
X71720Y39977D1*
X72502Y39795D2*
X72466Y39867D1*
X72392Y39940D1*
X72320Y39977D1*
X72174D1*
X72101Y39940D1*
X72029Y39867D1*
X71992Y39795D1*
X71955Y39685D1*
Y39502D1*
X71992Y39394D1*
X72029Y39320D1*
X72101Y39248D1*
X72174Y39211D1*
X72320D1*
X72392Y39248D1*
X72466Y39320D1*
X72502Y39394D1*
X73284Y39795D2*
X73248Y39867D1*
X73174Y39940D1*
X73102Y39977D1*
X72956D1*
X72883Y39940D1*
X72811Y39867D1*
X72774Y39795D1*
X72737Y39685D1*
Y39502D1*
X72774Y39394D1*
X72811Y39320D1*
X72883Y39248D1*
X72956Y39211D1*
X73102D1*
X73174Y39248D1*
X73248Y39320D1*
X73284Y39394D1*
X71684Y38494D2*
X71648Y38567D1*
X71574Y38640D1*
X71502Y38676D1*
X71356D1*
X71283Y38640D1*
X71210Y38567D1*
X71173Y38494D1*
X71137Y38385D1*
Y38202D1*
X71173Y38094D1*
X71210Y38020D1*
X71283Y37948D1*
X71356Y37911D1*
X71502D1*
X71574Y37948D1*
X71648Y38020D1*
X71684Y38094D1*
X71919Y38676D2*
Y37911D1*
X72430Y38676D2*
X71919Y38166D1*
X72101Y38349D2*
X72430Y37911D1*
X72884Y38676D2*
X72811Y38640D1*
X72738Y38567D1*
X72701Y38494D1*
X72665Y38385D1*
Y38202D1*
X72701Y38094D1*
X72738Y38020D1*
X72811Y37948D1*
X72884Y37911D1*
X73030D1*
X73102Y37948D1*
X73175Y38020D1*
X73212Y38094D1*
X73248Y38202D1*
Y38385D1*
X73212Y38494D1*
X73175Y38567D1*
X73102Y38640D1*
X73030Y38676D1*
X72884D1*
X71648Y37267D2*
X71575Y37340D1*
X71466Y37376D1*
X71320D1*
X71210Y37340D1*
X71137Y37267D1*
Y37194D1*
X71174Y37121D1*
X71210Y37085D1*
X71283Y37048D1*
X71502Y36975D1*
X71575Y36939D1*
X71611Y36902D1*
X71648Y36829D1*
Y36720D1*
X71575Y36648D1*
X71466Y36610D1*
X71320D1*
X71210Y36648D1*
X71137Y36720D1*
X71883Y37376D2*
Y36610D1*
X72138D1*
X72248Y36648D1*
X72321Y36720D1*
X72357Y36793D1*
X72393Y36902D1*
Y37085D1*
X72357Y37194D1*
X72321Y37267D1*
X72248Y37340D1*
X72138Y37376D1*
X71883D1*
X72848D2*
X72774Y37340D1*
X72702Y37267D1*
X72665Y37194D1*
X72629Y37085D1*
Y36902D1*
X72665Y36793D1*
X72702Y36720D1*
X72774Y36648D1*
X72848Y36610D1*
X72993D1*
X73066Y36648D1*
X73139Y36720D1*
X73175Y36793D1*
X73212Y36902D1*
Y37085D1*
X73175Y37194D1*
X73139Y37267D1*
X73066Y37340D1*
X72993Y37376D1*
X72848D1*
X71648Y36077D2*
Y35311D1*
X71137Y36077D1*
Y35311D1*
X72430Y35895D2*
X72393Y35967D1*
X72320Y36041D1*
X72248Y36077D1*
X72102D1*
X72029Y36041D1*
X71956Y35967D1*
X71919Y35895D1*
X71883Y35785D1*
Y35603D1*
X71919Y35494D1*
X71956Y35421D1*
X72029Y35348D1*
X72102Y35311D1*
X72248D1*
X72320Y35348D1*
X72393Y35421D1*
X72430Y35494D1*
X71137Y34512D2*
X71465D1*
X71574Y34549D1*
X71611Y34585D1*
X71648Y34658D1*
Y34731D1*
X71611Y34804D1*
X71574Y34841D1*
X71465Y34877D1*
X71137D1*
Y34111D1*
X71392Y34512D2*
X71648Y34111D1*
X72102Y34877D2*
X72029Y34841D1*
X71956Y34767D1*
X71919Y34695D1*
X71883Y34585D1*
Y34403D1*
X71919Y34294D1*
X71956Y34221D1*
X72029Y34148D1*
X72102Y34111D1*
X72248D1*
X72320Y34148D1*
X72393Y34221D1*
X72430Y34294D1*
X72466Y34403D1*
Y34585D1*
X72430Y34695D1*
X72393Y34767D1*
X72320Y34841D1*
X72248Y34877D1*
X72102D1*
X72701D2*
Y34330D1*
X72737Y34221D1*
X72811Y34148D1*
X72920Y34111D1*
X72993D1*
X73102Y34148D1*
X73175Y34221D1*
X73212Y34330D1*
Y34877D1*
X73702D2*
Y34111D1*
X73447Y34877D2*
X73957D1*
X71684Y33395D2*
X71648Y33467D1*
X71574Y33540D1*
X71502Y33577D1*
X71356D1*
X71283Y33540D1*
X71210Y33467D1*
X71173Y33395D1*
X71137Y33285D1*
Y33102D1*
X71173Y32994D1*
X71210Y32920D1*
X71283Y32848D1*
X71356Y32811D1*
X71502D1*
X71574Y32848D1*
X71648Y32920D1*
X71684Y32994D1*
Y33102D1*
X71502D1*
X72138Y33577D2*
X72065Y33540D1*
X71992Y33467D1*
X71955Y33395D1*
X71919Y33285D1*
Y33102D1*
X71955Y32994D1*
X71992Y32920D1*
X72065Y32848D1*
X72138Y32811D1*
X72284D1*
X72356Y32848D1*
X72430Y32920D1*
X72466Y32994D1*
X72502Y33102D1*
Y33285D1*
X72466Y33395D1*
X72430Y33467D1*
X72356Y33540D1*
X72284Y33577D1*
X72138D1*
X72737D2*
Y33030D1*
X72774Y32920D1*
X72847Y32848D1*
X72956Y32811D1*
X73029D1*
X73138Y32848D1*
X73212Y32920D1*
X73248Y33030D1*
Y33577D1*
X73738D2*
Y32811D1*
X73483Y33577D2*
X73993D1*
X71137Y32276D2*
Y31511D1*
X71466D1*
X71575Y31548D1*
X71611Y31584D1*
X71648Y31656D1*
Y31766D1*
X71611Y31839D1*
X71575Y31875D1*
X71466Y31912D1*
X71575Y31949D1*
X71611Y31985D1*
X71648Y32057D1*
Y32131D1*
X71611Y32203D1*
X71575Y32240D1*
X71466Y32276D1*
X71137D1*
Y31912D2*
X71466D1*
X72102Y32276D2*
X72029Y32240D1*
X71956Y32167D1*
X71919Y32094D1*
X71883Y31985D1*
Y31802D1*
X71919Y31694D1*
X71956Y31620D1*
X72029Y31548D1*
X72102Y31511D1*
X72248D1*
X72320Y31548D1*
X72393Y31620D1*
X72430Y31694D1*
X72466Y31802D1*
Y31985D1*
X72430Y32094D1*
X72393Y32167D1*
X72320Y32240D1*
X72248Y32276D1*
X72102D1*
X72701D2*
Y31730D1*
X72737Y31620D1*
X72811Y31548D1*
X72920Y31511D1*
X72993D1*
X73102Y31548D1*
X73175Y31620D1*
X73212Y31730D1*
Y32276D1*
X73702D2*
Y31511D1*
X73447Y32276D2*
X73957D1*
X42277Y36180D2*
D79*
X43006Y37709D1*
X41985D1*
X44206Y36180D2*
Y37709D1*
X43477Y36690D1*
X44570D1*
X45404Y37709D2*
X45187Y37637D1*
X45113Y37492D1*
Y37345D1*
X45187Y37201D1*
X45332Y37126D1*
X45623Y37054D1*
X45842Y36982D1*
X45987Y36835D1*
X46060Y36690D1*
Y36471D1*
X45987Y36326D1*
X45915Y36252D1*
X45696Y36180D1*
X45404D1*
X45187Y36252D1*
X45113Y36326D1*
X45041Y36471D1*
Y36690D1*
X45113Y36835D1*
X45260Y36982D1*
X45477Y37054D1*
X45768Y37126D1*
X45915Y37201D1*
X45987Y37345D1*
Y37492D1*
X45915Y37637D1*
X45696Y37709D1*
X45404D1*
X47405Y37492D2*
X47332Y37637D1*
X47113Y37709D1*
X46968D1*
X46749Y37637D1*
X46603Y37418D1*
X46530Y37054D1*
Y36690D1*
X46603Y36399D1*
X46749Y36252D1*
X46968Y36180D1*
X47041D1*
X47258Y36252D1*
X47405Y36399D1*
X47477Y36618D1*
Y36690D1*
X47405Y36909D1*
X47258Y37054D1*
X47041Y37126D1*
X46968D1*
X46749Y37054D1*
X46603Y36909D1*
X46530Y36690D1*
X49429Y37711D2*
X50450Y36180D1*
Y37711D2*
X49429Y36180D1*
X51359Y37711D2*
X51212Y37639D1*
X51067Y37492D1*
X50993Y37347D1*
X50921Y37128D1*
Y36763D1*
X50993Y36545D1*
X51067Y36399D1*
X51212Y36254D1*
X51359Y36180D1*
X51650D1*
X51795Y36254D1*
X51941Y36399D1*
X52014Y36545D1*
X52086Y36763D1*
Y37128D1*
X52014Y37347D1*
X51941Y37492D1*
X51795Y37639D1*
X51650Y37711D1*
X51359D1*
X52557Y36982D2*
X53212D1*
X53431Y37056D1*
X53505Y37128D1*
X53578Y37273D1*
Y37420D1*
X53505Y37564D1*
X53431Y37639D1*
X53212Y37711D1*
X52557D1*
Y36180D1*
X53067Y36982D2*
X53578Y36180D1*
X20977Y36280D2*
X21706Y37809D1*
X20685D1*
X22906Y36280D2*
Y37809D1*
X22177Y36790D1*
X23270D1*
X24104Y37809D2*
X23887Y37737D1*
X23813Y37592D1*
Y37445D1*
X23887Y37301D1*
X24032Y37226D1*
X24323Y37154D1*
X24542Y37082D1*
X24687Y36935D1*
X24760Y36790D1*
Y36571D1*
X24687Y36426D1*
X24615Y36352D1*
X24396Y36280D1*
X24104D1*
X23887Y36352D1*
X23813Y36426D1*
X23741Y36571D1*
Y36790D1*
X23813Y36935D1*
X23960Y37082D1*
X24177Y37154D1*
X24468Y37226D1*
X24615Y37301D1*
X24687Y37445D1*
Y37592D1*
X24615Y37737D1*
X24396Y37809D1*
X24104D1*
X26105Y37592D2*
X26032Y37737D1*
X25813Y37809D1*
X25668D1*
X25449Y37737D1*
X25303Y37518D1*
X25230Y37154D1*
Y36790D1*
X25303Y36499D1*
X25449Y36352D1*
X25668Y36280D1*
X25741D1*
X25958Y36352D1*
X26105Y36499D1*
X26177Y36718D1*
Y36790D1*
X26105Y37009D1*
X25958Y37154D1*
X25741Y37226D1*
X25668D1*
X25449Y37154D1*
X25303Y37009D1*
X25230Y36790D1*
X28129Y37811D2*
X29150Y36280D1*
Y37811D2*
X28129Y36280D1*
X30059Y37811D2*
X29912Y37739D1*
X29767Y37592D1*
X29693Y37447D1*
X29621Y37228D1*
Y36863D1*
X29693Y36645D1*
X29767Y36499D1*
X29912Y36354D1*
X30059Y36280D1*
X30350D1*
X30495Y36354D1*
X30641Y36499D1*
X30714Y36645D1*
X30786Y36863D1*
Y37228D1*
X30714Y37447D1*
X30641Y37592D1*
X30495Y37739D1*
X30350Y37811D1*
X30059D1*
X31257Y37082D2*
X31912D1*
X32131Y37156D1*
X32205Y37228D1*
X32278Y37373D1*
Y37520D1*
X32205Y37664D1*
X32131Y37739D1*
X31912Y37811D1*
X31257D1*
Y36280D1*
X31767Y37082D2*
X32278Y36280D1*
M02*
